<?xml version="1.0" standalone="no"?>
<!DOCTYPE svg PUBLIC "-//W3C//DTD SVG 1.1//EN" "http://www.w3.org/Graphics/SVG/1.1/DTD/svg11.dtd" >
<svg xmlns="http://www.w3.org/2000/svg">
<metadata></metadata>
<defs>
<font id="sentbolditalbold_italic" horiz-adv-x="1505" >
<font-face units-per-em="2048" ascent="1638" descent="-410" />
<missing-glyph horiz-adv-x="356" />
<glyph horiz-adv-x="0" />
<glyph unicode="&#xd;" horiz-adv-x="356" />
<glyph horiz-adv-x="0" />
<glyph horiz-adv-x="0" />
<glyph unicode=" "  horiz-adv-x="356" />
<glyph unicode="&#x09;" horiz-adv-x="356" />
<glyph unicode="&#xa0;" horiz-adv-x="356" />
<glyph unicode="!" horiz-adv-x="616" d="M59 117q0 37 12.5 69.5t37 58t58.5 41t75 15.5q72 0 118 -43t48 -111q0 -35 -12.5 -67.5t-37 -58t-58.5 -41t-75 -15.5q-72 0 -118 43t-48 109zM223 428q23 156 37 316.5t33 361.5q6 61 15 114.5t29.5 93.5t57.5 63.5t99 23.5q86 0 137 -46t51 -114q0 -55 -25.5 -121.5 t-72.5 -181.5q-53 -131 -107.5 -257t-118.5 -280z" />
<glyph unicode="&#x22;" horiz-adv-x="921" d="M190 852l119 289q49 121 90 176t107 55q59 0 102 -39t43 -96q0 -29 -11 -54.5t-34.5 -56t-61.5 -70.5t-93 -95l-166 -168zM616 852l119 289q49 121 90 176t107 55q59 0 102 -39t43 -96q0 -29 -11 -54.5t-34.5 -56t-61.5 -70.5t-93 -95l-166 -168z" />
<glyph unicode="#" horiz-adv-x="1366" d="M39 303l33 160h260l98 364h-278l32 160h289l102 379l177 -18l-97 -361h275l102 379l176 -18l-96 -361h250l-33 -160h-260l-96 -364h276l-32 -160h-287l-105 -395l-178 18l101 377h-277l-104 -395l-179 18l101 377h-250zM514 463h277l96 364h-275z" />
<glyph unicode="$" horiz-adv-x="1142" d="M12 299q0 35 11.5 67.5t33 58.5t52 41t69.5 15q63 0 107.5 -40t44.5 -99q0 -39 -19.5 -76t-52.5 -57q39 -47 148 -72l100 408q-70 29 -128.5 60.5t-101.5 70.5t-66.5 90t-23.5 119q0 92 40 168.5t108.5 131t161 85t198.5 33.5l39 159l154 -18l-39 -154q74 -12 134 -37.5 t105.5 -61.5t70 -80t24.5 -93q0 -72 -42 -126t-118 -54q-66 0 -108 37.5t-42 97.5q0 39 18.5 73.5t47.5 57.5q-12 16 -43 34.5t-78 30.5l-98 -399q74 -31 137.5 -63.5t108.5 -73.5t70.5 -94.5t25.5 -124.5q0 -88 -35 -164t-100.5 -131.5t-158.5 -87t-212 -31.5h-27l-47 -186 l-151 18l45 182q-78 14 -144.5 41t-114.5 63t-76 82t-28 99zM457 989q0 -59 32.5 -96t92.5 -66l88 353q-109 -10 -161 -65.5t-52 -125.5zM553 123q135 2 189.5 56t54.5 132q0 63 -43 103.5t-111 72.5z" />
<glyph unicode="%" horiz-adv-x="1644" d="M86 825q0 86 35 170t94 150.5t138 107.5t169 41q135 0 207 -80q102 -35 209 -34q129 0 250 43t225 133l94 -82l-1175 -1342l-127 101l997 1095l-6 7q-66 -47 -148.5 -70t-158.5 -23q-51 0 -101 7v-2q0 -78 -30.5 -166t-87 -162t-133 -123t-168.5 -49q-129 0 -206 71.5 t-77 206.5zM307 776q0 -59 25.5 -84.5t66.5 -25.5q51 0 98.5 37.5t83 96t57 125t21.5 126.5q0 23 -2 32q-68 29 -125 78q-45 -14 -85.5 -56t-71.5 -97.5t-49.5 -118t-18.5 -113.5zM909 252q0 86 35 170t94.5 150.5t138 107.5t169.5 41q119 0 192.5 -63.5t73.5 -186.5 q0 -78 -31 -166t-87 -161.5t-133 -123t-169 -49.5q-129 0 -206 73t-77 208zM1130 201q0 -59 26 -85t67 -26q51 0 98 38t83 96.5t57.5 125t21.5 125.5t-24.5 88t-65.5 29q-51 0 -98.5 -40t-84 -98.5t-58.5 -127t-22 -125.5z" />
<glyph unicode="&#x26;" horiz-adv-x="1462" d="M29 291q0 135 96 241.5t324 172.5q-53 80 -73 136t-20 122q0 78 32 141t87 107t131 69t164 25q80 0 144.5 -21.5t109.5 -58.5t69.5 -87.5t24.5 -107.5q0 -35 -12 -77t-48 -86t-102.5 -87t-173.5 -80q43 -68 78 -132t60 -128q41 68 80.5 132.5t82.5 116.5t93.5 84 t113.5 32q66 0 117 -40t51 -118q0 -33 -11 -65.5t-32.5 -59t-51.5 -43t-65 -16.5q-61 0 -94 37t-24 90q-55 -37 -103.5 -104.5t-99.5 -145.5q41 -90 77 -128t70 -38q35 0 70 27.5t82 117.5l98 -55q-35 -76 -69.5 -131t-74.5 -92t-85 -54.5t-103 -17.5q-102 0 -163.5 44 t-114.5 137q-74 -84 -162 -133.5t-217 -49.5q-78 0 -143.5 22.5t-112.5 64.5t-73.5 101.5t-26.5 135.5zM332 340q0 -84 45 -133t125 -49q63 0 109 21.5t91 66.5q-37 104 -80.5 188t-105.5 176q-55 -31 -91 -64.5t-56.5 -69.5t-28.5 -70.5t-8 -65.5zM633 1016q0 -39 19.5 -88 t68.5 -131q102 57 136 119.5t34 119.5t-31 96t-90 39t-98 -41.5t-39 -113.5z" />
<glyph unicode="'" horiz-adv-x="495" d="M190 852l119 289q49 121 90 176t107 55q59 0 102 -39t43 -96q0 -29 -11 -54.5t-34.5 -56t-61.5 -70.5t-93 -95l-166 -168z" />
<glyph unicode="(" horiz-adv-x="796" d="M125 446q0 182 62.5 345t175 296.5t268 234.5t342.5 161l51 -127q-127 -63 -237.5 -158.5t-192.5 -218.5t-129 -269.5t-47 -312.5q0 -195 68.5 -351.5t179.5 -264.5l-101 -107q-203 135 -321.5 330t-118.5 442z" />
<glyph unicode=")" horiz-adv-x="796" d="M-178 -201q127 63 237.5 158.5t192.5 218.5t129 269.5t47 312.5q0 195 -68.5 351.5t-179.5 264.5l101 107q203 -135 321.5 -330t118.5 -442q0 -182 -62.5 -345t-175 -296.5t-268.5 -234.5t-342 -161z" />
<glyph unicode="*" horiz-adv-x="880" d="M269 1186q-7 39 22 80q29 39 67.5 45t81.5 -23q33 -23 70 -77t76 -121l26 8q-10 78 -14 144.5t8 105.5q16 47 51 65.5t80 3.5q100 -33 70 -135q-12 -37 -52 -89t-93 -110l16 -22q72 35 134 58.5t103 23.5q51 2 80 -25.5t29 -77.5q0 -49 -27.5 -77.5t-78.5 -30.5 q-41 0 -103.5 21.5t-134.5 54.5l-16 -23q53 -57 95 -107.5t54 -89.5q31 -100 -61 -135q-47 -16 -84.5 2.5t-53.5 65.5q-12 39 -10 104.5t10 143.5l-26 6q-39 -68 -74 -124t-68 -81q-41 -29 -80.5 -22.5t-68.5 43.5q-29 41 -22.5 79.5t47.5 69.5q33 25 95 43t140 35l-2 29 q-78 14 -141.5 31.5t-96.5 39.5q-41 29 -48 68z" />
<glyph unicode="+" horiz-adv-x="1075" d="M100 500l41 166h353l88 354h182l-88 -354h352l-41 -166h-352l-90 -359h-183l91 359h-353z" />
<glyph unicode="," horiz-adv-x="524" d="M-143 -223q135 35 216 94t109 127l-12 12q-10 -8 -25.5 -13t-31.5 -5q-57 0 -93 41t-36 104q0 39 13 75t37.5 63.5t58.5 44t75 16.5q90 0 141 -60.5t51 -160.5q0 -80 -33.5 -152t-95 -129t-148.5 -100t-196 -66z" />
<glyph unicode="-" horiz-adv-x="724" d="M84 416l49 205h529l-50 -205h-528z" />
<glyph unicode="." horiz-adv-x="524" d="M6 137q0 41 14.5 78t40 65.5t59.5 46t75 17.5q72 0 116.5 -49t44.5 -123q0 -41 -14 -78t-40 -65.5t-60.5 -46t-73.5 -17.5q-72 0 -117 49t-45 123z" />
<glyph unicode="/" horiz-adv-x="874" d="M-317 -377l1251 1872l162 -76l-1250 -1872z" />
<glyph unicode="0" horiz-adv-x="1222" d="M100 506q0 135 42 280.5t124 267.5t202 199.5t275 77.5q217 0 337 -141t120 -397q0 -135 -42 -280.5t-124 -267.5t-201.5 -200t-275.5 -78q-217 0 -337 141.5t-120 397.5zM408 360q0 -72 11 -116.5t31.5 -72.5t46 -38t56.5 -10q57 0 104.5 46t85 118.5t66.5 164t47 181.5 t27.5 171t9.5 134q0 70 -11.5 116t-32 73.5t-45.5 38t-56 10.5q-57 0 -104.5 -46.5t-85.5 -119t-66.5 -163.5t-47 -181.5t-27.5 -171t-9 -134.5z" />
<glyph unicode="1" horiz-adv-x="976" d="M-23 0l43 170h273l207 831q-53 -16 -125 -16q-43 0 -87 7t-79 18l37 143q139 -6 252.5 36t187.5 126h197l-287 -1145h268l-39 -170h-848z" />
<glyph unicode="2" horiz-adv-x="1191" d="M18 139q0 88 43 163t112 135.5t153 109.5t166 90q80 39 145 77t112.5 80t74 92t26.5 115q0 84 -49 134.5t-144 50.5q-59 0 -114 -22.5t-84 -63.5q35 -18 58.5 -56t23.5 -88q0 -68 -46 -119t-124 -53q-78 0 -126 49.5t-48 133.5q0 70 35.5 136t101 116.5t158 81 t204.5 30.5q119 0 208 -29.5t149.5 -78.5t91.5 -114t31 -134q0 -106 -40 -179t-107.5 -122t-157 -81t-185.5 -56q-109 -29 -186.5 -57.5t-131 -62.5t-88 -71t-57.5 -80l6 -10q47 33 104.5 51.5t123.5 18.5q61 0 107 -11.5t85 -25t75 -24.5t77 -11q57 0 96 40t80 138l117 -24 q-57 -238 -139.5 -339.5t-213.5 -101.5q-84 0 -139 33t-97 73t-80 73.5t-87 33.5q-27 0 -59 -8q16 -33 16 -66q0 -66 -39 -103.5t-98 -37.5q-49 0 -94.5 41t-45.5 133z" />
<glyph unicode="3" horiz-adv-x="1130" d="M23 293q0 86 54 146.5t136 60.5q78 0 116 -47t38 -103q0 -57 -30 -99t-79 -65q20 -29 73.5 -52t129.5 -23q66 0 113 23.5t76.5 63.5t43 92t13.5 111q0 88 -61.5 133.5t-215.5 45.5h-39l41 159h53q92 0 148.5 19.5t93.5 56.5q43 43 61.5 98.5t18.5 110.5q0 166 -180 166 q-49 0 -91 -12.5t-61 -26.5q23 -23 37 -54.5t14 -68.5q0 -68 -43 -116t-118 -48q-76 0 -122 44t-46 112q0 70 37.5 127t103 99t153 64.5t183.5 22.5q117 0 204 -25.5t144 -69.5t86 -101.5t29 -120.5q0 -72 -26 -132.5t-79 -107.5t-136 -76.5t-196 -37.5l-2 -9 q180 -29 257 -103.5t77 -184.5q0 -80 -34.5 -152t-102.5 -126t-166 -87t-225 -33q-115 0 -204 25.5t-150.5 69.5t-94 103.5t-32.5 127.5z" />
<glyph unicode="4" horiz-adv-x="1191" d="M14 369l41 176l772 776h308l-195 -776h246l-43 -176h-246l-49 -195h188l-45 -174h-672l46 174h202l47 195h-600zM254 545h405l134 540h-11z" />
<glyph unicode="5" horiz-adv-x="1120" d="M37 276q0 84 50 144.5t136 60.5q70 0 109 -41t39 -100q0 -49 -29 -88t-72 -62q18 -29 62.5 -54t109.5 -25q74 0 126.5 33.5t85 86t48 114t15.5 118.5q0 59 -18.5 96t-48 58.5t-65.5 29.5t-69 8q-78 0 -132 -22.5t-101 -52.5l-123 43l205 655l65 45q88 -35 193.5 -51.5 t197.5 -16.5q102 0 176 17.5t150 50.5l45 -94q-88 -123 -196.5 -182.5t-250.5 -59.5q-92 0 -165.5 16.5t-126.5 38.5l-101 -309q59 39 133 63.5t162 24.5q98 0 172 -26.5t124 -72.5t74.5 -109.5t24.5 -135.5q0 -92 -35.5 -183t-106.5 -164t-175 -118t-242 -45 q-98 0 -180 24.5t-141.5 66.5t-92 98.5t-32.5 119.5z" />
<glyph unicode="6" horiz-adv-x="1163" d="M100 477q0 164 49.5 318.5t140.5 273.5t221 190.5t294 71.5q86 0 157.5 -20.5t122 -56t78 -85t27.5 -108.5q0 -76 -46 -135.5t-134 -59.5q-72 0 -113 42t-41 100q0 88 74 143q-12 16 -40 27.5t-75 11.5q-145 0 -237.5 -132t-133.5 -358q41 43 114 78t171 35 q76 0 141.5 -23.5t113.5 -67.5t75.5 -107.5t27.5 -141.5q0 -92 -33.5 -183t-98 -163t-160 -116t-217.5 -44q-115 0 -204 36t-149.5 102.5t-92.5 160.5t-32 211zM395 324q0 -100 43 -156.5t115 -56.5q53 0 94 31.5t68.5 82.5t42 117t14.5 131q0 106 -42 151.5t-107 45.5 q-53 0 -96.5 -28t-72 -76t-44 -110.5t-15.5 -131.5z" />
<glyph unicode="7" horiz-adv-x="1138" d="M147 791l132 522h176l-23 -170h14q55 98 108.5 140t119.5 42q63 0 101 -32.5t65.5 -70.5t56.5 -71t78 -33q14 0 24 6q-10 35 -10 62q0 63 39 104t109 41q61 0 101 -35.5t40 -89.5q0 -63 -38 -117.5t-118 -115.5q-82 -63 -154.5 -136t-141 -169.5t-132.5 -223t-127 -294.5 q-31 -82 -73.5 -134.5t-122.5 -52.5q-72 0 -121 46t-49 110q0 143 173 329.5t494 440.5l156 123l-12 12q-68 -41 -123 -57.5t-109 -16.5q-49 0 -87 12.5t-69.5 25.5t-61.5 25.5t-60 12.5q-27 0 -48.5 -11t-43 -38t-44 -72t-53.5 -114h-166z" />
<glyph unicode="8" horiz-adv-x="1153" d="M39 293q0 135 93 218t247 107q-78 45 -130 113t-52 178q0 82 35.5 159t102 135.5t161 93t211.5 34.5q113 0 197.5 -27.5t141 -72.5t85 -102.5t28.5 -116.5q0 -63 -23.5 -115.5t-65.5 -91.5t-99.5 -65.5t-122.5 -39.5q43 -25 81 -53.5t66.5 -65t46 -83.5t17.5 -107 q0 -88 -37 -164.5t-104.5 -134t-166 -90.5t-221.5 -33q-121 0 -213 25.5t-153.5 70t-93 102.5t-31.5 126zM285 309q0 -39 15 -75.5t46 -64.5t77 -44t109 -16q104 0 168 52t64 138q0 45 -22.5 81t-63.5 66.5t-97.5 58t-123.5 58.5q-82 -49 -127 -112.5t-45 -141.5zM496 1008 q0 -86 71.5 -141.5t198.5 -110.5q74 51 113 115.5t39 136.5q0 35 -12.5 67.5t-38 59t-64.5 42t-92 15.5q-98 0 -156.5 -53t-58.5 -131z" />
<glyph unicode="9" horiz-adv-x="1163" d="M39 250q0 35 11 68.5t33.5 60.5t56.5 43t77 16q72 0 113 -42t41 -99q0 -43 -18.5 -80t-55.5 -63q23 -20 54.5 -32.5t78.5 -12.5q74 0 132.5 33.5t104.5 96t78.5 149.5t51.5 194q-43 -43 -115 -78t-170 -35q-76 0 -141.5 23.5t-113.5 68.5t-75.5 109.5t-27.5 146.5 q0 96 33.5 188.5t99 165t162 116.5t219.5 44q113 0 201.5 -35.5t149 -102.5t92.5 -161t32 -211q0 -166 -48 -319.5t-138.5 -272t-220.5 -190.5t-294 -72q-92 0 -166.5 21.5t-127 59.5t-81 89.5t-28.5 112.5zM471 815q0 -111 41 -157t104 -46q53 0 96.5 28t73 76t45 112.5 t15.5 138.5q0 106 -41 163.5t-115 57.5q-53 0 -93 -32t-68.5 -84t-43 -119.5t-14.5 -137.5z" />
<glyph unicode=":" horiz-adv-x="552" d="M20 137q0 41 14.5 78t40 65.5t59.5 46t75 17.5q72 0 117 -49t45 -123q0 -41 -14.5 -78t-40 -65.5t-60.5 -46t-74 -17.5q-72 0 -117 49t-45 123zM168 719q0 41 14.5 78t40 65.5t59 46t74.5 17.5q72 0 117 -49.5t45 -122.5q0 -41 -14.5 -78t-40 -65.5t-60 -46t-73.5 -17.5 q-72 0 -117 49t-45 123z" />
<glyph unicode=";" horiz-adv-x="552" d="M-129 -223q135 35 216 94t110 127l-13 12q-10 -8 -25.5 -13t-31.5 -5q-57 0 -93 41t-36 104q0 39 13.5 75t38 63.5t58 44t74.5 16.5q90 0 141.5 -60.5t51.5 -160.5q0 -80 -34 -152t-95.5 -129t-148.5 -100t-195 -66zM168 719q0 41 14.5 78t40 65.5t59 46t74.5 17.5 q72 0 117 -49.5t45 -122.5q0 -41 -14.5 -78t-40 -65.5t-60 -46t-73.5 -17.5q-72 0 -117 49t-45 123z" />
<glyph unicode="&#x3c;" horiz-adv-x="1073" d="M152 502l45 182l796 340l64 -158l-711 -284l553 -277l-76 -166z" />
<glyph unicode="=" horiz-adv-x="1075" d="M63 291l46 178h854l-45 -178h-855zM164 696l45 178h854l-45 -178h-854z" />
<glyph unicode="&#x3e;" horiz-adv-x="1073" d="M70 299l708 285l-551 276l76 164l672 -362l-45 -183l-799 -340z" />
<glyph unicode="?" horiz-adv-x="1007" d="M207 125q0 33 13 64.5t38 56t58.5 40t72.5 15.5q74 0 120 -46t46 -114q0 -35 -13.5 -66.5t-38 -56t-58 -39t-72.5 -14.5q-74 0 -120 45t-46 115zM229 1118q0 61 34 113.5t93.5 89.5t138 58.5t171.5 21.5q115 0 197.5 -27.5t136 -74t79 -105.5t25.5 -123q0 -86 -33 -146.5 t-89 -102.5t-134 -70.5t-168 -53.5q-102 -29 -151.5 -52t-49.5 -68q0 -57 74 -58q35 0 78 13.5t102 54.5l62 -86q-53 -51 -128 -83t-171 -32q-47 0 -93.5 13.5t-83 40t-59 67.5t-22.5 98q0 55 21.5 98.5t62 77t98 61t129.5 52.5q59 20 110.5 40.5t89 46.5t59 59.5t21.5 80.5 q0 72 -49 103.5t-121 31.5q-41 0 -77.5 -8t-59.5 -24q16 -23 27.5 -48.5t11.5 -58.5q0 -29 -10 -57.5t-31.5 -51t-53.5 -37t-75 -14.5q-70 0 -116 44.5t-46 115.5z" />
<glyph unicode="@" horiz-adv-x="1828" d="M76 410q0 215 81 398t219 317.5t322.5 210t388.5 75.5q150 0 278 -44t222 -125t148.5 -198.5t54.5 -265.5q0 -143 -38 -266t-104.5 -212t-157.5 -140t-198 -51q-49 0 -95 12t-82 39.5t-57.5 71.5t-21.5 106l-14 6q-53 -113 -125 -167t-149 -54q-68 0 -119 23.5t-85 64.5 t-50.5 97.5t-16.5 123.5q0 111 35 211t95.5 176t139 120t166.5 44q80 0 134.5 -49t68.5 -121l43 156h250l-143 -480q-39 -129 -16.5 -186t106.5 -57q55 0 110.5 41t98.5 111.5t69.5 168t26.5 209.5q0 123 -43 220.5t-120 165t-184.5 104.5t-238.5 37q-174 0 -331.5 -70 t-276.5 -189.5t-189.5 -282.5t-70.5 -349q0 -141 46 -255t132 -194t206 -123t267 -43q129 0 237.5 28t198.5 77l45 -95q-104 -55 -225 -86.5t-270 -31.5q-166 0 -307.5 50t-244 143t-159.5 226.5t-57 301.5zM741 426q0 -66 24 -101.5t77 -35.5q55 0 99 44t75 106.5t47 133 t16 123.5q0 66 -25.5 106t-80.5 40q-57 0 -100.5 -47t-73 -114t-44 -137.5t-14.5 -117.5z" />
<glyph unicode="A" horiz-adv-x="1427" d="M-111 0l43 178h136l694 1178h313l119 -1178h168l-43 -178h-660l46 178h167l-18 252h-432l-143 -252h174l-45 -178h-519zM512 592h332l-35 510h-8z" />
<glyph unicode="B" horiz-adv-x="1351" d="M-61 0l45 178h180l248 991h-183l43 179h633q139 0 230.5 -24t144.5 -63.5t74.5 -90t21.5 -101.5q0 -61 -23.5 -120.5t-74.5 -107.5t-135 -83t-203 -47l-4 -15q170 -27 250 -99.5t80 -182.5q0 -147 -99 -250q-78 -78 -212 -121t-349 -43h-667zM481 178h135q172 0 251 70.5 t79 191.5q0 80 -55 127t-197 47h-102zM635 786h127q76 0 130 19.5t90 52.5t52.5 75t16.5 87q0 72 -45 110.5t-166 38.5h-109z" />
<glyph unicode="C" horiz-adv-x="1396" d="M119 543q0 139 49 287.5t143.5 270.5t233.5 200.5t319 78.5q127 0 222.5 -44t150.5 -128l92 168h187l-134 -536h-194q-6 102 -32 172.5t-64.5 116t-91 64.5t-109.5 19q-82 0 -146.5 -37.5t-113.5 -100t-83 -139.5t-55.5 -156t-30.5 -149.5t-9 -119.5q0 -102 26.5 -170 t68.5 -107.5t93 -56t102 -16.5q78 0 138.5 26.5t109.5 74.5t89 118t77 156l168 -54q-37 -109 -92 -203t-130 -163.5t-174.5 -108.5t-226.5 -39q-137 0 -245.5 41t-183 116t-114.5 181.5t-40 237.5z" />
<glyph unicode="D" horiz-adv-x="1495" d="M-61 0l45 178h180l248 991h-183l43 179h543q170 0 298 -40t214 -112t129 -171t43 -216q0 -154 -56.5 -302.5t-172.5 -264.5q-117 -117 -287 -179.5t-418 -62.5h-626zM483 174h111q123 0 208 29.5t161 105.5q43 43 78.5 106.5t61 139.5t41 157t15.5 154q0 158 -81 233 t-255 75h-90z" />
<glyph unicode="E" horiz-adv-x="1398" d="M-61 0l45 178h180l248 991h-183l43 179h1231l-121 -480h-161q1 26 1 49q0 63 -4 107q-6 60 -25 93.5t-58 45t-105 11.5h-297l-102 -408h71q43 0 71 6t49.5 25.5t40 57.5t44.5 99h160l-135 -546h-156q6 61 6 99t-10 58.5t-34.5 27.5t-65.5 7h-82l-107 -426h291 q76 0 126 15.5t88 56.5t72 109.5t81 176.5h180l-133 -532h-1249z" />
<glyph unicode="F" horiz-adv-x="1333" d="M-61 0l45 178h180l248 991h-183l43 179h1205l-123 -490h-166q0 104 -8.5 165.5t-32 95.5t-65.5 44.5t-107 10.5h-244l-108 -431h49q43 0 70.5 6.5t49 27t40 57t42.5 98.5h160l-137 -553h-158q8 63 9.5 101t-10 59.5t-36 28.5t-67.5 7h-53l-101 -397h221l-43 -178h-720z " />
<glyph unicode="G" horiz-adv-x="1490" d="M119 528q0 96 21.5 196.5t64.5 196t106.5 178.5t146.5 145.5t184 99t222 36.5q127 0 222.5 -44t150.5 -128l92 168h187l-132 -524h-221q-6 102 -29.5 172t-60.5 112t-84 59t-98 17q-82 0 -146.5 -38.5t-113.5 -102t-83 -143.5t-55.5 -160t-30.5 -152.5t-9 -123.5 q0 -100 21.5 -166t56 -105t76.5 -54t85 -15q68 0 119 27.5t88 73.5t62.5 105.5t42.5 122.5l10 39h-228l43 178h697l-45 -178h-152l-141 -536h-174l-23 182q-55 -80 -145 -139.5t-228 -59.5q-117 0 -210 42t-157.5 117t-98 178.5t-33.5 223.5z" />
<glyph unicode="H" horiz-adv-x="1619" d="M-61 0l45 178h180l248 991h-183l43 179h678l-45 -179h-174l-94 -385h500l96 385h-176l45 179h676l-45 -179h-181l-247 -991h182l-43 -178h-676l43 178h174l109 434h-500l-109 -434h174l-43 -178h-677z" />
<glyph unicode="I" horiz-adv-x="813" d="M-55 0l45 178h180l248 991h-182l43 179h684l-43 -179h-183l-245 -991h182l-43 -178h-686z" />
<glyph unicode="J" horiz-adv-x="1181" d="M-10 299q0 104 58 174t155 70q74 0 120 -44t46 -114q0 -66 -36 -113t-100 -69q16 -31 57.5 -51.5t100.5 -20.5q90 0 149.5 60.5t96.5 205.5l194 772h-196l45 179h690l-45 -179h-172l-186 -739q-27 -104 -69 -189t-106.5 -146.5t-151.5 -94.5t-204 -33q-109 0 -192.5 26.5 t-140 72t-85 105.5t-28.5 128z" />
<glyph unicode="K" horiz-adv-x="1486" d="M-61 0l45 178h180l248 991h-183l43 179h668l-43 -177h-166l-121 -489l584 489h-154l43 177h568l-45 -179h-152l-463 -368l289 -623h160l-45 -178h-656l45 176h142l-185 424l-190 -151l-66 -273h158l-43 -176h-661z" />
<glyph unicode="L" horiz-adv-x="1255" d="M-61 0l45 178h180l248 991h-183l43 179h707l-45 -174h-203l-248 -1000h203q78 0 127 16.5t87 58.5t73 114.5t82 185.5h164l-138 -549h-1142z" />
<glyph unicode="M" horiz-adv-x="1900" d="M-57 0l43 178h164l247 991h-168l45 179h598l74 -844h8l478 844h626l-43 -179h-176l-246 -991h176l-43 -178h-651l43 178h156l235 948h-20l-655 -1128h-138l-110 1128h-19l-235 -948h164l-45 -178h-508z" />
<glyph unicode="N" horiz-adv-x="1589" d="M-45 0l43 178h172l248 991h-176l45 179h516l342 -947h18l191 768h-185l45 179h541l-43 -179h-176l-295 -1187h-278l-377 1048h-19l-213 -852h183l-43 -178h-539z" />
<glyph unicode="O" d="M119 563q0 133 48 277.5t144.5 264.5t240.5 197.5t337 77.5q131 0 240.5 -43t189.5 -121.5t124 -188t44 -243.5q0 -133 -48 -277.5t-144.5 -264t-241 -197.5t-336.5 -78q-133 0 -242.5 43t-188.5 121t-123 188.5t-44 243.5zM453 451q0 -166 73.5 -241t192.5 -75 q78 0 140.5 40t110.5 104.5t82.5 146.5t56 166t32 164t10.5 141q0 166 -72.5 240.5t-193.5 74.5q-78 0 -140.5 -39.5t-110.5 -104t-82 -146.5t-56.5 -166t-32.5 -165t-10 -140z" />
<glyph unicode="P" horiz-adv-x="1316" d="M-61 0l45 178h180l248 991h-183l43 179h594q147 0 250 -26t166.5 -72t91 -110.5t27.5 -144.5q0 -84 -33 -168t-109.5 -151.5t-202.5 -110.5t-315 -43h-172l-86 -344h197l-45 -178h-696zM612 692h125q92 0 152.5 31t97.5 77t51.5 101t14.5 105q0 92 -57.5 132t-184.5 40 h-78z" />
<glyph unicode="Q" d="M119 563q0 133 48 277.5t144.5 264.5t240.5 197.5t337 77.5q131 0 240.5 -43t189.5 -121.5t124 -188t44 -243.5q0 -96 -24.5 -197.5t-74 -196.5t-122 -178t-168.5 -140q25 -61 52.5 -81t61.5 -20q45 0 79 33t75 131l115 -41q-51 -172 -132 -249.5t-194 -77.5 q-66 0 -113 15t-80.5 45t-56 70t-41.5 89q-65 -13 -137 -13q-139 0 -250.5 42t-191.5 119t-123 186.5t-43 242.5zM453 451q0 -29 4 -58t10 -45q33 86 97.5 144.5t172.5 58.5q61 0 106.5 -17.5t78 -47t56 -69.5t42.5 -85q39 68 63.5 144.5t40 153.5t21.5 145.5t6 121.5 q0 166 -72.5 240.5t-193.5 74.5q-78 0 -140.5 -39.5t-110.5 -104t-82 -146.5t-56.5 -166t-32.5 -165t-10 -140zM545 248q0 -59 54 -87t124 -28q23 0 47.5 2t52.5 12q-18 100 -53 159t-104 59q-55 0 -88 -37t-33 -80z" />
<glyph unicode="R" horiz-adv-x="1443" d="M-61 0l45 178h180l248 991h-183l43 179h686q133 0 222.5 -26t143.5 -68t77.5 -95t23.5 -110q0 -74 -28.5 -139.5t-89 -116t-153.5 -82t-222 -39.5l-4 -15q154 -23 213 -84t59 -143q0 -49 -11 -104.5t-11 -94.5q0 -37 17 -49t40 -12t47.5 19.5t58.5 76.5l89 -67 q-57 -104 -131 -166t-193 -62q-117 0 -185.5 53.5t-68.5 151.5q0 68 20.5 144.5t20.5 150.5q0 55 -42 86t-140 31h-125l-103 -410h187l-43 -178h-688zM627 754h141q76 0 138.5 18.5t103.5 58.5q33 35 51 85.5t18 109.5q0 66 -43 109t-153 43h-150z" />
<glyph unicode="S" horiz-adv-x="1251" d="M-20 -29l122 516h174q23 -172 124.5 -261t246.5 -89q100 0 161.5 49.5t61.5 124.5q0 41 -23.5 72t-61 56.5t-88 48t-105.5 44.5q-68 29 -134.5 62t-120.5 79t-88 109.5t-34 149.5q0 96 39 178t105.5 142.5t154.5 94t188 33.5q117 0 213.5 -41t153.5 -118l86 155h176 l-119 -497h-176q-23 174 -102.5 252.5t-212.5 78.5q-92 0 -149.5 -49t-57.5 -121q0 -45 23.5 -77.5t63.5 -59t92 -49.5t108 -47q66 -29 132 -61.5t118.5 -76.5t85 -104.5t32.5 -144.5q0 -100 -39.5 -183t-108.5 -143.5t-160 -93.5t-195 -33q-145 0 -249 45t-169 127 l-94 -168h-174z" />
<glyph unicode="T" horiz-adv-x="1421" d="M145 805l136 543h1278l-138 -543h-143q0 125 -5 201.5t-23.5 117.5t-53.5 55.5t-94 14.5h-47l-256 -1016h215l-43 -178h-756l43 178h207l256 1016h-59q-59 0 -99.5 -13.5t-76 -54.5t-75.5 -117.5t-100 -203.5h-166z" />
<glyph unicode="U" horiz-adv-x="1497" d="M193 342q0 43 10 96.5t20 98.5l158 632h-172l43 179h674l-43 -179h-178l-164 -651q-20 -82 -21 -145q0 -53 19.5 -92t53.5 -63.5t79 -36t96 -11.5q137 0 223 86q41 41 67.5 96.5t47.5 132.5l172 684h-174l43 179h530l-45 -179h-164l-182 -731q-23 -92 -61.5 -173 t-104.5 -146q-72 -72 -176.5 -112t-251.5 -40q-123 0 -217 29t-156.5 80t-94 119.5t-31.5 146.5z" />
<glyph unicode="V" horiz-adv-x="1443" d="M170 1169l45 179h659l-45 -179h-165l79 -886h13l512 886h-172l43 179h520l-45 -179h-135l-711 -1177h-291l-137 1177h-170z" />
<glyph unicode="W" horiz-adv-x="2095" d="M170 1169l45 179h641l-43 -177h-143l39 -860h12l412 699l-11 161h-157l43 177h624l-43 -177h-157l36 -860h13l442 860h-178l43 177h522l-43 -179h-139l-635 -1177h-297l-47 749l-438 -749h-289l-74 1177h-178z" />
<glyph unicode="X" horiz-adv-x="1425" d="M-88 0l43 178h154l495 484l-254 507h-166l45 179h662l-45 -177h-148l152 -333l326 333h-150l43 177h543l-45 -179h-152l-477 -462l260 -529h164l-45 -178h-662l45 176h150l-158 352l-346 -352h152l-45 -176h-541z" />
<glyph unicode="Y" horiz-adv-x="1337" d="M174 1169l43 179h666l-43 -177h-164l143 -444l359 444h-162l45 177h510l-43 -179h-139l-523 -616l-94 -375h182l-43 -178h-686l43 178h183l94 379l-215 612h-156z" />
<glyph unicode="Z" horiz-adv-x="1302" d="M-51 0l41 162l1001 1012h-276q-59 0 -101.5 -11.5t-82 -48.5t-82.5 -108.5t-107 -194.5h-156l136 537h1114l-41 -162l-1004 -1012h322q59 0 101 11.5t82 51t84 115.5t110 205h153l-139 -557h-1155z" />
<glyph unicode="[" horiz-adv-x="749" d="M-39 -326l451 1809h602l-39 -158h-316l-372 -1493h317l-41 -158h-602z" />
<glyph unicode="\" horiz-adv-x="874" d="M252 1438l180 35l328 -1870l-178 -35z" />
<glyph unicode="]" horiz-adv-x="749" d="M-213 -326l39 158h315l373 1493h-317l41 158h602l-451 -1809h-602z" />
<glyph unicode="^" horiz-adv-x="761" d="M156 1006l385 462h168l151 -462h-164l-112 233l-244 -233h-184z" />
<glyph unicode="_" horiz-adv-x="915" d="M-121 0l45 178h922l-43 -178h-924z" />
<glyph unicode="`" horiz-adv-x="548" d="M287 1413q0 47 34.5 87t96.5 40q39 0 63.5 -17.5t42 -46t27.5 -68.5t20 -85l52 -227h-129l-109 133q-53 66 -75.5 105.5t-22.5 78.5z" />
<glyph unicode="a" horiz-adv-x="1214" d="M49 315q0 78 15.5 155t43 145.5t64.5 126t80 100.5q70 70 141.5 104.5t159.5 34.5q94 0 149.5 -57.5t71.5 -130.5l47 168h295l-170 -644q-10 -35 -13 -57t-3 -41q0 -27 12 -38t29 -11q33 0 63.5 42t71.5 157l104 -37q-59 -182 -144 -267t-198 -85q-86 0 -139 47t-53 143 q0 10 1 23.5t3 27.5l-16 6q-59 -127 -141.5 -187t-180.5 -60q-74 0 -129 26.5t-91 72.5t-54.5 107.5t-18.5 128.5zM360 319q0 -84 29 -117.5t72 -33.5q57 0 106 54t86 132t57.5 164t20.5 150q0 153 -101 153h-1q-59 0 -108.5 -54t-84.5 -132t-55.5 -165t-20.5 -151z" />
<glyph unicode="b" horiz-adv-x="1105" d="M80 336q0 63 18.5 154.5t51.5 214.5l145 534h-152l45 174h449l-215 -696l14 -6q72 135 159 202.5t181 67.5q70 0 123 -25.5t89 -71.5t53.5 -109.5t17.5 -139.5q0 -113 -43 -228.5t-122 -211t-188.5 -155.5t-242.5 -60q-188 0 -285.5 99t-97.5 257zM367 281 q0 -80 30.5 -119t77.5 -39q61 0 112.5 56.5t87.5 135t55.5 165.5t19.5 149q0 84 -28 121.5t-77 37.5q-55 0 -105.5 -52t-89 -129t-61 -165t-22.5 -161z" />
<glyph unicode="c" horiz-adv-x="1005" d="M49 365q0 125 49 236.5t131 196.5t189.5 134t224.5 49q66 0 125 -17.5t103 -51t71 -85t27 -116.5q0 -41 -12.5 -77t-36 -63.5t-55 -44t-68.5 -16.5q-63 0 -99 36t-36 91q0 53 32.5 91t69.5 54q-10 29 -37 45.5t-72 16.5q-68 0 -123 -44t-94 -111.5t-60.5 -149.5 t-21.5 -158q0 -70 17.5 -114t43 -69.5t58.5 -35.5t64 -10q143 0 266 174l94 -76q-35 -51 -78 -99.5t-96 -86t-120.5 -61t-151.5 -23.5q-184 0 -294 103t-110 282z" />
<glyph unicode="d" horiz-adv-x="1214" d="M49 315q0 78 15.5 155t43 145.5t64.5 126t80 100.5q70 70 141.5 104.5t159.5 34.5q92 0 148.5 -53.5t78.5 -118.5l115 430h-152l45 174h447l-289 -1096q-10 -35 -13 -57t-3 -41q0 -27 12 -38t29 -11q33 0 63.5 42t71.5 157l104 -37q-59 -182 -144 -267t-198 -85 q-86 0 -139 47t-53 145q0 16 1 26.5t3 22.5l-16 6q-59 -127 -141.5 -187t-180.5 -60q-74 0 -129 26.5t-91 72.5t-54.5 107.5t-18.5 128.5zM360 319q0 -84 29 -117.5t72 -33.5q57 0 106 54t86 134t58.5 169t21.5 159q0 82 -29.5 109.5t-70.5 27.5q-61 0 -112.5 -54 t-86.5 -132t-54.5 -165t-19.5 -151z" />
<glyph unicode="e" horiz-adv-x="1007" d="M47 362q0 119 47 231t130 198t197 138t245 52q154 0 234.5 -67t80.5 -171q0 -70 -37 -132t-113.5 -109t-195.5 -77t-285 -36v-16q0 -68 17.5 -113t45 -71.5t63.5 -38t73 -11.5q68 0 136.5 39t137.5 125l90 -74q-41 -53 -87 -98t-102 -79t-125 -53t-150 -19 q-182 0 -292 102t-110 280zM365 498q100 6 166.5 30.5t106.5 59.5t56.5 77t16.5 83q0 47 -22.5 75.5t-63.5 28.5q-47 0 -89 -32t-76 -82t-58.5 -113.5t-36.5 -126.5z" />
<glyph unicode="f" horiz-adv-x="761" d="M-274 -184q0 59 39.5 107t107.5 48q49 0 83 -32.5t34 -90.5q0 -35 -11.5 -62.5t-21.5 -37.5q27 0 46.5 8t34.5 34t28.5 70t27.5 115l164 813h-180l37 146h172q53 248 181 370.5t325 122.5q152 0 229.5 -61t77.5 -145q0 -66 -42 -119t-118 -53q-59 0 -98 33.5t-39 93.5 q0 35 14 67.5t43 54.5q-25 14 -57 15q-53 0 -86 -21.5t-54.5 -64.5t-37 -106.5t-33.5 -147.5l-8 -39h278l-39 -146h-270l-137 -645q-29 -139 -78 -234t-110.5 -153.5t-134 -85t-148.5 -26.5q-104 0 -161.5 50t-57.5 122z" />
<glyph unicode="g" horiz-adv-x="1126" d="M-27 -139q0 29 10.5 57.5t30 51t49 36.5t66.5 14q72 0 107.5 -41.5t35.5 -97.5q0 -35 -14.5 -62.5t-32.5 -45.5q18 -6 47 -11.5t58 -5.5q106 0 176 70q41 43 78 124t75 238l-20 9q-47 -70 -113.5 -109t-158.5 -39q-78 0 -134.5 26.5t-94.5 73t-56.5 107.5t-18.5 131 q0 135 48.5 255t134.5 206q68 68 137.5 100.5t153.5 32.5q98 0 162.5 -56.5t82.5 -131.5l45 168h295l-198 -846q-33 -139 -91.5 -230.5t-135 -144.5t-166 -74.5t-183.5 -21.5q-47 0 -111.5 8t-123 30.5t-99.5 65.5t-41 113zM373 385q0 -88 30.5 -126t83.5 -38q51 0 96.5 41 t79 103.5t52 140.5t18.5 151q0 78 -31.5 121t-85.5 43q-57 0 -102 -45t-76.5 -110.5t-48 -141t-16.5 -139.5z" />
<glyph unicode="h" horiz-adv-x="1230" d="M6 0l330 1239h-152l45 174h449l-264 -858l14 -6q106 231 224 331.5t237 100.5q90 0 146.5 -57.5t56.5 -155.5q0 -70 -25 -150.5t-55.5 -157.5t-55 -143.5t-24.5 -107.5q0 -39 35 -39q29 0 60.5 41t78.5 158l106 -37q-61 -178 -152 -265t-204 -87q-96 0 -149.5 54 t-53.5 140q0 70 21.5 143.5t47.5 144t47.5 133t21.5 110.5q0 59 -60 59q-31 0 -75 -25.5t-99 -107.5t-118.5 -232.5t-131.5 -398.5h-301z" />
<glyph unicode="i" horiz-adv-x="741" d="M35 633q72 166 159 257t209 91q86 0 140.5 -53.5t54.5 -141.5q0 -61 -26.5 -144t-57.5 -166t-57.5 -154.5t-26.5 -110.5q0 -23 10.5 -32t26.5 -9q27 0 60.5 39t82.5 160l107 -37q-61 -176 -152.5 -264t-208.5 -88q-92 0 -150.5 53t-58.5 149q0 63 27 146.5t58.5 165 t58 152.5t26.5 110q0 23 -8 31t-22 8q-33 0 -69 -55.5t-79 -147.5zM352 1260q0 33 13.5 68.5t38 63t61.5 46t84 18.5q68 0 112 -40.5t44 -112.5q0 -35 -13.5 -69t-39 -62.5t-62.5 -46t-84 -17.5q-66 0 -110 40t-44 112z" />
<glyph unicode="j" horiz-adv-x="665" d="M-266 -184q0 59 39 107t108 48q51 0 85 -33.5t34 -87.5q0 -41 -13.5 -68.5t-27.5 -41.5q31 -2 55.5 10t46 46t43 96.5t46.5 160.5l124 490q6 23 13.5 51.5t13.5 58t10 56t4 45.5q0 25 -9 33t-21 8q-31 0 -68 -54.5t-78 -148.5l-106 41q72 166 160 257t210 91 q86 0 140.5 -53.5t54.5 -139.5q0 -39 -8 -87t-21 -97l-139 -522q-33 -121 -79 -204t-104.5 -135t-129 -75.5t-150.5 -23.5q-117 0 -175 50t-58 122zM352 1260q0 33 13.5 68.5t38 63t61.5 46t84 18.5q68 0 112 -40.5t44 -112.5q0 -35 -13.5 -69t-39 -62.5t-62.5 -46 t-84 -17.5q-66 0 -110 40t-44 112z" />
<glyph unicode="k" horiz-adv-x="1153" d="M6 0l330 1239h-152l45 174h449l-223 -840h4q41 0 72.5 12.5t59 39t56.5 68.5t66 104q45 74 103 129t151 55q84 0 126 -48t42 -120q0 -33 -10.5 -65.5t-30 -59t-48 -43t-63.5 -16.5q-65 0 -97 48q-21 32 -21 72q0 20 5 42q-23 -10 -41 -34t-49 -75q-29 -47 -58.5 -82 t-72.5 -63q119 -10 163 -58.5t44 -120.5q0 -45 -9 -79.5t-9 -63.5q0 -27 10 -36t26 -9q29 0 60 41t78 158l106 -37q-59 -178 -142 -265t-198 -87q-109 0 -163 60t-54 150q0 47 11.5 99.5t11.5 89.5q0 25 -5.5 41t-22.5 26.5t-48 16.5t-80 6l-125 -469h-297z" />
<glyph unicode="l" horiz-adv-x="659" d="M72 180q0 35 10 88.5t27 118.5l227 852h-150l45 174h449l-285 -1028q-4 -16 -11 -41t-14.5 -49.5t-12.5 -48t-5 -35.5q0 -25 11.5 -33t25.5 -8q31 0 63.5 41t79.5 158l107 -37q-123 -352 -356 -352q-98 0 -154.5 51t-56.5 149z" />
<glyph unicode="m" horiz-adv-x="1898" d="M18 633q72 166 156 256t201 90q70 0 115 -48t45 -147q0 -41 -7.5 -95t-29.5 -132l16 -6q104 231 218 330.5t218 99.5q90 0 138.5 -51t48.5 -146q0 -41 -11.5 -95t-33.5 -132l16 -6q104 231 220 330.5t231 99.5q88 0 144 -57.5t56 -155.5q0 -70 -24.5 -150.5t-55 -157.5 t-55.5 -143.5t-25 -107.5q0 -39 35 -39q29 0 60.5 41t79.5 158l106 -37q-61 -178 -152 -265t-204 -87q-96 0 -149.5 54t-53.5 140q0 70 21.5 143.5t47 144t47 133t21.5 110.5q0 31 -15.5 45t-39.5 14q-31 0 -74 -25.5t-95 -107.5t-112.5 -232.5t-124.5 -398.5h-301l144 522 q20 72 26 112t6 62q0 29 -15 48.5t-46 19.5t-74 -25.5t-96 -107.5t-113.5 -232.5t-124.5 -398.5h-301l174 655q12 45 16.5 72t2.5 42t-9 20.5t-18 5.5q-31 0 -66.5 -55.5t-76.5 -147.5z" />
<glyph unicode="n" horiz-adv-x="1310" d="M18 633q72 166 156 256t201 90q70 0 115 -48t45 -147q0 -41 -7.5 -95t-29.5 -132l16 -6q104 231 220 330.5t235 99.5q90 0 146 -57.5t56 -155.5q0 -70 -24.5 -150.5t-55 -157.5t-55 -143.5t-24.5 -107.5q0 -39 35 -39q29 0 60.5 41t78.5 158l106 -37q-61 -178 -152 -265 t-204 -87q-96 0 -149.5 54t-53.5 140q0 70 21.5 143.5t47 144t47 133t21.5 110.5q0 59 -59 59q-31 0 -74 -25.5t-96 -107.5t-113.5 -232.5t-124.5 -398.5h-301l174 655q12 45 16.5 72t2.5 42t-9 20.5t-18 5.5q-31 0 -66.5 -55.5t-76.5 -147.5z" />
<glyph unicode="o" horiz-adv-x="1095" d="M49 381q0 123 47 231.5t127 190.5t184.5 130t217.5 48q94 0 171.5 -29.5t133 -84t86.5 -128t31 -161.5q0 -123 -47.5 -231.5t-127 -189.5t-184 -129t-217.5 -48q-94 0 -172 29.5t-133 82.5t-86 127t-31 162zM352 270q0 -47 9.5 -78.5t24.5 -50t35.5 -25.5t43.5 -7 q45 0 83 30.5t68.5 80.5t55 113.5t40 128t23.5 124t8 102.5q0 96 -33.5 129t-80.5 33q-45 0 -83 -31t-69 -81t-54.5 -113.5t-38.5 -128t-23.5 -124t-8.5 -102.5z" />
<glyph unicode="p" horiz-adv-x="1212" d="M-119 -330l45 170h135l213 805q12 43 14.5 70.5t-0.5 42t-11.5 19.5t-16.5 5q-31 0 -61.5 -47t-73.5 -143l-107 41q76 176 153 261t185 85q80 0 127 -56.5t47 -152.5v-25.5t-2 -27.5l15 -6q63 137 153 203.5t183 66.5q145 0 216.5 -96.5t71.5 -249.5q0 -109 -35.5 -221.5 t-99 -204.5t-151.5 -150.5t-193 -58.5q-86 0 -150.5 39t-99.5 115l-80 -314h174l-45 -170h-606zM489 297q0 -72 27 -114t86 -42q57 0 104.5 53.5t81 130t51 160.5t17.5 146q0 82 -27.5 119.5t-76.5 37.5q-55 0 -103.5 -49t-83.5 -122.5t-55.5 -159.5t-20.5 -160z" />
<glyph unicode="q" horiz-adv-x="1136" d="M53 346q0 147 54.5 276.5t142.5 217.5q66 66 142.5 103.5t162.5 37.5q98 0 153.5 -57.5t73.5 -130.5l45 168h295l-280 -1121h139l-45 -170h-606l45 170h168l98 355l-16 6q-45 -80 -116 -140.5t-171 -60.5q-70 0 -123 26.5t-89 73.5t-54.5 110.5t-18.5 135.5zM365 344 q0 -90 30.5 -124t71.5 -34q55 0 104.5 51.5t86 125t58 156.5t21.5 149q0 153 -103 153h-1q-59 0 -108.5 -51t-85.5 -125t-55 -156.5t-19 -144.5z" />
<glyph unicode="r" horiz-adv-x="1036" d="M18 633q72 166 156 256t201 90q70 0 115 -48t45 -147q0 -41 -6.5 -90t-26.5 -119l18 -6q43 100 84 178t84 129.5t91 78t108 26.5q74 0 125 -51t51 -131q0 -86 -50 -145.5t-124 -59.5q-59 0 -105 40q-42 37 -41 106v12q-16 -6 -48.5 -36t-77 -110t-98.5 -225t-116 -381 h-301l174 655q12 45 16.5 72t2.5 42t-9 20.5t-18 5.5q-31 0 -66.5 -55.5t-76.5 -147.5z" />
<glyph unicode="s" horiz-adv-x="956" d="M14 223q0 70 43 114t109 44q72 0 106.5 -41t34.5 -90q0 -66 -45 -115q23 -16 61.5 -28.5t94.5 -12.5q80 0 120 36t40 95q0 29 -15.5 51.5t-41 42t-58.5 36t-70 32.5q-49 25 -96 49.5t-83 56t-57.5 71.5t-21.5 93q0 80 37 141.5t97.5 101.5t135 60.5t152.5 20.5 q86 0 156.5 -18.5t121 -50t78 -73.5t27.5 -89q0 -66 -42 -108t-103 -42q-74 0 -110 40t-36 85q0 35 11.5 62.5t29.5 46.5q-12 10 -45 20t-74 10q-74 0 -116.5 -35.5t-42.5 -89.5q0 -31 17 -54t47 -43.5t70 -40t87 -42.5q39 -20 80 -42.5t73.5 -52.5t53 -69t20.5 -94 q0 -82 -34.5 -142.5t-94 -100.5t-136.5 -59t-159 -19q-88 0 -164.5 17t-134 49t-90.5 77t-33 100z" />
<glyph unicode="t" horiz-adv-x="837" d="M80 788l37 146h176l65 240l301 34l-73 -274h299l-39 -146h-299l-115 -426q-8 -29 -12 -57.5t-4 -44.5q0 -47 21.5 -64.5t51.5 -17.5q55 0 97.5 55.5t83.5 157.5l110 -35q-35 -109 -81 -181.5t-98 -115.5t-109.5 -61t-112.5 -18t-102.5 13t-83 41.5t-56 73t-20.5 105.5 q0 39 9 89t21 97l107 389h-174z" />
<glyph unicode="u" horiz-adv-x="1314" d="M20 633q61 164 151.5 256t209.5 92q96 0 148.5 -53.5t52.5 -141.5q0 -66 -20.5 -138.5t-45 -142t-45 -132t-20.5 -107.5q0 -71 55 -71h2q31 0 74 25.5t94 106.5t110.5 232.5t122.5 401.5h301l-168 -644q-10 -35 -13 -58t-3 -40q0 -29 12.5 -39t28.5 -10q33 0 63.5 42 t71.5 157l105 -37q-59 -182 -144 -267t-196 -85q-88 0 -141.5 47t-53.5 149q0 41 10.5 94.5t36.5 145.5l-16 6q-55 -121 -109.5 -206t-110 -137t-111.5 -75.5t-114 -23.5q-92 0 -150 56t-58 154q0 68 23.5 150t51 160t51 144.5t23.5 105.5q0 41 -33 41q-12 0 -26.5 -8.5 t-30.5 -31t-35.5 -60.5t-46.5 -99z" />
<glyph unicode="v" horiz-adv-x="1099" d="M14 633q74 166 163 256t212 90q94 0 143.5 -51t49.5 -131q0 -63 -21.5 -132t-47.5 -134.5t-47.5 -125t-21.5 -104.5q0 -59 38 -91t93 -32q72 0 134.5 54.5t107.5 132t70.5 163.5t25.5 152q-29 -18 -73 -18q-59 0 -99.5 38.5t-40.5 106.5q0 35 12.5 66.5t36 56t54.5 40 t67 15.5q82 0 139.5 -59.5t57.5 -196.5q0 -109 -44 -239t-122 -244.5t-187.5 -191.5t-238.5 -77q-72 0 -130 23t-101 61.5t-66.5 91t-23.5 111.5q0 68 23.5 139.5t51 137t51 120t23.5 89.5q0 39 -31 38q-37 0 -70.5 -48t-80.5 -148z" />
<glyph unicode="w" horiz-adv-x="1617" d="M16 633q74 166 163 256t212 90q94 0 143.5 -51t49.5 -131q0 -76 -27 -153t-58.5 -147.5t-58 -133t-26.5 -109.5q0 -35 16 -57.5t55 -22.5q41 0 84 36t90.5 126t96.5 241.5t102 383.5h270l-73 -314q-23 -98 -36 -178t-13 -145q0 -88 32.5 -117t79.5 -29q70 0 128.5 53.5 t99 131t63.5 164.5t23 153q-29 -18 -74 -18q-57 0 -98 38.5t-41 106.5q0 70 48 124t124 54q80 0 137 -59.5t57 -192.5q0 -72 -16.5 -155.5t-48 -167.5t-79.5 -162t-109.5 -138.5t-136.5 -96.5t-163 -36q-55 0 -104 15.5t-84 50.5t-55.5 90t-20.5 135v29l-10 4 q-29 -66 -65 -124t-80 -103t-100 -71t-124 -26q-113 0 -189.5 69t-76.5 192q0 74 28.5 145.5t63.5 139t63.5 126t28.5 103.5q0 37 -33 36q-37 0 -69.5 -48t-81.5 -148z" />
<glyph unicode="x" horiz-adv-x="1226" d="M-12 150q0 70 39 123t108 53q73 0 105 -54q23 -39 23 -84q0 -17 -3 -36q49 16 88 67t66.5 116.5t43 136.5t15.5 130q0 92 -23.5 135t-70.5 43q-51 0 -88 -53t-78 -168l-107 41q23 80 53.5 149.5t73.5 121t100.5 81t133.5 29.5q100 0 167.5 -69.5t86.5 -235.5h12 q59 154 142 229.5t182 75.5q80 0 130 -47t50 -127q0 -68 -40 -121t-107 -53q-74 0 -107 52q-23 36 -23 79q0 20 5 41q-49 -16 -89 -66.5t-68 -116t-42 -137.5t-14 -129q0 -92 25.5 -135t70.5 -43q53 0 89 52.5t77 168.5l108 -41q-25 -80 -56.5 -149.5t-74.5 -120.5t-98 -81 t-129 -30q-106 0 -175 71t-85 235l-12 -2q-59 -154 -142.5 -229t-183.5 -75q-78 0 -128 47.5t-50 125.5z" />
<glyph unicode="y" horiz-adv-x="1183" d="M12 633q74 166 164 256t211 90q90 0 139 -51t49 -133q0 -63 -18 -131t-39.5 -131.5t-40 -118t-18.5 -92.5q0 -66 63 -66q33 0 73 21.5t88 95t102.5 213t115.5 375.5h279l-201 -844q-35 -141 -93.5 -232.5t-134 -145.5t-162.5 -74.5t-177 -20.5q-45 0 -106.5 7t-118 28.5 t-95.5 63.5t-39 110q0 55 41 105t115 50q72 0 109 -42q34 -40 34 -90v-5q0 -35 -16.5 -60.5t-32.5 -41.5q16 -4 35.5 -8.5t50.5 -4.5q121 0 191.5 85t117.5 270l58 217l-13 6q-45 -82 -90 -136.5t-90 -87t-91 -46t-91 -13.5q-109 0 -162 61.5t-53 147.5q0 59 21.5 128 t46 135.5t46 126t21.5 102.5q0 20 -9 28t-20 8q-37 0 -73.5 -52t-79.5 -144z" />
<glyph unicode="z" horiz-adv-x="1028" d="M-37 111q0 66 61.5 117t194.5 75q104 123 216 207t233 143q-51 2 -94.5 12.5t-80 19.5t-69.5 17.5t-64 8.5t-55 -7.5t-46.5 -28t-45.5 -56t-47 -93.5l-103 33q31 104 65 184t76 132.5t95 79t127 26.5q76 0 145.5 -42t124.5 -128l45 -68l19 5q10 68 28.5 111.5t41 71 t48 39t50.5 11.5q59 0 98 -41t39 -94q0 -66 -61.5 -116t-194.5 -75q-104 -123 -216 -208t-233 -142q51 -4 96.5 -13t85.5 -18.5t75.5 -17.5t68.5 -8t56.5 7t44 26.5t41 55.5t44.5 93l105 -31q-31 -104 -63.5 -184t-73.5 -132t-93.5 -79t-123.5 -27q-86 0 -162 41t-131 129 l-43 68l-19 -4q-10 -68 -28.5 -112t-42 -71.5t-48 -39t-49.5 -11.5q-59 0 -98 40t-39 94z" />
<glyph unicode="{" horiz-adv-x="813" d="M41 489l43 179h55q84 0 137.5 14t88.5 49t52 83t25.5 104.5t13.5 116t17 117.5t34.5 112.5t67.5 99.5q84 82 217.5 104.5t286.5 14.5l-37 -154q-84 -2 -134 -14t-81 -43q-43 -43 -59 -118t-30.5 -161t-39 -170t-82.5 -141q-53 -53 -127.5 -72.5t-175.5 -29.5l-2 -17 q133 -23 201 -65.5t68 -128.5q0 -41 -15.5 -93.5t-33 -106.5t-33 -105.5t-15.5 -88.5q0 -59 43 -93t154 -54l-35 -154q-240 18 -345 90t-105 199q0 53 17 109.5t38.5 112t40 105.5t18.5 89q0 43 -49 76.5t-172 33.5h-47z" />
<glyph unicode="|" horiz-adv-x="591" d="M-18 -406l469 1876l180 -24l-467 -1876z" />
<glyph unicode="}" horiz-adv-x="813" d="M-215 -326l37 154q84 2 134 14.5t81 42.5q43 43 59.5 118t30.5 161t37.5 169t83.5 142q53 53 128 72.5t175 30.5l2 16q-133 23 -200.5 65.5t-67.5 128.5q0 41 15 93.5t32.5 106.5t33 105.5t15.5 88.5q0 59 -43 93t-154 54l35 154q240 -18 345.5 -90t105.5 -199 q0 -53 -18.5 -109.5t-40 -111.5t-39 -105.5t-17.5 -89.5q0 -43 49 -76.5t172 -33.5h47l-43 -179h-55q-84 0 -137 -14t-88 -49t-52.5 -83t-25.5 -104.5t-13.5 -116t-17.5 -117.5t-34.5 -112.5t-67.5 -99.5q-43 -41 -98.5 -66.5t-120 -38t-137 -15.5t-148.5 1z" />
<glyph unicode="~" horiz-adv-x="845" d="M66 492q25 80 50 142t58 105t75 65.5t99 22.5q45 0 83 -17t72 -37.5t61.5 -38t51.5 -17.5q35 0 62 25.5t55 88.5h135q-25 -80 -51 -142t-59 -105t-75 -65.5t-97 -22.5q-45 0 -83 17t-72 37.5t-61.5 38t-52.5 17.5q-35 0 -61.5 -26.5t-54.5 -87.5h-135z" />
<glyph unicode="&#xa1;" horiz-adv-x="616" d="M45 125q0 55 25.5 121.5t72.5 181.5q53 131 107.5 257t118.5 280l135 -27q-12 -78 -20.5 -155.5t-16.5 -160.5t-16.5 -172.5t-16.5 -189.5q-6 -61 -15 -114.5t-29.5 -93.5t-57.5 -63.5t-99 -23.5q-86 0 -137 46t-51 114zM319 1219q0 35 12.5 67.5t37 58t58.5 41t75 15.5 q72 0 118 -43t48 -109q0 -37 -12.5 -69.5t-37 -58t-58.5 -41t-75 -15.5q-72 0 -117.5 43t-48.5 111z" />
<glyph unicode="&#xa2;" horiz-adv-x="1101" d="M55 383q0 117 42 221.5t118 186t180.5 132t227.5 56.5l43 176l153 -20l-39 -166q141 -27 209 -104t68 -167q0 -78 -44 -132t-118 -54q-63 0 -100 36t-37 93q0 49 27.5 87t62.5 54q-12 18 -44 33.5t-73 22.5l-172 -686h39q80 0 155.5 44t137.5 130l94 -74 q-33 -53 -77 -102.5t-101 -86t-129 -59t-158 -24.5l-47 -195l-154 20l48 191q-150 33 -231 134t-81 253zM344 403q0 -86 23.5 -135t64.5 -78l160 641q-66 -20 -113 -67t-76.5 -107.5t-44 -128.5t-14.5 -125z" />
<glyph unicode="&#xa3;" horiz-adv-x="1273" d="M-12 150q0 49 21.5 90t58 71.5t88 47t112.5 16.5q41 0 79 -5t77 -14q6 37 6 62q0 61 -16 133h-287l41 164h205q-6 33 -10.5 65.5t-4.5 65.5q0 113 44 202t119 152.5t174.5 97t207.5 33.5q102 0 177 -23.5t124 -61.5t72.5 -87t23.5 -98q0 -86 -50 -144.5t-132 -58.5 q-72 0 -113.5 38t-41.5 103q0 57 33.5 96.5t74.5 55.5q-18 16 -53 34.5t-98 18.5q-121 0 -181.5 -80t-60.5 -227q0 -47 8 -91t16 -91h342l-40 -164h-295q-10 -66 -43 -128.5t-86 -115.5l20 -6q111 -35 183.5 -55.5t113.5 -20.5q33 0 58.5 9.5t46 30t40 55t41.5 88.5l115 -25 q-27 -109 -58.5 -187.5t-72.5 -130t-95 -75t-126 -23.5q-111 0 -200 47t-187 131q-59 -92 -124 -133t-140 -41q-96 0 -151.5 50.5t-55.5 128.5zM137 158q0 -31 20.5 -49.5t57.5 -18.5q47 0 86 32t70 83q-31 16 -64 25.5t-67 9.5q-41 0 -72 -22.5t-31 -59.5z" />
<glyph unicode="&#xa5;" horiz-adv-x="1310" d="M117 291l37 153h362l27 107h-363l37 154h285l-160 417h-156l43 176h617l-43 -172h-144l134 -399l325 399h-151l43 172h481l-45 -176h-133l-367 -417h277l-39 -154h-361l-26 -107h362l-39 -153h-360l-31 -121h195l-43 -170h-670l41 170h194l31 121h-360z" />
<glyph unicode="&#xa7;" horiz-adv-x="1077" d="M-35 10q0 72 48 119t114 47t105.5 -37t39.5 -88q0 -78 -65 -123q29 -23 84 -42t125 -19q94 0 137 40t43 99q0 63 -62.5 107.5t-179.5 103.5q-55 27 -106 56.5t-90 64.5t-62.5 79t-23.5 99q0 115 84 188.5t227 96.5q-57 41 -94 92t-37 123q0 80 39 141.5t101.5 103.5 t141 64.5t158.5 22.5q94 0 172 -19.5t133.5 -53.5t86 -78t30.5 -95q0 -70 -46 -116t-114 -46t-107.5 37t-39.5 86q0 70 59 117q-25 20 -69.5 32.5t-96.5 12.5q-86 0 -134 -37t-48 -96t60.5 -103.5t175.5 -101.5q51 -27 101 -54.5t89 -62.5t62.5 -77t23.5 -97 q0 -117 -82 -191.5t-221 -99.5q59 -41 98 -94t39 -127q0 -82 -39 -145.5t-102.5 -106.5t-143 -65.5t-161.5 -22.5q-90 0 -172 18.5t-144.5 53t-99.5 84t-37 110.5zM330 598q0 -31 17.5 -55.5t45 -46t63.5 -41t74 -39.5q29 -14 55.5 -28.5t49.5 -27.5q72 27 103.5 65t31.5 85 q0 33 -18.5 59.5t-49 49t-70.5 44.5t-83 42q-20 10 -38.5 20t-41.5 23q-74 -25 -106.5 -65t-32.5 -85z" />
<glyph unicode="&#xa8;" horiz-adv-x="788" d="M238 1241q0 31 11 61.5t33.5 56t54.5 42t73 16.5q59 0 97 -37t38 -100q0 -31 -11.5 -62.5t-34 -57t-54 -42t-72.5 -16.5q-59 0 -97 37t-38 102zM639 1241q0 31 11.5 61.5t34 56t54 42t72.5 16.5q59 0 97 -37t38 -100q0 -31 -11 -62.5t-33.5 -57t-54.5 -42t-73 -16.5 q-59 0 -97 37t-38 102z" />
<glyph unicode="&#xa9;" horiz-adv-x="1611" d="M72 674q0 160 57 296t157.5 235.5t238 154.5t296.5 55q162 0 299 -55t237.5 -154.5t158 -235.5t57.5 -296q0 -162 -57.5 -298t-158 -235.5t-237.5 -155t-299 -55.5q-160 0 -297 55.5t-237.5 155t-157.5 235.5t-57 298zM193 674q0 -139 46 -257t129 -204t198.5 -134 t254.5 -48t256 48t200 134t129 204t46 257t-46 257t-129 203t-199.5 133t-256.5 48q-139 0 -254.5 -48t-198.5 -133t-129 -203t-46 -257zM453 674q0 88 29.5 159.5t79.5 124t115.5 81t139.5 28.5q139 0 209 -88l25 86h104v-293h-115q-35 102 -82 150.5t-118 48.5 q-80 0 -130.5 -63.5t-50.5 -221.5q0 -154 53.5 -221.5t151.5 -67.5q86 0 131 56.5t62 150.5h110q-14 -145 -94.5 -231t-234.5 -86q-86 0 -158 28.5t-122 78.5t-77.5 122t-27.5 158z" />
<glyph unicode="&#xaa;" horiz-adv-x="905" d="M154 881q0 55 11 108t30.5 101.5t45 89.5t56.5 71q49 47 101.5 73t113.5 26q68 0 107.5 -40t52.5 -93l35 118h215l-117 -444q-12 -49 -12 -70q0 -35 30 -35q20 0 42 29t50 109l80 -27q-45 -135 -106.5 -195.5t-147.5 -60.5q-63 0 -102 36t-39 99q0 8 1 17.5t1 19.5l-10 4 q-86 -176 -230 -176q-53 0 -93 19.5t-65.5 52t-37.5 75.5t-12 93zM385 887q0 -57 19.5 -81t50.5 -24q39 0 72.5 38t58 91.5t39 113.5t14.5 103q0 104 -70 105q-41 0 -74.5 -37t-58 -91t-38 -113.5t-13.5 -104.5z" />
<glyph unicode="&#xab;" horiz-adv-x="1067" d="M49 475q0 29 17.5 50.5t52.5 43.5l438 297l68 -84l-316 -327l162 -326l-94 -66l-293 330q-23 25 -29 46.5t-6 35.5zM489 475q0 29 17.5 50.5t52.5 43.5l440 297l68 -84l-315 -327l159 -326l-92 -66l-293 330q-23 27 -30 47.5t-7 34.5z" />
<glyph unicode="&#xad;" horiz-adv-x="724" d="M84 416l49 205h529l-50 -205h-528z" />
<glyph unicode="&#xae;" horiz-adv-x="1034" d="M188 961q0 98 35 181t96.5 143.5t145.5 94t182 33.5t182 -33.5t145.5 -94t96.5 -143.5t35 -181t-35 -182.5t-96.5 -145t-145.5 -94t-182 -33.5t-182 33.5t-145.5 94t-96.5 144.5t-35 183zM274 961q0 -84 27 -154t76 -120t117.5 -77.5t152.5 -27.5t152.5 27.5t117 77.5 t75 120t26.5 154t-26.5 153.5t-75 119.5t-117 77.5t-152.5 27.5t-152.5 -27.5t-117.5 -77.5t-76 -120t-27 -153zM424 737v62h61v331h-61v62h254q102 0 143 -37t41 -82q0 -41 -30.5 -71.5t-112.5 -40.5v-5q66 -6 89 -31.5t30 -66.5l4 -24q2 -23 6 -30t14 -7q16 0 27 41 l43 -13q-10 -41 -34 -69.5t-71 -28.5q-109 0 -108 115v22q0 35 -12.5 51.5t-49.5 16.5h-55v-133h64v-62h-242zM602 989h60q39 0 57 15.5t18 56.5q0 37 -15 54.5t-58 17.5h-62v-144z" />
<glyph unicode="&#xaf;" horiz-adv-x="743" d="M225 1106l51 201h611l-49 -201h-613z" />
<glyph unicode="&#xb0;" horiz-adv-x="819" d="M193 997q0 82 29.5 153t80.5 122t122 79.5t155 28.5q82 0 142 -24.5t100 -64.5t59.5 -91t19.5 -106q0 -84 -28.5 -155t-81 -122t-123 -79.5t-154.5 -28.5q-82 0 -142.5 24.5t-100.5 64.5t-59 92t-19 107zM385 999q0 -74 39 -113.5t102 -39.5q47 0 82 22.5t57.5 58.5 t34 79t11.5 84q0 74 -37 113.5t-103 39.5q-49 0 -83.5 -22.5t-57 -58.5t-34 -79t-11.5 -84z" />
<glyph unicode="&#xb1;" horiz-adv-x="1103" d="M53 68l37 149h791l-37 -149h-791zM201 655l37 148h313l78 315h164l-78 -315h313l-37 -148h-313l-80 -321h-164l80 321h-313z" />
<glyph unicode="&#xb4;" horiz-adv-x="548" d="M236 1096l170 274q47 74 88 121t100 47t94 -38t35 -85q0 -59 -41 -97t-113 -87l-190 -135h-143z" />
<glyph unicode="&#xb6;" horiz-adv-x="1329" d="M131 748q0 106 43 201t132 166t225.5 113t322.5 42h616l-40 -170h-154l-332 -1327h-174l330 1329h-135l-330 -1329h-174l139 559q-106 4 -192 34.5t-147.5 85t-95.5 129t-34 167.5z" />
<glyph unicode="&#xb7;" horiz-adv-x="530" d="M135 641q0 41 14.5 78t40 65.5t59.5 46t75 17.5q72 0 116.5 -49t44.5 -123q0 -41 -14 -78t-39.5 -65.5t-60.5 -46t-74 -17.5q-72 0 -117 49t-45 123z" />
<glyph unicode="&#xb8;" horiz-adv-x="690" d="M-199 -426l70 98q37 -23 84 -39t100 -16q43 0 67.5 16.5t24.5 47.5q0 37 -49 56t-137 13l-29 80l248 184h160l-166 -135l2 -8q90 -18 139.5 -62.5t49.5 -109.5q0 -90 -76 -149.5t-211 -59.5q-66 0 -141.5 21.5t-135.5 62.5z" />
<glyph unicode="&#xba;" horiz-adv-x="794" d="M162 926q0 86 33.5 163.5t91 135t131 91.5t153.5 34q68 0 123.5 -20.5t95 -58.5t62 -90.5t22.5 -115.5q0 -86 -34.5 -163t-91 -135t-131 -92t-154.5 -34q-68 0 -123 21.5t-95 59.5t-61.5 90t-21.5 114zM383 852q0 -68 22.5 -90.5t53.5 -22.5q47 0 83 46t60.5 109.5 t36.5 132.5t12 114q0 66 -21.5 89t-56.5 23q-47 0 -82.5 -46t-59 -110.5t-36 -132t-12.5 -112.5z" />
<glyph unicode="&#xbb;" horiz-adv-x="1067" d="M-2 150l315 327l-159 326l92 65l293 -329q23 -27 29.5 -47.5t6.5 -34.5q0 -29 -17 -50.5t-52 -44.5l-440 -296zM440 150l316 327l-162 326l94 65l293 -329q23 -25 29 -46.5t6 -35.5q0 -29 -17.5 -50.5t-52.5 -44.5l-438 -296z" />
<glyph unicode="&#xbf;" horiz-adv-x="1007" d="M2 295q0 86 32 146.5t89 102.5t135 70.5t168 53.5q102 29 151.5 52t49.5 68q0 57 -74 58q-35 0 -78 -13.5t-102 -54.5l-62 86q53 51 128 83t171 32q47 0 93.5 -13.5t83 -40t59 -67.5t22.5 -98q0 -55 -21.5 -98.5t-62.5 -77t-98 -61t-129 -52.5q-59 -20 -110.5 -40.5 t-89.5 -46.5t-59.5 -59.5t-21.5 -80.5q0 -72 49.5 -103.5t120.5 -31.5q41 0 78 8t60 24q-16 23 -27.5 48.5t-11.5 58.5q0 29 10 57.5t31.5 51t53.5 37t75 14.5q70 0 116 -44.5t46 -115.5q0 -61 -34 -113.5t-93.5 -89.5t-138.5 -58.5t-171 -21.5q-115 0 -197.5 27.5t-136 74 t-79 105.5t-25.5 123zM551 1225q0 35 13.5 66.5t38 56t58 39t72.5 14.5q74 0 120 -45t46 -115q0 -35 -13.5 -66.5t-38 -56t-58 -39t-72.5 -14.5q-74 0 -120 46t-46 114z" />
<glyph unicode="&#xc0;" horiz-adv-x="1427" d="M-111 0l43 178h136l694 1178h313l119 -1178h168l-43 -178h-660l46 178h167l-18 252h-432l-143 -252h174l-45 -178h-519zM512 592h332l-35 510h-8zM672 1810q0 47 34.5 87t96.5 40q39 0 63.5 -17t42 -46t27.5 -69t20 -85l52 -227h-129l-109 133q-53 66 -75.5 106t-22.5 78 z" />
<glyph unicode="&#xc1;" horiz-adv-x="1427" d="M-111 0l43 178h136l694 1178h313l119 -1178h168l-43 -178h-660l46 178h167l-18 252h-432l-143 -252h174l-45 -178h-519zM512 592h332l-35 510h-8zM825 1493l170 274q47 74 88 121t101 47q59 0 94 -37.5t35 -85.5q0 -59 -41 -97t-113 -87l-190 -135h-144z" />
<glyph unicode="&#xc2;" horiz-adv-x="1427" d="M-111 0l43 178h136l694 1178h313l119 -1178h168l-43 -178h-660l46 178h167l-18 252h-432l-143 -252h174l-45 -178h-519zM512 592h332l-35 510h-8zM594 1493l352 403h166l152 -403h-166l-111 176l-209 -176h-184z" />
<glyph unicode="&#xc3;" horiz-adv-x="1427" d="M-111 0l43 178h136l694 1178h313l119 -1178h168l-43 -178h-660l46 178h167l-18 252h-432l-143 -252h174l-45 -178h-519zM512 592h332l-35 510h-8zM571 1487q25 80 51.5 142.5t59.5 105.5t75 65.5t97 22.5q49 0 91 -17.5t79 -38t68.5 -38t60.5 -17.5q35 0 61.5 26.5 t55.5 90.5h135q-25 -80 -51.5 -142.5t-59 -105.5t-74.5 -65.5t-98 -22.5q-49 0 -91 17.5t-79 38t-68.5 38t-60.5 17.5q-35 0 -61.5 -27t-54.5 -90h-136z" />
<glyph unicode="&#xc4;" horiz-adv-x="1427" d="M-111 0l43 178h136l694 1178h313l119 -1178h168l-43 -178h-660l46 178h167l-18 252h-432l-143 -252h174l-45 -178h-519zM512 592h332l-35 510h-8zM633 1638q0 31 11 62t33.5 56.5t54.5 42t73 16.5q59 0 97 -37.5t38 -100.5q0 -31 -11 -62.5t-34 -57t-54.5 -42 t-72.5 -16.5q-59 0 -97 37t-38 102zM1034 1638q0 31 11.5 62t34 56.5t54 42t72.5 16.5q59 0 97 -37.5t38 -100.5q0 -31 -11 -62.5t-33.5 -57t-54.5 -42t-73 -16.5q-59 0 -97 37t-38 102z" />
<glyph unicode="&#xc5;" horiz-adv-x="1427" d="M-111 0l43 178h140l690 1174q-35 29 -52.5 69.5t-17.5 87.5q0 51 19.5 98.5t55.5 83t87 57t115 21.5q117 0 179 -63.5t62 -149.5q0 -72 -34.5 -132t-98.5 -95l117 -1151h168l-43 -178h-660l46 178h167l-18 252h-434l-144 -252h177l-45 -178h-519zM510 592h334l-35 514h-8 zM848 1501q0 -41 21.5 -72.5t68.5 -31.5q53 0 86 50t33 116q0 41 -21.5 72.5t-70.5 31.5q-51 0 -84 -49t-33 -117z" />
<glyph unicode="&#xc6;" horiz-adv-x="2123" d="M-150 0l44 178h133l882 991h-186l45 179h1462l-121 -480h-161q2 96 -3.5 155.5t-24.5 93.5t-58 45.5t-105 11.5h-297l-102 -408h72q43 0 70.5 6t49 25.5t40 57.5t44.5 99h160l-135 -546h-158q8 61 8 99t-10 58.5t-34.5 27.5t-65.5 7h-82l-107 -426h291q76 0 126 15.5 t88 56.5t72 109.5t79 176.5h180l-133 -532h-1247l43 178h182l67 273h-454l-238 -275h162l-43 -176h-535zM641 612h358l140 553h-23z" />
<glyph unicode="&#xc7;" horiz-adv-x="1396" d="M119 543q0 139 49 287.5t143.5 270.5t233.5 200.5t319 78.5q127 0 222.5 -44t150.5 -128l92 168h187l-134 -536h-194q-6 102 -32 172.5t-64.5 116t-91 64.5t-109.5 19q-82 0 -146.5 -37.5t-113.5 -100t-83 -139.5t-55.5 -156t-30.5 -149.5t-9 -119.5q0 -102 26.5 -170 t68.5 -107.5t93 -56t102 -16.5q78 0 138.5 26.5t109.5 74.5t89 118t77 156l168 -54q-37 -106 -90 -197t-125 -161t-167 -111t-214 -45l-108 -88l2 -8q90 -18 139 -62.5t49 -109.5q0 -90 -76 -149.5t-211 -59.5q-66 0 -141.5 21.5t-134.5 62.5l69 98q37 -23 84.5 -39 t100.5 -16q43 0 67.5 16.5t24.5 47.5q0 37 -49 56t-137 13l-29 80l196 147q-109 18 -193.5 65.5t-143 120.5t-89 169t-30.5 211z" />
<glyph unicode="&#xc8;" horiz-adv-x="1398" d="M-61 0l45 178h180l248 991h-183l43 179h1231l-121 -480h-161q2 96 -3.5 155.5t-24.5 93.5t-58 45.5t-105 11.5h-297l-102 -408h71q43 0 71 6t49.5 25.5t40 57.5t44.5 99h160l-135 -546h-156q6 61 6 99t-10 58.5t-34.5 27.5t-65.5 7h-82l-107 -426h291q76 0 126 15.5 t88 56.5t72 109.5t81 176.5h180l-133 -532h-1249zM688 1810q0 47 35 87t96 40q39 0 63.5 -17t42 -46t28 -69t20.5 -85l51 -227h-129l-109 133q-53 66 -75.5 106t-22.5 78z" />
<glyph unicode="&#xc9;" horiz-adv-x="1398" d="M-61 0l45 178h180l248 991h-183l43 179h1231l-121 -480h-161q2 96 -3.5 155.5t-24.5 93.5t-58 45.5t-105 11.5h-297l-102 -408h71q43 0 71 6t49.5 25.5t40 57.5t44.5 99h160l-135 -546h-156q6 61 6 99t-10 58.5t-34.5 27.5t-65.5 7h-82l-107 -426h291q76 0 126 15.5 t88 56.5t72 109.5t81 176.5h180l-133 -532h-1249zM842 1493l170 274q47 74 88 121t100 47t94 -37.5t35 -85.5q0 -59 -41 -97t-112 -87l-191 -135h-143z" />
<glyph unicode="&#xca;" horiz-adv-x="1398" d="M-61 0l45 178h180l248 991h-183l43 179h1231l-121 -480h-161q2 96 -3.5 155.5t-24.5 93.5t-58 45.5t-105 11.5h-297l-102 -408h71q43 0 71 6t49.5 25.5t40 57.5t44.5 99h160l-135 -546h-156q6 61 6 99t-10 58.5t-34.5 27.5t-65.5 7h-82l-107 -426h291q76 0 126 15.5 t88 56.5t72 109.5t81 176.5h180l-133 -532h-1249zM612 1493l353 403h165l152 -403h-166l-110 176l-209 -176h-185z" />
<glyph unicode="&#xcb;" horiz-adv-x="1398" d="M-61 0l45 178h180l248 991h-183l43 179h1231l-121 -480h-161q2 96 -3.5 155.5t-24.5 93.5t-58 45.5t-105 11.5h-297l-102 -408h71q43 0 71 6t49.5 25.5t40 57.5t44.5 99h160l-135 -546h-156q6 61 6 99t-10 58.5t-34.5 27.5t-65.5 7h-82l-107 -426h291q76 0 126 15.5 t88 56.5t72 109.5t81 176.5h180l-133 -532h-1249zM651 1638q0 31 11.5 62t34 56.5t54 42t72.5 16.5q59 0 97 -37.5t38 -100.5q0 -31 -11 -62.5t-33.5 -57t-54.5 -42t-73 -16.5q-59 0 -97 37t-38 102zM1053 1638q0 31 11 62t33.5 56.5t54.5 42t73 16.5q59 0 97 -37.5 t38 -100.5q0 -31 -11.5 -62.5t-34 -57t-54 -42t-72.5 -16.5q-59 0 -97 37t-38 102z" />
<glyph unicode="&#xcc;" horiz-adv-x="813" d="M-55 0l45 178h180l248 991h-182l43 179h684l-43 -179h-183l-245 -991h182l-43 -178h-686zM381 1810q0 47 35 87t96 40q39 0 63.5 -17t42 -46t27.5 -69t21 -85l51 -227h-129l-109 133q-53 66 -75.5 106t-22.5 78z" />
<glyph unicode="&#xcd;" horiz-adv-x="813" d="M-55 0l45 178h180l248 991h-182l43 179h684l-43 -179h-183l-245 -991h182l-43 -178h-686zM535 1493l170 274q47 74 88 121t100 47t94 -37.5t35 -85.5q0 -59 -41 -97t-113 -87l-190 -135h-143z" />
<glyph unicode="&#xce;" horiz-adv-x="813" d="M-55 0l45 178h180l248 991h-182l43 179h684l-43 -179h-183l-245 -991h182l-43 -178h-686zM305 1493l352 403h166l152 -403h-166l-111 176l-209 -176h-184z" />
<glyph unicode="&#xcf;" horiz-adv-x="813" d="M-55 0l45 178h180l248 991h-182l43 179h684l-43 -179h-183l-245 -991h182l-43 -178h-686zM344 1638q0 31 11.5 62t34 56.5t54 42t72.5 16.5q59 0 97 -37.5t38 -100.5q0 -31 -11 -62.5t-33.5 -57t-54.5 -42t-73 -16.5q-59 0 -97 37t-38 102zM745 1638q0 31 11.5 62 t34 56.5t54.5 42t73 16.5q59 0 97 -37.5t38 -100.5q0 -31 -11.5 -62.5t-34 -57t-54 -42t-72.5 -16.5q-59 0 -97.5 37t-38.5 102z" />
<glyph unicode="&#xd0;" horiz-adv-x="1495" d="M-61 0l45 178h180l108 436h-180l43 177h180l97 378h-183l43 179h543q170 0 298 -40t214 -112t129 -171t43 -216q0 -154 -56.5 -302.5t-172.5 -264.5q-117 -117 -287 -179.5t-418 -62.5h-626zM483 174h111q123 0 208 29.5t161 105.5q43 43 78.5 106.5t61 139.5t41 157 t15.5 154q0 158 -81 233t-255 75h-90l-96 -383h235l-45 -177h-235z" />
<glyph unicode="&#xd1;" horiz-adv-x="1589" d="M-45 0l43 178h172l248 991h-176l45 179h516l342 -947h18l191 768h-185l45 179h541l-43 -179h-176l-295 -1187h-278l-377 1048h-19l-213 -852h183l-43 -178h-539zM666 1487q25 80 51 142.5t59 105.5t75 65.5t97 22.5q49 0 91 -17.5t79 -38t69 -38t60 -17.5q35 0 61.5 26.5 t55.5 90.5h135q-25 -80 -51.5 -142.5t-59 -105.5t-74.5 -65.5t-97 -22.5q-49 0 -91.5 17.5t-79 38t-68 38t-60.5 17.5q-35 0 -62 -27t-55 -90h-135z" />
<glyph unicode="&#xd2;" d="M119 563q0 133 48 277.5t144.5 264.5t240.5 197.5t337 77.5q131 0 240.5 -43t189.5 -121.5t124 -188t44 -243.5q0 -133 -48 -277.5t-144.5 -264t-241 -197.5t-336.5 -78q-133 0 -242.5 43t-188.5 121t-123 188.5t-44 243.5zM453 451q0 -166 73.5 -241t192.5 -75 q78 0 140.5 40t110.5 104.5t82.5 146.5t56 166t32 164t10.5 141q0 166 -72.5 240.5t-193.5 74.5q-78 0 -140.5 -39.5t-110.5 -104t-82 -146.5t-56.5 -166t-32.5 -165t-10 -140zM717 1810q0 47 34.5 87t96.5 40q39 0 63.5 -17t42 -46t27.5 -69t20 -85l52 -227h-129l-109 133 q-53 66 -75.5 106t-22.5 78z" />
<glyph unicode="&#xd3;" d="M119 563q0 133 48 277.5t144.5 264.5t240.5 197.5t337 77.5q131 0 240.5 -43t189.5 -121.5t124 -188t44 -243.5q0 -133 -48 -277.5t-144.5 -264t-241 -197.5t-336.5 -78q-133 0 -242.5 43t-188.5 121t-123 188.5t-44 243.5zM453 451q0 -166 73.5 -241t192.5 -75 q78 0 140.5 40t110.5 104.5t82.5 146.5t56 166t32 164t10.5 141q0 166 -72.5 240.5t-193.5 74.5q-78 0 -140.5 -39.5t-110.5 -104t-82 -146.5t-56.5 -166t-32.5 -165t-10 -140zM870 1493l170 274q47 74 88 121t101 47q59 0 94 -37.5t35 -85.5q0 -59 -41 -97t-113 -87 l-190 -135h-144z" />
<glyph unicode="&#xd4;" d="M119 563q0 133 48 277.5t144.5 264.5t240.5 197.5t337 77.5q131 0 240.5 -43t189.5 -121.5t124 -188t44 -243.5q0 -133 -48 -277.5t-144.5 -264t-241 -197.5t-336.5 -78q-133 0 -242.5 43t-188.5 121t-123 188.5t-44 243.5zM453 451q0 -166 73.5 -241t192.5 -75 q78 0 140.5 40t110.5 104.5t82.5 146.5t56 166t32 164t10.5 141q0 166 -72.5 240.5t-193.5 74.5q-78 0 -140.5 -39.5t-110.5 -104t-82 -146.5t-56.5 -166t-32.5 -165t-10 -140zM641 1493l352 403h166l152 -403h-166l-111 176l-209 -176h-184z" />
<glyph unicode="&#xd5;" d="M119 563q0 133 48 277.5t144.5 264.5t240.5 197.5t337 77.5q131 0 240.5 -43t189.5 -121.5t124 -188t44 -243.5q0 -133 -48 -277.5t-144.5 -264t-241 -197.5t-336.5 -78q-133 0 -242.5 43t-188.5 121t-123 188.5t-44 243.5zM453 451q0 -166 73.5 -241t192.5 -75 q78 0 140.5 40t110.5 104.5t82.5 146.5t56 166t32 164t10.5 141q0 166 -72.5 240.5t-193.5 74.5q-78 0 -140.5 -39.5t-110.5 -104t-82 -146.5t-56.5 -166t-32.5 -165t-10 -140zM616 1487q25 80 51.5 142.5t59.5 105.5t75 65.5t97 22.5q49 0 91 -17.5t79 -38t68.5 -38 t60.5 -17.5q35 0 61.5 26.5t55.5 90.5h135q-25 -80 -51.5 -142.5t-59 -105.5t-74.5 -65.5t-98 -22.5q-49 0 -91 17.5t-78.5 38t-68.5 38t-61 17.5q-35 0 -61.5 -27t-54.5 -90h-136z" />
<glyph unicode="&#xd6;" d="M119 563q0 133 48 277.5t144.5 264.5t240.5 197.5t337 77.5q131 0 240.5 -43t189.5 -121.5t124 -188t44 -243.5q0 -133 -48 -277.5t-144.5 -264t-241 -197.5t-336.5 -78q-133 0 -242.5 43t-188.5 121t-123 188.5t-44 243.5zM453 451q0 -166 73.5 -241t192.5 -75 q78 0 140.5 40t110.5 104.5t82.5 146.5t56 166t32 164t10.5 141q0 166 -72.5 240.5t-193.5 74.5q-78 0 -140.5 -39.5t-110.5 -104t-82 -146.5t-56.5 -166t-32.5 -165t-10 -140zM678 1638q0 31 11 62t33.5 56.5t54.5 42t73 16.5q59 0 97 -37.5t38 -100.5q0 -31 -11 -62.5 t-33.5 -57t-54.5 -42t-73 -16.5q-59 0 -97 37t-38 102zM1079 1638q0 31 11.5 62t34 56.5t54 42t72.5 16.5q59 0 97 -37.5t38 -100.5q0 -31 -11 -62.5t-33.5 -57t-54.5 -42t-73 -16.5q-59 0 -97 37t-38 102z" />
<glyph unicode="&#xd7;" horiz-adv-x="1064" d="M92 301l357 291l-209 285l143 114l203 -289l348 293l100 -133l-356 -289l209 -284l-144 -113l-202 287l-348 -293z" />
<glyph unicode="&#xd8;" d="M33 -16l198 209q-53 74 -82.5 166.5t-29.5 203.5q0 133 48 277.5t144.5 264.5t240.5 197.5t337 77.5q111 0 204 -30.5t169 -85.5l190 206l119 -106l-199 -211q53 -74 84 -166t31 -203q0 -133 -48 -277.5t-144.5 -264t-241 -197.5t-336.5 -78q-111 0 -205 30t-170 85 l-190 -205zM453 428.5q0 -10.5 2 -20.5l649 692q-35 57 -91 84.5t-128 27.5q-78 0 -140.5 -39.5t-110.5 -104t-82 -146.5t-56.5 -166t-32.5 -165t-10 -140v-22.5zM498 248q35 -59 92 -86t129 -27q78 0 140.5 40t110.5 104.5t82.5 146.5t56 166t32 164t10.5 141q0 10 -1 21.5 t-1 21.5z" />
<glyph unicode="&#xd9;" horiz-adv-x="1497" d="M193 342q0 43 10 96.5t20 98.5l158 632h-172l43 179h674l-43 -179h-178l-164 -651q-20 -82 -21 -145q0 -53 19.5 -92t53.5 -63.5t79 -36t96 -11.5q137 0 223 86q41 41 67.5 96.5t47.5 132.5l172 684h-174l43 179h530l-45 -179h-164l-182 -731q-23 -92 -61.5 -173 t-104.5 -146q-72 -72 -176.5 -112t-251.5 -40q-123 0 -217 29t-156.5 80t-94 119.5t-31.5 146.5zM815 1810q0 47 35 87t96 40q39 0 63.5 -17t42 -46t28 -69t20.5 -85l51 -227h-129l-109 133q-53 66 -75.5 106t-22.5 78z" />
<glyph unicode="&#xda;" horiz-adv-x="1497" d="M193 342q0 43 10 96.5t20 98.5l158 632h-172l43 179h674l-43 -179h-178l-164 -651q-20 -82 -21 -145q0 -53 19.5 -92t53.5 -63.5t79 -36t96 -11.5q137 0 223 86q41 41 67.5 96.5t47.5 132.5l172 684h-174l43 179h530l-45 -179h-164l-182 -731q-23 -92 -61.5 -173 t-104.5 -146q-72 -72 -176.5 -112t-251.5 -40q-123 0 -217 29t-156.5 80t-94 119.5t-31.5 146.5zM969 1493l170 274q47 74 88 121t100 47t94 -37.5t35 -85.5q0 -59 -41 -97t-112 -87l-191 -135h-143z" />
<glyph unicode="&#xdb;" horiz-adv-x="1497" d="M193 342q0 43 10 96.5t20 98.5l158 632h-172l43 179h674l-43 -179h-178l-164 -651q-20 -82 -21 -145q0 -53 19.5 -92t53.5 -63.5t79 -36t96 -11.5q137 0 223 86q41 41 67.5 96.5t47.5 132.5l172 684h-174l43 179h530l-45 -179h-164l-182 -731q-23 -92 -61.5 -173 t-104.5 -146q-72 -72 -176.5 -112t-251.5 -40q-123 0 -217 29t-156.5 80t-94 119.5t-31.5 146.5zM737 1493l353 403h165l152 -403h-166l-111 176l-208 -176h-185z" />
<glyph unicode="&#xdc;" horiz-adv-x="1497" d="M193 342q0 43 10 96.5t20 98.5l158 632h-172l43 179h674l-43 -179h-178l-164 -651q-20 -82 -21 -145q0 -53 19.5 -92t53.5 -63.5t79 -36t96 -11.5q137 0 223 86q41 41 67.5 96.5t47.5 132.5l172 684h-174l43 179h530l-45 -179h-164l-182 -731q-23 -92 -61.5 -173 t-104.5 -146q-72 -72 -176.5 -112t-251.5 -40q-123 0 -217 29t-156.5 80t-94 119.5t-31.5 146.5zM776 1638q0 31 11.5 62t34 56.5t54 42t72.5 16.5q59 0 97 -37.5t38 -100.5q0 -31 -11 -62.5t-33.5 -57t-54.5 -42t-73 -16.5q-59 0 -97 37t-38 102zM1178 1638q0 31 11 62 t33.5 56.5t54.5 42t73 16.5q59 0 97 -37.5t38 -100.5q0 -31 -11.5 -62.5t-34 -57t-54 -42t-72.5 -16.5q-59 0 -97 37t-38 102z" />
<glyph unicode="&#xdd;" horiz-adv-x="1337" d="M174 1169l43 179h666l-43 -177h-164l143 -444l359 444h-162l45 177h510l-43 -179h-139l-523 -616l-94 -375h182l-43 -178h-686l43 178h183l94 379l-215 612h-156zM823 1493l170 274q47 74 88 121t101 47q59 0 94 -37.5t35 -85.5q0 -59 -41 -97t-113 -87l-190 -135h-144z " />
<glyph unicode="&#xde;" horiz-adv-x="1357" d="M-55 0l43 178h176l248 991h-179l43 179h682l-45 -179h-182l-26 -106h94q154 0 260 -22.5t172.5 -64.5t95.5 -103.5t29 -139.5q0 -72 -31 -146.5t-104.5 -138t-198.5 -103.5t-313 -40h-193l-31 -127h183l-43 -178h-680zM559 475h135q92 0 151.5 24.5t94.5 62.5t48 83 t13 86q0 88 -60 125t-189 37h-90z" />
<glyph unicode="&#xdf;" horiz-adv-x="1280" d="M-274 -188q0 61 39.5 109t107.5 48q49 0 83 -32.5t34 -90.5q0 -35 -11.5 -62.5t-21.5 -37.5q27 0 46.5 8t34.5 33t28.5 70t27.5 116l164 815h-180l37 146h172q55 244 197.5 368.5t371.5 124.5q201 0 311.5 -74.5t110.5 -187.5q0 -53 -18.5 -93t-48 -69.5t-68.5 -53 t-78 -44.5q-78 -43 -111.5 -73.5t-33.5 -75.5q0 -41 35.5 -76t95.5 -82q31 -25 62.5 -53.5t57 -62t42 -74.5t16.5 -91q0 -74 -30 -136t-82 -106t-122.5 -69.5t-154.5 -25.5q-164 0 -241 59t-77 139q0 61 39 107.5t111 46.5q59 0 94 -36t35 -91q0 -35 -13.5 -60.5 t-33.5 -46.5q14 -8 32.5 -13t47.5 -5q59 0 98 40t39 105q0 59 -43 104.5t-103 92.5q-61 49 -109 100t-48 123q0 37 9 64.5t29.5 54.5t53.5 55.5t80 65.5q35 27 64.5 53.5t52 57t35 68.5t12.5 89q0 72 -40 116t-110 44q-109 0 -168 -85t-94 -255l-176 -832q-29 -139 -78 -234 t-110.5 -154.5t-134.5 -85t-148 -25.5q-104 0 -161.5 49t-57.5 121z" />
<glyph unicode="&#xe0;" horiz-adv-x="1214" d="M49 315q0 78 15.5 155t43 145.5t64.5 126t80 100.5q70 70 141.5 104.5t159.5 34.5q94 0 149.5 -57.5t71.5 -130.5l47 168h295l-170 -644q-10 -35 -13 -57t-3 -41q0 -27 12 -38t29 -11q33 0 63.5 42t71.5 157l104 -37q-59 -182 -144 -267t-198 -85q-86 0 -139 47t-53 143 q0 10 1 23.5t3 27.5l-16 6q-59 -127 -141.5 -187t-180.5 -60q-74 0 -129 26.5t-91 72.5t-54.5 107.5t-18.5 128.5zM360 319q0 -84 29 -117.5t72 -33.5q57 0 106 54t86 132t57.5 164t20.5 150q0 154 -102 153q-59 0 -108.5 -54t-84.5 -132t-55.5 -165t-20.5 -151zM442 1413 q0 47 35 87t96 40q39 0 64 -17.5t42 -46t27.5 -68.5t20.5 -85l51 -227h-129l-108 133q-53 66 -76 105.5t-23 78.5z" />
<glyph unicode="&#xe1;" horiz-adv-x="1214" d="M49 315q0 78 15.5 155t43 145.5t64.5 126t80 100.5q70 70 141.5 104.5t159.5 34.5q94 0 149.5 -57.5t71.5 -130.5l47 168h295l-170 -644q-10 -35 -13 -57t-3 -41q0 -27 12 -38t29 -11q33 0 63.5 42t71.5 157l104 -37q-59 -182 -144 -267t-198 -85q-86 0 -139 47t-53 143 q0 10 1 23.5t3 27.5l-16 6q-59 -127 -141.5 -187t-180.5 -60q-74 0 -129 26.5t-91 72.5t-54.5 107.5t-18.5 128.5zM360 319q0 -84 29 -117.5t72 -33.5q57 0 106 54t86 132t57.5 164t20.5 150q0 154 -102 153q-59 0 -108.5 -54t-84.5 -132t-55.5 -165t-20.5 -151zM596 1096 l170 274q47 74 88 121t100 47t94 -38t35 -85q0 -59 -41 -97t-112 -87l-191 -135h-143z" />
<glyph unicode="&#xe2;" horiz-adv-x="1214" d="M49 315q0 78 15.5 155t43 145.5t64.5 126t80 100.5q70 70 141.5 104.5t159.5 34.5q94 0 149.5 -57.5t71.5 -130.5l47 168h295l-170 -644q-10 -35 -13 -57t-3 -41q0 -27 12 -38t29 -11q33 0 63.5 42t71.5 157l104 -37q-59 -182 -144 -267t-198 -85q-86 0 -139 47t-53 143 q0 10 1 23.5t3 27.5l-16 6q-59 -127 -141.5 -187t-180.5 -60q-74 0 -129 26.5t-91 72.5t-54.5 107.5t-18.5 128.5zM360 319q0 -84 29 -117.5t72 -33.5q57 0 106 54t86 132t57.5 164t20.5 150q0 154 -102 153q-59 0 -108.5 -54t-84.5 -132t-55.5 -165t-20.5 -151zM362 1096 l353 403h166l151 -403h-166l-110 176l-209 -176h-185z" />
<glyph unicode="&#xe3;" horiz-adv-x="1214" d="M49 315q0 78 15.5 155t43 145.5t64.5 126t80 100.5q70 70 141.5 104.5t159.5 34.5q94 0 149.5 -57.5t71.5 -130.5l47 168h295l-170 -644q-10 -35 -13 -57t-3 -41q0 -27 12 -38t29 -11q33 0 63.5 42t71.5 157l104 -37q-59 -182 -144 -267t-198 -85q-86 0 -139 47t-53 143 q0 10 1 23.5t3 27.5l-16 6q-59 -127 -141.5 -187t-180.5 -60q-74 0 -129 26.5t-91 72.5t-54.5 107.5t-18.5 128.5zM342 1090q25 80 51.5 142t59 105t74.5 65.5t98 22.5q49 0 91 -17t78.5 -37.5t68.5 -38t61 -17.5q35 0 61.5 26.5t54.5 90.5h136q-25 -80 -51.5 -142.5 t-59.5 -105.5t-75 -65.5t-97 -22.5q-49 0 -91 17t-79 37.5t-68.5 38t-60.5 17.5q-35 0 -61.5 -26.5t-55.5 -89.5h-135zM360 319q0 -84 29 -117.5t72 -33.5q57 0 106 54t86 132t57.5 164t20.5 150q0 154 -102 153q-59 0 -108.5 -54t-84.5 -132t-55.5 -165t-20.5 -151z" />
<glyph unicode="&#xe4;" horiz-adv-x="1214" d="M49 315q0 78 15.5 155t43 145.5t64.5 126t80 100.5q70 70 141.5 104.5t159.5 34.5q94 0 149.5 -57.5t71.5 -130.5l47 168h295l-170 -644q-10 -35 -13 -57t-3 -41q0 -27 12 -38t29 -11q33 0 63.5 42t71.5 157l104 -37q-59 -182 -144 -267t-198 -85q-86 0 -139 47t-53 143 q0 10 1 23.5t3 27.5l-16 6q-59 -127 -141.5 -187t-180.5 -60q-74 0 -129 26.5t-91 72.5t-54.5 107.5t-18.5 128.5zM360 319q0 -84 29 -117.5t72 -33.5q57 0 106 54t86 132t57.5 164t20.5 150q0 154 -102 153q-59 0 -108.5 -54t-84.5 -132t-55.5 -165t-20.5 -151zM401 1241 q0 31 11.5 61.5t34 56t54 42t72.5 16.5q59 0 97.5 -37t38.5 -100q0 -31 -11.5 -62.5t-34 -57t-54 -42t-72.5 -16.5q-59 0 -97.5 37t-38.5 102zM803 1241q0 31 11 61.5t33.5 56t54.5 42t73 16.5q59 0 97 -37t38 -100q0 -31 -11.5 -62.5t-34 -57t-54 -42t-72.5 -16.5 q-59 0 -97 37t-38 102z" />
<glyph unicode="&#xe5;" horiz-adv-x="1214" d="M49 315q0 78 15.5 155t43 145.5t64.5 126t80 100.5q70 70 141.5 104.5t159.5 34.5q94 0 149.5 -57.5t71.5 -130.5l47 168h295l-170 -644q-10 -35 -13 -57t-3 -41q0 -27 12 -38t29 -11q33 0 63.5 42t71.5 157l104 -37q-59 -182 -144 -267t-198 -85q-86 0 -139 47t-53 143 q0 10 1 23.5t3 27.5l-16 6q-59 -127 -141.5 -187t-180.5 -60q-74 0 -129 26.5t-91 72.5t-54.5 107.5t-18.5 128.5zM360 319q0 -84 29 -117.5t72 -33.5q57 0 106 54t86 132t57.5 164t20.5 150q0 154 -102 153q-59 0 -108.5 -54t-84.5 -132t-55.5 -165t-20.5 -151zM516 1298 q0 51 19.5 98.5t55.5 83.5t86 57.5t114 21.5q117 0 179 -63.5t62 -149.5q0 -53 -19.5 -100.5t-55 -83.5t-86 -57.5t-113.5 -21.5q-117 0 -179.5 63.5t-62.5 151.5zM670 1290q0 -41 21.5 -72.5t70.5 -31.5q51 0 84 50t33 116q0 41 -21.5 72.5t-71.5 31.5q-51 0 -83.5 -49 t-32.5 -117z" />
<glyph unicode="&#xe6;" horiz-adv-x="1558" d="M18 215q0 84 45.5 144.5t128 100.5t199.5 61.5t258 27.5q16 53 22.5 92t6.5 55q0 70 -44 105t-122 35q-57 0 -102 -19q14 -14 21 -36.5t7 -41.5q0 -63 -44 -102t-111 -39q-70 0 -103 41t-33 86q0 59 32 106.5t89.5 80t135 50t167.5 17.5q115 0 190 -28.5t113 -82.5 q76 53 162 83t178 30q154 0 235 -66.5t81 -171.5q0 -70 -36 -132t-112.5 -109t-195.5 -77t-285 -36v-16q0 -68 16.5 -113t44 -71.5t63.5 -38t73 -11.5q68 0 136.5 39t137.5 125l90 -74q-41 -53 -87 -98t-102 -79t-123 -53t-146 -19q-127 0 -215.5 48t-129.5 138 q-92 -109 -190 -146.5t-180 -37.5q-70 0 -120 18t-84 50t-50.5 75t-16.5 90zM309 260q0 -41 26.5 -74.5t78.5 -33.5q47 0 101 26.5t112 93.5q-6 37 -6 82q0 23 1 47.5t5 49.5q-68 -8 -126.5 -20.5t-100.5 -35t-66.5 -55.5t-24.5 -80zM913 498q100 6 167 30.5t107 59.5 t57.5 77t17.5 83q0 47 -22.5 75.5t-63.5 28.5q-47 0 -89.5 -32t-76 -82t-58 -113.5t-39.5 -126.5z" />
<glyph unicode="&#xe7;" horiz-adv-x="1005" d="M41 -426l70 98q37 -23 84 -39t100 -16q43 0 67.5 16.5t24.5 47.5q0 37 -49 56t-137 13l-29 80l207 154q-154 20 -242 120.5t-88 260.5q0 125 49 236.5t131 196.5t189.5 134t224.5 49q66 0 125 -17.5t103 -51t71 -85t27 -116.5q0 -41 -12.5 -77t-36 -63.5t-55 -44 t-68.5 -16.5q-63 0 -99 36t-36 91q0 53 32.5 91t69.5 54q-10 29 -37 45.5t-72 16.5q-68 0 -123 -44t-94 -111.5t-60.5 -149.5t-21.5 -158q0 -70 17.5 -114t43 -69.5t58.5 -35.5t64 -10q143 0 266 174l94 -76q-31 -43 -65.5 -85t-77.5 -78t-95.5 -61.5t-113.5 -37.5 l-133 -109l2 -8q90 -18 139 -62.5t49 -109.5q0 -90 -75.5 -149.5t-211.5 -59.5q-66 0 -141.5 21.5t-134.5 62.5z" />
<glyph unicode="&#xe8;" horiz-adv-x="1007" d="M47 362q0 119 47 231t130 198t197 138t245 52q154 0 234.5 -67t80.5 -171q0 -70 -37 -132t-113.5 -109t-195.5 -77t-285 -36v-16q0 -68 17.5 -113t45 -71.5t63.5 -38t73 -11.5q68 0 136.5 39t137.5 125l90 -74q-41 -53 -87 -98t-102 -79t-125 -53t-150 -19 q-182 0 -292 102t-110 280zM365 498q100 6 166.5 30.5t106.5 59.5t56.5 77t16.5 83q0 47 -22.5 75.5t-63.5 28.5q-47 0 -89 -32t-76 -82t-58.5 -113.5t-36.5 -126.5zM391 1413q0 47 35 87t96 40q39 0 63.5 -17.5t42 -46t28 -68.5t20.5 -85l51 -227h-129l-109 133 q-53 66 -75.5 105.5t-22.5 78.5z" />
<glyph unicode="&#xe9;" horiz-adv-x="1007" d="M47 362q0 119 47 231t130 198t197 138t245 52q154 0 234.5 -67t80.5 -171q0 -70 -37 -132t-113.5 -109t-195.5 -77t-285 -36v-16q0 -68 17.5 -113t45 -71.5t63.5 -38t73 -11.5q68 0 136.5 39t137.5 125l90 -74q-41 -53 -87 -98t-102 -79t-125 -53t-150 -19 q-182 0 -292 102t-110 280zM365 498q100 6 166.5 30.5t106.5 59.5t56.5 77t16.5 83q0 47 -22.5 75.5t-63.5 28.5q-47 0 -89 -32t-76 -82t-58.5 -113.5t-36.5 -126.5zM545 1096l170 274q47 74 88 121t100 47t94 -38t35 -85q0 -59 -41 -97t-112 -87l-191 -135h-143z" />
<glyph unicode="&#xea;" horiz-adv-x="1007" d="M47 362q0 119 47 231t130 198t197 138t245 52q154 0 234.5 -67t80.5 -171q0 -70 -37 -132t-113.5 -109t-195.5 -77t-285 -36v-16q0 -68 17.5 -113t45 -71.5t63.5 -38t73 -11.5q68 0 136.5 39t137.5 125l90 -74q-41 -53 -87 -98t-102 -79t-125 -53t-150 -19 q-182 0 -292 102t-110 280zM313 1096l353 403h165l152 -403h-166l-110 176l-209 -176h-185zM365 498q100 6 166.5 30.5t106.5 59.5t56.5 77t16.5 83q0 47 -22.5 75.5t-63.5 28.5q-47 0 -89 -32t-76 -82t-58.5 -113.5t-36.5 -126.5z" />
<glyph unicode="&#xeb;" horiz-adv-x="1007" d="M47 362q0 119 47 231t130 198t197 138t245 52q154 0 234.5 -67t80.5 -171q0 -70 -37 -132t-113.5 -109t-195.5 -77t-285 -36v-16q0 -68 17.5 -113t45 -71.5t63.5 -38t73 -11.5q68 0 136.5 39t137.5 125l90 -74q-41 -53 -87 -98t-102 -79t-125 -53t-150 -19 q-182 0 -292 102t-110 280zM352 1241q0 31 11.5 61.5t34 56t54 42t72.5 16.5q59 0 97 -37t38 -100q0 -31 -11 -62.5t-33.5 -57t-54.5 -42t-73 -16.5q-59 0 -97 37t-38 102zM365 498q100 6 166.5 30.5t106.5 59.5t56.5 77t16.5 83q0 47 -22.5 75.5t-63.5 28.5q-47 0 -89 -32 t-76 -82t-58.5 -113.5t-36.5 -126.5zM754 1241q0 31 11 61.5t33.5 56t54.5 42t73 16.5q59 0 97 -37t38 -100q0 -31 -11.5 -62.5t-34 -57t-54 -42t-72.5 -16.5q-59 0 -97 37t-38 102z" />
<glyph unicode="&#xec;" horiz-adv-x="741" d="M35 633q72 166 159 257t209 91q86 0 140.5 -53.5t54.5 -141.5q0 -61 -26.5 -144t-57.5 -166t-57.5 -154.5t-26.5 -110.5q0 -23 10.5 -32t26.5 -9q27 0 60.5 39t82.5 160l107 -37q-61 -176 -152.5 -264t-208.5 -88q-92 0 -150.5 53t-58.5 149q0 63 27 146.5t58.5 165 t58 152.5t26.5 110q0 23 -8 31t-22 8q-33 0 -69 -55.5t-79 -147.5zM158 1413q0 47 34.5 87t96.5 40q39 0 63.5 -17.5t42 -46t27.5 -68.5t20 -85l52 -227h-129l-109 133q-53 66 -75.5 105.5t-22.5 78.5z" />
<glyph unicode="&#xed;" horiz-adv-x="741" d="M35 633q72 166 159 257t209 91q86 0 140.5 -53.5t54.5 -141.5q0 -61 -26.5 -144t-57.5 -166t-57.5 -154.5t-26.5 -110.5q0 -23 10.5 -32t26.5 -9q27 0 60.5 39t82.5 160l107 -37q-61 -176 -152.5 -264t-208.5 -88q-92 0 -150.5 53t-58.5 149q0 63 27 146.5t58.5 165 t58 152.5t26.5 110q0 23 -8 31t-22 8q-33 0 -69 -55.5t-79 -147.5zM309 1096l170 274q47 74 88 121t101 47q59 0 94 -38t35 -85q0 -59 -41 -97t-113 -87l-190 -135h-144z" />
<glyph unicode="&#xee;" horiz-adv-x="741" d="M35 633q72 166 159 257t209 91q86 0 140.5 -53.5t54.5 -141.5q0 -61 -26.5 -144t-57.5 -166t-57.5 -154.5t-26.5 -110.5q0 -23 10.5 -32t26.5 -9q27 0 60.5 39t82.5 160l107 -37q-61 -176 -152.5 -264t-208.5 -88q-92 0 -150.5 53t-58.5 149q0 63 27 146.5t58.5 165 t58 152.5t26.5 110q0 23 -8 31t-22 8q-33 0 -69 -55.5t-79 -147.5zM78 1096l352 403h166l152 -403h-166l-111 176l-209 -176h-184z" />
<glyph unicode="&#xef;" horiz-adv-x="741" d="M35 633q72 166 159 257t209 91q86 0 140.5 -53.5t54.5 -141.5q0 -61 -26.5 -144t-57.5 -166t-57.5 -154.5t-26.5 -110.5q0 -23 10.5 -32t26.5 -9q27 0 60.5 39t82.5 160l107 -37q-61 -176 -152.5 -264t-208.5 -88q-92 0 -150.5 53t-58.5 149q0 63 27 146.5t58.5 165 t58 152.5t26.5 110q0 23 -8 31t-22 8q-33 0 -69 -55.5t-79 -147.5zM119 1241q0 31 11 61.5t33.5 56t54.5 42t73 16.5q59 0 97 -37t38 -100q0 -31 -11.5 -62.5t-34 -57t-54 -42t-72.5 -16.5q-59 0 -97 37t-38 102zM520 1241q0 31 11.5 61.5t34 56t54 42t72.5 16.5 q59 0 97 -37t38 -100q0 -31 -11 -62.5t-33.5 -57t-54.5 -42t-73 -16.5q-59 0 -97 37t-38 102z" />
<glyph unicode="&#xf0;" horiz-adv-x="1112" d="M47 381q0 123 43 224.5t112.5 175t159 113.5t179.5 40q98 0 157.5 -31t89.5 -74q0 66 -12 135.5t-39 141.5l-252 -80l-39 129l236 76q-35 70 -86 143l188 60q29 -33 56.5 -67t52.5 -69l221 72l41 -129l-190 -61q51 -102 78.5 -212t27.5 -233q0 -176 -48 -316t-130 -237.5 t-191.5 -149.5t-232.5 -52q-94 0 -172 29.5t-133 81.5t-86 126t-31 164zM350 270q0 -47 9.5 -78.5t24.5 -50t35.5 -25.5t43.5 -7q63 0 114.5 56t87 138t54 170t18.5 154q0 94 -34.5 125.5t-81.5 31.5q-63 0 -113.5 -55t-85.5 -135t-53.5 -169t-18.5 -155z" />
<glyph unicode="&#xf1;" horiz-adv-x="1310" d="M18 633q72 166 156 256t201 90q70 0 115 -48t45 -147q0 -41 -7.5 -95t-29.5 -132l16 -6q104 231 220 330.5t235 99.5q90 0 146 -57.5t56 -155.5q0 -70 -24.5 -150.5t-55 -157.5t-55 -143.5t-24.5 -107.5q0 -39 35 -39q29 0 60.5 41t78.5 158l106 -37q-61 -178 -152 -265 t-204 -87q-96 0 -149.5 54t-53.5 140q0 70 21.5 143.5t47 144t47 133t21.5 110.5q0 59 -59 59q-31 0 -74 -25.5t-96 -107.5t-113.5 -232.5t-124.5 -398.5h-301l174 655q12 45 16.5 72t2.5 42t-9 20.5t-18 5.5q-31 0 -66.5 -55.5t-76.5 -147.5zM412 1090q25 80 51 142t59 105 t75 65.5t97 22.5q49 0 91 -17t79 -37.5t69 -38t60 -17.5q35 0 61.5 26.5t55.5 90.5h135q-25 -80 -51.5 -142.5t-59 -105.5t-74.5 -65.5t-97 -22.5q-49 0 -91.5 17t-79 37.5t-68 38t-60.5 17.5q-35 0 -62 -26.5t-55 -89.5h-135z" />
<glyph unicode="&#xf2;" horiz-adv-x="1095" d="M49 381q0 123 47 231.5t127 190.5t184.5 130t217.5 48q94 0 171.5 -29.5t133 -84t86.5 -128t31 -161.5q0 -123 -47.5 -231.5t-127 -189.5t-184 -129t-217.5 -48q-94 0 -172 29.5t-133 82.5t-86 127t-31 162zM352 270q0 -47 9.5 -78.5t24.5 -50t35.5 -25.5t43.5 -7 q45 0 83 30.5t68.5 80.5t55 113.5t40 128t23.5 124t8 102.5q0 96 -33.5 129t-80.5 33q-45 0 -83 -31t-69 -81t-54.5 -113.5t-38.5 -128t-23.5 -124t-8.5 -102.5zM403 1413q0 47 35 87t97 40q39 0 63.5 -17.5t41.5 -46t27.5 -68.5t20.5 -85l51 -227h-129l-108 133 q-53 66 -76 105.5t-23 78.5z" />
<glyph unicode="&#xf3;" horiz-adv-x="1095" d="M49 381q0 123 47 231.5t127 190.5t184.5 130t217.5 48q94 0 171.5 -29.5t133 -84t86.5 -128t31 -161.5q0 -123 -47.5 -231.5t-127 -189.5t-184 -129t-217.5 -48q-94 0 -172 29.5t-133 82.5t-86 127t-31 162zM352 270q0 -47 9.5 -78.5t24.5 -50t35.5 -25.5t43.5 -7 q45 0 83 30.5t68.5 80.5t55 113.5t40 128t23.5 124t8 102.5q0 96 -33.5 129t-80.5 33q-45 0 -83 -31t-69 -81t-54.5 -113.5t-38.5 -128t-23.5 -124t-8.5 -102.5zM557 1096l170 274q47 74 88 121t100 47t94 -38t35 -85q0 -59 -40.5 -97t-112.5 -87l-191 -135h-143z" />
<glyph unicode="&#xf4;" horiz-adv-x="1095" d="M49 381q0 123 47 231.5t127 190.5t184.5 130t217.5 48q94 0 171.5 -29.5t133 -84t86.5 -128t31 -161.5q0 -123 -47.5 -231.5t-127 -189.5t-184 -129t-217.5 -48q-94 0 -172 29.5t-133 82.5t-86 127t-31 162zM326 1096l352 403h166l151 -403h-166l-110 176l-209 -176h-184 zM352 270q0 -47 9.5 -78.5t24.5 -50t35.5 -25.5t43.5 -7q45 0 83 30.5t68.5 80.5t55 113.5t40 128t23.5 124t8 102.5q0 96 -33.5 129t-80.5 33q-45 0 -83 -31t-69 -81t-54.5 -113.5t-38.5 -128t-23.5 -124t-8.5 -102.5z" />
<glyph unicode="&#xf5;" horiz-adv-x="1095" d="M49 381q0 123 47 231.5t127 190.5t184.5 130t217.5 48q94 0 171.5 -29.5t133 -84t86.5 -128t31 -161.5q0 -123 -47.5 -231.5t-127 -189.5t-184 -129t-217.5 -48q-94 0 -172 29.5t-133 82.5t-86 127t-31 162zM303 1090q25 80 51.5 142t59 105t74.5 65.5t98 22.5 q49 0 91 -17t79 -37.5t68.5 -38t60.5 -17.5q35 0 61.5 26.5t54.5 90.5h136q-25 -80 -51.5 -142.5t-59.5 -105.5t-75 -65.5t-97 -22.5q-49 0 -91 17t-79 37.5t-68.5 38t-60.5 17.5q-35 0 -61.5 -26.5t-55.5 -89.5h-135zM352 270q0 -47 9.5 -78.5t24.5 -50t35.5 -25.5t43.5 -7 q45 0 83 30.5t68.5 80.5t55 113.5t40 128t23.5 124t8 102.5q0 96 -33.5 129t-80.5 33q-45 0 -83 -31t-69 -81t-54.5 -113.5t-38.5 -128t-23.5 -124t-8.5 -102.5z" />
<glyph unicode="&#xf6;" horiz-adv-x="1095" d="M49 381q0 123 47 231.5t127 190.5t184.5 130t217.5 48q94 0 171.5 -29.5t133 -84t86.5 -128t31 -161.5q0 -123 -47.5 -231.5t-127 -189.5t-184 -129t-217.5 -48q-94 0 -172 29.5t-133 82.5t-86 127t-31 162zM352 270q0 -47 9.5 -78.5t24.5 -50t35.5 -25.5t43.5 -7 q45 0 83 30.5t68.5 80.5t55 113.5t40 128t23.5 124t8 102.5q0 96 -33.5 129t-80.5 33q-45 0 -83 -31t-69 -81t-54.5 -113.5t-38.5 -128t-23.5 -124t-8.5 -102.5zM365 1241q0 31 11 61.5t33.5 56t54.5 42t73 16.5q59 0 97 -37t38 -100q0 -31 -11.5 -62.5t-34 -57t-54 -42 t-72.5 -16.5q-59 0 -97 37t-38 102zM766 1241q0 31 11 61.5t34 56t54.5 42t72.5 16.5q59 0 97 -37t38 -100q0 -31 -11 -62.5t-33.5 -57t-54.5 -42t-73 -16.5q-59 0 -97 37t-38 102z" />
<glyph unicode="&#xf7;" horiz-adv-x="1062" d="M90 502l41 164h895l-39 -164h-897zM326 227q0 68 46 120t113 52q59 0 98.5 -40t39.5 -101q0 -68 -46 -120t-114 -52q-59 0 -98 40t-39 101zM494 907q0 68 46 120t113 52q61 0 100.5 -40t39.5 -101q0 -68 -46 -120t-114 -52q-61 0 -100 40t-39 101z" />
<glyph unicode="&#xf8;" horiz-adv-x="1095" d="M6 -16l129 139q-86 104 -86 258q0 123 47 231.5t127 190.5t184.5 130t217.5 48q135 0 237 -63l133 143l95 -86l-129 -141q86 -104 86 -256q0 -123 -47.5 -231.5t-127 -189.5t-184 -129t-217.5 -48q-137 0 -238 59l-133 -141zM354 342l383 430q-14 47 -42.5 62.5 t-65.5 15.5q-59 0 -106.5 -52.5t-82 -129t-56.5 -164.5t-30 -162zM358 182q14 -45 42 -59t65 -14q59 0 107.5 51t83 126.5t56 164t29.5 161.5z" />
<glyph unicode="&#xf9;" horiz-adv-x="1314" d="M20 633q61 164 151.5 256t209.5 92q96 0 148.5 -53.5t52.5 -141.5q0 -66 -20.5 -138.5t-45 -142t-45 -132t-20.5 -107.5q0 -72 57 -71q31 0 74 25.5t94 106.5t110.5 232.5t122.5 401.5h301l-168 -644q-10 -35 -13 -58t-3 -40q0 -29 12.5 -39t28.5 -10q33 0 63.5 42 t71.5 157l105 -37q-59 -182 -144 -267t-196 -85q-88 0 -141.5 47t-53.5 149q0 41 10.5 94.5t36.5 145.5l-16 6q-55 -121 -109.5 -206t-110 -137t-111.5 -75.5t-114 -23.5q-92 0 -150 56t-58 154q0 68 23.5 150t51 160t51 144.5t23.5 105.5q0 41 -33 41q-12 0 -26.5 -8.5 t-30.5 -31t-35.5 -60.5t-46.5 -99zM477 1413q0 47 35 87t96 40q39 0 63.5 -17.5t42 -46t28 -68.5t20.5 -85l51 -227h-129l-109 133q-53 66 -75.5 105.5t-22.5 78.5z" />
<glyph unicode="&#xfa;" horiz-adv-x="1314" d="M20 633q61 164 151.5 256t209.5 92q96 0 148.5 -53.5t52.5 -141.5q0 -66 -20.5 -138.5t-45 -142t-45 -132t-20.5 -107.5q0 -72 57 -71q31 0 74 25.5t94 106.5t110.5 232.5t122.5 401.5h301l-168 -644q-10 -35 -13 -58t-3 -40q0 -29 12.5 -39t28.5 -10q33 0 63.5 42 t71.5 157l105 -37q-59 -182 -144 -267t-196 -85q-88 0 -141.5 47t-53.5 149q0 41 10.5 94.5t36.5 145.5l-16 6q-55 -121 -109.5 -206t-110 -137t-111.5 -75.5t-114 -23.5q-92 0 -150 56t-58 154q0 68 23.5 150t51 160t51 144.5t23.5 105.5q0 41 -33 41q-12 0 -26.5 -8.5 t-30.5 -31t-35.5 -60.5t-46.5 -99zM631 1096l170 274q47 74 88 121t100 47t94 -38t35 -85q0 -59 -41 -97t-112 -87l-191 -135h-143z" />
<glyph unicode="&#xfb;" horiz-adv-x="1314" d="M20 633q61 164 151.5 256t209.5 92q96 0 148.5 -53.5t52.5 -141.5q0 -66 -20.5 -138.5t-45 -142t-45 -132t-20.5 -107.5q0 -72 57 -71q31 0 74 25.5t94 106.5t110.5 232.5t122.5 401.5h301l-168 -644q-10 -35 -13 -58t-3 -40q0 -29 12.5 -39t28.5 -10q33 0 63.5 42 t71.5 157l105 -37q-59 -182 -144 -267t-196 -85q-88 0 -141.5 47t-53.5 149q0 41 10.5 94.5t36.5 145.5l-16 6q-55 -121 -109.5 -206t-110 -137t-111.5 -75.5t-114 -23.5q-92 0 -150 56t-58 154q0 68 23.5 150t51 160t51 144.5t23.5 105.5q0 41 -33 41q-12 0 -26.5 -8.5 t-30.5 -31t-35.5 -60.5t-46.5 -99zM399 1096l353 403h166l151 -403h-166l-110 176l-209 -176h-185z" />
<glyph unicode="&#xfc;" horiz-adv-x="1314" d="M20 633q61 164 151.5 256t209.5 92q96 0 148.5 -53.5t52.5 -141.5q0 -66 -20.5 -138.5t-45 -142t-45 -132t-20.5 -107.5q0 -72 57 -71q31 0 74 25.5t94 106.5t110.5 232.5t122.5 401.5h301l-168 -644q-10 -35 -13 -58t-3 -40q0 -29 12.5 -39t28.5 -10q33 0 63.5 42 t71.5 157l105 -37q-59 -182 -144 -267t-196 -85q-88 0 -141.5 47t-53.5 149q0 41 10.5 94.5t36.5 145.5l-16 6q-55 -121 -109.5 -206t-110 -137t-111.5 -75.5t-114 -23.5q-92 0 -150 56t-58 154q0 68 23.5 150t51 160t51 144.5t23.5 105.5q0 41 -33 41q-12 0 -26.5 -8.5 t-30.5 -31t-35.5 -60.5t-46.5 -99zM438 1241q0 31 11.5 61.5t34 56t54 42t72.5 16.5q59 0 97 -37t38 -100q0 -31 -11 -62.5t-33.5 -57t-54.5 -42t-73 -16.5q-59 0 -97 37t-38 102zM840 1241q0 31 11 61.5t33.5 56t54.5 42t73 16.5q59 0 97 -37t38 -100q0 -31 -11.5 -62.5 t-34 -57t-54 -42t-72.5 -16.5q-59 0 -97 37t-38 102z" />
<glyph unicode="&#xfd;" horiz-adv-x="1183" d="M12 633q74 166 164 256t211 90q90 0 139 -51t49 -133q0 -63 -18 -131t-39.5 -131.5t-40 -118t-18.5 -92.5q0 -66 63 -66q33 0 73 21.5t88 95t102.5 213t115.5 375.5h279l-201 -844q-35 -141 -93.5 -232.5t-134 -145.5t-162.5 -74.5t-177 -20.5q-45 0 -106.5 7t-118 28.5 t-95.5 63.5t-39 110q0 55 41 105t115 50q72 0 108.5 -42t34.5 -95q0 -35 -16.5 -60.5t-32.5 -41.5q16 -4 35.5 -8.5t50.5 -4.5q121 0 191.5 85t117.5 270l58 217l-13 6q-45 -82 -90 -136.5t-90 -87t-91 -46t-91 -13.5q-109 0 -162 61.5t-53 147.5q0 59 21.5 128t46 135.5 t46 126t21.5 102.5q0 20 -9 28t-20 8q-37 0 -73.5 -52t-79.5 -144zM618 1096l170 274q47 74 88.5 121t100.5 47t94 -38t35 -85q0 -59 -41 -97t-113 -87l-190 -135h-144z" />
<glyph unicode="&#xfe;" horiz-adv-x="1126" d="M-201 -330l45 170h133l355 1399h-152l45 174h449l-195 -639l17 -6q53 98 131 155.5t166 57.5q72 0 126 -25.5t89.5 -70.5t53 -108.5t17.5 -139.5q0 -111 -34.5 -223.5t-98 -204.5t-151.5 -150.5t-193 -58.5q-86 0 -149.5 39t-98.5 113l-80 -312h177l-45 -170h-607z M403 297q0 -72 27 -113t86 -41q57 0 104.5 53.5t81 130t51 159.5t17.5 145q0 82 -27.5 119.5t-76.5 37.5q-55 0 -103.5 -48t-83.5 -121.5t-55.5 -159.5t-20.5 -162z" />
<glyph unicode="&#xff;" horiz-adv-x="1183" d="M12 633q74 166 164 256t211 90q90 0 139 -51t49 -133q0 -63 -18 -131t-39.5 -131.5t-40 -118t-18.5 -92.5q0 -66 63 -66q33 0 73 21.5t88 95t102.5 213t115.5 375.5h279l-201 -844q-35 -141 -93.5 -232.5t-134 -145.5t-162.5 -74.5t-177 -20.5q-45 0 -106.5 7t-118 28.5 t-95.5 63.5t-39 110q0 55 41 105t115 50q72 0 108.5 -42t34.5 -95q0 -35 -16.5 -60.5t-32.5 -41.5q16 -4 35.5 -8.5t50.5 -4.5q121 0 191.5 85t117.5 270l58 217l-13 6q-45 -82 -90 -136.5t-90 -87t-91 -46t-91 -13.5q-109 0 -162 61.5t-53 147.5q0 59 21.5 128t46 135.5 t46 126t21.5 102.5q0 20 -9 28t-20 8q-37 0 -73.5 -52t-79.5 -144zM426 1241q0 31 11.5 61.5t34 56t54 42t72.5 16.5q59 0 97 -37t38 -100q0 -31 -11 -62.5t-33.5 -57t-54.5 -42t-73 -16.5q-59 0 -97 37t-38 102zM827 1241q0 31 11.5 61.5t34 56t54 42t72.5 16.5 q59 0 97.5 -37t38.5 -100q0 -31 -11.5 -62.5t-34 -57t-54 -42t-72.5 -16.5q-59 0 -97.5 37t-38.5 102z" />
<glyph unicode="&#x152;" horiz-adv-x="2095" d="M94 539q0 154 56.5 302t173.5 265t286.5 179.5t415.5 62.5h1174l-119 -480h-162q2 96 -3 155.5t-25.5 93.5t-59.5 45.5t-102 11.5h-297l-103 -408h72q43 0 70.5 6t48 25.5t40 57.5t46.5 99h159l-135 -546h-157q8 61 8 99t-10.5 58.5t-35 27.5t-67.5 7h-80l-106 -426h291 q76 0 126 15.5t86.5 56.5t70.5 109.5t81 176.5h180l-133 -532h-1106q-170 0 -298 40t-214 111.5t-129 171t-43 216.5zM434 481q0 -158 81 -232.5t255 -74.5h90l250 1000h-111q-123 0 -207.5 -30t-160.5 -106q-43 -43 -79 -107.5t-61.5 -139t-41 -155.5t-15.5 -155z" />
<glyph unicode="&#x153;" horiz-adv-x="1662" d="M49 381q0 123 47 231.5t127 190.5t184.5 130t217.5 48q104 0 185 -39t134 -133q72 76 171 124t210 48q147 0 228 -66.5t81 -171.5q0 -70 -35.5 -132t-112.5 -109t-196 -77t-284 -36v-16q0 -68 16 -113t44 -71.5t63.5 -38t72.5 -11.5q68 0 136.5 39t140.5 125l88 -74 q-41 -53 -87 -98t-101.5 -79t-122 -53t-148.5 -19q-92 0 -175 36.5t-130 114.5q-145 -152 -336 -151q-92 0 -169 29.5t-132 82.5t-86 127t-31 162zM352 270q0 -47 9.5 -78.5t24.5 -50t35.5 -25.5t43.5 -7q45 0 83 30.5t68.5 80.5t55 113.5t40 128t23.5 124t8 102.5 q0 96 -33.5 129t-80.5 33q-45 0 -83 -31t-69 -81t-54.5 -113.5t-38.5 -128t-23.5 -124t-8.5 -102.5zM1018 498q100 6 166.5 30.5t106.5 59.5t57.5 77t17.5 83q0 47 -22.5 75.5t-63.5 28.5q-47 0 -89 -32t-76 -82t-58.5 -113.5t-38.5 -126.5z" />
<glyph unicode="&#x178;" horiz-adv-x="1337" d="M174 1169l43 179h666l-43 -177h-164l143 -444l359 444h-162l45 177h510l-43 -179h-139l-523 -616l-94 -375h182l-43 -178h-686l43 178h183l94 379l-215 612h-156zM631 1638q0 31 11 62t33.5 56.5t54.5 42t73 16.5q59 0 97 -37.5t38 -100.5q0 -31 -11.5 -62.5t-34 -57 t-54 -42t-72.5 -16.5q-59 0 -97 37t-38 102zM1032 1638q0 31 11.5 62t34 56.5t54 42t72.5 16.5q59 0 97 -37.5t38 -100.5q0 -31 -11 -62.5t-33.5 -57t-54.5 -42t-73 -16.5q-59 0 -97 37t-38 102z" />
<glyph unicode="&#x2c6;" horiz-adv-x="718" d="M180 1096l352 403h166l152 -403h-166l-111 176l-208 -176h-185z" />
<glyph unicode="&#x2dc;" horiz-adv-x="821" d="M193 1090q25 80 51 142t59 105t75 65.5t97 22.5q49 0 91 -17t79 -37.5t68.5 -38t60.5 -17.5q35 0 61.5 26.5t55.5 90.5h135q-25 -80 -51.5 -142.5t-59 -105.5t-74.5 -65.5t-98 -22.5q-49 0 -91 17t-78.5 37.5t-68.5 38t-61 17.5q-35 0 -61.5 -26.5t-54.5 -89.5h-135z" />
<glyph unicode="&#x2000;" horiz-adv-x="968" />
<glyph unicode="&#x2001;" horiz-adv-x="1937" />
<glyph unicode="&#x2002;" horiz-adv-x="968" />
<glyph unicode="&#x2003;" horiz-adv-x="1937" />
<glyph unicode="&#x2004;" horiz-adv-x="645" />
<glyph unicode="&#x2005;" horiz-adv-x="484" />
<glyph unicode="&#x2006;" horiz-adv-x="322" />
<glyph unicode="&#x2007;" horiz-adv-x="322" />
<glyph unicode="&#x2008;" horiz-adv-x="242" />
<glyph unicode="&#x2009;" horiz-adv-x="387" />
<glyph unicode="&#x200a;" horiz-adv-x="107" />
<glyph unicode="&#x2010;" horiz-adv-x="724" d="M84 416l49 205h529l-50 -205h-528z" />
<glyph unicode="&#x2011;" horiz-adv-x="724" d="M84 416l49 205h529l-50 -205h-528z" />
<glyph unicode="&#x2012;" horiz-adv-x="724" d="M84 416l49 205h529l-50 -205h-528z" />
<glyph unicode="&#x2013;" horiz-adv-x="1085" d="M84 418l45 188h889l-47 -188h-887z" />
<glyph unicode="&#x2014;" horiz-adv-x="1597" d="M84 418l45 188h1401l-47 -188h-1399z" />
<glyph unicode="&#x2018;" horiz-adv-x="524" d="M162 948q0 82 33.5 154t95 129t148.5 100t196 66l31 -111q-135 -35 -216 -93t-110 -128l12 -10q23 16 58 16q57 0 93 -41t36 -104q0 -37 -13.5 -73t-38 -63.5t-58.5 -45t-75 -17.5q-90 0 -141 61.5t-51 159.5z" />
<glyph unicode="&#x2019;" horiz-adv-x="524" d="M141 821q135 35 216 94.5t110 126.5l-14 11q-23 -16 -56 -17q-59 0 -94 41t-35 105q0 39 13.5 74.5t38 63.5t58.5 44t75 16q90 0 141 -60t51 -161q0 -80 -33.5 -151.5t-95 -129t-148.5 -100.5t-196 -65z" />
<glyph unicode="&#x201a;" horiz-adv-x="524" d="M-141 -227q135 35 216 94t109 127l-14 10q-23 -16 -55 -16q-59 0 -94 41t-35 104q0 39 13 75t37.5 63.5t58.5 44t75 16.5q90 0 141 -60.5t51 -160.5q0 -80 -33.5 -152t-95 -129t-148.5 -100t-196 -66z" />
<glyph unicode="&#x201c;" horiz-adv-x="1005" d="M180 948q0 82 34 154t95.5 129t148.5 100t195 66l31 -111q-135 -35 -216 -93t-110 -128l13 -10q27 16 57 16q59 0 94 -41t35 -104q0 -37 -13.5 -73t-38 -63.5t-58 -45t-74.5 -17.5q-90 0 -141.5 61.5t-51.5 159.5zM643 948q0 82 34 154t95.5 129t148.5 100t195 66 l31 -111q-135 -35 -216 -93t-110 -128l13 -10q27 16 57 16q59 0 94 -41t35 -104q0 -37 -13.5 -73t-38 -63.5t-58 -45t-74.5 -17.5q-90 0 -141.5 61.5t-51.5 159.5z" />
<glyph unicode="&#x201d;" horiz-adv-x="1005" d="M141 821q135 35 216 94.5t110 126.5l-14 11q-23 -16 -56 -17q-59 0 -94 41t-35 105q0 39 13.5 74.5t38 63.5t58.5 44t75 16q90 0 141 -60t51 -161q0 -80 -33.5 -151.5t-95 -129t-148.5 -100.5t-196 -65zM604 821q133 35 215 94.5t111 126.5l-15 11q-23 -16 -57 -17 q-57 0 -92 41t-35 105q0 39 13.5 74.5t38 63.5t58 44t74.5 16q90 0 141.5 -60t51.5 -161q0 -80 -34 -151.5t-95 -129t-148.5 -100.5t-195.5 -65z" />
<glyph unicode="&#x201e;" horiz-adv-x="987" d="M-141 -227q135 35 216 94t109 127l-14 10q-23 -16 -55 -16q-59 0 -94 41t-35 104q0 39 13 75t37.5 63.5t58.5 44t75 16.5q90 0 141 -60.5t51 -160.5q0 -80 -33.5 -152t-95 -129t-148.5 -100t-196 -66zM322 -227q133 35 214.5 94t110.5 127l-14 10q-23 -16 -58 -16 q-57 0 -91.5 41t-34.5 104q0 39 13 75t37.5 63.5t58.5 44t75 16.5q90 0 141 -60.5t51 -160.5q0 -80 -33.5 -152t-95 -129t-148.5 -100t-196 -66z" />
<glyph unicode="&#x2022;" horiz-adv-x="980" d="M236 625q0 74 26.5 139t71.5 114.5t105.5 77t127.5 27.5q61 0 111.5 -22.5t87.5 -60.5t57.5 -91t20.5 -115q0 -74 -26.5 -139.5t-72 -114.5t-105.5 -76.5t-128 -27.5q-61 0 -111.5 22.5t-87.5 60.5t-57 91t-20 115z" />
<glyph unicode="&#x2026;" horiz-adv-x="1546" d="M6 137q0 41 14.5 78t40 65.5t59.5 46t75 17.5q72 0 116.5 -49t44.5 -123q0 -41 -14 -78t-40 -65.5t-60.5 -46t-73.5 -17.5q-72 0 -117 49t-45 123zM518 137q0 41 14.5 78t40 65.5t59.5 46t75 17.5q72 0 116.5 -49t44.5 -123q0 -41 -14 -78t-40 -65.5t-60.5 -46 t-73.5 -17.5q-72 0 -117 49t-45 123zM1032 137q0 41 14.5 78t40 65.5t59.5 46t75 17.5q72 0 116.5 -49t44.5 -123q0 -41 -14 -78t-39.5 -65.5t-60.5 -46t-74 -17.5q-72 0 -117 49t-45 123z" />
<glyph unicode="&#x202f;" horiz-adv-x="387" />
<glyph unicode="&#x2039;" horiz-adv-x="634" d="M49 475q0 29 17.5 50.5t52.5 43.5l450 297l68 -88l-320 -323l166 -322l-94 -70l-305 330q-23 25 -29 46.5t-6 35.5z" />
<glyph unicode="&#x203a;" horiz-adv-x="634" d="M-4 154l319 323l-165 322l94 69l305 -329q23 -25 29 -46.5t6 -35.5q0 -29 -17.5 -50.5t-52.5 -44.5l-451 -296z" />
<glyph unicode="&#x205f;" horiz-adv-x="484" />
<glyph unicode="&#x20ac;" horiz-adv-x="1351" d="M35 401l39 160h164q2 35 5 69t11 68h-148l41 160h156q43 102 107.5 189.5t149.5 150t186.5 98t216.5 35.5q104 0 184 -28.5t133 -74.5t79.5 -104.5t26.5 -119.5q0 -92 -50 -151.5t-128 -59.5q-70 0 -108.5 40.5t-38.5 102.5q0 63 28.5 104t63.5 58q-14 27 -58 50t-114 23 q-74 0 -132 -25.5t-103.5 -68.5t-79 -100t-56.5 -121h338l-39 -158h-340q-6 -37 -9 -70.5t-5 -66.5h319l-36 -155h-279q10 -72 36 -120t59.5 -77t73.5 -40t81 -11q92 0 175 62.5t159 209.5l137 -82q-39 -84 -91 -153.5t-117.5 -120.5t-145.5 -79t-174 -28 q-102 0 -188.5 26.5t-153 81t-110.5 136.5t-58 190h-207z" />
<glyph unicode="&#x2122;" horiz-adv-x="1781" d="M213 1077l68 271h655l-70 -271h-75q0 57 -3.5 94t-12.5 56.5t-25.5 27t-40.5 7.5h-35l-113 -451h113l-27 -100h-397l24 100h113l111 451h-31q-29 0 -48.5 -7.5t-38 -27t-36.5 -56t-45 -94.5h-86zM840 711l26 100h84l109 436h-86l26 101h342l25 -363h14l195 363h346 l-25 -101h-90l-108 -436h90l-27 -100h-342l25 98h78l106 426h-18l-297 -524h-90l-43 524h-21l-106 -426h77l-22 -98h-268z" />
<glyph unicode="&#xe000;" horiz-adv-x="983" d="M0 0v983h983v-983h-983z" />
<glyph unicode="&#xfb01;" horiz-adv-x="1296" d="M-274 -184q0 59 39.5 107t107.5 48q49 0 83 -32.5t34 -90.5q0 -35 -11.5 -62.5t-21.5 -37.5q27 0 46.5 8t34.5 34t28.5 70t27.5 115l164 813h-180l37 146h172q51 233 188 363t383 130q180 0 272.5 -62t92.5 -155q0 -63 -46.5 -115.5t-136.5 -52.5q-76 0 -118.5 35 t-42.5 94q0 35 15 68t42 55q-14 8 -41 13.5t-51 5.5q-61 0 -102.5 -21.5t-69 -63.5t-45 -105.5t-35.5 -149.5l-8 -39h598l-154 -553q-4 -16 -11 -39t-13.5 -47.5t-11.5 -46t-5 -35.5q0 -27 10.5 -35t26.5 -8q27 0 60.5 39t82.5 160l105 -37q-123 -352 -357 -352 q-96 0 -153 54t-57 148q0 37 10 86t28 117l107 403h-297l-137 -645q-29 -139 -78 -234t-110.5 -153.5t-134.5 -85t-148 -26.5q-104 0 -161.5 50t-57.5 122z" />
<glyph unicode="&#xfb02;" horiz-adv-x="1304" d="M-274 -184q0 59 39.5 107t107.5 48q49 0 83 -32.5t34 -90.5q0 -35 -11.5 -62.5t-21.5 -37.5q27 0 46.5 8t34.5 34t28.5 70t27.5 115l162 813h-178l37 146h172q51 233 183 363t351 130q61 0 111.5 -10t89.5 -26l303 32l-287 -1038q-4 -14 -11 -37.5t-13 -49.5t-11.5 -49.5 t-5.5 -35.5q0 -25 10.5 -34t26.5 -9q27 0 60.5 39t83.5 160l104 -37q-123 -352 -356 -352q-98 0 -154.5 51t-56.5 149q0 35 10 88.5t27 118.5l106 401h-307l-135 -645q-29 -139 -78 -234t-110.5 -153.5t-134.5 -85t-148 -26.5q-104 0 -161.5 50t-57.5 122zM582 934h315 l35 125q-76 33 -76 117q0 35 14.5 66.5t40.5 53.5q-10 6 -31.5 11.5t-50.5 5.5q-59 0 -95 -21.5t-60.5 -64.5t-43 -106.5t-38.5 -145.5z" />
<glyph unicode="&#xfb03;" horiz-adv-x="1912" d="M-274 -184q0 59 39.5 107t107.5 48q49 0 83 -32.5t34 -90.5q0 -35 -11.5 -62.5t-21.5 -37.5q27 0 46.5 8t34.5 34t28.5 70t27.5 115l162 813h-178l37 146h172q55 244 190 365.5t342 121.5q111 0 183.5 -29.5t111.5 -76.5q137 113 361 112q180 0 272 -62t92 -155 q0 -63 -46 -115.5t-136 -52.5q-76 0 -119 35t-43 94q0 35 15.5 68t41.5 55q-14 8 -40.5 13.5t-51.5 5.5q-61 0 -102 -21.5t-68.5 -63.5t-45 -105.5t-36.5 -149.5l-8 -39h598l-153 -553q-4 -16 -11.5 -39t-13.5 -47.5t-11 -46t-5 -35.5q0 -27 10 -35t26 -8q27 0 61 39t83 160 l104 -37q-123 -352 -356 -352q-96 0 -153.5 54t-57.5 148q0 37 10 86t29 117l106 403h-297l-137 -645q-29 -139 -80 -234t-115.5 -153.5t-139 -85t-150.5 -26.5q-104 0 -161.5 50t-57.5 122q0 59 40 107t107 48q49 0 83 -32.5t34 -90.5q0 -35 -11.5 -62.5t-21.5 -37.5 q27 0 48.5 8t40 34t33.5 70t30 115l163 813h-323l-135 -645q-29 -139 -78 -234t-110.5 -153.5t-134.5 -85t-148 -26.5q-104 0 -161.5 50t-57.5 122zM582 934h321q8 31 15.5 59.5t17.5 57.5q-37 14 -58.5 44.5t-21.5 73.5q0 76 55 121q-10 6 -31.5 11.5t-50.5 5.5 q-59 0 -96 -21.5t-61.5 -64.5t-43 -106.5t-38.5 -147.5z" />
<glyph unicode="&#xfb04;" horiz-adv-x="1921" d="M-274 -184q0 59 39.5 107t107.5 48q49 0 83 -32.5t34 -90.5q0 -35 -11.5 -62.5t-21.5 -37.5q27 0 46.5 8t34.5 34t28.5 70t27.5 115l162 813h-178l37 146h172q55 244 190 365.5t342 121.5q111 0 183.5 -28.5t109.5 -73.5q66 53 145.5 80.5t180.5 27.5q61 0 111 -10 t91 -26l304 32l-287 -1038q-4 -14 -11.5 -37.5t-14.5 -49.5t-12 -49.5t-5 -35.5q0 -25 10 -34t27 -9q14 0 29.5 8t32 30.5t36.5 60.5t45 100l107 -37q-123 -352 -359 -352q-98 0 -154.5 51t-56.5 149q0 35 11.5 88.5t27.5 118.5l107 401h-308l-135 -645q-29 -139 -80 -234 t-115.5 -153.5t-140 -85t-151.5 -26.5q-104 0 -161.5 50t-57.5 122q0 59 40 107t107 48q49 0 83 -32.5t34 -90.5q0 -35 -11.5 -62.5t-21.5 -37.5q27 0 48.5 8t40 34t33.5 70t30 115l161 813h-321l-135 -645q-29 -139 -78 -234t-110.5 -153.5t-134.5 -85t-148 -26.5 q-104 0 -161.5 50t-57.5 122zM582 934h321q6 31 14.5 59.5t18.5 57.5q-37 14 -58.5 44.5t-21.5 73.5q0 76 55 121q-10 6 -31.5 11.5t-50.5 5.5q-59 0 -96 -21.5t-61.5 -64.5t-43 -106.5t-38.5 -147.5zM1200 934h316l32 125q-35 14 -55 45t-20 72q0 35 15 66.5t40 53.5 q-10 6 -30.5 11.5t-51.5 5.5q-57 0 -95 -21.5t-64.5 -63.5t-44 -105.5t-34.5 -147.5z" />
</font>
</defs>
</svg>
