<?xml version="1.0" standalone="no"?>
<!DOCTYPE svg PUBLIC "-//W3C//DTD SVG 1.1//EN" "http://www.w3.org/Graphics/SVG/1.1/DTD/svg11.dtd" >
<svg xmlns="http://www.w3.org/2000/svg">
<metadata></metadata>
<defs>
<font id="sentbookbook" horiz-adv-x="1456" >
<font-face units-per-em="2048" ascent="1638" descent="-410" />
<missing-glyph horiz-adv-x="364" />
<glyph horiz-adv-x="0" />
<glyph unicode="&#xd;" horiz-adv-x="364" />
<glyph horiz-adv-x="0" />
<glyph horiz-adv-x="0" />
<glyph unicode=" "  horiz-adv-x="364" />
<glyph unicode="&#x09;" horiz-adv-x="364" />
<glyph unicode="&#xa0;" horiz-adv-x="364" />
<glyph unicode="!" horiz-adv-x="544" d="M156 84q0 49 33.5 83t82.5 34t83 -34t34 -83q0 -47 -34 -81t-83 -34t-82.5 34t-33.5 81zM168 1264q0 63 28.5 94t75.5 31t76 -31t29 -94q0 -57 -8.5 -150.5t-18.5 -198.5q-10 -115 -22.5 -247.5t-20.5 -286.5h-67q-8 154 -20.5 287t-22.5 247q-10 104 -19.5 198.5 t-9.5 150.5z" />
<glyph unicode="&#x22;" horiz-adv-x="774" d="M119 868l51 199q25 96 36 145.5t25 77.5q14 31 34 42t40 11q35 0 63.5 -20t28.5 -55q0 -16 -5 -32.5t-9 -29.5q-16 -35 -42 -82t-65 -110l-102 -170zM438 868l51 199q25 96 36.5 145.5t25.5 77.5q14 31 33.5 42t40.5 11q35 0 63.5 -20t28.5 -55q0 -33 -15 -62 q-16 -35 -41.5 -82t-64.5 -110l-102 -170z" />
<glyph unicode="#" horiz-adv-x="1357" d="M63 328v104h283l82 416h-283v102h304l77 396h121l-78 -396h338l80 396h121l-80 -396h266v-102h-284l-82 -416h282v-104h-303l-80 -410h-122l81 410h-337l-80 -410h-123l80 410h-263zM469 432h336l82 416h-338z" />
<glyph unicode="$" horiz-adv-x="1093" d="M92 270q0 53 34 92t87 39t84 -34.5t31 -79.5q0 -35 -18.5 -63.5t-47.5 -45.5q27 -29 91.5 -55.5t158.5 -34.5v494q-90 27 -159.5 56.5t-118 69.5t-74 93t-25.5 129q0 63 25.5 123.5t74 107.5t118 80t159.5 43v143h96v-141q82 -4 150.5 -25.5t119 -57.5t79 -80t28.5 -91 q0 -57 -29.5 -91t-76.5 -34q-53 0 -83 31t-30 74q0 35 18.5 61.5t44.5 38.5q-27 29 -81 55.5t-140 30.5v-471q100 -31 173 -63.5t120 -74.5t68.5 -95.5t21.5 -124.5q0 -61 -22.5 -124t-69.5 -115t-119.5 -87t-171.5 -43v-162h-96v162q-94 6 -171 30.5t-132 61.5t-86 83 t-31 95zM283 977q0 -80 49 -130t180 -91v440q-59 -8 -102 -29.5t-71 -51.5t-42 -65.5t-14 -72.5zM608 90q115 10 178.5 73.5t63.5 153.5q0 84 -53.5 136.5t-188.5 99.5v-463z" />
<glyph unicode="%" horiz-adv-x="1595" d="M86 817q0 88 32 169t86 144.5t125.5 101.5t151.5 38q125 0 185 -92q47 -25 94 -33t92 -8q88 0 173 35.5t161 125.5h102l-876 -1351h-136l803 1183l-6 7q-43 -35 -103.5 -60.5t-146.5 -25.5q-27 0 -56.5 3t-64.5 13q0 -10 1.5 -20.5t1.5 -20.5q0 -72 -24 -156t-71 -156.5 t-115.5 -120.5t-156.5 -48q-119 0 -185.5 74.5t-66.5 197.5zM233 793q0 -78 34 -119t89 -41t102.5 37t81 94t53 125.5t19.5 134.5q0 37 -10 72q-53 27 -113 80q-55 -2 -101 -39t-81 -93.5t-54.5 -123t-19.5 -127.5zM891 244q0 88 31.5 169t86 144.5t126 101t151.5 37.5 q100 0 161.5 -61.5t61.5 -183.5q0 -72 -23.5 -155t-69.5 -155.5t-114.5 -121t-156.5 -48.5q-119 0 -186.5 75t-67.5 198zM1038 219q0 -78 34 -120t89 -42t102.5 37t81 95.5t53 127t19.5 134.5q0 74 -30.5 113.5t-90.5 37.5q-55 0 -102 -37t-82 -93t-54.5 -123.5 t-19.5 -129.5z" />
<glyph unicode="&#x26;" horiz-adv-x="1472" d="M106 301q0 131 82 224t256 165q-63 66 -98 133.5t-35 145.5q0 68 27 124t72 98t105 64.5t128 22.5q70 0 124 -21.5t92 -56.5t57.5 -80t19.5 -94q0 -104 -64.5 -182t-205.5 -150q96 -92 163.5 -178t122.5 -178q59 72 109.5 162t83.5 172h-162v100h434v-100h-157 q-45 -104 -106.5 -210t-143.5 -204q31 -49 54 -81t43.5 -50t40 -26.5t42.5 -8.5q39 0 68.5 29t60.5 98l74 -33q-35 -98 -95.5 -158.5t-156.5 -60.5q-78 0 -135.5 39t-118.5 144q-86 -90 -180.5 -136.5t-210.5 -46.5q-96 0 -169 29t-122 76t-74 106.5t-25 122.5zM283 334 q0 -47 17 -92t51 -79t82.5 -54.5t109.5 -20.5q82 0 152.5 36t140.5 105q-29 51 -62 98.5t-70.5 95.5t-86 99t-107.5 109q-117 -55 -172 -125t-55 -172zM459 1014q0 -59 29.5 -119.5t117.5 -144.5q184 106 185 262q0 72 -40 124t-118 52q-82 0 -128 -51t-46 -123z" />
<glyph unicode="'" horiz-adv-x="458" d="M119 868l51 199q25 96 36 145.5t25 77.5q14 31 34 42t40 11q35 0 63.5 -20t28.5 -55q0 -16 -5 -32.5t-9 -29.5q-16 -35 -42 -82t-65 -110l-102 -170z" />
<glyph unicode="(" horiz-adv-x="739" d="M143 582q0 168 42 306t117 249.5t176.5 197.5t221.5 148l50 -76q-211 -131 -325 -330.5t-114 -494.5t114 -496t325 -332l-50 -76q-121 61 -222 147.5t-176 198t-117 250t-42 308.5z" />
<glyph unicode=")" horiz-adv-x="739" d="M-10 -246q211 131 324.5 331t113.5 495t-113.5 495.5t-324.5 331.5l49 76q119 -61 221 -147.5t177 -198t117 -250.5t42 -307t-42 -306.5t-117 -250t-177 -197.5t-221 -148z" />
<glyph unicode="*" horiz-adv-x="835" d="M133 1292q41 59 109 8q14 -10 33.5 -32.5t41 -49t41 -52t35.5 -44.5l25 8q2 25 3 58t2 66.5t4 62.5t9 47q27 76 94 55q63 -20 39 -98q-6 -16 -20 -42t-32.5 -53.5l-37 -55t-30.5 -48.5l14 -22q25 6 56.5 16t63 18.5t61.5 14.5t48 6q80 0 80 -70q0 -35 -18.5 -52 t-63.5 -17q-16 0 -45 6t-61.5 15.5t-64.5 17.5l-56 14l-14 -20q12 -20 30.5 -48t37 -55.5t32.5 -53.5t20 -44q27 -78 -39 -98q-65 -23 -92 55q-6 18 -9 48t-5 62.5t-2 65.5t-2 57l-27 9q-16 -18 -35.5 -45t-41 -52.5t-41 -48t-33.5 -35.5q-63 -47 -107 8q-43 59 23 105 q14 10 42.5 22.5t60.5 24.5t62.5 24.5t53.5 22.5v25q-23 8 -54.5 19t-63.5 23.5t-59.5 25t-41.5 22.5q-68 45 -25 104z" />
<glyph unicode="+" horiz-adv-x="1073" d="M111 518v100h372v381h109v-381h371v-100h-371v-381h-109v381h-372z" />
<glyph unicode="," horiz-adv-x="438" d="M35 -225q111 53 159 105t58 114l-8 4q-23 -12 -47 -12q-39 0 -66 28.5t-27 71.5q0 47 31 81t80 34q59 0 94 -43t35 -109q0 -104 -63.5 -187t-214.5 -151z" />
<glyph unicode="-" horiz-adv-x="749" d="M113 430v133h524v-133h-524z" />
<glyph unicode="." horiz-adv-x="438" d="M102 84q0 49 34 83t83 34t83 -34t34 -83q0 -47 -34 -81t-83 -34t-83 34t-34 81z" />
<glyph unicode="/" horiz-adv-x="856" d="M-98 -416l790 1846h125l-790 -1846h-125z" />
<glyph unicode="0" horiz-adv-x="1142" d="M90 639q0 143 34 267t95.5 215t150.5 143.5t199 52.5q117 0 207 -51.5t151.5 -141.5t93.5 -213t32 -264q0 -143 -34 -267t-96.5 -216t-151.5 -144.5t-200 -52.5q-117 0 -206 51.5t-150 142.5t-93 214t-32 264zM274 643q0 -129 18.5 -235.5t56.5 -182t94 -116.5t132 -41 q78 0 133.5 41t90.5 115.5t51 181t16 235.5q0 131 -18.5 236.5t-55 181.5t-94 117t-133.5 41q-78 0 -132 -41t-90 -116t-52.5 -180.5t-16.5 -236.5z" />
<glyph unicode="1" horiz-adv-x="917" d="M109 1051v86q117 -2 217 40t145 123h109v-1194h286v-106h-751v106h297v961q-33 -16 -80 -24.5t-99 -8.5q-33 0 -67.5 4t-56.5 13z" />
<glyph unicode="2" horiz-adv-x="1116" d="M98 113q0 109 95.5 219t306.5 239q78 47 135 90.5t95 87.5t56.5 94t18.5 113q0 113 -69.5 188t-194.5 75q-98 0 -167 -42t-100 -102q43 -12 70 -43t27 -78q0 -51 -33 -87t-86 -36q-55 0 -92 41t-37 109q0 61 32.5 121.5t91 109t139.5 77t177 28.5q104 0 183 -31 t131.5 -82t79 -117.5t26.5 -138.5q0 -143 -98.5 -244.5t-290.5 -197.5q-90 -45 -152.5 -86t-104.5 -80t-65.5 -75t-35.5 -70l4 -7q80 45 176 45q53 0 99 -17t88 -36.5t80 -37t75 -17.5q76 0 118 64.5t76 220.5l80 -7q-12 -121 -37.5 -203.5t-63.5 -135t-87 -75t-107 -22.5 q-63 0 -115.5 28t-98.5 59.5t-90 59t-91 27.5q-12 0 -27.5 -2t-23.5 -6q18 -29 18 -63q0 -43 -25.5 -73t-68.5 -30q-57 0 -87 43.5t-30 102.5z" />
<glyph unicode="3" horiz-adv-x="1071" d="M78 250q0 55 36 96t93 41q53 0 84 -34t31 -81q0 -41 -20.5 -70.5t-45.5 -45.5q29 -33 89.5 -61.5t154.5 -28.5q70 0 124 20t91 57t55 86.5t18 106.5q0 125 -85 200.5t-277 75.5h-59v101h49q186 0 267 74.5t81 197.5q0 106 -66.5 170t-185.5 64q-102 0 -160.5 -34 t-87.5 -69q35 -14 59.5 -44t24.5 -71q0 -43 -28.5 -80.5t-83.5 -37.5q-53 0 -89 37.5t-36 99.5q0 55 29.5 108.5t85 95.5t132 67.5t170.5 25.5q98 0 175 -25.5t131.5 -70.5t82 -103.5t27.5 -126.5q0 -121 -89 -205t-255 -118v-4q178 -23 273.5 -104t95.5 -208 q0 -80 -33 -149.5t-93.5 -121.5t-146.5 -83t-192 -31q-90 0 -168 22.5t-135.5 61.5t-90 90.5t-32.5 108.5z" />
<glyph unicode="4" horiz-adv-x="1134" d="M55 369v110l607 828h159v-830h269v-108h-269v-265h201v-104h-567v104h202v265h-602zM186 477h473v647h-6z" />
<glyph unicode="5" horiz-adv-x="1052" d="M92 266q0 61 37 104.5t92 43.5q57 0 85 -35t28 -78q0 -41 -24.5 -74.5t-59.5 -48.5q31 -43 93.5 -77.5t154.5 -34.5q141 0 217 93t76 251q0 154 -68 230.5t-193 76.5q-92 0 -158.5 -34t-119.5 -87l-84 25l45 665l27 21q98 -39 186 -57.5t180 -18.5q100 0 170 19.5 t133 54.5l27 -58q-61 -86 -146 -131t-202 -45q-82 0 -154 17.5t-121 37.5l-26 -399q47 39 119.5 64.5t158.5 25.5q94 0 169 -30.5t127 -83t79 -124t27 -153.5q0 -84 -29 -166t-86 -147.5t-144 -105.5t-204 -40q-80 0 -155 23.5t-132 63.5t-91 95.5t-34 116.5z" />
<glyph unicode="6" horiz-adv-x="1089" d="M98 571q0 166 40 303.5t113 235.5t175 152.5t229 54.5q76 0 134.5 -18.5t98.5 -51.5t61.5 -75t21.5 -87q0 -66 -35 -105.5t-90 -39.5q-53 0 -84 32t-31 79q0 35 21.5 67.5t60.5 46.5q-49 53 -158 54q-174 0 -277.5 -152t-105.5 -451q57 86 138.5 139.5t195.5 53.5 q92 0 165 -30.5t122 -83t74.5 -125t25.5 -154.5q0 -86 -27.5 -167t-82 -143.5t-136 -100.5t-190.5 -38t-193.5 45t-144 125t-90.5 190.5t-31 243.5zM285 391q0 -66 20.5 -124t57 -102t88 -70.5t112.5 -26.5q129 0 191.5 92t62.5 246q0 59 -15.5 113t-46 96t-78.5 67t-114 25 q-61 0 -112.5 -24t-88 -66t-57 -99t-20.5 -127z" />
<glyph unicode="7" horiz-adv-x="1067" d="M102 817v471h107l8 -166h8q31 92 77 134t120 42q61 0 103 -25.5t79 -57t74 -57t86 -25.5q18 0 41.5 4t50.5 16q-29 35 -29 70q0 41 29 68.5t70 27.5q49 0 76.5 -32t27.5 -77q0 -31 -10 -59.5t-30.5 -61t-52.5 -70.5t-75 -89q-74 -84 -129 -172t-93 -187.5t-61.5 -217.5 t-31.5 -261q-8 -125 -103 -125q-41 0 -68.5 26.5t-27.5 82.5q0 76 26.5 179t77 217t125 230.5t168.5 219.5q47 51 87 98t69 84l-8 8q-111 -63 -205 -63q-55 0 -98 14t-79 30.5t-69.5 31t-70.5 14.5q-35 0 -61.5 -14.5t-47 -50.5t-36 -98.5t-23.5 -158.5h-101z" />
<glyph unicode="8" horiz-adv-x="1089" d="M96 313q0 45 12.5 91.5t42 89.5t79 80.5t120.5 66.5q-117 53 -167 130t-50 181q0 74 30 140.5t85 115.5t133 79t176 30q92 0 167 -26.5t126 -71.5t78.5 -103.5t27.5 -122.5q0 -106 -56 -185t-179 -126q141 -53 208.5 -133t67.5 -189q0 -82 -34.5 -153.5t-96 -124.5 t-146.5 -84t-185 -31t-181.5 28t-138.5 75t-88 109.5t-31 133.5zM250 332q0 -55 20.5 -104.5t60.5 -85.5t95 -57.5t127 -21.5q63 0 116.5 20.5t91.5 55.5t58.5 80t20.5 94q0 51 -20.5 92t-66.5 74t-119 62.5t-177 60.5q-4 0 -6 1t-7 1q-98 -39 -146 -109.5t-48 -162.5z M293 991q0 -53 19.5 -95t59.5 -75t102.5 -59.5t148.5 -48.5q106 47 149 118.5t43 149.5q0 49 -17.5 92t-51 75t-84 51.5t-113.5 19.5q-61 0 -109.5 -18.5t-80 -50.5t-49 -73t-17.5 -86z" />
<glyph unicode="9" horiz-adv-x="1089" d="M96 858q0 90 28 173t82 146.5t136 101.5t190 38q109 0 194 -45t144.5 -125t90 -190.5t30.5 -241.5q0 -168 -38 -305.5t-108.5 -235.5t-172 -152.5t-230.5 -54.5q-84 0 -147.5 19.5t-106.5 53.5t-64.5 78t-21.5 93q0 61 35 101t90 40q53 0 84 -31.5t31 -76.5 q0 -37 -21.5 -69t-60.5 -48q63 -61 180 -61q174 0 273.5 146t103.5 439q-57 -86 -138 -138t-196 -52q-92 0 -164.5 29.5t-122 83t-75 126t-25.5 158.5zM272 870q0 -61 15.5 -117.5t46.5 -99.5t79 -67.5t113 -24.5q61 0 112.5 23.5t88.5 66.5t57.5 103.5t20.5 132.5 q0 68 -20.5 128t-57.5 104t-88 71t-113 27q-129 0 -191.5 -93.5t-62.5 -253.5z" />
<glyph unicode=":" horiz-adv-x="446" d="M106 84q0 49 34 83t83 34t83 -34t34 -83q0 -47 -34 -81t-83 -34t-83 34t-34 81zM106 696q0 49 34 83t83 34t83 -34t34 -83q0 -47 -34 -80.5t-83 -33.5t-83 33.5t-34 80.5z" />
<glyph unicode=";" horiz-adv-x="446" d="M35 -225q111 53 159 105t58 114l-8 4q-23 -12 -47 -12q-39 0 -66 28.5t-27 71.5q0 47 31 81t80 34q59 0 94 -43t35 -109q0 -104 -63.5 -187t-214.5 -151zM111 696q0 49 33.5 83t82.5 34q47 0 82 -34t35 -83q0 -47 -35 -80.5t-82 -33.5q-49 0 -82.5 33.5t-33.5 80.5z" />
<glyph unicode="&#x3c;" horiz-adv-x="1056" d="M164 524v90l731 375v-110l-614 -310l614 -307v-115z" />
<glyph unicode="=" horiz-adv-x="1077" d="M117 334v98h841v-98h-841zM117 705v100h841v-100h-841z" />
<glyph unicode="&#x3e;" horiz-adv-x="1056" d="M162 147v111l614 309l-614 307v115l731 -377v-90z" />
<glyph unicode="?" horiz-adv-x="880" d="M51 1073q0 61 30 117.5t81 100.5t120.5 71t151.5 27q98 0 173 -27t125 -73t76 -105.5t26 -124.5q0 -102 -52.5 -183t-175.5 -184q-78 -66 -111.5 -136.5t-43.5 -162.5h-91q2 106 32 192.5t97 170.5q37 45 69 83t53.5 72.5t33.5 73.5t12 88q0 96 -60 160.5t-165 64.5 q-82 0 -142.5 -34.5t-82.5 -87.5q41 -10 66.5 -43t25.5 -76q0 -49 -31.5 -86t-87.5 -37q-55 0 -92 40t-37 99zM295 84q0 49 33.5 83t83.5 34q49 0 82.5 -34t33.5 -83q0 -47 -33.5 -81t-82.5 -34t-83 34t-34 81z" />
<glyph unicode="@" horiz-adv-x="1857" d="M123 498q0 193 68.5 356.5t187.5 282t278.5 185.5t343.5 67q150 0 283 -49.5t233.5 -140.5t159 -222t58.5 -295q0 -135 -39 -239.5t-103.5 -175t-146.5 -107.5t-166 -37q-111 0 -168 56.5t-41 166.5l-10 2q-61 -98 -135 -150.5t-152 -52.5q-102 0 -172 73t-70 210 q0 119 50.5 229.5t130.5 186.5q59 57 129.5 91t146.5 34q68 0 123 -41t68 -127l49 157h133l-156 -501q-25 -80 -25.5 -128t14.5 -76t44 -37t66 -9q63 0 123.5 32.5t107.5 94t75.5 147.5t28.5 195q0 143 -49 260t-135 200t-204.5 128t-260.5 45q-168 0 -310 -63.5 t-244.5 -173t-161 -258t-58.5 -318.5q0 -164 52.5 -295t147.5 -224.5t230 -143.5t301 -50q160 0 293 48t242 126l41 -63q-117 -90 -267.5 -141.5t-316.5 -51.5q-172 0 -321.5 53t-260 154.5t-173 250t-62.5 339.5zM682 414q0 -80 34 -124t97 -44q66 0 123 48t100 118.5 t67.5 149.5t24.5 143q0 33 -7 64.5t-22.5 58t-42 43t-65.5 16.5q-68 0 -124 -46t-97 -116t-64.5 -154t-23.5 -157z" />
<glyph unicode="A" horiz-adv-x="1376" d="M-8 0v106h143l488 1240h143l455 -1240h172v-106h-574v106h211l-133 375h-496l-141 -375h180v-106h-448zM438 578h424l-200 567h-7z" />
<glyph unicode="B" horiz-adv-x="1286" d="M66 0v106h227v1125h-227v104h591q150 0 246 -26.5t151.5 -70.5t77 -102.5t21.5 -121.5q0 -41 -15.5 -87t-53 -89t-103.5 -78t-164 -53v-7q100 -8 175 -35.5t125 -70.5t75 -98.5t25 -116.5q0 -72 -25 -140.5t-87.5 -122t-171 -85t-274.5 -31.5h-593zM465 106h205 q195 0 277.5 68t82.5 217q0 117 -89 189.5t-279 72.5h-197v-547zM465 752h203q162 0 231.5 69.5t69.5 188.5q0 51 -14.5 93t-48.5 69.5t-90 43t-140 15.5h-211v-479z" />
<glyph unicode="C" horiz-adv-x="1382" d="M96 670q0 147 48.5 275t133 221.5t198.5 147.5t243 54q131 0 226 -45t157 -117l39 156h106v-506h-94q-63 188 -166.5 293.5t-265.5 105.5q-94 0 -173 -36.5t-135.5 -109.5t-88 -180.5t-31.5 -246.5q0 -145 32.5 -256t91 -187.5t141.5 -115.5t185 -39q90 0 163 33t127 91 t89 138t49 176h115q-14 -133 -61 -236.5t-121 -174t-172 -107.5t-217 -37q-139 0 -253 52.5t-195 145.5t-126 222t-45 283z" />
<glyph unicode="D" horiz-adv-x="1441" d="M66 0v106h227v1125h-227v104h552q184 0 321.5 -47t229 -132t136.5 -203.5t45 -264.5q0 -143 -42 -268t-130 -218t-224.5 -147.5t-322.5 -54.5h-565zM465 106h170q270 0 394 141.5t124 440.5q0 266 -126 404.5t-406 138.5h-156v-1125z" />
<glyph unicode="E" horiz-adv-x="1345" d="M66 0v106h227v1125h-227v104h1142v-417h-80q-20 98 -36.5 159.5t-37 95t-50 46t-78.5 12.5h-461v-498h203q45 0 73.5 6t45 27.5t26.5 61.5t23 110h84v-510h-84q-10 72 -20.5 115t-28 64.5t-46 27.5t-73.5 6h-203v-535h457q55 0 90 12.5t57.5 50.5t38.5 107.5t39 182.5h80 v-459h-1161z" />
<glyph unicode="F" horiz-adv-x="1298" d="M66 0v106h227v1125h-227v104h1144v-426h-80q-23 104 -42 167t-43.5 97.5t-56.5 46t-81 11.5h-442v-522h188q45 0 73 6t45 27.5t27.5 63.5t20.5 112h84v-523h-84q-8 74 -18 117t-28.5 66.5t-46.5 30.5t-73 7h-188v-510h250v-106h-649z" />
<glyph unicode="G" d="M96 672q0 141 47 268t129 222t195 150.5t244 55.5q117 0 214 -44t162 -118l39 156h107v-500h-94q-61 184 -166 288.5t-254 104.5q-199 0 -312.5 -147t-113.5 -424q0 -283 115.5 -440.5t324.5 -157.5q94 0 156.5 38t103.5 87q41 53 61.5 129t20.5 158v53h-250v106h607 v-106h-183v-565h-100l-59 192q-59 -102 -157.5 -156.5t-221.5 -54.5q-141 0 -255 54.5t-194 149.5t-123 224t-43 277z" />
<glyph unicode="H" horiz-adv-x="1581" d="M66 0v106h227v1125h-227v104h600v-104h-201v-492h649v492h-199v104h601v-104h-228v-1125h228v-106h-601v106h199v537h-649v-537h201v-106h-600z" />
<glyph unicode="I" horiz-adv-x="786" d="M80 0v106h225v1125h-225v104h627v-104h-228v-1125h228v-106h-627z" />
<glyph unicode="J" horiz-adv-x="1085" d="M61 274q0 72 40 116t100 44q55 0 91 -36t36 -95q0 -43 -24.5 -75.5t-72.5 -47.5q25 -47 80.5 -76.5t130.5 -29.5q109 0 168.5 69.5t59.5 196.5v891h-219v104h596v-104h-205v-860q0 -193 -108 -298.5t-288 -105.5q-88 0 -159.5 24.5t-121.5 66.5t-77 98.5t-27 117.5z" />
<glyph unicode="K" horiz-adv-x="1468" d="M66 0v106h227v1125h-227v104h600v-104h-201v-625l610 625h-184v104h514v-104h-172l-453 -449l504 -676h164v-106h-561v106h184l-407 560l-199 -197v-363h201v-106h-600z" />
<glyph unicode="L" horiz-adv-x="1241" d="M66 0v106h227v1125h-227v104h639v-104h-240v-1125h403q45 0 74 15.5t51.5 58.5t43 120t48.5 202h80v-502h-1099z" />
<glyph unicode="M" horiz-adv-x="1902" d="M70 0v106h213v1125h-213v104h499l379 -1042h6l387 1042h490v-104h-221v-1125h221v-106h-576v106h181v1117h-13l-469 -1225h-73l-467 1225h-13v-1117h193v-106h-524z" />
<glyph unicode="N" horiz-adv-x="1570" d="M70 0v106h213v1125h-213v104h401l717 -1036h10v932h-207v104h531v-104h-203v-1264h-113l-794 1151h-11v-1012h205v-106h-536z" />
<glyph unicode="O" d="M96 668q0 150 50.5 277.5t137.5 222t201.5 146.5t243.5 52q133 0 248 -51t200 -143.5t134 -220.5t49 -283q0 -152 -50 -280t-136.5 -222t-201 -146.5t-243.5 -52.5q-133 0 -248.5 51.5t-200.5 144.5t-134.5 222t-49.5 283zM293 668q0 -135 29.5 -245t86 -186.5 t137.5 -118.5t183 -42t183 41t137.5 117.5t86 186t29.5 247.5q0 135 -29.5 243.5t-86 185.5t-137.5 118.5t-183 41.5t-183 -41.5t-137.5 -118.5t-86 -185.5t-29.5 -243.5z" />
<glyph unicode="P" horiz-adv-x="1247" d="M66 0v106h227v1125h-227v104h581q154 0 256.5 -31.5t163.5 -84t88 -121t27 -144.5q0 -78 -30 -150.5t-93.5 -127.5t-162.5 -89t-241 -34h-190v-447h250v-106h-649zM465 653h186q94 0 158.5 22.5t104.5 62.5t57.5 95.5t17.5 120.5q0 59 -17.5 109.5t-56 87.5t-103 58.5 t-159.5 21.5h-188v-578z" />
<glyph unicode="Q" d="M96 668q0 150 50.5 277.5t137.5 222t201.5 146.5t243.5 52q133 0 248 -51t200 -143.5t134 -220.5t49 -283q0 -182 -70.5 -330t-189.5 -240q59 -102 100 -138t88 -36q57 0 88 49.5t47 147.5h97q-6 -74 -22.5 -136.5t-47.5 -107.5t-77 -69.5t-107 -24.5q-102 0 -169 60.5 t-124 176.5q-117 -53 -244 -53q-133 0 -248.5 51.5t-200.5 144.5t-134.5 222t-49.5 283zM293 668q0 -147 36.5 -264t104.5 -195q0 53 17.5 102t51.5 87t84 60.5t115 22.5q111 0 188 -73.5t144 -190.5q61 78 96 190.5t35 260.5q0 135 -29.5 243.5t-86 185.5t-137.5 118.5 t-183 41.5t-183 -41.5t-137.5 -118.5t-86 -185.5t-29.5 -243.5zM524 221q0 -29 10.5 -55.5t36 -47t67.5 -31.5t105 -11q100 0 185 47q-25 53 -51.5 99t-57.5 80t-65.5 53.5t-77.5 19.5q-72 0 -112 -44t-40 -110z" />
<glyph unicode="R" horiz-adv-x="1386" d="M66 0v106h227v1125h-227v104h653q131 0 224 -27.5t151.5 -74.5t85 -109.5t26.5 -134.5q0 -53 -16 -104t-55 -95.5t-100.5 -78t-149.5 -49.5v-13q143 -35 200.5 -104.5t65.5 -186.5l12 -168q6 -94 72 -94q29 0 51.5 23.5t44.5 73.5l70 -33q-33 -86 -83 -134.5t-132 -48.5 q-43 0 -81 11.5t-66.5 39t-45 73.5t-18.5 116l-4 162q-2 57 -13.5 99t-39 68.5t-75.5 40t-124 13.5h-254v-494h225v-106h-624zM465 698h242q84 0 141 20.5t93 58.5t52.5 91.5t16.5 118.5q0 119 -64.5 181.5t-212.5 62.5h-268v-533z" />
<glyph unicode="S" horiz-adv-x="1171" d="M113 -27v465h92q96 -199 201.5 -285.5t252.5 -86.5q119 0 193 62t74 183q0 68 -27 113t-76 75.5t-115.5 52t-146.5 44.5q-80 20 -157.5 47t-138 70t-97.5 108.5t-37 163.5q0 80 28.5 148.5t82 121t129 82t170.5 29.5q100 0 191 -40t151 -107l41 141h100v-440h-92 q-78 195 -181.5 272.5t-220.5 77.5q-102 0 -170.5 -60.5t-68.5 -173.5q0 -72 28.5 -117t76.5 -75.5t111.5 -50t135.5 -37.5q86 -23 166 -48.5t141.5 -66.5t98 -104.5t36.5 -161.5q0 -88 -31.5 -163t-89 -129t-136 -85t-173.5 -31q-125 0 -224 44t-173 122l-45 -160h-100z " />
<glyph unicode="T" horiz-adv-x="1372" d="M94 872v463h1184v-463h-78q-27 115 -46 186.5t-45 111.5t-61.5 54.5t-95.5 14.5h-180v-1133h236v-106h-643v106h235v1133h-182q-59 0 -95 -14.5t-60.5 -54.5t-44 -111.5t-46.5 -186.5h-78z" />
<glyph unicode="U" horiz-adv-x="1503" d="M45 1231v104h576v-104h-207v-782q0 -195 98 -278t287 -83q84 0 149.5 25.5t110.5 70.5q53 53 73.5 125t20.5 189v733h-207v104h514v-104h-188v-809q0 -94 -33 -177t-98.5 -144.5t-163.5 -97.5t-229 -36q-127 0 -222.5 32t-159 90t-94 138t-30.5 176v828h-197z" />
<glyph unicode="V" horiz-adv-x="1388" d="M-8 1231v104h573v-104h-211l369 -1024h12l393 1024h-180v104h449v-104h-144l-491 -1239h-133l-465 1239h-172z" />
<glyph unicode="W" horiz-adv-x="2015" d="M-6 1231v104h567v-104h-207l308 -1008h10l299 891l-33 117h-172v104h569v-104h-215l293 -1008h10l326 1008h-180v104h446v-104h-143l-418 -1239h-145l-283 950l-326 -950h-143l-389 1239h-174z" />
<glyph unicode="X" horiz-adv-x="1376" d="M20 0v106h166l408 564l-377 561h-180v104h567v-104h-182l289 -451l313 451h-193v104h500v-104h-166l-383 -533l398 -592h178v-106h-565v106h184l-313 482l-340 -482h194v-106h-498z" />
<glyph unicode="Y" horiz-adv-x="1304" d="M12 1231v104h557v-104h-184l307 -559l330 559h-172v104h453v-104h-158l-408 -668v-457h207v-106h-586v106h205v455l-383 670h-168z" />
<glyph unicode="Z" horiz-adv-x="1247" d="M80 0v76l854 1155h-512q-45 0 -75 -8.5t-52.5 -43t-44 -105t-47.5 -195.5h-82v456h1036v-73l-848 -1156h553q45 0 75 10.5t52.5 48.5t42 110.5t47.5 197.5h80v-473h-1079z" />
<glyph unicode="[" horiz-adv-x="692" d="M182 -311v1786h510v-101h-350v-1585h350v-100h-510z" />
<glyph unicode="\" horiz-adv-x="856" d="M39 1430h125l790 -1846h-125z" />
<glyph unicode="]" horiz-adv-x="692" d="M0 -211h350v1585h-350v101h510v-1786h-510v100z" />
<glyph unicode="^" horiz-adv-x="681" d="M61 1049l242 403h82l233 -403h-81l-197 237l-199 -237h-80z" />
<glyph unicode="_" horiz-adv-x="901" d="M-4 0v111h909v-111h-909z" />
<glyph unicode="`" horiz-adv-x="487" d="M49 1405q0 35 22.5 55.5t51.5 20.5q39 0 66.5 -34t56.5 -110l102 -258h-78l-133 170q-45 57 -66.5 91t-21.5 65z" />
<glyph unicode="a" horiz-adv-x="989" d="M94 225q0 45 15.5 87t48.5 77q27 27 59.5 46.5t74.5 33.5t95 25.5t121 21.5q47 8 75.5 13.5t44 11.5t20.5 14t5 20v91q0 102 -49 143t-141 41q-111 0 -176 -53q55 -29 55 -95q0 -45 -28.5 -74.5t-77.5 -29.5t-79 32t-30 79q0 49 29.5 91t80 72.5t116 47t136.5 16.5 q160 0 242 -67.5t82 -209.5v-481q0 -47 15.5 -64.5t45.5 -17.5q47 0 82 82l62 -35q-35 -78 -78 -115.5t-113 -37.5q-63 0 -108 39t-47 131h-6q-47 -78 -130.5 -126t-177.5 -48q-127 0 -195.5 65.5t-68.5 173.5zM268 254q0 -78 40 -119t120 -41q41 0 81 15.5t72.5 43t52 62.5 t19.5 76v182q-23 -8 -100 -20q-78 -12 -132 -27.5t-88 -38t-49.5 -55.5t-15.5 -78z" />
<glyph unicode="b" horiz-adv-x="1077" d="M12 1296v111h312v-684q53 104 136 159.5t177 55.5q76 0 130 -23.5t95 -64.5q129 -127 129 -381q0 -117 -35.5 -219.5t-101.5 -167.5q-47 -47 -107.5 -72.5t-130.5 -25.5q-104 0 -183 56t-124 153l-59 -203h-84v1306h-154zM319 438q0 -86 21.5 -150.5t58.5 -108.5 t85.5 -66.5t99.5 -22.5q104 0 168.5 97.5t64.5 277.5q0 176 -62.5 271t-166.5 95q-55 0 -104.5 -29.5t-86.5 -81.5t-57.5 -124t-20.5 -158z" />
<glyph unicode="c" horiz-adv-x="966" d="M80 442q0 109 33.5 200t95 156.5t146.5 102.5t190 37q76 0 139.5 -23.5t109.5 -61.5t72.5 -84t26.5 -91q0 -59 -32 -100t-87 -41q-53 0 -81.5 32.5t-28.5 77.5q0 37 21.5 67.5t55.5 43.5q-25 37 -75 65.5t-127 28.5q-127 0 -207 -104.5t-80 -284.5q0 -176 78 -275.5 t217 -99.5q193 0 270 211h88q-41 -156 -144 -236.5t-253 -80.5q-96 0 -175 34.5t-135.5 96t-87 145.5t-30.5 184z" />
<glyph unicode="d" horiz-adv-x="1095" d="M86 449q0 117 38 221t103 170q47 47 105.5 72.5t132.5 25.5q96 0 170 -47t117 -131v536h-156v111h313v-1301h148v-106h-301v201q-53 -111 -134.5 -164t-175.5 -53q-72 0 -129 24.5t-98 65.5q-68 66 -100.5 162t-32.5 213zM260 459q0 -178 69 -273.5t169 -95.5 q53 0 100 27.5t83 78t56.5 121t20.5 158.5q0 80 -18.5 145.5t-52.5 112.5t-81 72.5t-102 25.5q-113 0 -178.5 -98t-65.5 -274z" />
<glyph unicode="e" horiz-adv-x="974" d="M80 451q0 104 33.5 194t93 154.5t139.5 101.5t172 37q100 0 173 -42t120 -109.5t69 -154.5q20 -80 19 -163v-16h-647q4 -180 84 -271.5t211 -91.5q84 0 152.5 39t109.5 141h86q-41 -143 -140.5 -215.5t-242.5 -72.5q-100 0 -180 34.5t-136.5 97t-86 148.5t-29.5 189z M254 541h481q-10 145 -65.5 227t-161.5 82q-102 0 -170 -78t-84 -231z" />
<glyph unicode="f" horiz-adv-x="684" d="M37 815v100h186v60q0 123 33 208t85 137t119.5 75.5t139.5 23.5q111 0 184.5 -49t73.5 -129q0 -47 -28.5 -82t-73.5 -35q-51 0 -80 29t-29 78q0 27 12.5 47t22.5 31q-16 14 -43 20t-55 6q-49 0 -86 -17.5t-62.5 -57t-39 -108.5t-13.5 -169v-68h272v-100h-272v-709h215 v-106h-526v106h151v709h-186z" />
<glyph unicode="g" horiz-adv-x="960" d="M49 -117q0 66 54.5 117t142.5 68v6q-84 25 -118 62.5t-34 86.5q0 51 48 96.5t126 61.5q-76 39 -119 98.5t-43 153.5q0 72 28 128t77 95t114.5 59.5t141.5 20.5q78 0 151 -29q47 82 110 132.5t138 50.5q53 0 86 -30t33 -77q0 -39 -24.5 -66.5t-65.5 -27.5 q-39 0 -60.5 22.5t-21.5 59.5q0 12 2 20h-3q-28 0 -62 -29q-37 -32 -66 -85q63 -39 103 -99.5t40 -138.5q0 -72 -26.5 -128t-74.5 -95t-113.5 -58.5t-145.5 -19.5q-35 0 -65.5 3t-59.5 3q-49 0 -79 -25.5t-30 -58.5q0 -82 162 -82h244q143 0 206.5 -55t63.5 -152 q0 -61 -30.5 -115.5t-90 -96.5t-145.5 -65.5t-197 -23.5q-186 0 -291.5 60.5t-105.5 152.5zM201 -100q0 -61 57.5 -102.5t196.5 -41.5q143 0 228 48.5t85 125.5q0 53 -35 84t-110 31h-230q-92 0 -142 -37t-50 -108zM272 635q0 -113 55.5 -166t147.5 -53q88 0 136 56t48 165 q0 94 -52 157.5t-146 63.5q-88 0 -138.5 -54t-50.5 -169z" />
<glyph unicode="h" horiz-adv-x="1138" d="M45 0v106h154v1190h-154v111h313v-719q80 139 167 193.5t177 54.5q117 0 183.5 -75t66.5 -216v-539h154v-106h-453v106h142v467q0 66 -12.5 114t-41.5 77q-41 43 -116 43q-51 0 -99.5 -25.5t-85.5 -67.5t-59.5 -96.5t-22.5 -109.5v-402h140v-106h-453z" />
<glyph unicode="i" horiz-adv-x="614" d="M74 0v106h174v709h-174v107h332v-816h174v-106h-506zM199 1245q0 51 31.5 85t84.5 34q47 0 80 -32t33 -85t-33 -85t-80 -32q-51 0 -83.5 31t-32.5 84z" />
<glyph unicode="j" horiz-adv-x="575" d="M-104 -174q0 47 31.5 83t78.5 36q49 0 77 -29t28 -70q0 -27 -10.5 -47t-24.5 -35q20 -14 53 -14q57 0 90 49t33 156v860h-172v107h332v-885q0 -182 -77 -276.5t-224 -94.5q-90 0 -152.5 45t-62.5 115zM205 1245q0 51 30.5 85t83.5 34q47 0 80 -32t33 -85t-32 -85t-81 -32 q-51 0 -82.5 31t-31.5 84z" />
<glyph unicode="k" horiz-adv-x="1069" d="M45 0v106h154v1190h-154v111h313v-985l373 395h-153v105h426v-107h-140l-252 -256l320 -453h117v-106h-420v104h123l-244 355l-150 -152v-201h127v-106h-440z" />
<glyph unicode="l" horiz-adv-x="581" d="M37 0v106h174v1190h-174v111h334v-1301h172v-106h-506z" />
<glyph unicode="m" horiz-adv-x="1718" d="M70 0v106h153v709h-153v107h309v-238q82 141 167 196.5t171 55.5q106 0 166.5 -59.5t70.5 -184.5q84 137 169 190.5t171 53.5q117 0 178.5 -75t61.5 -218v-537h154v-106h-443v106h131v467q0 66 -11 115t-40 80q-37 37 -111 37q-49 0 -95 -25.5t-82 -67.5t-57.5 -95.5 t-21.5 -108.5v-402h132v-106h-420v106h129v467q0 66 -9.5 115t-39.5 80q-23 23 -49.5 30t-61.5 7q-49 0 -95 -25.5t-82 -67.5t-57.5 -95.5t-21.5 -108.5v-402h129v-106h-442z" />
<glyph unicode="n" horiz-adv-x="1163" d="M70 0v106h153v709h-153v107h309v-238q82 141 170 196.5t178 55.5q117 0 183.5 -75t66.5 -216v-539h153v-106h-452v106h141v467q0 66 -12 114t-41 77q-41 43 -117 43q-51 0 -99 -25.5t-85 -67.5t-59.5 -96.5t-22.5 -109.5v-402h139v-106h-452z" />
<glyph unicode="o" horiz-adv-x="1048" d="M80 453q0 106 33.5 196t94 153.5t141.5 99.5t175 36q98 0 180 -34t140.5 -95t91.5 -148.5t33 -193.5q0 -109 -34 -198t-94.5 -152.5t-141.5 -99t-175 -35.5q-98 0 -180 33.5t-140.5 95t-91 148.5t-32.5 194zM252 459q0 -100 22.5 -173t60.5 -121t89 -70.5t108 -22.5 q115 0 189 94t74 295q0 100 -21.5 173t-59.5 121t-89.5 70.5t-108.5 22.5q-115 0 -189.5 -95.5t-74.5 -293.5z" />
<glyph unicode="p" horiz-adv-x="1103" d="M45 -201h154v1016h-154v107h307v-215q53 123 136 177t180 54q72 0 125 -22.5t100 -69.5q63 -63 94 -158.5t31 -210.5q0 -117 -36 -215t-101 -164q-47 -47 -104.5 -72.5t-129.5 -25.5q-104 0 -177 55.5t-114 132.5v-389h201v-106h-512v106zM352 453q0 -74 18.5 -137.5 t51.5 -109.5t80 -71.5t104 -25.5q106 0 172 93t66 279q0 94 -18.5 161t-50.5 109t-74 61t-87 19q-51 0 -98 -28.5t-84 -79.5t-58.5 -119.5t-21.5 -150.5z" />
<glyph unicode="q" horiz-adv-x="1069" d="M86 463q0 109 37 209t100 164q102 102 240 102q102 0 180 -56.5t123 -152.5l59 201h84v-1131h154v-106h-510v106h199v418q-51 -111 -130 -164t-178 -53q-72 0 -129 24.5t-104 71.5q-63 63 -94 159.5t-31 207.5zM260 463q0 -96 18.5 -164t51 -110t76 -61t90.5 -19 q51 0 98 26.5t83 75.5t56.5 117.5t20.5 150.5q0 78 -18.5 142.5t-52.5 111.5t-80 72.5t-101 25.5q-111 0 -176.5 -94t-65.5 -274z" />
<glyph unicode="r" horiz-adv-x="829" d="M70 0v106h153v709h-153v107h309v-217q45 117 122 173t156 56q72 0 111 -41t39 -100q0 -49 -32 -84t-79 -35t-78.5 28.5t-31.5 77.5q0 23 8 39q-7 1 -13 1q-32 0 -60 -16q-34 -20 -61.5 -52.5t-47 -71.5t-29.5 -76v-498h180v-106h-493z" />
<glyph unicode="s" horiz-adv-x="886" d="M92 -18v348h94q37 -123 116 -193.5t190 -70.5q86 0 133 38.5t47 104.5q0 35 -13.5 60.5t-43 47t-76.5 40t-117 36.5q-170 47 -241.5 109.5t-71.5 169.5q0 53 22.5 101t63.5 85t97 58.5t126 21.5q78 0 141.5 -28.5t97.5 -82.5l23 111h90v-315h-90q-47 113 -104.5 172 t-159.5 59q-66 0 -115 -35t-49 -98q0 -66 57.5 -106t184.5 -74q84 -23 144 -47.5t98 -57.5t56.5 -75t18.5 -99q0 -53 -21.5 -103t-63.5 -89t-101.5 -63.5t-132.5 -24.5q-96 0 -168 34.5t-119 94.5l-23 -129h-90z" />
<glyph unicode="t" horiz-adv-x="716" d="M14 815v100h187v246l159 21v-267h302v-100h-302v-579q0 -143 115 -144q53 0 89 40t65 124l73 -29q-39 -135 -107.5 -190t-160.5 -55q-117 0 -175 66.5t-58 182.5v584h-187z" />
<glyph unicode="u" horiz-adv-x="1128" d="M37 815v107h309v-574q0 -66 11.5 -115t41.5 -77q20 -23 49 -32t64 -9q51 0 98 25.5t84 67.5t59.5 95t22.5 109v403h-158v107h318v-816h151v-106h-307v236q-82 -141 -169 -196.5t-177 -55.5q-117 0 -181.5 75.5t-64.5 216.5v539h-151z" />
<glyph unicode="v" horiz-adv-x="1011" d="M0 815v107h461v-107h-160l231 -651h7l247 651h-143v107h369v-107h-111l-332 -827h-127l-315 827h-127z" />
<glyph unicode="w" horiz-adv-x="1540" d="M4 815v107h449v-107h-156l211 -651h4l225 561l-30 90h-127v107h450v-107h-166l221 -651h7l223 651h-144v107h365v-107h-111l-299 -827h-131l-209 594l-241 -594h-129l-285 827h-127z" />
<glyph unicode="x" horiz-adv-x="997" d="M25 0v106h108l287 338l-285 371h-110v107h434v-103h-142l205 -280l226 280h-132v103h359v-107h-105l-286 -340l280 -369h111v-106h-426v102h139l-207 281l-229 -281h127v-102h-354z" />
<glyph unicode="y" horiz-adv-x="1001" d="M0 815v107h459v-107h-160l238 -633l245 633h-141v107h369v-107h-113l-317 -778q-45 -109 -89.5 -180.5t-90.5 -113.5t-94 -59.5t-99 -17.5q-86 0 -132 41t-46 103q0 49 31.5 85.5t82.5 36.5q47 0 76 -30.5t29 -73.5q0 -41 -19 -70q27 2 54.5 12.5t55.5 37t55.5 73.5 t58.5 121l-326 813h-127z" />
<glyph unicode="z" horiz-adv-x="935" d="M72 0v88l600 743h-326q-41 0 -65.5 -8t-42 -32.5t-30.5 -70.5t-30 -120h-76v322h766v-88l-604 -744h375q39 0 62.5 9.5t40 37t27.5 77.5t26 130h77v-344h-800z" />
<glyph unicode="{" horiz-adv-x="794" d="M33 532v99h61q147 0 214 52t67 136q0 74 -15.5 149.5t-15.5 145.5q0 164 105.5 259t324.5 104v-95q-80 -6 -132 -25.5t-82 -51t-42 -75.5t-12 -100q0 -49 8 -120.5t8 -139.5q0 -248 -278 -284v-6q279 -37 278 -287q0 -68 -8 -139.5t-8 -120.5q0 -55 12 -99.5t42 -76 t82 -51t132 -25.5v-94q-219 8 -324.5 103t-105.5 259q0 70 15.5 145.5t15.5 151.5q0 84 -66.5 135t-214.5 51h-61z" />
<glyph unicode="|" horiz-adv-x="571" d="M229 -416v1846h113v-1846h-113z" />
<glyph unicode="}" horiz-adv-x="794" d="M20 -219q80 6 132.5 25.5t82 51t42 75.5t12.5 100q0 49 -8.5 120.5t-8.5 139.5q0 248 279 285v6q-279 37 -279 286q0 68 8.5 139.5t8.5 120.5q0 55 -12.5 99.5t-42 76t-82 51t-132.5 25.5v95q219 -8 325 -103.5t106 -259.5q0 -70 -15.5 -145.5t-15.5 -151.5 q0 -84 66.5 -135t213.5 -51h62v-99h-62q-147 0 -213.5 -52t-66.5 -136q0 -74 15.5 -149.5t15.5 -145.5q0 -164 -105.5 -259t-325.5 -103v94z" />
<glyph unicode="~" horiz-adv-x="759" d="M84 514q18 139 61 194.5t121 55.5q39 0 75 -18.5t68.5 -40t61.5 -40t53 -18.5q37 0 56.5 36t29.5 95h74q-18 -139 -61 -194.5t-121 -55.5q-41 0 -76 18.5t-67.5 40t-61.5 40t-53 18.5q-37 0 -56.5 -36t-29.5 -95h-74z" />
<glyph unicode="&#xa1;" horiz-adv-x="544" d="M182 1274q0 47 34 81t83 34t83 -34t34 -81q0 -49 -34 -83t-83 -34t-83 34t-34 83zM195 94q0 57 8 150.5t18 197.5q10 115 22.5 248t20.5 287h68q8 -154 20.5 -287t22.5 -248q10 -104 19 -198t9 -150q0 -63 -28.5 -94t-75.5 -31t-75.5 31t-28.5 94z" />
<glyph unicode="&#xa2;" horiz-adv-x="1052" d="M121 442q0 104 31.5 191.5t90 153t141.5 104.5t185 45l17 182l94 -6l-16 -178q70 -8 129 -34t102 -61.5t66.5 -77.5t23.5 -85q0 -59 -32.5 -95t-86.5 -36q-53 0 -82.5 32.5t-29.5 77.5q0 37 21.5 68t55.5 43q-23 31 -66.5 53.5t-109.5 30.5l-69 -762h18q98 0 173 53.5 t116 157.5h86q-39 -154 -146.5 -233.5t-252.5 -83.5l-17 -191l-94 6l14 193q-82 12 -148.5 51t-114.5 98.5t-73.5 136t-25.5 166.5zM293 463q0 -141 52 -233.5t151 -125.5l67 746q-123 -16 -196.5 -118.5t-73.5 -268.5z" />
<glyph unicode="&#xa3;" horiz-adv-x="1202" d="M68 113q0 37 17 74.5t54 67.5t93.5 48.5t134.5 18.5q37 0 71 -7q12 39 15.5 67t3.5 50q0 41 -12.5 79t-28.5 73h-299v104h243q-20 41 -33.5 89t-13.5 108q0 100 34 181t92.5 136t136 85t165.5 30q82 0 146.5 -22.5t108.5 -59.5t66.5 -84t22.5 -96q0 -68 -37.5 -109 t-91.5 -41q-53 0 -86.5 33t-33.5 86q0 41 21.5 70.5t53.5 42.5q-23 35 -69.5 58.5t-110.5 23.5q-53 0 -100 -16.5t-82 -49.5t-54.5 -79t-19.5 -103q0 -78 26.5 -145.5t53.5 -137.5h385v-104h-356q2 -16 4 -31.5t2 -32.5q0 -41 -12.5 -98t-49.5 -129q61 -18 113.5 -46 t96.5 -53.5t83 -43t76 -17.5q63 0 99 51.5t59 177.5l82 -6q-12 -207 -74 -297t-189 -90q-55 0 -106 22.5t-99 54.5t-96.5 66.5t-99.5 61.5q-45 -109 -107.5 -158t-140.5 -49q-66 0 -111.5 39t-45.5 107zM174 125q0 -33 19.5 -49.5t46.5 -16.5q49 0 83.5 42t59.5 108 q-18 6 -37.5 10t-40.5 4q-68 0 -99.5 -31.5t-31.5 -66.5z" />
<glyph unicode="&#xa5;" horiz-adv-x="1339" d="M59 1184v102h535v-102h-182l286 -531l308 531h-168v102h444v-102h-149l-334 -551h327v-96h-378v-148h378v-96h-378v-187h241v-106h-647v106h244v187h-383v96h383v148h-383v96h329l-313 551h-160z" />
<glyph unicode="&#xa7;" horiz-adv-x="1056" d="M141 -2q0 53 31 91t84 38t82 -33t29 -74q0 -35 -18.5 -60.5t-43.5 -39.5q20 -18 75.5 -44t154.5 -26q119 0 170 49.5t51 108.5q0 31 -10.5 57.5t-38 53t-78.5 52.5t-131 52q-96 33 -162 63.5t-106 65.5t-56 77t-16 97q0 84 62.5 150.5t166.5 105.5v11q-92 41 -144.5 95 t-52.5 138q0 61 27 114.5t76 93.5t117.5 62.5t152.5 22.5q70 0 129.5 -18.5t103.5 -50t69.5 -72.5t25.5 -84q0 -53 -28.5 -86t-76.5 -33q-49 0 -77.5 29.5t-28.5 70.5q0 31 15.5 54.5t37.5 35.5q-18 16 -61 39t-115 23q-115 0 -169 -48.5t-54 -107.5q0 -29 11 -54.5t41 -50 t82 -49t134 -53.5q90 -31 152.5 -60.5t100.5 -64t55.5 -78t17.5 -100.5q0 -76 -56.5 -146.5t-158.5 -111.5v-10q88 -39 137 -93.5t49 -138.5q0 -55 -21.5 -109t-67.5 -97t-116 -70t-168 -27q-80 0 -149.5 18.5t-121.5 50.5t-83 76t-31 95zM309 557q0 -33 12.5 -59.5t40 -49 t73.5 -44t114 -46.5l53 -18q92 29 135 79t43 109q0 31 -10 57.5t-35.5 51.5t-69.5 47.5t-112 44.5l-59 21q-96 -29 -140.5 -81.5t-44.5 -111.5z" />
<glyph unicode="&#xa8;" horiz-adv-x="659" d="M47 1237q0 47 29.5 80t75.5 33q45 0 75.5 -33t30.5 -80t-30.5 -79t-75.5 -32t-75 32t-30 79zM401 1237q0 47 31 80t76 33t74.5 -33t29.5 -80t-29.5 -79t-74.5 -32t-76 32t-31 79z" />
<glyph unicode="&#xa9;" horiz-adv-x="1611" d="M70 676q0 156 57 291t156.5 234t233.5 155.5t288 56.5q156 0 290 -56.5t233 -155.5t156.5 -234.5t57.5 -290.5q0 -158 -57.5 -293t-156.5 -235.5t-233 -157t-290 -56.5q-154 0 -288 56.5t-233.5 157t-156.5 235.5t-57 293zM150 676q0 -141 51 -264t139 -213t208 -142.5 t257 -52.5q139 0 259 52.5t209 142.5t139 213t50 264q0 139 -50 261t-139 212t-209 142t-259 52q-137 0 -257 -52t-208 -142t-139 -212t-51 -261zM459 684q0 82 27.5 152.5t75.5 122t112.5 81t138.5 29.5q72 0 123 -24.5t86 -65.5l22 88h72v-279h-63q-35 100 -90.5 154.5 t-143.5 54.5q-106 0 -169.5 -78.5t-63.5 -228.5q0 -156 62.5 -238.5t178.5 -82.5q100 0 156.5 63.5t71.5 169.5h73q-16 -147 -101 -228t-218 -81q-78 0 -141.5 28.5t-110.5 81t-72.5 124t-25.5 157.5z" />
<glyph unicode="&#xaa;" horiz-adv-x="825" d="M111 811q0 76 63 131q39 33 96.5 49.5t155.5 32.5q59 10 75.5 17.5t16.5 25.5v59q0 72 -34.5 99.5t-100.5 27.5q-76 0 -125 -32q39 -23 39 -70q0 -33 -21.5 -55.5t-58.5 -22.5t-59.5 22.5t-22.5 57.5q0 37 22.5 67.5t59.5 54t86 36t103 12.5q115 0 176 -49t61 -154v-342 q0 -35 12.5 -47t32.5 -12q31 0 60 61l51 -26q-27 -57 -60.5 -86t-87.5 -29q-45 0 -78.5 26.5t-40.5 88.5h-6q-35 -53 -93 -86t-124 -33q-94 0 -146 48t-52 128zM246 831q-1 -110 112 -110q29 0 57.5 11t51 30.5t37 45.5t14.5 54v121q-16 -6 -63 -14q-115 -18 -162 -46 t-47 -92z" />
<glyph unicode="&#xab;" horiz-adv-x="1007" d="M88 459q0 14 11.5 31.5t43.5 50.5l308 311l59 -41l-256 -350l256 -355l-59 -40l-308 311q-33 33 -44 50t-11 32zM485 459q0 14 11.5 31.5t44.5 50.5l305 311l61 -41l-256 -350l256 -355l-61 -40l-305 311q-33 33 -44.5 50t-11.5 32z" />
<glyph unicode="&#xad;" horiz-adv-x="749" d="M113 430v133h524v-133h-524z" />
<glyph unicode="&#xae;" horiz-adv-x="1058" d="M76 963q0 98 34.5 180t95 142.5t143.5 94t179 33.5t179.5 -33.5t144.5 -94t96 -142.5t35 -180t-35 -181.5t-96 -143.5t-144.5 -95t-179.5 -35t-179 35t-143.5 95t-95 143t-34.5 182zM143 963q0 -88 28 -162t78 -126t121.5 -81t157.5 -29q88 0 160 29t122 81t77.5 125.5 t27.5 162.5q0 88 -27.5 159.5t-77.5 123.5t-122 81t-160 29q-86 0 -157.5 -29t-121.5 -81t-78 -123.5t-28 -159.5zM311 735v47h74v371h-74v49h238q53 0 88 -11t56.5 -28.5t29.5 -39t8 -44.5q0 -37 -30.5 -69.5t-102.5 -42.5v-6q59 -10 83 -36t28 -65l4 -47q2 -35 20 -35 q10 0 17.5 7.5t15.5 29.5l33 -12q-10 -35 -30.5 -56.5t-55.5 -21.5q-39 0 -60.5 21.5t-25.5 74.5l-2 45q-2 37 -18.5 55.5t-63.5 18.5h-76v-158h74v-47h-230zM467 985h74q98 0 98 88q0 80 -92 80h-80v-168z" />
<glyph unicode="&#xaf;" horiz-adv-x="657" d="M72 1118v127h514v-127h-514z" />
<glyph unicode="&#xb0;" horiz-adv-x="800" d="M78 1036q0 68 23.5 128.5t66.5 104.5t102.5 70.5t130.5 26.5q76 0 135.5 -25.5t101.5 -68.5t63.5 -102.5t21.5 -127.5t-23.5 -127t-65.5 -103t-101.5 -70.5t-133.5 -26.5q-76 0 -135 25.5t-101 68.5t-63.5 101.5t-21.5 125.5zM207 1040q0 -113 56.5 -172t142.5 -59 q84 0 137 57.5t53 173.5q0 113 -57.5 172.5t-143.5 59.5q-80 0 -134 -59.5t-54 -172.5z" />
<glyph unicode="&#xb1;" horiz-adv-x="1103" d="M172 59v95h760v-95h-760zM176 664v90h328v333h100v-333h326v-90h-326v-338h-100v338h-328z" />
<glyph unicode="&#xb4;" horiz-adv-x="485" d="M113 1079l102 258q31 78 57.5 111t65.5 33q29 0 51.5 -20.5t22.5 -55.5q0 -31 -21.5 -64.5t-66.5 -91.5l-134 -170h-77z" />
<glyph unicode="&#xb6;" horiz-adv-x="1312" d="M121 803q0 90 31.5 170t99 139t174 94t258.5 35h555v-104h-188v-1350h-115v1350h-160v-1350h-112v561q-125 0 -225.5 33t-171 92t-108.5 142t-38 188z" />
<glyph unicode="&#xb7;" horiz-adv-x="438" d="M102 655q0 49 34 83t83 34t83 -33.5t34 -83.5q0 -47 -34 -80.5t-83 -33.5t-83 33.5t-34 80.5z" />
<glyph unicode="&#xb8;" horiz-adv-x="577" d="M25 -424l38 66q39 -23 75 -35.5t77 -12.5q53 0 85 24t32 65q0 47 -42 70.5t-102 23.5q-25 0 -43 -3t-34 -7l-29 38l197 205h100l-148 -147l2 -6q98 -4 157 -48.5t59 -113.5q0 -84 -61 -132t-157 -48q-53 0 -106 15t-100 46z" />
<glyph unicode="&#xba;" horiz-adv-x="851" d="M94 973q0 78 26.5 142.5t72 110.5t105.5 71.5t128 25.5q72 0 133.5 -24.5t105.5 -68.5t68.5 -107.5t24.5 -139.5q0 -78 -25.5 -142.5t-71 -110.5t-105.5 -71.5t-130 -25.5q-72 0 -132.5 23.5t-105.5 68.5t-69.5 107.5t-24.5 140.5zM227 975q0 -70 16.5 -120t44 -83 t65.5 -49t79 -16q82 0 137.5 67.5t55.5 206.5q0 70 -16.5 120t-44 83t-65.5 49t-79 16q-82 0 -137.5 -66.5t-55.5 -207.5z" />
<glyph unicode="&#xbb;" horiz-adv-x="1007" d="M100 106l256 351l-256 354l62 41l305 -311q33 -33 44 -50.5t11 -31.5t-11 -31.5t-44 -50.5l-305 -311zM498 106l256 351l-256 354l59 41l307 -311q33 -33 44.5 -50.5t11.5 -31.5t-11.5 -31.5t-44.5 -50.5l-307 -311z" />
<glyph unicode="&#xbf;" horiz-adv-x="864" d="M37 299q0 102 52 183t175 184q78 66 112 136t44 163h90q-2 -106 -31.5 -192.5t-97.5 -170.5q-37 -47 -68.5 -84t-53 -71.5t-34 -73.5t-12.5 -88q0 -96 60.5 -161t164.5 -65q82 0 142.5 35t83.5 88q-41 10 -67 43t-26 76q0 49 32 86t87 37t92 -40t37 -99 q0 -61 -29.5 -117.5t-81 -100.5t-121 -71t-151.5 -27q-98 0 -173 27t-125 73t-75.5 105t-25.5 125zM342 1274q0 47 34 81t83 34t82.5 -34t33.5 -81q0 -49 -33.5 -83t-82.5 -34t-83 34t-34 83z" />
<glyph unicode="&#xc0;" horiz-adv-x="1376" d="M-8 0v106h143l488 1240h143l455 -1240h172v-106h-574v106h211l-133 375h-496l-141 -375h180v-106h-448zM438 578h424l-200 567h-7zM465 1835q0 35 22.5 55.5t51.5 20.5q39 0 66.5 -34t56.5 -110l102 -258h-78l-133 170q-45 57 -66.5 91t-21.5 65z" />
<glyph unicode="&#xc1;" horiz-adv-x="1376" d="M-8 0v106h143l488 1240h143l455 -1240h172v-106h-574v106h211l-133 375h-496l-141 -375h180v-106h-448zM438 578h424l-200 567h-7zM645 1509l103 258q31 78 57 111t65 33q29 0 51.5 -20.5t22.5 -55.5q0 -31 -21.5 -64.5t-66.5 -91.5l-133 -170h-78z" />
<glyph unicode="&#xc2;" horiz-adv-x="1376" d="M-8 0v106h143l488 1240h143l455 -1240h172v-106h-574v106h211l-133 375h-496l-141 -375h180v-106h-448zM436 1511l221 371h76l223 -371h-79l-181 209l-180 -209h-80zM438 578h424l-200 567h-7z" />
<glyph unicode="&#xc3;" horiz-adv-x="1376" d="M-8 0v106h143l488 1240h143l455 -1240h172v-106h-574v106h211l-133 375h-496l-141 -375h180v-106h-448zM397 1522q18 139 61.5 194.5t121.5 55.5q39 0 74.5 -18.5t68.5 -40t61.5 -40t53.5 -18.5q37 0 55 34.5t29 94.5h75q-18 -139 -61 -195.5t-121 -56.5 q-41 0 -75.5 18.5t-67.5 41t-61.5 41t-53.5 18.5q-37 0 -55.5 -35t-28.5 -94h-76zM438 578h424l-200 567h-7z" />
<glyph unicode="&#xc4;" horiz-adv-x="1376" d="M-8 0v106h143l488 1240h143l455 -1240h172v-106h-574v106h211l-133 375h-496l-141 -375h180v-106h-448zM414 1667q0 47 29.5 80t74.5 33t76 -33t31 -80t-31 -79t-76 -32t-74.5 32t-29.5 79zM438 578h424l-200 567h-7zM768 1667q0 47 30.5 80t75.5 33t75 -33t30 -80 t-30 -79t-75 -32t-75.5 32t-30.5 79z" />
<glyph unicode="&#xc5;" horiz-adv-x="1376" d="M-8 0v106h143l481 1229q-70 20 -104.5 74.5t-34.5 120.5q0 41 13.5 78t40 65.5t66.5 46t93 17.5t93 -17.5t67 -46t40 -65.5t13 -78q0 -63 -32.5 -117.5t-102.5 -75.5l453 -1231h172v-106h-574v106h211l-133 375h-494l-143 -375h180v-106h-448zM438 578h424l-200 567h-7z M569 1530q0 -57 32 -98t89 -41t89 41t32 98q0 63 -31.5 102t-89.5 39q-57 0 -89 -39t-32 -102z" />
<glyph unicode="&#xc6;" horiz-adv-x="1961" d="M-49 0v106h164l651 1125h-211v104h1270v-417h-82q-20 98 -36.5 159.5t-36 95t-49.5 46t-79 12.5h-461v-498h203q45 0 72.5 6t45 27.5t28 61.5t20.5 110h84v-510h-84q-10 72 -20.5 115t-28 64.5t-45 27.5t-72.5 6h-203v-535h457q55 0 89 12.5t56.5 50.5t39 107.5 t38.5 182.5h82v-459h-1161v106h225v396h-436l-225 -396h188v-106h-483zM528 598h379v633h-14z" />
<glyph unicode="&#xc7;" horiz-adv-x="1382" d="M96 670q0 147 48.5 275t133 221.5t198.5 147.5t243 54q131 0 226 -45t157 -117l39 156h106v-506h-94q-63 188 -166.5 293.5t-265.5 105.5q-94 0 -173 -36.5t-135.5 -109.5t-88 -180.5t-31.5 -246.5q0 -145 32.5 -256t91 -187.5t141.5 -115.5t185 -39q90 0 163 33t127 91 t89 138t49 176h115q-27 -240 -152.5 -380t-324.5 -169l-111 -110l2 -6q98 -4 156.5 -48.5t58.5 -113.5q0 -84 -60.5 -132t-156.5 -48q-53 0 -106 15t-100 46l38 66q39 -23 75 -35.5t77 -12.5q53 0 85 24t32 65q0 47 -42 70.5t-102 23.5q-25 0 -43 -3t-34 -7l-29 38l156 162 q-137 2 -249 55.5t-192 146.5t-124 221t-44 280z" />
<glyph unicode="&#xc8;" horiz-adv-x="1345" d="M66 0v106h227v1125h-227v104h1142v-417h-80q-20 98 -36.5 159.5t-37 95t-50 46t-78.5 12.5h-461v-498h203q45 0 73.5 6t45 27.5t26.5 61.5t23 110h84v-510h-84q-10 72 -20.5 115t-28 64.5t-46 27.5t-73.5 6h-203v-535h457q55 0 90 12.5t57.5 50.5t38.5 107.5t39 182.5h80 v-459h-1161zM500 1835q0 35 22.5 55.5t50.5 20.5q39 0 67 -34t56 -110l103 -258h-78l-133 170q-45 57 -66.5 91t-21.5 65z" />
<glyph unicode="&#xc9;" horiz-adv-x="1345" d="M66 0v106h227v1125h-227v104h1142v-417h-80q-20 98 -36.5 159.5t-37 95t-50 46t-78.5 12.5h-461v-498h203q45 0 73.5 6t45 27.5t26.5 61.5t23 110h84v-510h-84q-10 72 -20.5 115t-28 64.5t-46 27.5t-73.5 6h-203v-535h457q55 0 90 12.5t57.5 50.5t38.5 107.5t39 182.5h80 v-459h-1161zM678 1509l102 258q31 78 57.5 111t65.5 33q29 0 51.5 -20.5t22.5 -55.5q0 -31 -21.5 -64.5t-66.5 -91.5l-133 -170h-78z" />
<glyph unicode="&#xca;" horiz-adv-x="1345" d="M66 0v106h227v1125h-227v104h1142v-417h-80q-20 98 -36.5 159.5t-37 95t-50 46t-78.5 12.5h-461v-498h203q45 0 73.5 6t45 27.5t26.5 61.5t23 110h84v-510h-84q-10 72 -20.5 115t-28 64.5t-46 27.5t-73.5 6h-203v-535h457q55 0 90 12.5t57.5 50.5t38.5 107.5t39 182.5h80 v-459h-1161zM469 1511l221 371h76l223 -371h-80l-180 209l-180 -209h-80z" />
<glyph unicode="&#xcb;" horiz-adv-x="1345" d="M66 0v106h227v1125h-227v104h1142v-417h-80q-20 98 -36.5 159.5t-37 95t-50 46t-78.5 12.5h-461v-498h203q45 0 73.5 6t45 27.5t26.5 61.5t23 110h84v-510h-84q-10 72 -20.5 115t-28 64.5t-46 27.5t-73.5 6h-203v-535h457q55 0 90 12.5t57.5 50.5t38.5 107.5t39 182.5h80 v-459h-1161zM446 1667q0 47 30 80t75 33t75.5 -33t30.5 -80t-30.5 -79t-75.5 -32t-75 32t-30 79zM801 1667q0 47 30.5 80t75.5 33t75 -33t30 -80t-30 -79t-75 -32t-75.5 32t-30.5 79z" />
<glyph unicode="&#xcc;" horiz-adv-x="786" d="M80 0v106h225v1125h-225v104h627v-104h-228v-1125h228v-106h-627zM160 1835q0 35 22.5 55.5t50.5 20.5q39 0 67 -34t56 -110l103 -258h-78l-133 170q-45 57 -66.5 91t-21.5 65z" />
<glyph unicode="&#xcd;" horiz-adv-x="786" d="M80 0v106h225v1125h-225v104h627v-104h-228v-1125h228v-106h-627zM340 1509l102 258q31 78 57.5 111t65.5 33q29 0 51.5 -20.5t22.5 -55.5q0 -31 -21.5 -64.5t-66.5 -91.5l-133 -170h-78z" />
<glyph unicode="&#xce;" horiz-adv-x="786" d="M80 0v106h225v1125h-225v104h627v-104h-228v-1125h228v-106h-627zM131 1511l221 371h76l223 -371h-80l-180 209l-180 -209h-80z" />
<glyph unicode="&#xcf;" horiz-adv-x="786" d="M80 0v106h225v1125h-225v104h627v-104h-228v-1125h228v-106h-627zM109 1667q0 47 29.5 80t74.5 33t75.5 -33t30.5 -80t-30.5 -79t-75.5 -32t-74.5 32t-29.5 79zM463 1667q0 47 30.5 80t75.5 33t75 -33t30 -80t-30 -79t-75 -32t-75.5 32t-30.5 79z" />
<glyph unicode="&#xd0;" horiz-adv-x="1441" d="M66 0v106h227v541h-227v105h227v479h-227v104h552q184 0 321.5 -47t229 -132t136.5 -203.5t45 -264.5q0 -143 -42 -268t-130 -218t-224.5 -147.5t-322.5 -54.5h-565zM465 106h170q270 0 394 141.5t124 440.5q0 266 -126 404.5t-406 138.5h-156v-479h293v-105h-293v-541z " />
<glyph unicode="&#xd1;" horiz-adv-x="1570" d="M70 0v106h213v1125h-213v104h401l717 -1036h10v932h-207v104h531v-104h-203v-1264h-113l-794 1151h-11v-1012h205v-106h-536zM492 1522q18 139 61 194.5t121 55.5q39 0 74.5 -18.5t68.5 -40t61.5 -40t53.5 -18.5q37 0 55.5 34.5t28.5 94.5h76q-18 -139 -61.5 -195.5 t-121.5 -56.5q-41 0 -75.5 18.5t-67.5 41t-61.5 41t-53.5 18.5q-37 0 -55 -35t-29 -94h-75z" />
<glyph unicode="&#xd2;" d="M96 668q0 150 50.5 277.5t137.5 222t201.5 146.5t243.5 52q133 0 248 -51t200 -143.5t134 -220.5t49 -283q0 -152 -50 -280t-136.5 -222t-201 -146.5t-243.5 -52.5q-133 0 -248.5 51.5t-200.5 144.5t-134.5 222t-49.5 283zM293 668q0 -135 29.5 -245t86 -186.5 t137.5 -118.5t183 -42t183 41t137.5 117.5t86 186t29.5 247.5q0 135 -29.5 243.5t-86 185.5t-137.5 118.5t-183 41.5t-183 -41.5t-137.5 -118.5t-86 -185.5t-29.5 -243.5zM496 1835q0 35 22.5 55.5t50.5 20.5q39 0 67 -34t56 -110l103 -258h-78l-133 170q-45 57 -66.5 91 t-21.5 65z" />
<glyph unicode="&#xd3;" d="M96 668q0 150 50.5 277.5t137.5 222t201.5 146.5t243.5 52q133 0 248 -51t200 -143.5t134 -220.5t49 -283q0 -152 -50 -280t-136.5 -222t-201 -146.5t-243.5 -52.5q-133 0 -248.5 51.5t-200.5 144.5t-134.5 222t-49.5 283zM293 668q0 -135 29.5 -245t86 -186.5 t137.5 -118.5t183 -42t183 41t137.5 117.5t86 186t29.5 247.5q0 135 -29.5 243.5t-86 185.5t-137.5 118.5t-183 41.5t-183 -41.5t-137.5 -118.5t-86 -185.5t-29.5 -243.5zM676 1509l102 258q31 78 57.5 111t65.5 33q29 0 51.5 -20.5t22.5 -55.5q0 -31 -21.5 -64.5 t-66.5 -91.5l-133 -170h-78z" />
<glyph unicode="&#xd4;" d="M96 668q0 150 50.5 277.5t137.5 222t201.5 146.5t243.5 52q133 0 248 -51t200 -143.5t134 -220.5t49 -283q0 -152 -50 -280t-136.5 -222t-201 -146.5t-243.5 -52.5q-133 0 -248.5 51.5t-200.5 144.5t-134.5 222t-49.5 283zM293 668q0 -135 29.5 -245t86 -186.5 t137.5 -118.5t183 -42t183 41t137.5 117.5t86 186t29.5 247.5q0 135 -29.5 243.5t-86 185.5t-137.5 118.5t-183 41.5t-183 -41.5t-137.5 -118.5t-86 -185.5t-29.5 -243.5zM467 1511l221 371h76l223 -371h-80l-180 209l-180 -209h-80z" />
<glyph unicode="&#xd5;" d="M96 668q0 150 50.5 277.5t137.5 222t201.5 146.5t243.5 52q133 0 248 -51t200 -143.5t134 -220.5t49 -283q0 -152 -50 -280t-136.5 -222t-201 -146.5t-243.5 -52.5q-133 0 -248.5 51.5t-200.5 144.5t-134.5 222t-49.5 283zM293 668q0 -135 29.5 -245t86 -186.5 t137.5 -118.5t183 -42t183 41t137.5 117.5t86 186t29.5 247.5q0 135 -29.5 243.5t-86 185.5t-137.5 118.5t-183 41.5t-183 -41.5t-137.5 -118.5t-86 -185.5t-29.5 -243.5zM428 1522q18 139 61 194.5t121 55.5q39 0 75 -18.5t68.5 -40t61.5 -40t53 -18.5q37 0 55.5 34.5 t28.5 94.5h76q-18 -139 -61 -195.5t-121 -56.5q-41 0 -76 18.5t-67.5 41t-61.5 41t-53 18.5q-37 0 -55.5 -35t-28.5 -94h-76z" />
<glyph unicode="&#xd6;" d="M96 668q0 150 50.5 277.5t137.5 222t201.5 146.5t243.5 52q133 0 248 -51t200 -143.5t134 -220.5t49 -283q0 -152 -50 -280t-136.5 -222t-201 -146.5t-243.5 -52.5q-133 0 -248.5 51.5t-200.5 144.5t-134.5 222t-49.5 283zM293 668q0 -135 29.5 -245t86 -186.5 t137.5 -118.5t183 -42t183 41t137.5 117.5t86 186t29.5 247.5q0 135 -29.5 243.5t-86 185.5t-137.5 118.5t-183 41.5t-183 -41.5t-137.5 -118.5t-86 -185.5t-29.5 -243.5zM444 1667q0 47 30 80t75 33t75.5 -33t30.5 -80t-30.5 -79t-75.5 -32t-75 32t-30 79zM799 1667 q0 47 30.5 80t75.5 33t75 -33t30 -80t-30 -79t-75 -32t-75.5 32t-30.5 79z" />
<glyph unicode="&#xd7;" horiz-adv-x="1048" d="M158 872l73 74l293 -303l291 301l74 -76l-293 -299l295 -303l-74 -73l-293 303l-291 -301l-73 73l293 301z" />
<glyph unicode="&#xd8;" d="M96 668q0 150 50.5 277.5t137.5 222t201.5 146.5t243.5 52q104 0 198.5 -33t172.5 -92l114 162h132l-172 -227q86 -92 136 -221.5t50 -286.5q0 -152 -50 -280t-136.5 -222t-201 -146.5t-243.5 -52.5q-106 0 -200.5 33t-172.5 92l-114 -162h-129l172 228 q-88 92 -138.5 222t-50.5 288zM293 668q0 -242 90 -394l631 865q-53 57 -125 87.5t-160 30.5q-102 0 -183 -41.5t-137.5 -118.5t-86 -185.5t-29.5 -243.5zM442 195q53 -57 125 -88t162 -31q102 0 183 41t137.5 117.5t86 186t29.5 247.5q0 119 -23.5 217t-66.5 172z" />
<glyph unicode="&#xd9;" horiz-adv-x="1503" d="M45 1231v104h576v-104h-207v-782q0 -195 98 -278t287 -83q84 0 149.5 25.5t110.5 70.5q53 53 73.5 125t20.5 189v733h-207v104h514v-104h-188v-809q0 -94 -33 -177t-98.5 -144.5t-163.5 -97.5t-229 -36q-127 0 -222.5 32t-159 90t-94 138t-30.5 176v828h-197zM547 1835 q0 35 22.5 55.5t51.5 20.5q39 0 66.5 -34t55.5 -110l103 -258h-78l-133 170q-45 57 -66.5 91t-21.5 65z" />
<glyph unicode="&#xda;" horiz-adv-x="1503" d="M45 1231v104h576v-104h-207v-782q0 -195 98 -278t287 -83q84 0 149.5 25.5t110.5 70.5q53 53 73.5 125t20.5 189v733h-207v104h514v-104h-188v-809q0 -94 -33 -177t-98.5 -144.5t-163.5 -97.5t-229 -36q-127 0 -222.5 32t-159 90t-94 138t-30.5 176v828h-197zM727 1509 l102 258q31 78 57.5 111t65.5 33q29 0 51.5 -20.5t22.5 -55.5q0 -31 -21.5 -64.5t-66.5 -91.5l-133 -170h-78z" />
<glyph unicode="&#xdb;" horiz-adv-x="1503" d="M45 1231v104h576v-104h-207v-782q0 -195 98 -278t287 -83q84 0 149.5 25.5t110.5 70.5q53 53 73.5 125t20.5 189v733h-207v104h514v-104h-188v-809q0 -94 -33 -177t-98.5 -144.5t-163.5 -97.5t-229 -36q-127 0 -222.5 32t-159 90t-94 138t-30.5 176v828h-197zM518 1511 l221 371h76l223 -371h-80l-180 209l-180 -209h-80z" />
<glyph unicode="&#xdc;" horiz-adv-x="1503" d="M45 1231v104h576v-104h-207v-782q0 -195 98 -278t287 -83q84 0 149.5 25.5t110.5 70.5q53 53 73.5 125t20.5 189v733h-207v104h514v-104h-188v-809q0 -94 -33 -177t-98.5 -144.5t-163.5 -97.5t-229 -36q-127 0 -222.5 32t-159 90t-94 138t-30.5 176v828h-197zM496 1667 q0 47 29.5 80t74.5 33t76 -33t31 -80t-31 -79t-76 -32t-74.5 32t-29.5 79zM850 1667q0 47 30.5 80t75.5 33t75 -33t30 -80t-30 -79t-75 -32t-75.5 32t-30.5 79z" />
<glyph unicode="&#xdd;" horiz-adv-x="1304" d="M12 1231v104h557v-104h-184l307 -559l330 559h-172v104h453v-104h-158l-408 -668v-457h207v-106h-586v106h205v455l-383 670h-168zM637 1509l102 258q31 78 57.5 111t65.5 33q29 0 51.5 -20.5t22.5 -55.5q0 -31 -21.5 -64.5t-66.5 -91.5l-133 -170h-78z" />
<glyph unicode="&#xde;" horiz-adv-x="1255" d="M66 0v106h227v1125h-227v104h620v-104h-221v-154h182q154 0 256.5 -29.5t163.5 -81t88 -118t27 -139.5q0 -78 -30 -147.5t-93.5 -124t-162.5 -86.5t-241 -32h-190v-213h221v-106h-620zM465 422h186q94 0 158.5 20.5t104.5 59.5t57.5 92t17.5 119q0 57 -17.5 105t-56 83 t-103 54.5t-159.5 19.5h-188v-553z" />
<glyph unicode="&#xdf;" horiz-adv-x="1120" d="M37 815v100h186v52q0 127 33 214t87 140t124 75.5t143 22.5q70 0 132.5 -22.5t108.5 -61.5t72.5 -92t26.5 -113q0 -82 -42 -140t-126 -120q-68 -49 -86 -76.5t-18 -56.5q0 -18 7 -32.5t26.5 -32t55.5 -41t93 -58.5q100 -59 161.5 -123.5t61.5 -173.5q0 -55 -20.5 -108 t-59 -94t-97 -66.5t-132.5 -25.5q-53 0 -102 13t-88 37.5t-62.5 60.5t-23.5 83q0 49 28.5 81t75.5 32t72.5 -30t25.5 -66q0 -31 -13 -52.5t-32 -36.5q45 -37 127 -36q86 0 129 48t43 107q0 18 -6 42t-25.5 49.5t-54 56t-92.5 65.5q-61 37 -104 66.5t-71 60.5t-40 63.5 t-12 75.5q0 53 31.5 97.5t91.5 103.5q37 35 60.5 63.5t36.5 55.5t19.5 53.5t6.5 57.5q0 86 -52.5 140t-140.5 54q-111 0 -165 -73.5t-54 -239.5v-1014h-311v106h151v709h-186z" />
<glyph unicode="&#xe0;" horiz-adv-x="989" d="M94 225q0 45 15.5 87t48.5 77q27 27 59.5 46.5t74.5 33.5t95 25.5t121 21.5q47 8 75.5 13.5t44 11.5t20.5 14t5 20v91q0 102 -49 143t-141 41q-111 0 -176 -53q55 -29 55 -95q0 -45 -28.5 -74.5t-77.5 -29.5t-79 32t-30 79q0 49 29.5 91t80 72.5t116 47t136.5 16.5 q160 0 242 -67.5t82 -209.5v-481q0 -47 15.5 -64.5t45.5 -17.5q47 0 82 82l62 -35q-35 -78 -78 -115.5t-113 -37.5q-63 0 -108 39t-47 131h-6q-47 -78 -130.5 -126t-177.5 -48q-127 0 -195.5 65.5t-68.5 173.5zM268 254q0 -78 40 -119t120 -41q41 0 81 15.5t72.5 43t52 62.5 t19.5 76v182q-23 -8 -100 -20q-78 -12 -132 -27.5t-88 -38t-49.5 -55.5t-15.5 -78zM268 1405q0 35 22.5 55.5t51.5 20.5q39 0 66.5 -34t56.5 -110l102 -258h-78l-133 170q-45 57 -66.5 91t-21.5 65z" />
<glyph unicode="&#xe1;" horiz-adv-x="989" d="M94 225q0 45 15.5 87t48.5 77q27 27 59.5 46.5t74.5 33.5t95 25.5t121 21.5q47 8 75.5 13.5t44 11.5t20.5 14t5 20v91q0 102 -49 143t-141 41q-111 0 -176 -53q55 -29 55 -95q0 -45 -28.5 -74.5t-77.5 -29.5t-79 32t-30 79q0 49 29.5 91t80 72.5t116 47t136.5 16.5 q160 0 242 -67.5t82 -209.5v-481q0 -47 15.5 -64.5t45.5 -17.5q47 0 82 82l62 -35q-35 -78 -78 -115.5t-113 -37.5q-63 0 -108 39t-47 131h-6q-47 -78 -130.5 -126t-177.5 -48q-127 0 -195.5 65.5t-68.5 173.5zM268 254q0 -78 40 -119t120 -41q41 0 81 15.5t72.5 43t52 62.5 t19.5 76v182q-23 -8 -100 -20q-78 -12 -132 -27.5t-88 -38t-49.5 -55.5t-15.5 -78zM449 1079l102 258q31 78 57.5 111t65.5 33q29 0 51.5 -20.5t22.5 -55.5q0 -31 -21.5 -64.5t-67.5 -91.5l-133 -170h-77z" />
<glyph unicode="&#xe2;" horiz-adv-x="989" d="M94 225q0 45 15.5 87t48.5 77q27 27 59.5 46.5t74.5 33.5t95 25.5t121 21.5q47 8 75.5 13.5t44 11.5t20.5 14t5 20v91q0 102 -49 143t-141 41q-111 0 -176 -53q55 -29 55 -95q0 -45 -28.5 -74.5t-77.5 -29.5t-79 32t-30 79q0 49 29.5 91t80 72.5t116 47t136.5 16.5 q160 0 242 -67.5t82 -209.5v-481q0 -47 15.5 -64.5t45.5 -17.5q47 0 82 82l62 -35q-35 -78 -78 -115.5t-113 -37.5q-63 0 -108 39t-47 131h-6q-47 -78 -130.5 -126t-177.5 -48q-127 0 -195.5 65.5t-68.5 173.5zM240 1081l221 371h76l223 -371h-80l-180 209l-181 -209h-79z M268 254q0 -78 40 -119t120 -41q41 0 81 15.5t72.5 43t52 62.5t19.5 76v182q-23 -8 -100 -20q-78 -12 -132 -27.5t-88 -38t-49.5 -55.5t-15.5 -78z" />
<glyph unicode="&#xe3;" horiz-adv-x="989" d="M94 225q0 45 15.5 87t48.5 77q27 27 59.5 46.5t74.5 33.5t95 25.5t121 21.5q47 8 75.5 13.5t44 11.5t20.5 14t5 20v91q0 102 -49 143t-141 41q-111 0 -176 -53q55 -29 55 -95q0 -45 -28.5 -74.5t-77.5 -29.5t-79 32t-30 79q0 49 29.5 91t80 72.5t116 47t136.5 16.5 q160 0 242 -67.5t82 -209.5v-481q0 -47 15.5 -64.5t45.5 -17.5q47 0 82 82l62 -35q-35 -78 -78 -115.5t-113 -37.5q-63 0 -108 39t-47 131h-6q-47 -78 -130.5 -126t-177.5 -48q-127 0 -195.5 65.5t-68.5 173.5zM201 1092q18 139 61 194t121 55q39 0 75 -18t68.5 -39.5 t61 -40t53.5 -18.5q37 0 55.5 34.5t28.5 94.5h76q-18 -139 -61.5 -195.5t-121.5 -56.5q-41 0 -75.5 18.5t-67.5 41t-61.5 41t-53.5 18.5q-37 0 -55 -35t-29 -94h-75zM268 254q0 -78 40 -119t120 -41q41 0 81 15.5t72.5 43t52 62.5t19.5 76v182q-23 -8 -100 -20 q-78 -12 -132 -27.5t-88 -38t-49.5 -55.5t-15.5 -78z" />
<glyph unicode="&#xe4;" horiz-adv-x="989" d="M94 225q0 45 15.5 87t48.5 77q27 27 59.5 46.5t74.5 33.5t95 25.5t121 21.5q47 8 75.5 13.5t44 11.5t20.5 14t5 20v91q0 102 -49 143t-141 41q-111 0 -176 -53q55 -29 55 -95q0 -45 -28.5 -74.5t-77.5 -29.5t-79 32t-30 79q0 49 29.5 91t80 72.5t116 47t136.5 16.5 q160 0 242 -67.5t82 -209.5v-481q0 -47 15.5 -64.5t45.5 -17.5q47 0 82 82l62 -35q-35 -78 -78 -115.5t-113 -37.5q-63 0 -108 39t-47 131h-6q-47 -78 -130.5 -126t-177.5 -48q-127 0 -195.5 65.5t-68.5 173.5zM217 1237q0 47 29.5 80t75.5 33q45 0 75.5 -33t30.5 -80 t-30.5 -79t-75.5 -32t-75 32t-30 79zM268 254q0 -78 40 -119t120 -41q41 0 81 15.5t72.5 43t52 62.5t19.5 76v182q-23 -8 -100 -20q-78 -12 -132 -27.5t-88 -38t-49.5 -55.5t-15.5 -78zM571 1237q0 47 31 80t76 33t74.5 -33t29.5 -80t-29.5 -79t-74.5 -32t-76 32t-31 79z " />
<glyph unicode="&#xe5;" horiz-adv-x="989" d="M94 225q0 45 15.5 87t48.5 77q27 27 59.5 46.5t74.5 33.5t95 25.5t121 21.5q47 8 75.5 13.5t44 11.5t20.5 14t5 20v91q0 102 -49 143t-141 41q-111 0 -176 -53q55 -29 55 -95q0 -45 -28.5 -74.5t-77.5 -29.5t-79 32t-30 79q0 49 29.5 91t80 72.5t116 47t136.5 16.5 q160 0 242 -67.5t82 -209.5v-481q0 -47 15.5 -64.5t45.5 -17.5q47 0 82 82l62 -35q-35 -78 -78 -115.5t-113 -37.5q-63 0 -108 39t-47 131h-6q-47 -78 -130.5 -126t-177.5 -48q-127 0 -195.5 65.5t-68.5 173.5zM268 254q0 -78 40 -119t120 -41q41 0 81 15.5t72.5 43t52 62.5 t19.5 76v182q-23 -8 -100 -20q-78 -12 -132 -27.5t-88 -38t-49.5 -55.5t-15.5 -78zM285 1274q0 82 54 144.5t161 62.5q106 0 160.5 -62.5t54.5 -144.5q0 -41 -13.5 -78t-41 -65.5t-67.5 -46t-93 -17.5t-93 17.5t-68 46t-41 65.5t-13 78zM381 1274q0 -59 31 -99t88 -40 t87.5 39.5t30.5 99.5q0 59 -30.5 100t-87.5 41t-88 -41t-31 -100z" />
<glyph unicode="&#xe6;" horiz-adv-x="1523" d="M94 225q0 45 15.5 87t48.5 77q27 27 59.5 46.5t74.5 33.5t95 25.5t121 21.5q47 8 75.5 13.5t44 11.5t20.5 14t5 20v91q0 102 -49 143t-141 41q-111 0 -176 -53q55 -29 55 -95q0 -45 -28.5 -74.5t-77.5 -29.5t-79 32t-30 79q0 49 29.5 91t80 72.5t116 47t136.5 16.5 q217 0 283 -135q53 66 129 101.5t168 35.5q100 0 173 -42t120 -109.5t68.5 -154.5t19.5 -179h-637q2 -180 79 -271.5t206 -91.5q84 0 151.5 39t108.5 141h86q-41 -143 -139.5 -215.5t-241.5 -72.5q-131 0 -222 60t-136 157q-31 -55 -71 -95.5t-86 -67t-95.5 -38.5t-94.5 -12 q-127 0 -195.5 65.5t-68.5 173.5zM268 254q0 -78 40 -119t120 -41q41 0 81 15.5t72.5 43t52 62.5t19.5 76v182q-23 -8 -100 -20q-78 -12 -132 -27.5t-88 -38t-49.5 -55.5t-15.5 -78zM815 541h469q-10 145 -64.5 227t-158.5 82q-100 0 -166 -78t-80 -231z" />
<glyph unicode="&#xe7;" horiz-adv-x="966" d="M80 442q0 109 33.5 200t95 156.5t146.5 102.5t190 37q76 0 139.5 -23.5t109.5 -61.5t72.5 -84t26.5 -91q0 -59 -32 -100t-87 -41q-53 0 -81.5 32.5t-28.5 77.5q0 37 21.5 67.5t55.5 43.5q-25 37 -75 65.5t-127 28.5q-127 0 -207 -104.5t-80 -284.5q0 -176 78 -275.5 t217 -99.5q193 0 270 211h88q-33 -127 -107.5 -204t-181.5 -101l-131 -131l2 -6q98 -4 156.5 -48.5t58.5 -113.5q0 -84 -60.5 -132t-156.5 -48q-53 0 -106 15t-100 46l38 66q39 -23 75 -35.5t77 -12.5q53 0 85 24t32 65q0 47 -42 70.5t-102 23.5q-25 0 -43 -3t-34 -7l-29 38 l168 177q-96 0 -174 34.5t-133.5 96t-86 145.5t-30.5 184z" />
<glyph unicode="&#xe8;" horiz-adv-x="974" d="M80 451q0 104 33.5 194t93 154.5t139.5 101.5t172 37q100 0 173 -42t120 -109.5t68.5 -154.5t19.5 -179h-647q4 -180 84 -271.5t211 -91.5q84 0 152.5 39t109.5 141h86q-41 -143 -140.5 -215.5t-242.5 -72.5q-100 0 -180 34.5t-136.5 97t-86 148.5t-29.5 189zM254 541 h481q-10 145 -65.5 227t-161.5 82q-102 0 -170 -78t-84 -231zM285 1405q0 35 22.5 55.5t50.5 20.5q39 0 67 -34t56 -110l103 -258h-78l-133 170q-45 57 -66.5 91t-21.5 65z" />
<glyph unicode="&#xe9;" horiz-adv-x="974" d="M80 451q0 104 33.5 194t93 154.5t139.5 101.5t172 37q100 0 173 -42t120 -109.5t68.5 -154.5t19.5 -179h-647q4 -180 84 -271.5t211 -91.5q84 0 152.5 39t109.5 141h86q-41 -143 -140.5 -215.5t-242.5 -72.5q-100 0 -180 34.5t-136.5 97t-86 148.5t-29.5 189zM254 541 h481q-10 145 -65.5 227t-161.5 82q-102 0 -170 -78t-84 -231zM465 1079l102 258q31 78 57.5 111t65.5 33q29 0 51.5 -20.5t22.5 -55.5q0 -31 -21.5 -64.5t-66.5 -91.5l-133 -170h-78z" />
<glyph unicode="&#xea;" horiz-adv-x="974" d="M80 451q0 104 33.5 194t93 154.5t139.5 101.5t172 37q100 0 173 -42t120 -109.5t68.5 -154.5t19.5 -179h-647q4 -180 84 -271.5t211 -91.5q84 0 152.5 39t109.5 141h86q-41 -143 -140.5 -215.5t-242.5 -72.5q-100 0 -180 34.5t-136.5 97t-86 148.5t-29.5 189zM254 541 h481q-10 145 -65.5 227t-161.5 82q-102 0 -170 -78t-84 -231zM256 1081l221 371h76l223 -371h-80l-180 209l-180 -209h-80z" />
<glyph unicode="&#xeb;" horiz-adv-x="974" d="M80 451q0 104 33.5 194t93 154.5t139.5 101.5t172 37q100 0 173 -42t120 -109.5t68.5 -154.5t19.5 -179h-647q4 -180 84 -271.5t211 -91.5q84 0 152.5 39t109.5 141h86q-41 -143 -140.5 -215.5t-242.5 -72.5q-100 0 -180 34.5t-136.5 97t-86 148.5t-29.5 189zM233 1237 q0 47 30 80t75 33t75.5 -33t30.5 -80t-30.5 -79t-75.5 -32t-75 32t-30 79zM254 541h481q-10 145 -65.5 227t-161.5 82q-102 0 -170 -78t-84 -231zM588 1237q0 47 30.5 80t75.5 33t75 -33t30 -80t-30 -79t-75 -32t-75.5 32t-30.5 79z" />
<glyph unicode="&#xec;" horiz-adv-x="614" d="M70 1405q0 35 22.5 55.5t50.5 20.5q39 0 67 -34t56 -110l103 -258h-78l-133 170q-45 57 -66.5 91t-21.5 65zM74 0v106h174v709h-174v107h332v-816h174v-106h-506z" />
<glyph unicode="&#xed;" horiz-adv-x="614" d="M74 0v106h174v709h-174v107h332v-816h174v-106h-506zM248 1079l102 258q31 78 57.5 111t65.5 33q29 0 51.5 -20.5t22.5 -55.5q0 -31 -21.5 -64.5t-66.5 -91.5l-133 -170h-78z" />
<glyph unicode="&#xee;" horiz-adv-x="614" d="M41 1081l221 371h76l223 -371h-80l-180 209l-180 -209h-80zM74 0v106h174v709h-174v107h332v-816h174v-106h-506z" />
<glyph unicode="&#xef;" horiz-adv-x="614" d="M18 1237q0 47 30 80t75 33t75.5 -33t30.5 -80t-30.5 -79t-75.5 -32t-75 32t-30 79zM74 0v106h174v709h-174v107h332v-816h174v-106h-506zM373 1237q0 47 30.5 80t75.5 33t75 -33t30 -80t-30 -79t-75 -32t-75.5 32t-30.5 79z" />
<glyph unicode="&#xf0;" horiz-adv-x="1060" d="M80 444q0 104 32.5 195.5t90 157t136.5 103.5t171 38q100 0 169 -48t103 -110q-16 90 -63 180.5t-113 178.5l-227 -101l-37 82l207 90q-35 41 -70 79t-71 77l133 18q61 -59 123 -122l215 94l34 -82l-188 -84q104 -127 174 -275.5t70 -328.5q0 -139 -33 -251t-92.5 -190.5 t-145.5 -120.5t-192 -42q-92 0 -171 33.5t-135.5 95t-88 146.5t-31.5 187zM252 459q0 -100 21.5 -173t59.5 -121t88 -70.5t109 -22.5q113 0 189 96t76 293q0 100 -21.5 173t-59.5 121t-89.5 70.5t-108.5 22.5q-115 0 -189.5 -95.5t-74.5 -293.5z" />
<glyph unicode="&#xf1;" horiz-adv-x="1163" d="M70 0v106h153v709h-153v107h309v-238q82 141 170 196.5t178 55.5q117 0 183.5 -75t66.5 -216v-539h153v-106h-452v106h141v467q0 66 -12 114t-41 77q-41 43 -117 43q-51 0 -99 -25.5t-85 -67.5t-59.5 -96.5t-22.5 -109.5v-402h139v-106h-452zM305 1092q18 139 61.5 194 t120.5 55q39 0 75 -18t69 -39.5t61.5 -40t52.5 -18.5q37 0 55.5 34.5t28.5 94.5h76q-18 -139 -61 -195.5t-121 -56.5q-41 0 -76 18.5t-67.5 41t-61.5 41t-53 18.5q-37 0 -55.5 -35t-28.5 -94h-76z" />
<glyph unicode="&#xf2;" horiz-adv-x="1048" d="M80 453q0 106 33.5 196t94 153.5t141.5 99.5t175 36q98 0 180 -34t140.5 -95t91.5 -148.5t33 -193.5q0 -109 -34 -198t-94.5 -152.5t-141.5 -99t-175 -35.5q-98 0 -180 33.5t-140.5 95t-91 148.5t-32.5 194zM252 459q0 -100 22.5 -173t60.5 -121t89 -70.5t108 -22.5 q115 0 189 94t74 295q0 100 -21.5 173t-59.5 121t-89.5 70.5t-108.5 22.5q-115 0 -189.5 -95.5t-74.5 -293.5zM293 1405q0 35 22.5 55.5t51.5 20.5q39 0 66.5 -34t55.5 -110l103 -258h-78l-133 170q-45 57 -66.5 91t-21.5 65z" />
<glyph unicode="&#xf3;" horiz-adv-x="1048" d="M80 453q0 106 33.5 196t94 153.5t141.5 99.5t175 36q98 0 180 -34t140.5 -95t91.5 -148.5t33 -193.5q0 -109 -34 -198t-94.5 -152.5t-141.5 -99t-175 -35.5q-98 0 -180 33.5t-140.5 95t-91 148.5t-32.5 194zM252 459q0 -100 22.5 -173t60.5 -121t89 -70.5t108 -22.5 q115 0 189 94t74 295q0 100 -21.5 173t-59.5 121t-89.5 70.5t-108.5 22.5q-115 0 -189.5 -95.5t-74.5 -293.5zM471 1079l102 258q31 78 57.5 111t65.5 33q29 0 51.5 -20.5t22.5 -55.5q0 -31 -21.5 -64.5t-66.5 -91.5l-133 -170h-78z" />
<glyph unicode="&#xf4;" horiz-adv-x="1048" d="M80 453q0 106 33.5 196t94 153.5t141.5 99.5t175 36q98 0 180 -34t140.5 -95t91.5 -148.5t33 -193.5q0 -109 -34 -198t-94.5 -152.5t-141.5 -99t-175 -35.5q-98 0 -180 33.5t-140.5 95t-91 148.5t-32.5 194zM252 459q0 -100 22.5 -173t60.5 -121t89 -70.5t108 -22.5 q115 0 189 94t74 295q0 100 -21.5 173t-59.5 121t-89.5 70.5t-108.5 22.5q-115 0 -189.5 -95.5t-74.5 -293.5zM262 1081l221 371h76l223 -371h-80l-180 209l-180 -209h-80z" />
<glyph unicode="&#xf5;" horiz-adv-x="1048" d="M80 453q0 106 33.5 196t94 153.5t141.5 99.5t175 36q98 0 180 -34t140.5 -95t91.5 -148.5t33 -193.5q0 -109 -34 -198t-94.5 -152.5t-141.5 -99t-175 -35.5q-98 0 -180 33.5t-140.5 95t-91 148.5t-32.5 194zM223 1092q18 139 61.5 194t121.5 55q39 0 74.5 -18t68.5 -39.5 t61.5 -40t53.5 -18.5q37 0 55 34.5t29 94.5h75q-18 -139 -61 -195.5t-121 -56.5q-41 0 -76 18.5t-67.5 41t-61 41t-53.5 18.5q-37 0 -55.5 -35t-28.5 -94h-76zM252 459q0 -100 22.5 -173t60.5 -121t89 -70.5t108 -22.5q115 0 189 94t74 295q0 100 -21.5 173t-59.5 121 t-89.5 70.5t-108.5 22.5q-115 0 -189.5 -95.5t-74.5 -293.5z" />
<glyph unicode="&#xf6;" horiz-adv-x="1048" d="M80 453q0 106 33.5 196t94 153.5t141.5 99.5t175 36q98 0 180 -34t140.5 -95t91.5 -148.5t33 -193.5q0 -109 -34 -198t-94.5 -152.5t-141.5 -99t-175 -35.5q-98 0 -180 33.5t-140.5 95t-91 148.5t-32.5 194zM240 1237q0 47 29.5 80t74.5 33t76 -33t31 -80t-31 -79 t-76 -32t-74.5 32t-29.5 79zM252 459q0 -100 22.5 -173t60.5 -121t89 -70.5t108 -22.5q115 0 189 94t74 295q0 100 -21.5 173t-59.5 121t-89.5 70.5t-108.5 22.5q-115 0 -189.5 -95.5t-74.5 -293.5zM594 1237q0 47 30.5 80t75.5 33t75 -33t30 -80t-30 -79t-75 -32t-75.5 32 t-30.5 79z" />
<glyph unicode="&#xf7;" horiz-adv-x="1048" d="M98 518v100h854v-100h-854zM414 256q0 47 31.5 80t78.5 33t79 -33t32 -80t-32 -79t-79 -32t-78.5 32t-31.5 79zM414 881q0 47 31.5 78.5t78.5 31.5t79 -31.5t32 -78.5t-32 -79t-79 -32t-78.5 32t-31.5 79z" />
<glyph unicode="&#xf8;" horiz-adv-x="1048" d="M76 -55l127 166q-59 61 -91 148t-32 194q0 106 33.5 196t94 153.5t141.5 99.5t175 36q147 0 258 -76l84 113h107l-129 -166q59 -63 92 -149.5t33 -192.5q0 -109 -34 -198t-94.5 -152.5t-141.5 -99t-175 -35.5q-147 0 -258 75l-84 -112h-106zM252 459q0 -72 11 -129.5 t32 -102.5l410 537q-37 43 -86.5 63.5t-102.5 20.5q-115 0 -189.5 -95t-74.5 -294zM344 154q37 -41 86 -61.5t102 -20.5q115 0 189 94t74 295q0 137 -45 231z" />
<glyph unicode="&#xf9;" horiz-adv-x="1128" d="M37 815v107h309v-574q0 -66 11.5 -115t41.5 -77q20 -23 49 -32t64 -9q51 0 98 25.5t84 67.5t59.5 95t22.5 109v403h-158v107h318v-816h151v-106h-307v236q-82 -141 -169 -196.5t-177 -55.5q-117 0 -181.5 75.5t-64.5 216.5v539h-151zM324 1405q0 35 22.5 55.5t50.5 20.5 q39 0 67 -34t56 -110l103 -258h-78l-133 170q-45 57 -66.5 91t-21.5 65z" />
<glyph unicode="&#xfa;" horiz-adv-x="1128" d="M37 815v107h309v-574q0 -66 11.5 -115t41.5 -77q20 -23 49 -32t64 -9q51 0 98 25.5t84 67.5t59.5 95t22.5 109v403h-158v107h318v-816h151v-106h-307v236q-82 -141 -169 -196.5t-177 -55.5q-117 0 -181.5 75.5t-64.5 216.5v539h-151zM504 1079l102 258q31 78 57.5 111 t65.5 33q29 0 51.5 -20.5t22.5 -55.5q0 -31 -21.5 -64.5t-66.5 -91.5l-133 -170h-78z" />
<glyph unicode="&#xfb;" horiz-adv-x="1128" d="M37 815v107h309v-574q0 -66 11.5 -115t41.5 -77q20 -23 49 -32t64 -9q51 0 98 25.5t84 67.5t59.5 95t22.5 109v403h-158v107h318v-816h151v-106h-307v236q-82 -141 -169 -196.5t-177 -55.5q-117 0 -181.5 75.5t-64.5 216.5v539h-151zM295 1081l221 371h76l223 -371h-80 l-180 209l-180 -209h-80z" />
<glyph unicode="&#xfc;" horiz-adv-x="1128" d="M37 815v107h309v-574q0 -66 11.5 -115t41.5 -77q20 -23 49 -32t64 -9q51 0 98 25.5t84 67.5t59.5 95t22.5 109v403h-158v107h318v-816h151v-106h-307v236q-82 -141 -169 -196.5t-177 -55.5q-117 0 -181.5 75.5t-64.5 216.5v539h-151zM272 1237q0 47 30 80t75 33t75.5 -33 t30.5 -80t-30.5 -79t-75.5 -32t-75 32t-30 79zM627 1237q0 47 30.5 80t75.5 33t75 -33t30 -80t-30 -79t-75 -32t-75.5 32t-30.5 79z" />
<glyph unicode="&#xfd;" horiz-adv-x="1001" d="M0 815v107h459v-107h-160l238 -633l245 633h-141v107h369v-107h-113l-317 -778q-45 -109 -89.5 -180.5t-90.5 -113.5t-94 -59.5t-99 -17.5q-86 0 -132 41t-46 103q0 49 31.5 85.5t82.5 36.5q47 0 76 -30.5t29 -73.5q0 -41 -19 -70q27 2 54.5 12.5t55.5 37t55.5 73.5 t58.5 121l-326 813h-127zM483 1079l103 258q31 78 57.5 111t65.5 33q29 0 51 -20.5t22 -55.5q0 -31 -21.5 -64.5t-66.5 -91.5l-133 -170h-78z" />
<glyph unicode="&#xfe;" horiz-adv-x="1075" d="M12 -201h154v1497h-154v111h312v-684q53 104 136 159.5t177 55.5q74 0 127 -22.5t100 -67.5q63 -63 93 -159.5t30 -217.5q0 -109 -33.5 -206t-101.5 -167q-47 -47 -106.5 -72.5t-129.5 -25.5q-106 0 -178.5 54.5t-113.5 131.5v-387h198v-106h-510v106zM319 446 q0 -80 21.5 -143t57.5 -109.5t83.5 -71t100.5 -24.5q102 0 167.5 93.5t65.5 279.5q0 94 -17.5 161.5t-48 111.5t-72.5 65.5t-89 21.5q-55 0 -104.5 -28.5t-86.5 -80.5t-57.5 -123t-20.5 -153z" />
<glyph unicode="&#xff;" horiz-adv-x="1001" d="M0 815v107h459v-107h-160l238 -633l245 633h-141v107h369v-107h-113l-317 -778q-45 -109 -89.5 -180.5t-90.5 -113.5t-94 -59.5t-99 -17.5q-86 0 -132 41t-46 103q0 49 31.5 85.5t82.5 36.5q47 0 76 -30.5t29 -73.5q0 -41 -19 -70q27 2 54.5 12.5t55.5 37t55.5 73.5 t58.5 121l-326 813h-127zM252 1237q0 47 29.5 80t74.5 33t76 -33t31 -80t-31 -79t-76 -32t-74.5 32t-29.5 79zM606 1237q0 47 31 80t76 33t74.5 -33t29.5 -80t-29.5 -79t-74.5 -32t-76 32t-31 79z" />
<glyph unicode="&#x152;" horiz-adv-x="2029" d="M94 647q0 143 42 268t130 218.5t223.5 147.5t323.5 54h1079v-417h-80q-20 98 -36.5 159.5t-37 95t-50 46t-78.5 12.5h-459v-498h201q45 0 73.5 6t45 27.5t26.5 61.5t23 110h84v-510h-84q-10 72 -20.5 115t-28 64.5t-46 27.5t-73.5 6h-201v-535h455q55 0 90 12.5 t57.5 50.5t38.5 107.5t39 182.5h80v-459h-1086q-184 0 -321 47t-228.5 132t-136.5 204t-45 264zM289 647q0 -264 127 -402.5t405 -138.5h156v1125h-170q-270 0 -394 -140.5t-124 -443.5z" />
<glyph unicode="&#x153;" horiz-adv-x="1685" d="M80 453q0 106 33.5 196t94 153.5t141.5 99.5t175 36q121 0 213 -52t148 -149q57 94 145 147.5t199 53.5q100 0 174 -42t121 -109.5t68.5 -154.5t19.5 -179h-647q2 -180 81.5 -271.5t210.5 -91.5q84 0 153 39t110 141h86q-41 -143 -140.5 -215.5t-242.5 -72.5 q-121 0 -209 54t-140 146q-57 -92 -147 -146t-203 -54q-98 0 -180 33.5t-140.5 95t-91 148.5t-32.5 194zM252 459q0 -100 22.5 -173t60.5 -121t89 -70.5t108 -22.5q115 0 189 94t74 295q0 100 -21.5 173t-59.5 121t-89.5 70.5t-108.5 22.5q-115 0 -189.5 -95.5t-74.5 -293.5 zM967 541h479q-10 145 -65.5 227t-159.5 82t-172 -78t-82 -231z" />
<glyph unicode="&#x178;" horiz-adv-x="1304" d="M12 1231v104h557v-104h-184l307 -559l330 559h-172v104h453v-104h-158l-408 -668v-457h207v-106h-586v106h205v455l-383 670h-168zM406 1667q0 47 29.5 80t74.5 33t75.5 -33t30.5 -80t-30.5 -79t-75.5 -32t-74.5 32t-29.5 79zM760 1667q0 47 30.5 80t75.5 33t75 -33 t30 -80t-30 -79t-75 -32t-75.5 32t-30.5 79z" />
<glyph unicode="&#x2c6;" horiz-adv-x="612" d="M47 1081l221 371h76l223 -371h-80l-180 209l-180 -209h-80z" />
<glyph unicode="&#x2dc;" horiz-adv-x="677" d="M39 1092q18 139 61 194t121 55q39 0 75 -18t68.5 -39.5t61.5 -40t53 -18.5q37 0 55.5 34.5t28.5 94.5h76q-18 -139 -61 -195.5t-121 -56.5q-41 0 -76 18.5t-67.5 41t-61.5 41t-53 18.5q-37 0 -55.5 -35t-28.5 -94h-76z" />
<glyph unicode="&#x2000;" horiz-adv-x="955" />
<glyph unicode="&#x2001;" horiz-adv-x="1911" />
<glyph unicode="&#x2002;" horiz-adv-x="955" />
<glyph unicode="&#x2003;" horiz-adv-x="1911" />
<glyph unicode="&#x2004;" horiz-adv-x="637" />
<glyph unicode="&#x2005;" horiz-adv-x="477" />
<glyph unicode="&#x2006;" horiz-adv-x="318" />
<glyph unicode="&#x2007;" horiz-adv-x="318" />
<glyph unicode="&#x2008;" horiz-adv-x="238" />
<glyph unicode="&#x2009;" horiz-adv-x="382" />
<glyph unicode="&#x200a;" horiz-adv-x="106" />
<glyph unicode="&#x2010;" horiz-adv-x="749" d="M113 430v133h524v-133h-524z" />
<glyph unicode="&#x2011;" horiz-adv-x="749" d="M113 430v133h524v-133h-524z" />
<glyph unicode="&#x2012;" horiz-adv-x="749" d="M113 430v133h524v-133h-524z" />
<glyph unicode="&#x2013;" horiz-adv-x="1105" d="M113 432v117h880v-117h-880z" />
<glyph unicode="&#x2014;" horiz-adv-x="1617" d="M113 432v117h1392v-117h-1392z" />
<glyph unicode="&#x2018;" horiz-adv-x="438" d="M98 1036q0 104 62.5 187.5t214.5 150.5l33 -61q-111 -53 -159 -105.5t-59 -113.5l9 -7q20 14 47 15q39 0 65.5 -29t26.5 -72q0 -47 -31 -80.5t-80 -33.5q-59 0 -94 42t-35 107z" />
<glyph unicode="&#x2019;" horiz-adv-x="438" d="M35 940q111 53 159 106.5t58 114.5l-8 4q-23 -12 -47 -12q-39 0 -66 28.5t-27 71.5q0 45 31 79t80 34q59 0 94 -42t35 -107q0 -104 -63.5 -187.5t-214.5 -150.5z" />
<glyph unicode="&#x201a;" horiz-adv-x="438" d="M35 -225q111 53 159 106t58 115l-8 4q-23 -12 -47 -12q-39 0 -66 28.5t-27 71.5q0 45 31 79t80 34q59 0 94 -42t35 -108q0 -104 -63.5 -187t-214.5 -151z" />
<glyph unicode="&#x201c;" horiz-adv-x="796" d="M98 1036q0 104 62.5 187.5t214.5 150.5l33 -61q-111 -53 -160 -105.5t-60 -113.5l9 -7q23 14 47 15q39 0 65.5 -29t26.5 -72q0 -47 -31 -80.5t-78 -33.5q-61 0 -95 42t-34 107zM459 1036q0 104 62.5 187.5t215.5 150.5l31 -61q-111 -53 -159 -105.5t-58 -113.5l8 -7 q20 14 47 15q39 0 65.5 -29t26.5 -72q0 -47 -30.5 -80.5t-79.5 -33.5q-59 0 -94 42t-35 107z" />
<glyph unicode="&#x201d;" horiz-adv-x="796" d="M35 940q111 53 159 106.5t58 114.5l-8 4q-23 -12 -47 -12q-39 0 -66 28.5t-27 71.5q0 45 31 79t80 34q59 0 94 -42t35 -107q0 -104 -63.5 -187.5t-214.5 -150.5zM395 940q111 53 160 106.5t59 114.5l-8 4q-25 -12 -47 -12q-39 0 -66.5 28.5t-27.5 71.5q0 45 31.5 79 t78.5 34q61 0 95.5 -42t34.5 -107q0 -104 -62.5 -187.5t-214.5 -150.5z" />
<glyph unicode="&#x201e;" horiz-adv-x="796" d="M35 -225q111 53 159 106t58 115l-8 4q-23 -12 -47 -12q-39 0 -66 28.5t-27 71.5q0 45 31 79t80 34q59 0 94 -42t35 -108q0 -104 -63.5 -187t-214.5 -151zM395 -225q111 53 160 106t59 115l-8 4q-25 -12 -47 -12q-39 0 -66.5 28.5t-27.5 71.5q0 45 31.5 79t78.5 34 q61 0 95.5 -42t34.5 -108q0 -104 -62.5 -187t-214.5 -151z" />
<glyph unicode="&#x2022;" horiz-adv-x="942" d="M223 645q0 51 19.5 97t53.5 81t79 54.5t96 19.5t96 -19.5t79 -54.5t53.5 -81t19.5 -97q0 -53 -19.5 -98t-53.5 -79t-79 -53.5t-96 -19.5t-96 19.5t-79 53.5t-53.5 79t-19.5 98z" />
<glyph unicode="&#x2026;" horiz-adv-x="1296" d="M102 84q0 49 34 83t83 34t83 -34t34 -83q0 -47 -34 -81t-83 -34t-83 34t-34 81zM530 84q0 49 35 83t84 34q47 0 81 -34t34 -83q0 -47 -34 -81t-81 -34q-49 0 -84 34t-35 81zM961 84q0 49 33.5 83t82.5 34t83 -34t34 -83q0 -47 -34 -81t-83 -34t-82.5 34t-33.5 81z" />
<glyph unicode="&#x202f;" horiz-adv-x="382" />
<glyph unicode="&#x2039;" horiz-adv-x="610" d="M88 459q0 14 11.5 31.5t43.5 50.5l308 311l59 -41l-256 -350l256 -355l-59 -40l-308 311q-33 33 -44 50t-11 32z" />
<glyph unicode="&#x203a;" horiz-adv-x="610" d="M100 106l256 351l-256 354l60 41l307 -311q33 -33 44 -50.5t11 -31.5t-11 -31.5t-44 -50.5l-307 -311z" />
<glyph unicode="&#x205f;" horiz-adv-x="477" />
<glyph unicode="&#x20ac;" horiz-adv-x="1316" d="M78 451v96h172q-2 18 -2 37.5v40.5q0 23 1 47t3 47h-174v96h192q25 109 77 201t126 158.5t164 104.5t192 38q86 0 159 -23.5t127 -62.5t84 -89t30 -104q0 -53 -33 -97t-94 -44q-59 0 -91 34t-32 87q0 35 16.5 64.5t44.5 47.5q-31 45 -91 64.5t-118 19.5q-55 0 -115.5 -18 t-114.5 -64.5t-96 -123t-61 -193.5h406v-96h-418q-2 -23 -2 -45.5v-44.5v-42.5t2 -39.5h418v-96h-404q35 -170 131.5 -262.5t237.5 -92.5q137 0 223 87t105 231h96q-4 -86 -37 -167t-91 -142.5t-141 -99.5t-188 -38q-109 0 -195.5 37t-152 102.5t-108.5 153.5t-62 191h-186z " />
<glyph unicode="&#x2122;" horiz-adv-x="1677" d="M92 1112v223h567v-223h-47q-12 51 -21 84t-20.5 51.5t-29 25.5t-43.5 7h-68v-487h115v-60h-338v60h117v487h-68q-29 0 -45 -6t-27.5 -24.5t-21.5 -51.5t-23 -86h-47zM748 733v60h90v485h-90v57h260l159 -463h7l167 463h252v-57h-92v-485h92v-60h-270v60h74v460h-19 l-192 -520h-72l-186 520h-21v-460h76v-60h-235z" />
<glyph unicode="&#xe000;" horiz-adv-x="921" d="M0 0v922h922v-922h-922z" />
<glyph unicode="&#xfb01;" horiz-adv-x="1171" d="M37 815v100h186v54q0 127 35 213t93.5 139t132 75.5t153.5 22.5q63 0 120.5 -17.5t99.5 -46t66.5 -67.5t24.5 -84q0 -57 -31.5 -88t-74.5 -31q-49 0 -78 29t-29 76q0 29 13.5 51.5t29.5 36.5q-18 20 -56 37.5t-99 17.5q-113 0 -176.5 -75.5t-63.5 -258.5v-84h580v-809 h174v-106h-471v106h139v709h-422v-709h147v-106h-458v106h151v709h-186z" />
<glyph unicode="&#xfb02;" horiz-adv-x="1189" d="M37 815v100h186v60q0 123 33 208t86 137t120.5 75.5t139.5 23.5q115 0 191 -47l186 43v-1309h172v-106h-471v106h139v709h-436v-709h162v-106h-473v106h151v709h-186zM383 915h436v215q-25 -10 -45 -10q-51 0 -79.5 29t-28.5 78q0 25 12 45t20 31q-27 20 -54.5 26 t-55.5 6q-49 0 -88 -17.5t-64.5 -57t-39 -108.5t-13.5 -169v-68z" />
<glyph unicode="&#xfb03;" horiz-adv-x="1746" d="M37 815v100h186v56q0 125 33 210t87 138t124 76.5t141 23.5q104 0 178 -40t97 -107q59 80 145 113.5t182 33.5q66 0 122.5 -17.5t98.5 -46t66.5 -67.5t24.5 -84q0 -57 -32 -88t-75 -31q-47 0 -76.5 29t-29.5 76q0 29 13 51.5t30 36.5q-16 20 -54 37.5t-100 17.5 q-113 0 -177.5 -75.5t-64.5 -258.5v-84h582v-809h172v-106h-469v106h137v709h-422v-709h150v-106h-442v106h135v709h-416v-709h158v-106h-467v106h149v709h-186zM383 915h416v54q0 84 14 141q-6 -2 -13 -2h-14q-49 0 -79.5 27.5t-30.5 78.5q0 27 13 48.5t26 31.5 q-41 41 -121 41q-102 0 -156.5 -75.5t-54.5 -270.5v-74z" />
<glyph unicode="&#xfb04;" horiz-adv-x="1763" d="M37 815v100h186v56q0 125 33 210t87 138t124 76.5t141 23.5q102 0 175 -38t98 -103q53 76 131 108.5t164 32.5q115 0 190 -47l186 43v-1309h174v-106h-473v106h142v709h-439v-709h162v-106h-454v106h135v709h-416v-709h158v-106h-467v106h149v709h-186zM383 915h416v60 q0 74 12 135q-8 -2 -25 -2q-49 0 -79.5 27.5t-30.5 78.5q0 27 13 48.5t26 31.5q-41 41 -121 41q-102 0 -156.5 -75.5t-54.5 -270.5v-74zM956 915h439v218q-23 -12 -47 -13q-49 0 -79 29t-30 78q0 25 12.5 45t22.5 31q-29 20 -56.5 26t-56.5 6q-49 0 -88 -17.5t-64.5 -57 t-39 -108.5t-13.5 -169v-68z" />
</font>
</defs>
</svg>
