<?xml version="1.0" standalone="no"?>
<!DOCTYPE svg PUBLIC "-//W3C//DTD SVG 1.1//EN" "http://www.w3.org/Graphics/SVG/1.1/DTD/svg11.dtd" >
<svg xmlns="http://www.w3.org/2000/svg">
<metadata></metadata>
<defs>
<font id="sentitalicbook_italic" horiz-adv-x="1064" >
<font-face units-per-em="2048" ascent="1638" descent="-410" />
<missing-glyph horiz-adv-x="356" />
<glyph horiz-adv-x="0" />
<glyph unicode="&#xd;" horiz-adv-x="356" />
<glyph horiz-adv-x="0" />
<glyph horiz-adv-x="0" />
<glyph unicode=" "  horiz-adv-x="356" />
<glyph unicode="&#x09;" horiz-adv-x="356" />
<glyph unicode="&#xa0;" horiz-adv-x="356" />
<glyph unicode="!" horiz-adv-x="544" d="M74 82q0 47 30.5 88t83.5 41q45 0 75 -30.5t30 -82.5q0 -47 -32 -88t-85 -41q-43 0 -72.5 31t-29.5 82zM221 387q29 137 50.5 273.5t40 255t32.5 214t31 154.5q27 104 110 105q47 0 73 -26t26 -69q0 -23 -9.5 -57.5t-27 -86.5t-43 -125t-60.5 -171q-35 -100 -73.5 -217 t-83.5 -264z" />
<glyph unicode="&#x22;" horiz-adv-x="780" d="M221 870l146 293q41 86 73.5 133t73.5 47q37 0 64.5 -23.5t27.5 -55.5q0 -41 -45 -96.5t-123 -139.5l-168 -184zM547 870l145 293q41 86 74 133t74 47q37 0 64.5 -23.5t27.5 -55.5q0 -41 -45 -96.5t-123 -139.5l-168 -184z" />
<glyph unicode="#" horiz-adv-x="1337" d="M80 328l24 104h275l117 416h-299l26 102h301l113 404l115 -15l-109 -389h320l112 404l117 -15l-109 -389h273l-27 -102h-274l-117 -416h299l-25 -104h-303l-114 -416l-117 12l113 404h-322l-115 -416l-116 12l112 404h-270zM498 432h321l115 416h-320z" />
<glyph unicode="$" horiz-adv-x="1077" d="M53 289q0 61 37 108t96 47q47 0 75 -29.5t28 -70.5q0 -45 -28 -80t-64 -49q18 -35 76.5 -68.5t138.5 -50.5l123 492q-68 33 -122.5 65.5t-91 69.5t-57 81t-20.5 101q0 76 32.5 145.5t93 123t142.5 84t180 30.5h15l36 146l97 -19l-35 -137q70 -14 124 -42t92 -62.5 t58.5 -74.5t20.5 -79q0 -66 -35 -109t-88 -43q-47 0 -71.5 28t-24.5 62q0 41 24.5 74t59.5 45q-23 41 -71 71t-110 44l-118 -477q70 -35 123 -69t89.5 -71.5t55 -83t18.5 -102.5q0 -72 -28.5 -141.5t-85 -124.5t-139.5 -89t-189 -34h-23l-43 -174l-96 16l41 168 q-72 14 -133 41t-106.5 64t-71 82t-25.5 92zM401 961q0 -66 46.5 -112t127.5 -89l111 442q-70 0 -123 -22.5t-89 -57.5t-54.5 -76.5t-18.5 -84.5zM510 86h8q66 0 118 19.5t89 52t57.5 77t20.5 95.5q0 68 -46 117t-132 96z" />
<glyph unicode="%" horiz-adv-x="1576" d="M115 801q0 90 35.5 174t94 149.5t133.5 104.5t152 39q131 0 187 -92q88 -41 203 -41q109 0 223 42t219 128l59 -54l-1134 -1304l-84 61l1009 1120l-6 7q-27 -16 -63.5 -32t-77.5 -28t-85 -19t-83 -7q-37 0 -74 3t-75 13q0 -6 1 -11t1 -12q0 -72 -29 -158.5t-80 -161.5 t-122 -125t-157 -50q-117 0 -182 68.5t-65 185.5zM262 776q0 -76 31 -109.5t84 -33.5q51 0 101 39t89 98t63.5 131t24.5 139q0 33 -10 64q-27 14 -52.5 31.5t-49.5 40.5q-55 0 -105.5 -40t-89.5 -98.5t-62.5 -129t-23.5 -132.5zM885 227q0 90 35.5 174t94 149.5t133.5 104.5 t152 39q98 0 159 -56t61 -169q0 -74 -29 -160t-80 -161.5t-122.5 -126t-155.5 -50.5q-119 0 -183.5 69t-64.5 187zM1030 201q0 -74 32 -108t83 -34t102 39t90 98.5t63.5 131t24.5 137.5q0 63 -28.5 99t-83.5 36t-105.5 -39t-90.5 -98.5t-63.5 -129t-23.5 -132.5z" />
<glyph unicode="&#x26;" horiz-adv-x="1376" d="M49 266q0 143 105.5 252t326.5 176q-53 78 -73.5 134.5t-20.5 119.5q0 80 29.5 141.5t78 103.5t111 63.5t127.5 21.5q61 0 112.5 -18.5t88.5 -51t58.5 -79t21.5 -101.5q0 -43 -13.5 -88t-50.5 -90t-101.5 -88t-164.5 -80q51 -78 91 -144.5t71 -140.5q43 66 84 134.5 t84 125t92 92t108 35.5q63 0 96 -33.5t33 -84.5q0 -59 -31.5 -103.5t-78.5 -44.5q-57 0 -77.5 47t7.5 105q-39 -16 -72.5 -53t-67.5 -86.5t-67.5 -105.5t-70.5 -112q47 -115 78.5 -169t70.5 -54q14 0 30.5 5t35 23.5t40 53.5t50.5 94l70 -33q-33 -80 -66 -131t-65.5 -79.5 t-65.5 -40t-66 -11.5q-84 0 -132 48.5t-97 164.5q-84 -96 -174 -156.5t-211 -60.5q-74 0 -135.5 21.5t-105.5 61.5t-68.5 95.5t-24.5 120.5zM229 293q0 -94 53.5 -147.5t141.5 -53.5q98 0 170 47t135 123q-43 115 -92 198t-111 171q-88 -33 -145 -72t-91 -83t-47.5 -90 t-13.5 -93zM541 993q0 -20 3 -43.5t14 -52.5t30.5 -66.5t52.5 -87.5q70 31 115 66t70.5 73t35.5 74.5t10 71.5q0 66 -38.5 113t-116.5 47q-70 0 -123 -49.5t-53 -145.5z" />
<glyph unicode="'" horiz-adv-x="458" d="M221 870l146 293q41 86 73.5 133t73.5 47q37 0 64.5 -23.5t27.5 -55.5q0 -41 -45 -96.5t-123 -139.5l-168 -184z" />
<glyph unicode="(" horiz-adv-x="739" d="M147 381q0 174 52.5 343t154 315.5t251 261t345.5 182.5l31 -80q-168 -70 -294 -185.5t-209 -255t-125 -295t-42 -305.5q0 -199 66.5 -349t195.5 -265l-65 -70q-160 121 -260.5 294t-100.5 409z" />
<glyph unicode=")" horiz-adv-x="739" d="M-180 -242q168 70 294 185.5t209 255t124.5 295t41.5 305.5q0 199 -66.5 349t-195.5 265l66 70q160 -121 260 -294t100 -409q0 -174 -52 -343t-153.5 -315.5t-251 -261t-346.5 -182.5z" />
<glyph unicode="*" horiz-adv-x="835" d="M319 1272q39 63 109 14q14 -10 34.5 -30.5t43 -45t45 -48t39.5 -42.5l24 8v60t-1 66.5t0 62.5t5 47q20 80 91 61q63 -18 43 -96q-4 -16 -17.5 -42.5t-29 -56.5t-32 -58.5t-28.5 -49.5l17 -20q23 8 54.5 19.5t63 22.5t60 19t47.5 8q80 6 86 -63q2 -35 -15.5 -53.5 t-62.5 -22.5q-18 -2 -47 3t-62.5 11.5t-65.5 13.5t-56 11l-15 -22l35 -45t41 -53.5t37.5 -51.5t23.5 -43q29 -74 -34 -100q-64 -29 -95 49q-6 18 -11 48t-9 63.5t-7 66.5t-7 57l-25 4q-14 -20 -32.5 -46.5t-39 -54.5t-39 -51.5t-32.5 -35.5q-59 -53 -107 0q-45 55 19 107 q14 12 39.5 25t56.5 27.5t61.5 29t53.5 24.5l-3 25q-25 8 -56.5 16t-63 17.5t-60 19.5t-43.5 20q-68 47 -33 105z" />
<glyph unicode="+" horiz-adv-x="1073" d="M127 518l25 100h372l94 381h109l-94 -381h371l-25 -100h-373l-94 -381h-106l94 381h-373z" />
<glyph unicode="," horiz-adv-x="438" d="M-119 -211q121 43 179.5 95.5t76.5 105.5l-6 6q-14 -10 -35 -10q-35 0 -59.5 22.5t-24.5 69.5q0 45 32 87t87 42q59 0 89 -40t30 -97q0 -47 -18.5 -95.5t-59.5 -94.5t-107.5 -87t-162.5 -72z" />
<glyph unicode="-" horiz-adv-x="745" d="M106 430l33 133h520l-34 -133h-519z" />
<glyph unicode="." horiz-adv-x="438" d="M23 82q0 47 30.5 88t83.5 41q45 0 75 -30.5t30 -82.5q0 -47 -32 -88t-85 -41q-43 0 -72.5 31t-29.5 82z" />
<glyph unicode="/" horiz-adv-x="856" d="M-285 -389l1233 1847l99 -49l-1233 -1847z" />
<glyph unicode="0" horiz-adv-x="1130" d="M117 463q0 166 46 320.5t127 272.5t189.5 189.5t233.5 71.5q180 0 279.5 -131t99.5 -365q0 -166 -46.5 -319.5t-126 -272t-188 -190.5t-233.5 -72q-180 0 -280.5 132t-100.5 364zM293 412q-2 -184 52 -264t155 -80q68 0 125 38.5t103 104t82 149.5t59.5 173.5t36 178.5 t12.5 162q0 184 -53.5 263.5t-153.5 79.5q-68 0 -125.5 -39t-103.5 -104.5t-81.5 -148.5t-59.5 -173t-36 -178.5t-12 -161.5z" />
<glyph unicode="1" horiz-adv-x="913" d="M-2 0l25 106h296l240 961q-39 -16 -88 -24.5t-100 -8.5q-31 0 -66 4t-57 13l22 86q59 0 117.5 10t112 30.5t99.5 51.5t79 71h106l-297 -1194h289l-20 -106h-758z" />
<glyph unicode="2" horiz-adv-x="1110" d="M45 111q0 74 35 141t98.5 129.5t152.5 119t199 105.5q184 82 280.5 171t96.5 216q0 111 -71.5 167.5t-178.5 56.5q-92 0 -154 -32t-95 -77q29 -16 50 -46t21 -75q0 -43 -28.5 -83t-90.5 -42q-55 -2 -89.5 36t-34.5 101q0 57 31.5 113.5t90 102t139.5 74t177 28.5 q92 0 166.5 -25.5t127 -71.5t80 -108.5t27.5 -136.5q0 -90 -34.5 -158.5t-93 -120t-135.5 -89.5t-161 -66q-135 -47 -219 -91t-133 -88.5t-73.5 -86.5t-39.5 -80l4 -5q41 23 84 35.5t91 12.5q55 0 100 -17.5t84 -39t73.5 -39t71.5 -17.5q70 0 125 63.5t115 221.5l74 -15 q-29 -119 -65 -199.5t-79 -131t-95 -73t-110 -22.5q-66 0 -112.5 28t-87.5 59.5t-79 59t-85 27.5q-14 0 -32.5 -3t-35.5 -9q14 -25 15 -53q0 -49 -26 -79t-69 -30q-47 0 -74.5 38t-27.5 104z" />
<glyph unicode="3" horiz-adv-x="1048" d="M43 264q0 66 39 112t96 46q51 0 80 -33t29 -74q0 -53 -26.5 -86t-61.5 -49q18 -37 79.5 -74.5t165.5 -37.5q72 0 129.5 25.5t96.5 69.5t59.5 101.5t20.5 120.5q0 47 -16.5 88t-52.5 71.5t-92.5 48t-137.5 17.5h-37l24 101h43q111 0 181.5 24.5t117.5 71.5 q47 45 65.5 100.5t18.5 112.5q0 96 -57 147.5t-166 51.5q-74 0 -131 -22.5t-86 -55.5q49 -39 49 -101q0 -49 -30.5 -85.5t-84.5 -36.5q-51 0 -80.5 31.5t-29.5 82.5q0 59 34.5 111.5t92 90.5t132.5 60.5t152 22.5q94 0 166 -24.5t119 -65.5t71.5 -95.5t24.5 -113.5 q0 -145 -105.5 -240.5t-289.5 -120.5v-4q141 -29 211 -106.5t70 -179.5q0 -82 -35 -155t-96.5 -127t-147.5 -86t-186 -32q-86 0 -162 22.5t-133 62.5t-90 94.5t-33 117.5z" />
<glyph unicode="4" horiz-adv-x="1122" d="M35 369l26 110l801 828h172l-209 -830h265l-25 -108h-266l-66 -265h201l-27 -104h-567l27 104h202l66 265h-600zM199 477h465l161 645h-6z" />
<glyph unicode="5" horiz-adv-x="1042" d="M51 260q0 78 42 129t102 51q51 0 79.5 -31.5t28.5 -74.5q0 -51 -31.5 -88t-83.5 -47q20 -53 83 -93t149 -40q88 0 152.5 37.5t107.5 98t63.5 136.5t20.5 151q0 121 -65.5 171.5t-159.5 50.5q-141 0 -260 -90l-76 34l194 631l31 21q84 -41 166 -57.5t166 -16.5 q92 0 166.5 18.5t142.5 48.5l25 -51q-72 -86 -163 -132t-202 -46q-86 0 -156.5 17.5t-117.5 35.5l-117 -381q47 29 107.5 45.5t136.5 16.5q166 0 262 -88t96 -238q0 -90 -33 -181t-97.5 -165t-158.5 -120t-219 -46q-80 0 -149.5 23.5t-120.5 63.5t-81 93.5t-30 112.5z" />
<glyph unicode="6" horiz-adv-x="1067" d="M117 432q0 162 46 320.5t130 283.5t204.5 203t268.5 78q70 0 127 -18.5t98 -49t63.5 -74t22.5 -92.5q0 -66 -39 -114.5t-98 -48.5q-53 0 -81 30.5t-28 71.5q0 37 21.5 72.5t73.5 54.5q-12 29 -54.5 49.5t-101.5 20.5q-164 0 -278.5 -144.5t-174.5 -412.5q55 66 135 106.5 t173 40.5q78 0 141 -25.5t107.5 -71.5t69 -110.5t24.5 -140.5q0 -86 -31 -174t-89.5 -159t-143.5 -116t-191 -45q-184 0 -289.5 124t-105.5 341zM279 336q0 -117 58 -192.5t169 -75.5q70 0 123 36.5t89 95t54.5 130t18.5 139.5q0 113 -60.5 175.5t-159.5 62.5 q-63 0 -116.5 -29t-92 -78t-61 -116.5t-22.5 -147.5z" />
<glyph unicode="7" horiz-adv-x="1062" d="M186 821l115 467h109l-33 -160h6q53 86 105.5 128t123.5 42q57 0 96.5 -25.5t73 -57t69.5 -57t85 -25.5q45 0 78 22q-6 16 -8 28.5t-2 28.5q0 45 26.5 76t71.5 31q47 0 70.5 -28.5t23.5 -63.5q0 -31 -11 -60.5t-37 -61.5t-67 -70t-100 -87q-96 -80 -175 -168 t-144.5 -191.5t-121 -225t-100.5 -271.5q-23 -72 -46 -99.5t-62 -29.5q-37 0 -65.5 26.5t-28.5 71.5q0 63 52 172t137 232t194.5 246t226.5 219q72 59 116 98t78 78l-6 6q-47 -29 -96 -45t-100 -16q-55 0 -97.5 13t-79 30.5t-69.5 31t-68 13.5q-33 0 -62.5 -14.5t-58 -50.5 t-57.5 -97.5t-61 -155.5h-101z" />
<glyph unicode="8" horiz-adv-x="1073" d="M76 303q0 55 19.5 108.5t60.5 100.5t105.5 85t154.5 60q-78 53 -124 121t-46 160q0 72 29.5 139.5t86 120.5t136.5 86t180 33q86 0 156.5 -23.5t120 -65.5t76 -99t26.5 -123q0 -121 -78 -210t-221 -134q92 -53 147.5 -123t55.5 -174q0 -82 -35 -155t-96.5 -126 t-147.5 -85t-188 -32q-98 0 -176 26.5t-131.5 73t-82 106.5t-28.5 130zM227 305q0 -49 17.5 -92t53.5 -76t87 -52t119 -19q135 0 214 72.5t79 183.5q0 92 -75 153t-210 127q-12 4 -18 8q-129 -35 -198 -114.5t-69 -190.5zM408 985q0 -92 73.5 -156.5t194.5 -123.5 q123 45 181 125.5t58 173.5q0 94 -62 155.5t-179 61.5q-59 0 -108.5 -19.5t-84.5 -51.5t-54 -75t-19 -90z" />
<glyph unicode="9" horiz-adv-x="1069" d="M61 215q0 63 38 111.5t100 48.5q51 0 79.5 -31t28.5 -72q0 -39 -22.5 -73.5t-73.5 -55.5q25 -35 70 -55t108 -20q166 0 275.5 139t169.5 399q-57 -66 -136.5 -105.5t-171.5 -39.5q-78 0 -141 25.5t-107.5 72.5t-69 112.5t-24.5 145.5q0 90 32 179t90.5 161t143.5 116 t191 44q184 0 289.5 -124t105.5 -341q0 -164 -43 -322.5t-125 -283.5t-200.5 -202t-268.5 -77q-82 0 -144 20.5t-105.5 55.5t-66 80t-22.5 92zM360 807q0 -117 59.5 -181.5t158.5 -64.5q63 0 117.5 28.5t94 79t62 120t22.5 151.5q0 123 -57 200t-168 77q-70 0 -124 -36 t-91 -94.5t-55.5 -131t-18.5 -148.5z" />
<glyph unicode=":" horiz-adv-x="446" d="M27 82q0 47 30.5 88t83.5 41q45 0 75 -30.5t30 -82.5q0 -47 -32 -88t-85 -41q-43 0 -72.5 31t-29.5 82zM182 684q0 47 31 88t84 41q45 0 74.5 -30.5t29.5 -82.5q0 -47 -31.5 -88t-84.5 -41q-43 0 -73 31t-30 82z" />
<glyph unicode=";" horiz-adv-x="446" d="M-115 -211q121 43 179.5 95.5t76.5 105.5l-6 6q-14 -10 -35 -10q-35 0 -59.5 22.5t-24.5 69.5q0 45 32 87t87 42q59 0 89 -40t30 -97q0 -47 -18.5 -95.5t-59.5 -94.5t-107.5 -87t-162.5 -72zM182 684q0 47 31 88t84 41q45 0 74.5 -30.5t29.5 -82.5q0 -47 -31.5 -88 t-84.5 -41q-43 0 -73 31t-30 82z" />
<glyph unicode="&#x3c;" horiz-adv-x="1071" d="M174 530l23 91l802 366l2 -104l-702 -318l543 -309l-35 -100z" />
<glyph unicode="=" horiz-adv-x="1077" d="M86 334l25 98h841l-24 -98h-842zM178 705l25 100h841l-24 -100h-842z" />
<glyph unicode="&#x3e;" horiz-adv-x="1071" d="M111 256l704 315l-543 312l35 104l633 -377l-20 -88l-805 -366z" />
<glyph unicode="?" horiz-adv-x="858" d="M211 1124q0 49 27.5 97.5t79 85t122 59.5t154.5 23q94 0 163.5 -26t116 -68t68 -94t21.5 -107q0 -72 -27 -124t-75 -95.5t-113.5 -79t-145.5 -72.5q-115 -51 -175 -89t-58 -99q0 -39 25.5 -60.5t64.5 -21.5q47 0 88 23.5t92 84.5l57 -41q-55 -82 -123.5 -120t-142.5 -38 q-90 0 -147.5 50.5t-57.5 136.5q0 45 17.5 83t52.5 70.5t86 63.5t119 63q72 35 126 66t91 63.5t55.5 71.5t18.5 92q0 33 -11.5 65t-36 56.5t-64.5 39.5t-97 15q-72 0 -118 -20.5t-73 -44.5q47 -41 47 -98q0 -53 -31.5 -91t-84.5 -38q-47 0 -79 32.5t-32 85.5zM213 82 q0 47 31.5 88t85.5 41q45 0 74.5 -30.5t29.5 -82.5q0 -47 -32 -88t-85 -41q-45 0 -74.5 31t-29.5 82z" />
<glyph unicode="@" horiz-adv-x="1835" d="M113 401q0 207 77.5 387.5t209.5 313.5t308.5 210t372.5 77q141 0 264 -43t213.5 -123t141.5 -195t51 -260q0 -139 -38 -259t-102.5 -207t-150.5 -137t-184 -50q-109 0 -166 60.5t-41 170.5l-10 2q-61 -98 -134 -150.5t-151 -52.5q-102 0 -172 73t-70 210q0 100 38 197.5 t101.5 174.5t145.5 123t170 46q70 0 124 -41t69 -127l49 157h133l-160 -509q-43 -137 -13 -193.5t114 -56.5q61 0 124.5 40t113.5 113.5t83 178t33 233.5q0 125 -43 226.5t-120 172t-184.5 108.5t-236.5 38q-178 0 -335.5 -73t-275.5 -198t-186.5 -288.5t-68.5 -348.5 q0 -139 46 -253.5t130 -195.5t205 -125t268 -44q123 0 232.5 29.5t209.5 85.5l33 -68q-106 -63 -231 -96t-254 -33q-158 0 -292 48t-232.5 138t-153.5 220.5t-55 293.5zM682 414q0 -80 34 -124t95 -44q68 0 125 48t99 118.5t66.5 149.5t24.5 143q0 33 -6 64.5t-21.5 58 t-42 43t-65.5 16.5q-68 0 -124 -46t-98 -116t-64.5 -154t-22.5 -157z" />
<glyph unicode="A" horiz-adv-x="1359" d="M-111 0l27 106h143l766 1240h150l143 -1240h172l-24 -106h-559l26 106h211l-41 375h-481l-223 -375h180l-27 -106h-463zM479 578h414l-59 581h-7z" />
<glyph unicode="B" horiz-adv-x="1265" d="M-45 0l25 106h225l278 1125h-227l27 104h544q129 0 215 -23.5t136.5 -62.5t72 -90t21.5 -104q0 -49 -17.5 -105.5t-64.5 -107.5t-129 -90t-209 -50v-8q166 -31 244 -106.5t78 -181.5q0 -150 -99 -248q-74 -74 -205 -116t-344 -42h-571zM379 106h172q127 0 212 26t135 71 t71.5 103.5t21.5 123.5q0 98 -76.5 160.5t-240.5 62.5h-158zM539 752h180q90 0 159.5 24.5t115.5 65.5t69.5 95t23.5 116q0 82 -57 130t-203 48h-170z" />
<glyph unicode="C" horiz-adv-x="1349" d="M141 512q0 168 57.5 322.5t158 273.5t235.5 189.5t291 70.5q248 0 364 -166l78 160h109l-123 -500h-94q-6 111 -33 186.5t-72 122t-104.5 66.5t-130.5 20q-135 0 -238.5 -70.5t-172.5 -179t-104.5 -240.5t-35.5 -257q0 -205 95 -315.5t261 -110.5q90 0 163 35t131 94 t104 137t85 164l99 -41q-41 -102 -96.5 -193.5t-129 -161t-168 -109.5t-211.5 -40q-133 0 -230 43t-161.5 117t-95.5 172t-31 211z" />
<glyph unicode="D" horiz-adv-x="1413" d="M-45 0l25 106h225l278 1125h-225l25 104h508q156 0 270.5 -37.5t190 -106.5t112.5 -162t37 -204q0 -154 -61.5 -309.5t-184.5 -273.5q-111 -111 -272.5 -176.5t-405.5 -65.5h-522zM377 106h98q168 0 292 37t216 129q53 53 95 122t72 145.5t45 159.5t15 163 q0 180 -105.5 274.5t-328.5 94.5h-119z" />
<glyph unicode="E" horiz-adv-x="1320" d="M-45 0l25 106h225l278 1125h-227l27 104h1120l-103 -417h-81q3 82 3 138v26q-1 62 -14.5 95t-42 43.5t-80.5 10.5h-428l-122 -498h176q45 0 74.5 6t53 27.5t44 61.5t49.5 110h84l-127 -510h-82q8 72 9 115v7q0 38 -10 58q-11 22 -37 27.5t-71 5.5h-186l-133 -535h422 q57 0 95 12.5t70.5 50.5t67.5 107.5t84 182.5h84l-112 -459h-1135z" />
<glyph unicode="F" horiz-adv-x="1273" d="M-45 0l25 106h225l278 1125h-227l27 104h1122l-109 -426h-79q1 40 1 73q0 60 -2 100q-4 64 -20 97t-46 42.5t-79 9.5h-414l-129 -522h162q47 0 78 7t54.5 28.5t44 63.5t46.5 110h84l-129 -523h-84q10 76 12 120v10q0 37 -10 57q-12 22 -38.5 28t-71.5 6h-170l-127 -510 h248l-25 -106h-647z" />
<glyph unicode="G" horiz-adv-x="1427" d="M141 512q0 168 57.5 322.5t157 273.5t234.5 189.5t293 70.5q248 0 364 -166l78 160h109l-123 -500h-94q-6 111 -33 186.5t-72 122t-104.5 66.5t-130.5 20q-135 0 -238.5 -69.5t-172.5 -179t-104.5 -244.5t-35.5 -264q0 -209 90 -312.5t235 -103.5q78 0 143.5 31.5t118 87 t89 130.5t59.5 161l14 57h-252l29 106h606l-26 -106h-185l-143 -565h-98l-5 188q-154 -207 -387 -207q-117 0 -204.5 44t-147 118t-90.5 173t-31 210z" />
<glyph unicode="H" horiz-adv-x="1558" d="M-45 0l25 106h225l278 1125h-227l27 104h594l-27 -104h-193l-120 -492h624l121 492h-197l27 104h594l-27 -104h-223l-278 -1125h227l-25 -106h-594l25 106h193l135 537h-625l-135 -537h194l-24 -106h-594z" />
<glyph unicode="I" horiz-adv-x="786" d="M-31 0l25 106h225l279 1125h-228l25 104h627l-27 -104h-223l-281 -1125h230l-25 -106h-627z" />
<glyph unicode="J" horiz-adv-x="1077" d="M12 248q0 78 43 134t121 56q57 0 87 -34.5t30 -81.5q0 -49 -33 -87t-96 -53q14 -49 70.5 -80.5t130.5 -31.5q113 0 176 75.5t100 225.5l213 860h-219l27 104h593l-24 -104h-203l-219 -881q-45 -180 -154.5 -281.5t-289.5 -101.5q-86 0 -152 24.5t-111 63.5t-67.5 89.5 t-22.5 103.5z" />
<glyph unicode="K" horiz-adv-x="1441" d="M-45 0l25 106h225l278 1125h-227l27 104h594l-27 -104h-193l-151 -615l737 615h-180l27 104h512l-25 -104h-164l-567 -459l317 -666h176l-24 -106h-561l26 106h187l-254 560l-246 -201l-88 -359h194l-24 -106h-594z" />
<glyph unicode="L" horiz-adv-x="1212" d="M-45 0l25 106h225l278 1125h-227l27 104h610l-25 -104h-211l-278 -1125h364q57 0 96.5 14.5t71 54.5t64.5 109.5t80 178.5h86l-117 -463h-1069z" />
<glyph unicode="M" horiz-adv-x="1869" d="M-39 0l25 106h209l280 1125h-213l25 104h481l111 -1046h6l635 1046h495l-26 -104h-220l-278 -1125h223l-24 -106h-570l25 106h172l278 1117h-16l-758 -1225h-73l-144 1225h-12l-279 -1117h189l-25 -106h-516z" />
<glyph unicode="N" horiz-adv-x="1538" d="M-39 0l25 106h209l278 1125h-211l25 104h389l444 -1042h10l232 938h-201l27 104h522l-27 -104h-200l-316 -1264h-98l-489 1163h-11l-256 -1024h199l-25 -106h-526z" />
<glyph unicode="O" horiz-adv-x="1425" d="M143 539q0 160 55.5 308t151.5 264t227.5 185.5t284.5 69.5q117 0 214.5 -41t166 -115.5t107.5 -180t39 -232.5q0 -160 -54.5 -309.5t-152 -265.5t-228.5 -185.5t-284 -69.5q-117 0 -214.5 41t-166 117t-107.5 181.5t-39 232.5zM326 494q0 -109 26.5 -188t72.5 -130 t110.5 -75.5t142.5 -24.5q92 0 168 35.5t134 96t101 139.5t71 164t41 170t13 159q0 111 -26.5 189.5t-72.5 129.5t-111.5 76t-141.5 25q-92 0 -167 -37t-134 -97.5t-101 -139.5t-71 -164t-42 -170t-13 -158z" />
<glyph unicode="P" horiz-adv-x="1224" d="M-45 0l25 106h225l278 1125h-227l27 104h538q129 0 218 -25.5t144.5 -69.5t80 -102.5t24.5 -123.5q0 -92 -37 -176t-113.5 -147.5t-194.5 -100.5t-279 -37h-175l-110 -447h248l-25 -106h-647zM514 653h170q111 0 188.5 30t127 80t73 116.5t23.5 140.5q0 45 -13.5 84 t-47.5 66.5t-91 44t-143 16.5h-144z" />
<glyph unicode="Q" horiz-adv-x="1425" d="M143 539q0 160 55.5 308t151.5 264t227.5 185.5t284.5 69.5q117 0 214.5 -41t166 -115.5t107.5 -180t39 -232.5q0 -111 -27 -216.5t-76 -200.5t-117.5 -174t-154.5 -134q27 -72 54.5 -112t80.5 -40q55 0 91 45t81 144l86 -31q-23 -61 -49.5 -115.5t-61 -94.5t-77.5 -62.5 t-95 -22.5q-51 0 -89 16.5t-66.5 46t-49 69.5t-36.5 89q-51 -16 -104.5 -26.5t-108.5 -10.5q-117 0 -214.5 41t-166 117t-107.5 181.5t-39 232.5zM326 494q0 -86 17 -155t50 -112q8 106 76 180t188 74q72 0 123 -23.5t88 -63.5t61.5 -91t43.5 -106q57 59 101 139t74 166 t44 173t14 165q0 111 -26.5 189.5t-72.5 129.5t-111.5 76t-141.5 25q-92 0 -167 -37t-134 -97.5t-101 -139.5t-71 -164t-42 -170t-13 -158zM483 223q0 -59 52.5 -105t154.5 -46q88 0 162 37q-16 55 -33.5 104t-43 85t-60.5 56.5t-82 20.5q-66 0 -108 -44t-42 -108z" />
<glyph unicode="R" horiz-adv-x="1366" d="M-45 0l25 106h225l278 1125h-227l27 104h602q127 0 210 -25.5t132 -67.5t68.5 -96t19.5 -110q0 -66 -22.5 -130t-72 -116.5t-126 -89t-187.5 -49.5l-4 -10q121 -33 163 -88t42 -143q0 -57 -12.5 -123t-12.5 -115q0 -47 21.5 -66.5t64.5 -19.5q25 0 59 8t68 25l27 -66 q-49 -35 -111.5 -55.5t-124.5 -20.5q-84 0 -136 41t-52 134q0 37 6 76.5t14.5 81.5t14.5 83t6 80q0 29 -8 52.5t-30.5 40t-61.5 25.5t-99 9h-239l-123 -494h223l-24 -106h-623zM524 698h215q104 0 175 23.5t118 71.5q45 43 69.5 113.5t24.5 140.5q0 86 -57 135t-195 49h-217 z" />
<glyph unicode="S" horiz-adv-x="1148" d="M-8 -27l117 478h90q18 -104 56 -177t88 -119t112.5 -67.5t134.5 -21.5q63 0 115.5 20t91.5 55t60.5 81t21.5 100q0 49 -21.5 88t-60.5 70.5t-92.5 60t-116.5 59.5q-66 31 -126.5 64.5t-106.5 75.5t-74.5 96.5t-28.5 128.5q0 78 32.5 150.5t92 127.5t142.5 89t181 34 q117 0 208 -46t141 -112l81 152h101l-113 -453h-88q-18 109 -51 178.5t-77 110.5t-98 57.5t-116 16.5q-55 0 -103 -18.5t-84 -52.5t-57.5 -79t-21.5 -96q0 -53 22.5 -92t60.5 -70t88 -57.5t107 -52.5q70 -33 133.5 -67t111.5 -77t77 -97t29 -130q0 -86 -37 -162t-100.5 -131 t-149.5 -88t-184 -33q-129 0 -229.5 45t-166.5 131l-92 -170h-100z" />
<glyph unicode="T" horiz-adv-x="1343" d="M193 872l116 463h1155l-116 -463h-76q3 75 3 132q0 28 -1 52q-2 72 -16.5 113t-47 55.5t-90.5 14.5h-170l-284 -1133h235l-24 -106h-641l26 106h232l282 1133h-170q-57 0 -95 -13.5t-71.5 -53t-71.5 -111.5t-94 -189h-81z" />
<glyph unicode="U" horiz-adv-x="1478" d="M227 319q0 78 27 191l178 721h-196l26 104h569l-24 -104h-201l-172 -694q-18 -72 -24.5 -122t-6.5 -85q0 -119 83 -181.5t231 -62.5q74 0 145.5 23.5t128.5 80.5q45 45 78 108.5t55 152.5l193 780h-203l25 104h510l-27 -104h-184l-207 -830q-20 -80 -56 -152.5 t-98 -133.5q-70 -72 -167 -110t-222 -38q-115 0 -201 26.5t-144 75t-87 113t-29 137.5z" />
<glyph unicode="V" horiz-adv-x="1361" d="M172 1231l27 104h557l-25 -104h-211l119 -1038h6l629 1038h-180l26 104h461l-25 -104h-143l-776 -1239h-135l-156 1239h-174z" />
<glyph unicode="W" horiz-adv-x="1964" d="M172 1231l27 104h551l-27 -104h-209l57 -1024h7l522 915l-6 109h-170l26 104h553l-26 -104h-215l47 -1024h6l563 1024h-180l26 104h459l-26 -104h-142l-710 -1239h-142l-53 946l-541 -946h-141l-88 1239h-168z" />
<glyph unicode="X" horiz-adv-x="1343" d="M-90 0l24 106h160l545 576l-227 549h-179l27 104h551l-27 -104h-188l174 -451l416 451h-178l24 104h488l-27 -104h-158l-512 -545l238 -580h178l-27 -106h-550l26 106h191l-189 480l-446 -480h176l-27 -106h-483z" />
<glyph unicode="Y" horiz-adv-x="1306" d="M236 1231l26 104h539l-27 -104h-186l157 -561l453 561h-166l25 104h452l-24 -104h-154l-565 -680l-115 -445h211l-26 -106h-586l24 106h203l121 472l-197 653h-165z" />
<glyph unicode="Z" horiz-adv-x="1200" d="M-35 0l19 76l1091 1155h-467q-45 0 -75.5 -8.5t-62.5 -43t-71 -105t-96 -195.5h-76l113 456h991l-18 -73l-1086 -1156h508q45 0 76 10.5t62.5 48.5t69.5 110.5t97 197.5h76l-117 -473h-1034z" />
<glyph unicode="[" horiz-adv-x="692" d="M-8 -311l444 1786h510l-24 -101h-351l-395 -1585h350l-24 -100h-510z" />
<glyph unicode="\" horiz-adv-x="856" d="M287 1421l106 19l328 -1846l-105 -18z" />
<glyph unicode="]" horiz-adv-x="692" d="M-195 -313l25 100h350l395 1585h-350l25 101h510l-445 -1786h-510z" />
<glyph unicode="^" horiz-adv-x="681" d="M205 1049l338 403h82l139 -403h-78l-131 237l-262 -237h-88z" />
<glyph unicode="_" horiz-adv-x="901" d="M-113 0l27 111h909l-26 -111h-910z" />
<glyph unicode="`" horiz-adv-x="487" d="M297 1403q0 35 21.5 56.5t52.5 21.5q53 0 71.5 -45t30.5 -123l37 -234h-72l-82 166q-29 57 -44 93t-15 65z" />
<glyph unicode="a" d="M68 291q0 152 56 283t144 219q66 66 141.5 105.5t151.5 39.5t125 -46t66 -132l45 166h155l-161 -594q-16 -63 -23.5 -101t-7.5 -67q0 -20 9 -41t40 -21q41 0 78 60.5t78 167.5l69 -23q-33 -96 -65.5 -158.5t-65.5 -99.5t-67.5 -52t-69.5 -15q-59 0 -100 39.5t-41 125.5 q0 14 1 27.5t3 24.5l-15 6q-63 -109 -140 -166t-163 -57q-109 0 -176 84t-67 225zM229 303q0 -100 37 -151.5t103 -51.5q68 0 129 58.5t108 142.5t75 177t28 165q0 37 -8.5 73t-25 64.5t-43 47t-65.5 18.5q-70 0 -131 -54.5t-107 -136.5t-73 -176t-27 -176z" />
<glyph unicode="b" horiz-adv-x="972" d="M102 276q0 68 17.5 152t40.5 162l196 706h-190l29 111h346l-197 -688l14 -6q66 109 143 167t161 58q113 0 180 -87t67 -228q0 -129 -46 -246t-120.5 -205t-167 -139t-184.5 -51q-133 0 -211 78.5t-78 215.5zM260 283q0 -90 35 -147.5t119 -57.5q74 0 135 57.5t105 141 t67.5 179t23.5 171.5q0 98 -35 147t-98 49q-68 0 -131 -56t-112.5 -138t-79 -176.5t-29.5 -169.5z" />
<glyph unicode="c" horiz-adv-x="886" d="M63 348q0 109 43.5 215.5t116 189.5t167 134t198.5 51q55 0 102 -15.5t82 -42t54.5 -63.5t19.5 -82q0 -53 -29 -98t-82 -45q-41 0 -67.5 24.5t-26.5 65.5q0 70 68 125q-43 49 -125 49q-84 0 -149.5 -53t-112 -131t-71 -166t-24.5 -160q0 -135 57.5 -198.5t141.5 -63.5 q70 0 139.5 49t134.5 166l66 -39q-33 -61 -70 -112.5t-82 -88t-99 -57t-120 -20.5q-76 0 -137 26.5t-104 75.5t-67 116.5t-24 147.5z" />
<glyph unicode="d" d="M68 291q0 152 55 283t143 219q66 66 141.5 105.5t153.5 39.5q74 0 125 -40t70 -122l141 520h-192l28 111h348l-290 -1075q-16 -63 -23.5 -101t-7.5 -67q0 -20 9 -41t40 -21q41 0 78 60.5t78 167.5l69 -23q-33 -96 -65.5 -158.5t-65.5 -99.5t-67.5 -52t-69.5 -15 q-59 0 -100 39.5t-41 125.5q0 14 1 27.5t3 24.5l-15 6q-63 -109 -140 -166t-163 -57q-109 0 -176 84t-67 225zM229 303q0 -100 37 -151.5t103 -51.5q68 0 130 58.5t109 144.5t76 182.5t29 171.5q0 82 -34 135.5t-112 53.5q-74 0 -136 -55.5t-107 -136.5t-70 -176t-25 -175z " />
<glyph unicode="e" horiz-adv-x="890" d="M63 326q0 117 49.5 227.5t128 196.5t178 137t202.5 51q111 0 169 -54t58 -134q0 -135 -149.5 -236.5t-467.5 -136.5q-4 -16 -4 -30.5v-29.5q0 -125 53.5 -182t139.5 -57t160.5 54t142.5 153l63 -41q-37 -55 -78.5 -103.5t-91 -84.5t-108.5 -55t-131 -19q-70 0 -127 23.5 t-99 68.5t-65 108.5t-23 143.5zM246 453q131 18 218 47.5t139 68.5t74.5 84t22.5 92q0 49 -28.5 80t-81.5 31q-61 0 -116.5 -36t-99.5 -94t-77 -130t-51 -143z" />
<glyph unicode="f" horiz-adv-x="661" d="M-188 -221q0 45 28.5 80t75.5 35q41 0 61.5 -26t20.5 -54q0 -47 -27 -78q27 0 47.5 13t39 51t38 109t43.5 187l152 719h-201l25 90h194q53 262 166 386t258 126q51 0 90 -12t64.5 -33.5t38 -49.5t12.5 -56q0 -59 -33 -102.5t-82 -43.5q-39 0 -62.5 23.5t-23.5 66.5 q0 29 12.5 58.5t36.5 52.5q-20 16 -59 16q-53 0 -91 -24.5t-65.5 -71.5t-48 -113.5t-41.5 -152.5l-16 -70h260l-25 -90h-254l-139 -661q-29 -139 -68.5 -233.5t-86 -151t-97.5 -80t-104 -23.5q-72 0 -105.5 34t-33.5 79z" />
<glyph unicode="g" horiz-adv-x="985" d="M-23 -158q0 47 31 90t84 43q45 0 68.5 -27.5t23.5 -64.5q0 -29 -13 -56.5t-36 -43.5q23 -16 59.5 -23.5t77.5 -7.5q63 0 112.5 21.5t86.5 58.5q45 47 81 129t69 227l-15 7q-47 -61 -116.5 -106.5t-155.5 -45.5q-59 0 -107.5 22.5t-82 62.5t-52 94t-18.5 118q0 131 51 255 t141 214q59 61 129 95t148 34t134 -44t77 -130l41 162h155l-178 -744q-66 -268 -184.5 -392t-315.5 -124q-47 0 -99 8.5t-95 29t-72 54t-29 84.5zM238 358q0 -104 40.5 -154t116.5 -50q66 0 124.5 43t101.5 112.5t68.5 157.5t25.5 176q0 41 -12.5 78t-34 64.5t-51 44 t-66.5 16.5q-68 0 -126 -48t-99 -120t-64.5 -158t-23.5 -162z" />
<glyph unicode="h" horiz-adv-x="1079" d="M39 0l344 1296h-193l29 111h348l-250 -889l13 -6q100 205 212.5 315.5t217.5 110.5q76 0 123 -56.5t47 -148.5q0 -66 -23.5 -144.5t-53.5 -157.5t-53.5 -151.5t-23.5 -125.5q0 -18 8.5 -35t32.5 -17q37 0 75 60.5t79 167.5l69 -23q-33 -96 -65.5 -158.5t-66.5 -99.5 t-68.5 -52t-67.5 -15q-63 0 -105 45t-42 135q0 72 23.5 145.5t50 146t49 142.5t22.5 131q0 35 -15.5 59.5t-56.5 24.5q-43 0 -103 -43t-127 -139.5t-135.5 -251t-127.5 -377.5h-166z" />
<glyph unicode="i" horiz-adv-x="651" d="M45 633q66 141 134.5 223t158.5 82q70 0 112 -51.5t42 -145.5q0 -63 -27 -144t-59.5 -162t-59.5 -154.5t-27 -124.5q0 -20 10.5 -37t37.5 -17q39 0 76.5 57.5t80.5 170.5l70 -23q-33 -94 -65.5 -156.5t-67.5 -100.5t-70 -53t-72 -15q-67 0 -111 45q-42 43 -42 124v7 q0 72 28.5 154.5t61.5 165.5t60.5 160t27.5 138q0 23 -8 40.5t-31 17.5q-49 0 -95 -68t-95 -164zM379 1204q0 25 8 50.5t24.5 46t40 34t52.5 13.5q43 0 69.5 -27t26.5 -74q0 -25 -9 -49t-25.5 -44.5t-40 -34t-54.5 -13.5q-37 0 -64.5 25.5t-27.5 72.5z" />
<glyph unicode="j" horiz-adv-x="569" d="M-178 -221q0 47 28.5 81t75.5 34q43 0 62.5 -26t19.5 -54q0 -45 -26 -82q23 0 44 10t42.5 44t46 99.5t53.5 177.5l151 578q10 35 16.5 71t6.5 60q0 25 -9 43.5t-32 18.5q-45 0 -91 -67t-95 -165l-70 31q66 141 134.5 223t160.5 82q66 0 107.5 -49t41.5 -129q0 -35 -8 -80 t-18 -88l-125 -471q-35 -127 -76 -214t-88 -140.5t-98 -77t-105 -23.5q-82 0 -115.5 34t-33.5 79zM379 1204q0 25 8 50.5t24.5 46t40 34t52.5 13.5q43 0 69.5 -27t26.5 -74q0 -25 -9 -49t-26.5 -44.5t-41 -34t-52.5 -13.5q-37 0 -64.5 25.5t-27.5 72.5z" />
<glyph unicode="k" horiz-adv-x="995" d="M39 0l344 1296h-193l29 111h348l-233 -872h28q78 0 130.5 47t113.5 151q57 96 109.5 150.5t132.5 54.5q63 0 95 -33t32 -88q0 -57 -31 -97t-78 -40q-54 0 -76 44q-10 19 -9 41q0 28 16 60q-35 -4 -65 -40.5t-68 -102.5q-41 -72 -79 -109.5t-85 -60.5q109 -8 148.5 -53 t39.5 -111q0 -47 -8 -92t-8 -86q0 -31 10 -49.5t35 -18.5q37 0 74.5 60.5t76.5 167.5l70 -23q-31 -96 -63.5 -158.5t-66.5 -99.5t-67.5 -52t-66.5 -15q-62 0 -108 46q-45 44 -44 136v8q0 47 9.5 101.5t9.5 84.5q0 57 -35 82t-144 25h-47l-125 -465h-151z" />
<glyph unicode="l" horiz-adv-x="548" d="M80 156q0 43 13 105.5t38 154.5l240 880h-193l29 111h348l-291 -1075q-16 -63 -23.5 -101t-7.5 -67q0 -23 10.5 -42.5t37.5 -19.5q45 0 80.5 60.5t76.5 167.5l70 -23q-33 -96 -64.5 -158.5t-65.5 -99.5t-69 -52t-71 -15q-76 0 -117 46t-41 128z" />
<glyph unicode="m" horiz-adv-x="1683" d="M33 633q63 143 128.5 222t151.5 79q61 0 95 -43t34 -125q0 -53 -13 -117.5t-32 -122.5l15 -6q98 205 202.5 311.5t208.5 106.5q78 0 120 -51t42 -137q0 -47 -13.5 -105.5t-35.5 -118.5l14 -6q98 205 204 311.5t210 106.5q76 0 123 -56.5t47 -148.5q0 -66 -23.5 -144.5 t-53.5 -157.5t-53.5 -151.5t-23.5 -125.5q0 -18 8.5 -35t32.5 -17q37 0 75 60.5t79 167.5l70 -23q-33 -96 -67 -158.5t-67.5 -99.5t-67.5 -52t-67 -15q-63 0 -105 45t-42 135q0 72 23.5 145.5t50 146t49 142.5t22.5 131q0 35 -15.5 59.5t-55.5 24.5q-43 0 -100.5 -43 t-121 -139.5t-128 -251t-126.5 -377.5h-163l90 334q35 131 60.5 224t25.5 151q0 33 -13.5 67.5t-64.5 34.5q-43 0 -100.5 -43t-120 -139.5t-127 -251t-125.5 -377.5h-166l172 645q16 59 21.5 96t1 57.5t-14.5 28t-24 7.5q-43 0 -86 -67t-91 -165z" />
<glyph unicode="n" horiz-adv-x="1144" d="M33 633q63 143 128.5 222t151.5 79q61 0 95 -43t34 -125q0 -53 -13 -117.5t-32 -122.5l15 -6q98 205 202.5 311.5t208.5 106.5q78 0 124 -56.5t46 -148.5q0 -66 -23.5 -144.5t-53 -157.5t-53 -151.5t-23.5 -125.5q0 -18 8 -35t35 -17q37 0 74.5 60.5t76.5 167.5l72 -23 q-33 -96 -66.5 -158.5t-67.5 -99.5t-68 -52t-66 -15q-63 0 -106.5 45t-43.5 135q0 72 23.5 145.5t50 146t49.5 142.5t23 131q0 35 -15.5 59.5t-56.5 24.5q-43 0 -100.5 -43t-120 -139.5t-127 -251t-125.5 -377.5h-166l172 645q16 59 21.5 96t1 57.5t-14.5 28t-24 7.5 q-43 0 -86 -67t-91 -165z" />
<glyph unicode="o" horiz-adv-x="968" d="M70 360q0 115 40 219.5t107.5 184.5t156.5 127t187 47q80 0 143.5 -28.5t107.5 -79t66.5 -120t22.5 -151.5q0 -115 -40 -219t-107.5 -184t-156.5 -127t-187 -47q-82 0 -145.5 28.5t-106.5 78.5t-65.5 120t-22.5 151zM229 295q0 -121 50.5 -175t128.5 -54t139 56t104 140 t65.5 182.5t22.5 182.5q0 121 -50 175t-128 54t-139.5 -56.5t-104.5 -140.5t-65.5 -182t-22.5 -182z" />
<glyph unicode="p" horiz-adv-x="1071" d="M-111 -307l29 106h152l223 838q20 73 20 116q0 62 -41 62t-76.5 -49t-93.5 -164l-69 31q70 158 136.5 229.5t145.5 71.5q66 0 97.5 -44t31.5 -116q0 -16 -1 -30.5t-3 -24.5l15 -6q66 109 142.5 167t160.5 58q111 0 179.5 -85t68.5 -228q0 -125 -41 -239t-107.5 -200 t-151.5 -137t-174 -51q-76 0 -135 38t-82 105l-92 -342h205l-31 -106h-508zM356 281q0 -76 39 -133.5t123 -57.5q74 0 133.5 55.5t101.5 137.5t65.5 175t23.5 171q0 98 -35 146t-98 48q-68 0 -131.5 -57t-112.5 -141t-79 -178.5t-30 -165.5z" />
<glyph unicode="q" horiz-adv-x="980" d="M68 315q0 141 55 266.5t141 211.5q66 66 144.5 105.5t154.5 39.5t128 -44t67 -126l43 158h155l-303 -1127h183l-29 -106h-508l29 106h172l108 389l-14 7q-55 -90 -128 -142.5t-153 -52.5q-113 0 -179 87t-66 228zM229 313q0 -98 35 -148t101 -50q68 0 131 56t111 138 t78 175.5t30 166.5q0 84 -35 139.5t-113 55.5q-74 0 -136 -54.5t-107 -135.5t-70 -174t-25 -169z" />
<glyph unicode="r" horiz-adv-x="866" d="M33 633q63 143 128.5 222t151.5 79q61 0 95 -43t34 -125q0 -53 -13 -117.5t-32 -122.5l17 -6q94 199 175 308.5t173 109.5q51 0 84 -33t33 -86q0 -59 -33 -102t-80 -43q-42 0 -66 30q-21 26 -21 72q0 7 1 15q-31 -14 -78 -69.5t-99 -154t-108.5 -240t-105.5 -327.5h-166 l172 645q16 59 21.5 96t1 57.5t-14.5 28t-24 7.5q-43 0 -86 -67t-91 -165z" />
<glyph unicode="s" horiz-adv-x="847" d="M35 199q0 47 28.5 88t81.5 41q41 0 64.5 -27t23.5 -65q0 -35 -15 -63t-36 -44q27 -29 80 -48.5t113 -19.5q90 0 144 45.5t54 122.5q0 57 -44 94t-150 85q-39 18 -78 37.5t-69.5 47t-50 64.5t-19.5 88q0 72 29.5 127t77.5 92t109.5 55.5t125.5 18.5q61 0 116.5 -13.5 t97.5 -38t66.5 -60t24.5 -81.5q0 -47 -26.5 -85.5t-75.5 -38.5q-41 0 -66 23.5t-25 64.5q0 29 14.5 56.5t37.5 43.5q-16 18 -63.5 34.5t-100.5 16.5q-86 0 -139.5 -43t-53.5 -117q0 -57 44 -95t143 -81q47 -20 88 -42.5t71.5 -50.5t48 -64.5t17.5 -85.5q0 -74 -28.5 -129.5 t-77 -93.5t-112 -57t-130.5 -19q-57 0 -117.5 14t-110 42t-81 67.5t-31.5 93.5z" />
<glyph unicode="t" horiz-adv-x="720" d="M96 815l23 90h186l70 256l164 21l-76 -277h280l-24 -90h-279l-133 -483q-16 -59 -21 -92t-5 -54q0 -43 21.5 -61.5t53.5 -18.5q63 0 113.5 70t97.5 170l72 -22q-41 -109 -85 -175.5t-87 -103.5t-83 -50t-73 -13q-94 0 -142 50t-48 128q0 43 12 100t25 100l125 455h-187z " />
<glyph unicode="u" horiz-adv-x="1136" d="M35 635q63 139 127.5 221t154.5 82q63 0 103.5 -45t40.5 -135q0 -68 -22.5 -141.5t-49.5 -147.5t-49.5 -142.5t-22.5 -127.5q0 -39 15.5 -63.5t56.5 -24.5q43 0 99.5 42t119 138t127 251.5t125.5 383.5h166l-158 -594q-16 -66 -23 -102.5t-7 -65.5q0 -23 10 -42.5 t39 -19.5q43 0 78.5 60.5t76.5 167.5l70 -23q-33 -96 -65.5 -158.5t-65.5 -99.5t-66.5 -52t-66.5 -15q-63 0 -103 40.5t-40 133.5q0 20 3 48.5t9 60.5t14 64.5t19 61.5l-15 6q-199 -415 -406 -415h-1q-78 0 -124 55t-46 149q0 63 23.5 143.5t51 160t51 152.5t23.5 124 q0 18 -8 35.5t-31 17.5q-39 0 -74.5 -55t-89.5 -160z" />
<glyph unicode="v" horiz-adv-x="960" d="M39 635q63 139 128 221t155 82q70 0 108.5 -46t38.5 -130q0 -68 -25.5 -144.5t-55.5 -150.5t-54.5 -140.5t-24.5 -113.5q0 -61 40 -87t91 -26q82 0 150.5 62.5t119 156t79 201t30.5 197.5q-10 -4 -21.5 -8t-21.5 -4q-45 0 -71.5 27.5t-26.5 74.5q0 53 31.5 95t85.5 42 q57 0 88.5 -45t31.5 -143q0 -70 -17 -156t-49 -172t-78 -168t-104.5 -145.5t-128 -101.5t-149.5 -38q-113 0 -176 61.5t-63 156.5q0 59 25.5 138t57 158.5t57 152.5t25.5 122q0 20 -7 36.5t-34 16.5q-41 0 -76.5 -55t-88.5 -160z" />
<glyph unicode="w" horiz-adv-x="1419" d="M43 635q63 139 128 221t155 82q70 0 108.5 -45t38.5 -131q0 -72 -27.5 -148.5t-59.5 -150.5t-58.5 -142.5t-26.5 -123.5q0 -51 23.5 -74t60.5 -23q55 0 110.5 56.5t107.5 163t103.5 260t98.5 346.5h149l-104 -434q-23 -86 -31 -149.5t-8 -98.5q0 -76 26.5 -110t80.5 -34 q72 0 135 60.5t110 153t76 200t33 201.5q-10 -4 -21.5 -7t-21.5 -3q-45 0 -70.5 27.5t-25.5 74.5q0 53 30.5 95t83.5 42q57 0 89 -46t32 -132q0 -72 -16.5 -158t-46 -174t-72.5 -171t-98.5 -146.5t-121 -102.5t-139.5 -39q-110 0 -156 71q-45 68 -44 166v9q0 51 6 94l-14 4 q-61 -170 -140.5 -257t-185.5 -87q-92 0 -146.5 57.5t-54.5 151.5q0 68 28 146t61.5 156.5t62 151.5t28.5 128q0 18 -8 34.5t-35 16.5q-41 0 -75.5 -55t-87.5 -160z" />
<glyph unicode="x" horiz-adv-x="1054" d="M10 98q0 53 29 93t74 40q43 -1 67 -35q17 -24 18 -64q0 -16 -3 -36q55 16 102 74.5t82 134.5t55.5 160t20.5 151q0 117 -29 162t-74 45q-55 0 -98 -59t-86 -170l-72 31q25 68 53.5 126t64.5 99t78 64.5t93 23.5q103 0 151 -82q45 -76 44 -212v-23h12q68 166 150.5 243.5 t168.5 77.5q61 0 95 -35t34 -88t-29.5 -93t-74.5 -40q-44 0 -68 35q-17 25 -17 65q0 16 3 35q-55 -16 -102 -73.5t-82 -133t-55.5 -159.5t-20.5 -152q0 -117 28.5 -163t73.5 -46q55 0 98.5 59.5t86.5 170.5l71 -31q-47 -137 -117.5 -225t-170.5 -88q-102 0 -150 82 q-45 75 -45 212v23h-12q-68 -166 -151 -244t-169 -78q-61 0 -94 35t-33 88z" />
<glyph unicode="y" d="M37 635q66 141 130 222t152 81q63 0 103.5 -45t40.5 -131q0 -68 -20.5 -135.5t-45 -132t-44 -124t-19.5 -110.5q0 -39 17.5 -63.5t64.5 -24.5q45 0 102 35t118.5 121t122 231.5t111.5 366.5h156l-166 -705q-35 -152 -86 -257t-116.5 -170.5t-146.5 -96.5t-175 -31 q-47 0 -93 8.5t-85 27.5t-62.5 51t-23.5 79q0 45 30.5 86t83.5 41q47 0 71 -27q22 -26 22 -63v-6q-2 -23 -13.5 -46.5t-32.5 -39.5q20 -12 48 -18.5t59 -6.5q137 0 233.5 122t155.5 405l16 77l-12 6q-98 -168 -192.5 -243.5t-182.5 -75.5q-84 0 -134 54.5t-50 146.5 q0 57 21.5 127.5t46 141.5t46 137.5t21.5 115.5q0 18 -7 34.5t-30 16.5q-41 0 -80.5 -61.5t-85.5 -153.5z" />
<glyph unicode="z" horiz-adv-x="876" d="M-45 55q0 47 39 89t117 71q55 72 125.5 141.5t145.5 131t148.5 113.5t135.5 87q-47 8 -89 23.5t-79 31t-73 27.5t-71 12q-37 0 -64.5 -11t-50 -37.5t-46 -72t-54.5 -112.5l-71 33q31 86 63.5 151.5t70.5 111.5t86 69.5t111 23.5q72 0 130.5 -39t117.5 -111l53 -63l19 4 q12 123 45 166t74 43q35 0 57.5 -19.5t22.5 -54.5q0 -47 -38 -89t-118 -70q-55 -72 -125 -141.5t-144.5 -131t-149.5 -114t-136 -87.5q47 -8 89 -23t80 -30.5t73.5 -28t72.5 -12.5q39 0 66.5 11.5t51.5 38t46.5 70.5t52.5 112l72 -31q-31 -86 -62.5 -151.5t-70.5 -111.5 t-88 -69.5t-113 -23.5q-74 0 -133 37.5t-119 109.5l-53 66l-18 -5q-6 -61 -17.5 -102t-28 -64.5t-35 -32.5t-38.5 -9q-33 0 -56.5 19t-23.5 54z" />
<glyph unicode="{" horiz-adv-x="794" d="M53 532l25 99h61q86 0 148.5 18.5t107.5 63.5q57 57 72.5 141t25 175t29 179t86.5 156q63 63 164.5 93t251.5 20l-25 -93q-94 0 -155.5 -18t-98.5 -55q-35 -35 -52 -83t-28.5 -105.5t-18.5 -118t-19.5 -118t-34 -109.5t-60.5 -91q-45 -45 -103 -68.5t-136 -33.5l-2 -6 q203 -37 203 -193q0 -45 -14.5 -98.5t-32 -109.5t-32 -110.5t-14.5 -99.5q0 -31 9.5 -58.5t34 -52t65.5 -44t106 -31.5l-24 -94q-174 29 -260 97.5t-86 184.5q0 57 16.5 117.5t35.5 119t35.5 111t16.5 91.5q0 51 -49 87.5t-176 36.5h-72z" />
<glyph unicode="|" horiz-adv-x="567" d="M10 -408l463 1848l109 -17l-463 -1845z" />
<glyph unicode="}" horiz-adv-x="794" d="M-205 -313l25 92q94 0 155.5 18.5t98.5 55.5q51 51 68.5 133t29.5 172t33.5 175t81.5 144q45 45 103.5 68.5t135.5 34.5l2 6q-203 37 -202 192q0 45 14 98.5t31.5 109.5t32 110.5t14.5 99.5q0 31 -9.5 58.5t-34 52t-66.5 44t-105 31.5l24 95q174 -29 260 -97.5t86 -185.5 q0 -57 -16 -118.5t-35.5 -120t-36 -109.5t-16.5 -90q0 -53 49 -89t176 -36h72l-25 -99h-61q-86 0 -148.5 -18t-107.5 -63q-57 -57 -72.5 -141.5t-25 -175.5t-28.5 -179t-87 -156q-63 -63 -164.5 -93t-251.5 -19z" />
<glyph unicode="~" horiz-adv-x="759" d="M92 516q49 131 102.5 191.5t124.5 60.5q45 0 79 -19.5t61.5 -42t52.5 -42t51 -19.5q39 0 65.5 35t57.5 98h80q-49 -131 -102.5 -191.5t-126.5 -60.5q-45 0 -79 19.5t-61.5 42t-51 42t-50.5 19.5q-37 0 -63.5 -34.5t-57.5 -98.5h-82z" />
<glyph unicode="&#xa1;" horiz-adv-x="544" d="M74 63q0 23 9 58t26.5 87t43 125t60.5 171q35 100 74 217t84 264l65 -14q-29 -139 -50 -274.5t-39.5 -254t-34 -214t-29.5 -154.5q-27 -104 -111 -105q-47 0 -72.5 25.5t-25.5 68.5zM365 1260q0 47 31.5 88t84.5 41q43 0 73 -31t30 -82q0 -47 -31 -88t-84 -41 q-45 0 -74.5 30.5t-29.5 82.5z" />
<glyph unicode="&#xa2;" horiz-adv-x="929" d="M74 348q0 104 38 205.5t103.5 182.5t156.5 135.5t195 64.5l43 176l88 -16l-39 -162q117 -10 182.5 -70.5t65.5 -140.5q0 -53 -28.5 -98t-81.5 -45q-41 0 -68 24.5t-27 65.5q0 70 66 125q-37 53 -131 59l-195 -770h13q86 0 156.5 48t138.5 167l65 -39 q-33 -61 -70.5 -112.5t-84 -88t-104.5 -57t-132 -20.5h-8l-47 -195l-88 16l47 189q-123 29 -188.5 122t-65.5 234zM238 346q0 -100 31.5 -160.5t88.5 -85.5l187 746q-78 -18 -135.5 -74.5t-95.5 -128.5t-57 -151.5t-19 -145.5z" />
<glyph unicode="&#xa3;" horiz-adv-x="1193" d="M25 127q0 37 15 70.5t46 61.5t76 44t104 16q41 0 77 -5t71 -15q27 61 33 108.5t6 71.5q0 51 -13 105h-301l27 104h252q-8 33 -12.5 68t-4.5 75q0 111 40 201t105.5 153.5t150.5 97.5t175 34q88 0 153 -22.5t108 -58.5t64.5 -82t21.5 -95q0 -68 -38 -120t-104 -52 q-49 0 -79.5 29.5t-30.5 78.5q0 43 26.5 79t73.5 52q-23 47 -76 70t-117 23q-135 0 -214.5 -91.5t-79.5 -265.5q0 -53 5 -94t11 -80h391l-24 -104h-359q0 -61 -18.5 -136t-91.5 -176q35 -14 67.5 -29.5t63.5 -31.5q59 -31 110 -56.5t99 -25.5q61 0 100 47t80 158l78 -19 q-51 -190 -118 -268t-171 -78q-47 0 -89 12.5t-79 31t-71 42t-66 47.5q-20 14 -38 27.5t-36 26.5q-55 -94 -106.5 -139.5t-127.5 -45.5q-72 0 -118.5 42t-46.5 114zM127 131q0 -35 20.5 -52.5t55.5 -17.5q47 0 84 36t71 96q-29 14 -57.5 22t-60.5 8q-59 0 -86 -29.5 t-27 -62.5z" />
<glyph unicode="&#xa5;" horiz-adv-x="1341" d="M166 297l24 102h379l35 138h-383l25 102h329l-167 545h-166l26 104h537l-27 -104h-180l152 -527l424 527h-168l28 104h445l-27 -104h-147l-455 -545h315l-24 -102h-375l-35 -138h379l-25 -102h-378l-48 -191h246l-26 -106h-654l27 106h246l47 191h-379z" />
<glyph unicode="&#xa7;" horiz-adv-x="1015" d="M39 4q0 59 33.5 101t87.5 42q47 0 71.5 -28.5t24.5 -63.5q0 -41 -19.5 -72.5t-48.5 -48.5q8 -10 28 -25t49.5 -29.5t70.5 -24t92 -9.5q100 0 152.5 49.5t50.5 118.5q-2 61 -54.5 109.5t-160.5 112.5q-66 37 -114 69.5t-81 66.5t-48 71.5t-15 84.5q0 106 80.5 180 t222.5 99q-63 45 -98 97t-35 122q0 63 28.5 117.5t77.5 93.5t114.5 60.5t139.5 21.5q68 0 131.5 -15.5t110.5 -45t75.5 -71.5t28.5 -95q0 -57 -33.5 -99.5t-85.5 -42.5q-45 0 -69.5 30t-24.5 64q0 37 19.5 67t46.5 48q-16 23 -66.5 47.5t-136.5 24.5q-96 0 -148.5 -48 t-52.5 -118q0 -61 50.5 -113.5t152.5 -111.5q123 -72 186.5 -133.5t63.5 -151.5q0 -111 -81 -184.5t-220 -98.5q66 -45 107.5 -97t43.5 -124q2 -61 -26.5 -115.5t-77.5 -93.5t-115.5 -61.5t-142.5 -22.5q-68 0 -136.5 16.5t-123.5 47.5t-90 77t-35 105zM319 557 q0 -59 43.5 -103t118.5 -87l76 -43q111 16 164 70.5t53 127.5q0 55 -43 99.5t-121 91.5l-71 43q-111 -16 -165.5 -70.5t-54.5 -128.5z" />
<glyph unicode="&#xa8;" horiz-adv-x="659" d="M252 1225q0 49 31.5 90t83.5 41q41 0 64.5 -26.5t23.5 -69.5q0 -49 -33 -91.5t-84 -42.5q-39 0 -62.5 27t-23.5 72zM606 1225q0 49 32 90t83 41q41 0 65.5 -26.5t24.5 -69.5q0 -49 -33 -91.5t-86 -42.5q-39 0 -62.5 27t-23.5 72z" />
<glyph unicode="&#xa9;" horiz-adv-x="1611" d="M137 676q0 156 57.5 291t157 234t233.5 155.5t287 56.5q156 0 290 -56.5t233.5 -155.5t157 -234.5t57.5 -290.5q0 -158 -57.5 -293t-157 -235.5t-233.5 -157t-290 -56.5q-154 0 -287.5 56.5t-233 157t-157 235.5t-57.5 293zM217 676q0 -141 51 -264t139.5 -213 t208 -142.5t256.5 -52.5q139 0 259 52.5t209.5 142.5t139.5 213t50 264q0 139 -50 261t-139.5 212t-209 142t-259.5 52q-137 0 -256.5 -52t-208 -142t-139.5 -212t-51 -261zM526 684q0 82 29 152.5t77 122t112.5 81t136.5 29.5t123 -24.5t86 -65.5l22 88h72v-279h-64 q-35 100 -90 154.5t-143 54.5q-106 0 -170 -78.5t-64 -228.5q0 -156 62.5 -238.5t179.5 -82.5q100 0 156.5 63.5t70.5 169.5h74q-16 -147 -101 -228t-218 -81q-78 0 -141.5 28.5t-110.5 81t-73 124t-26 157.5z" />
<glyph unicode="&#xaa;" horiz-adv-x="819" d="M178 854q0 111 42 203t106 155q51 51 109.5 81t113.5 30q57 0 92 -34t45 -93l33 119h117l-117 -432q-12 -45 -17.5 -73t-5.5 -46q0 -16 6.5 -31.5t26.5 -15.5q29 0 57.5 45t57.5 123l57 -19q-25 -72 -49.5 -116.5t-50 -71.5t-51 -37t-52.5 -10q-45 0 -75.5 29.5 t-30.5 89.5q0 8 1 16t1 14l-10 4q-41 -70 -99.5 -111.5t-124.5 -41.5q-82 0 -132 60.5t-50 162.5zM301 866q0 -72 27.5 -108.5t74.5 -36.5q49 0 95.5 42t80 102.5t54 129t20.5 123.5q0 23 -5 46.5t-16 42t-30.5 30.5t-48.5 12q-51 0 -97 -37.5t-80 -95t-54.5 -125 t-20.5 -125.5z" />
<glyph unicode="&#xab;" horiz-adv-x="1007" d="M86 461q0 16 15.5 33.5t62.5 56.5l381 303l51 -51l-346 -352l172 -345l-72 -40l-227 321q-20 29 -28.5 44t-8.5 30zM483 461q0 16 14.5 33.5t61.5 56.5l383 303l51 -51l-346 -352l172 -345l-71 -40l-230 321q-20 29 -27.5 44t-7.5 30z" />
<glyph unicode="&#xad;" horiz-adv-x="745" d="M106 430l33 133h520l-34 -133h-519z" />
<glyph unicode="&#xae;" horiz-adv-x="1058" d="M209 963q0 98 35 180t95 142.5t143 94t180 33.5q96 0 179 -33.5t144.5 -94t96 -142.5t34.5 -180t-34.5 -181.5t-96 -143.5t-144.5 -95t-179 -35t-179.5 35t-143.5 95t-95 143t-35 182zM274 963q0 -88 28 -162t78 -126t122 -81t160 -29t159.5 29t121.5 81t78 125.5 t28 162.5q0 88 -28 159.5t-78 123.5t-121.5 81t-159.5 29t-160 -29t-122 -81t-78 -123.5t-28 -159.5zM444 735v47h74v371h-74v49h236q53 0 88 -11t56.5 -28.5t29.5 -39t8 -44.5q0 -37 -29.5 -69.5t-101.5 -42.5v-6q59 -10 82 -36t27 -65l4 -47q2 -35 22 -35q10 0 16.5 7.5 t16.5 29.5l31 -12q-10 -35 -30.5 -56.5t-53.5 -21.5q-39 0 -61.5 21.5t-26.5 74.5l-2 45q-2 37 -18.5 55.5t-63.5 18.5h-76v-158h74v-47h-228zM598 985h74q100 0 100 88q0 80 -94 80h-80v-168z" />
<glyph unicode="&#xaf;" horiz-adv-x="657" d="M242 1118l32 127h514l-32 -127h-514z" />
<glyph unicode="&#xb0;" horiz-adv-x="794" d="M217 989q0 74 26.5 141.5t74 120t113 84t144.5 31.5q70 0 123.5 -22.5t88 -60.5t53 -87t18.5 -104q0 -74 -25.5 -141.5t-72.5 -120t-112.5 -84t-145.5 -31.5q-70 0 -123 22.5t-89 60.5t-54.5 87t-18.5 104zM342 983q0 -86 45 -131t119 -45q51 0 94 24.5t72.5 64.5t46 93 t16.5 109q0 86 -45 131t-119 45q-53 0 -95 -24.5t-71.5 -64.5t-46 -93.5t-16.5 -108.5z" />
<glyph unicode="&#xb1;" horiz-adv-x="1103" d="M74 59l22 95h760l-22 -95h-760zM229 664l21 90h328l84 333h98l-82 -333h326l-23 -90h-326l-84 -338h-100l84 338h-326z" />
<glyph unicode="&#xb4;" horiz-adv-x="487" d="M272 1079l166 258q49 78 80 111t70 33q31 0 51 -22.5t20 -51.5q0 -37 -26.5 -67.5t-89.5 -88.5l-189 -172h-82z" />
<glyph unicode="&#xb6;" horiz-adv-x="1302" d="M193 715q0 100 35.5 194.5t115.5 168t206 118.5t306 45h565l-24 -104h-191l-338 -1350h-112l338 1350h-160l-338 -1350h-113l140 561q-113 8 -194 40t-133 81t-77.5 111.5t-25.5 134.5z" />
<glyph unicode="&#xb7;" horiz-adv-x="438" d="M158 651q0 47 30.5 88t83.5 41q45 0 75 -30.5t30 -81.5q0 -47 -32 -88t-85 -41q-43 0 -72.5 30.5t-29.5 81.5z" />
<glyph unicode="&#xb8;" horiz-adv-x="577" d="M-178 -401l49 61q39 -29 77 -46t87 -17q45 0 77.5 24.5t32.5 71.5q0 31 -18 49t-47 26.5t-62.5 9.5t-62.5 -1l-21 41l236 196h109l-189 -153v-6q76 -10 124 -48t48 -104q0 -78 -59.5 -133t-161.5 -55q-57 0 -114.5 20.5t-104.5 63.5z" />
<glyph unicode="&#xba;" horiz-adv-x="780" d="M199 907q0 82 27.5 158t75.5 133t113.5 91t141.5 34q123 0 190.5 -78t67.5 -198q0 -84 -27.5 -159t-75.5 -132.5t-114 -91t-141 -33.5q-123 0 -190.5 77.5t-67.5 198.5zM319 864q0 -92 38 -130t94 -38q61 0 106 40t76 99.5t46 128.5t15 126q0 92 -38 129.5t-93 37.5 q-59 0 -105 -39.5t-77 -99t-46.5 -128t-15.5 -126.5z" />
<glyph unicode="&#xbb;" horiz-adv-x="1007" d="M12 115l346 352l-172 344l72 41l229 -322q20 -29 27.5 -44t7.5 -29q0 -16 -14 -33.5t-62 -56.5l-383 -304zM410 115l346 352l-172 344l71 41l228 -322q20 -29 28.5 -44t8.5 -29q0 -16 -15.5 -33.5t-62.5 -56.5l-381 -304z" />
<glyph unicode="&#xbf;" horiz-adv-x="858" d="M8 264q0 70 26.5 123t75 96t114 79t145.5 73q115 51 175 89t58 99q0 39 -25.5 60.5t-64.5 21.5q-47 0 -88 -23.5t-92 -84.5l-58 41q55 82 124 119.5t143 37.5q90 0 147 -50t57 -136q0 -92 -70.5 -154.5t-203.5 -126.5q-72 -35 -126 -65.5t-91 -63t-55.5 -72.5t-18.5 -91 q0 -33 10.5 -65t35 -56.5t64.5 -40t99 -15.5q72 0 118 20.5t73 45.5q-47 41 -48 98q0 53 32 91t85 38q47 0 79 -32.5t32 -86.5q0 -49 -29 -97t-79 -85t-120.5 -59.5t-154.5 -22.5q-96 0 -165 25.5t-115 67.5t-67.5 94.5t-21.5 107.5zM537 1260q0 47 31.5 88t84.5 41 q45 0 75 -31t30 -82q0 -47 -32 -88t-85 -41q-45 0 -74.5 30.5t-29.5 82.5z" />
<glyph unicode="&#xc0;" horiz-adv-x="1359" d="M-111 0l27 106h143l766 1240h150l143 -1240h172l-24 -106h-559l26 106h211l-41 375h-481l-223 -375h180l-27 -106h-463zM479 578h414l-59 581h-7zM739 1833q0 35 21.5 56.5t52.5 21.5q53 0 71.5 -45t30.5 -123l37 -234h-71l-82 166q-29 57 -44.5 93t-15.5 65z" />
<glyph unicode="&#xc1;" horiz-adv-x="1359" d="M-111 0l27 106h143l766 1240h150l143 -1240h172l-24 -106h-559l26 106h211l-41 375h-481l-223 -375h180l-27 -106h-463zM479 578h414l-59 581h-7zM864 1509l166 258q49 78 80 111t70 33q31 0 51 -22.5t20 -51.5q0 -37 -26.5 -67.5t-89.5 -88.5l-189 -172h-82z" />
<glyph unicode="&#xc2;" horiz-adv-x="1359" d="M-111 0l27 106h143l766 1240h150l143 -1240h172l-24 -106h-559l26 106h211l-41 375h-481l-223 -375h180l-27 -106h-463zM479 578h414l-59 581h-7zM662 1511l315 371h76l129 -371h-76l-121 209l-237 -209h-86z" />
<glyph unicode="&#xc3;" horiz-adv-x="1359" d="M-111 0l27 106h143l766 1240h150l143 -1240h172l-24 -106h-559l26 106h211l-41 375h-481l-223 -375h180l-27 -106h-463zM479 578h414l-59 581h-7zM643 1522q45 131 96.5 192.5t124.5 61.5q45 0 80 -19.5t62.5 -43t52 -43t51.5 -19.5q37 0 62.5 33.5t54.5 99.5h80 q-43 -133 -95.5 -193.5t-126.5 -60.5q-45 0 -78.5 19.5t-61 43t-53 43t-52.5 19.5q-37 0 -62.5 -34t-54.5 -99h-80z" />
<glyph unicode="&#xc4;" horiz-adv-x="1359" d="M-111 0l27 106h143l766 1240h150l143 -1240h172l-24 -106h-559l26 106h211l-41 375h-481l-223 -375h180l-27 -106h-463zM479 578h414l-59 581h-7zM690 1655q0 49 32 90t83 41q41 0 64.5 -26.5t23.5 -69.5q0 -49 -33 -91.5t-84 -42.5q-39 0 -62.5 27t-23.5 72zM1044 1655 q0 49 32 90t83 41q41 0 65.5 -26.5t24.5 -69.5q0 -49 -32.5 -91.5t-86.5 -42.5q-39 0 -62.5 27t-23.5 72z" />
<glyph unicode="&#xc5;" horiz-adv-x="1359" d="M-111 0l27 106h143l764 1237q-43 23 -68.5 63t-25.5 95q0 45 16.5 88t47 76t74.5 52.5t98 19.5q84 0 136 -48t52 -128q0 -78 -46 -143.5t-132 -84.5l143 -1227h172l-24 -106h-559l26 106h211l-41 375h-481l-223 -375h180l-27 -106h-463zM479 578h414l-59 581h-7z M821 1497q0 -49 26.5 -77.5t76.5 -28.5q33 0 58.5 16t42.5 41t26.5 55.5t9.5 61.5q0 49 -26.5 77.5t-76.5 28.5q-33 0 -58.5 -16.5t-42.5 -41t-26.5 -55t-9.5 -61.5z" />
<glyph unicode="&#xc6;" horiz-adv-x="1951" d="M-150 0l25 106h156l932 1125h-205l24 104h1252l-105 -417h-80q4 102 3 164.5t-14 95t-42 43t-80 10.5h-428l-123 -498h176q45 0 75 6t53.5 27.5t43 61.5t48.5 110h86l-127 -510h-82q6 72 7 115t-10.5 64.5t-36 27.5t-69.5 6h-186l-133 -535h422q57 0 95 12.5t70.5 50.5 t67.5 107.5t84 182.5h84l-115 -459h-1132l24 106h226l98 396h-430l-324 -396h185l-25 -106h-490zM582 598h374l160 639h-12z" />
<glyph unicode="&#xc7;" horiz-adv-x="1349" d="M141 512q0 168 57.5 322.5t158 273.5t235.5 189.5t291 70.5q248 0 364 -166l78 160h109l-123 -500h-94q-6 111 -33 186.5t-72 122t-104.5 66.5t-130.5 20q-135 0 -238.5 -70.5t-172.5 -179t-104.5 -240.5t-35.5 -257q0 -205 95 -315.5t261 -110.5q90 0 163 35t131 94 t104 137t85 164l99 -41q-39 -96 -90.5 -184t-120 -155.5t-154.5 -110.5t-192 -52l-136 -110v-6q76 -10 124 -48t48 -104q0 -78 -59 -133t-162 -55q-57 0 -114.5 20.5t-104.5 63.5l49 61q39 -29 77 -46t87 -17q45 0 78 24.5t33 71.5q0 31 -18.5 49t-47.5 26.5t-62.5 9.5 t-62.5 -1l-20 41l184 155q-117 8 -204 54.5t-143 118t-84 166t-28 200.5z" />
<glyph unicode="&#xc8;" horiz-adv-x="1320" d="M-45 0l25 106h225l278 1125h-227l27 104h1120l-103 -417h-81q4 102 3 164.5t-14.5 95t-42 43t-80.5 10.5h-428l-122 -498h176q45 0 74.5 6t53 27.5t44 61.5t49.5 110h84l-127 -510h-82q8 72 9 115t-10 64.5t-37 27.5t-71 6h-186l-133 -535h422q57 0 95 12.5t70.5 50.5 t67.5 107.5t84 182.5h84l-112 -459h-1135zM752 1833q0 35 21.5 56.5t51.5 21.5q53 0 71.5 -45t31.5 -123l37 -234h-72l-82 166q-29 57 -44 93t-15 65z" />
<glyph unicode="&#xc9;" horiz-adv-x="1320" d="M-45 0l25 106h225l278 1125h-227l27 104h1120l-103 -417h-81q4 102 3 164.5t-14.5 95t-42 43t-80.5 10.5h-428l-122 -498h176q45 0 74.5 6t53 27.5t44 61.5t49.5 110h84l-127 -510h-82q8 72 9 115t-10 64.5t-37 27.5t-71 6h-186l-133 -535h422q57 0 95 12.5t70.5 50.5 t67.5 107.5t84 182.5h84l-112 -459h-1135zM877 1509l165 258q49 78 80 111t70 33q31 0 51.5 -22.5t20.5 -51.5q0 -37 -27 -67.5t-90 -88.5l-189 -172h-81z" />
<glyph unicode="&#xca;" horiz-adv-x="1320" d="M-45 0l25 106h225l278 1125h-227l27 104h1120l-103 -417h-81q4 102 3 164.5t-14.5 95t-42 43t-80.5 10.5h-428l-122 -498h176q45 0 74.5 6t53 27.5t44 61.5t49.5 110h84l-127 -510h-82q8 72 9 115t-10 64.5t-37 27.5t-71 6h-186l-133 -535h422q57 0 95 12.5t70.5 50.5 t67.5 107.5t84 182.5h84l-112 -459h-1135zM672 1511l315 371h76l129 -371h-76l-121 209l-237 -209h-86z" />
<glyph unicode="&#xcb;" horiz-adv-x="1320" d="M-45 0l25 106h225l278 1125h-227l27 104h1120l-103 -417h-81q4 102 3 164.5t-14.5 95t-42 43t-80.5 10.5h-428l-122 -498h176q45 0 74.5 6t53 27.5t44 61.5t49.5 110h84l-127 -510h-82q8 72 9 115t-10 64.5t-37 27.5t-71 6h-186l-133 -535h422q57 0 95 12.5t70.5 50.5 t67.5 107.5t84 182.5h84l-112 -459h-1135zM700 1655q0 49 32 90t83 41q41 0 64.5 -26.5t23.5 -69.5q0 -49 -32.5 -91.5t-84.5 -42.5q-39 0 -62.5 27t-23.5 72zM1055 1655q0 49 31.5 90t82.5 41q41 0 66 -26.5t25 -69.5q0 -49 -33 -91.5t-86 -42.5q-39 0 -62.5 27t-23.5 72z " />
<glyph unicode="&#xcc;" horiz-adv-x="786" d="M-31 0l25 106h225l279 1125h-228l25 104h627l-27 -104h-223l-281 -1125h230l-25 -106h-627zM453 1833q0 35 21.5 56.5t51.5 21.5q53 0 71.5 -45t31.5 -123l37 -234h-72l-82 166q-29 57 -44 93t-15 65z" />
<glyph unicode="&#xcd;" horiz-adv-x="786" d="M-31 0l25 106h225l279 1125h-228l25 104h627l-27 -104h-223l-281 -1125h230l-25 -106h-627zM580 1509l165 258q49 78 80 111t70 33q31 0 51.5 -22.5t20.5 -51.5q0 -37 -27 -67.5t-90 -88.5l-188 -172h-82z" />
<glyph unicode="&#xce;" horiz-adv-x="786" d="M-31 0l25 106h225l279 1125h-228l25 104h627l-27 -104h-223l-281 -1125h230l-25 -106h-627zM375 1511l315 371h76l129 -371h-76l-121 209l-237 -209h-86z" />
<glyph unicode="&#xcf;" horiz-adv-x="786" d="M-31 0l25 106h225l279 1125h-228l25 104h627l-27 -104h-223l-281 -1125h230l-25 -106h-627zM403 1655q0 49 32 90t83 41q41 0 64.5 -26.5t23.5 -69.5q0 -49 -32.5 -91.5t-84.5 -42.5q-39 0 -62.5 27t-23.5 72zM758 1655q0 49 31.5 90t82.5 41q41 0 66 -26.5t25 -69.5 q0 -49 -33 -91.5t-86 -42.5q-39 0 -62.5 27t-23.5 72z" />
<glyph unicode="&#xd0;" horiz-adv-x="1413" d="M-45 0l25 106h225l133 541h-225l28 105h224l118 479h-225l25 104h508q156 0 270.5 -37.5t190 -106.5t112.5 -162t37 -204q0 -154 -61.5 -309.5t-184.5 -273.5q-111 -111 -272.5 -176.5t-405.5 -65.5h-522zM377 106h98q168 0 292 37t216 129q53 53 95 122t72 145.5 t45 159.5t15 163q0 180 -105.5 274.5t-328.5 94.5h-119l-120 -479h288l-26 -105h-287z" />
<glyph unicode="&#xd1;" horiz-adv-x="1538" d="M-39 0l25 106h209l278 1125h-211l25 104h389l444 -1042h10l232 938h-201l27 104h522l-27 -104h-200l-316 -1264h-98l-489 1163h-11l-256 -1024h199l-25 -106h-526zM719 1522q45 131 96 192.5t125 61.5q45 0 80 -19.5t62.5 -43t52 -43t51.5 -19.5q37 0 62.5 33.5 t54.5 99.5h79q-43 -133 -95 -193.5t-126 -60.5q-45 0 -78.5 19.5t-61.5 43t-53.5 43t-52.5 19.5q-37 0 -62.5 -34t-53.5 -99h-80z" />
<glyph unicode="&#xd2;" horiz-adv-x="1425" d="M143 539q0 160 55.5 308t151.5 264t227.5 185.5t284.5 69.5q117 0 214.5 -41t166 -115.5t107.5 -180t39 -232.5q0 -160 -54.5 -309.5t-152 -265.5t-228.5 -185.5t-284 -69.5q-117 0 -214.5 41t-166 117t-107.5 181.5t-39 232.5zM326 494q0 -109 26.5 -188t72.5 -130 t110.5 -75.5t142.5 -24.5q92 0 168 35.5t134 96t101 139.5t71 164t41 170t13 159q0 111 -26.5 189.5t-72.5 129.5t-111.5 76t-141.5 25q-92 0 -167 -37t-134 -97.5t-101 -139.5t-71 -164t-42 -170t-13 -158zM754 1833q0 35 21.5 56.5t51.5 21.5q53 0 72 -45t31 -123l37 -234 h-72l-82 166q-29 57 -44 93t-15 65z" />
<glyph unicode="&#xd3;" horiz-adv-x="1425" d="M143 539q0 160 55.5 308t151.5 264t227.5 185.5t284.5 69.5q117 0 214.5 -41t166 -115.5t107.5 -180t39 -232.5q0 -160 -54.5 -309.5t-152 -265.5t-228.5 -185.5t-284 -69.5q-117 0 -214.5 41t-166 117t-107.5 181.5t-39 232.5zM326 494q0 -109 26.5 -188t72.5 -130 t110.5 -75.5t142.5 -24.5q92 0 168 35.5t134 96t101 139.5t71 164t41 170t13 159q0 111 -26.5 189.5t-72.5 129.5t-111.5 76t-141.5 25q-92 0 -167 -37t-134 -97.5t-101 -139.5t-71 -164t-42 -170t-13 -158zM881 1509l166 258q49 78 79.5 111t69.5 33q31 0 51.5 -22.5 t20.5 -51.5q0 -37 -27 -67.5t-90 -88.5l-188 -172h-82z" />
<glyph unicode="&#xd4;" horiz-adv-x="1425" d="M143 539q0 160 55.5 308t151.5 264t227.5 185.5t284.5 69.5q117 0 214.5 -41t166 -115.5t107.5 -180t39 -232.5q0 -160 -54.5 -309.5t-152 -265.5t-228.5 -185.5t-284 -69.5q-117 0 -214.5 41t-166 117t-107.5 181.5t-39 232.5zM326 494q0 -109 26.5 -188t72.5 -130 t110.5 -75.5t142.5 -24.5q92 0 168 35.5t134 96t101 139.5t71 164t41 170t13 159q0 111 -26.5 189.5t-72.5 129.5t-111.5 76t-141.5 25q-92 0 -167 -37t-134 -97.5t-101 -139.5t-71 -164t-42 -170t-13 -158zM676 1511l315 371h76l129 -371h-76l-121 209l-237 -209h-86z" />
<glyph unicode="&#xd5;" horiz-adv-x="1425" d="M143 539q0 160 55.5 308t151.5 264t227.5 185.5t284.5 69.5q117 0 214.5 -41t166 -115.5t107.5 -180t39 -232.5q0 -160 -54.5 -309.5t-152 -265.5t-228.5 -185.5t-284 -69.5q-117 0 -214.5 41t-166 117t-107.5 181.5t-39 232.5zM326 494q0 -109 26.5 -188t72.5 -130 t110.5 -75.5t142.5 -24.5q92 0 168 35.5t134 96t101 139.5t71 164t41 170t13 159q0 111 -26.5 189.5t-72.5 129.5t-111.5 76t-141.5 25q-92 0 -167 -37t-134 -97.5t-101 -139.5t-71 -164t-42 -170t-13 -158zM657 1522q45 131 96.5 192.5t125.5 61.5q45 0 79.5 -19.5 t62.5 -43t52.5 -43t50.5 -19.5q37 0 62.5 33.5t54.5 99.5h80q-43 -133 -95 -193.5t-126 -60.5q-45 0 -79 19.5t-61.5 43t-53 43t-52.5 19.5q-37 0 -62.5 -34t-54.5 -99h-80z" />
<glyph unicode="&#xd6;" horiz-adv-x="1425" d="M143 539q0 160 55.5 308t151.5 264t227.5 185.5t284.5 69.5q117 0 214.5 -41t166 -115.5t107.5 -180t39 -232.5q0 -160 -54.5 -309.5t-152 -265.5t-228.5 -185.5t-284 -69.5q-117 0 -214.5 41t-166 117t-107.5 181.5t-39 232.5zM326 494q0 -109 26.5 -188t72.5 -130 t110.5 -75.5t142.5 -24.5q92 0 168 35.5t134 96t101 139.5t71 164t41 170t13 159q0 111 -26.5 189.5t-72.5 129.5t-111.5 76t-141.5 25q-92 0 -167 -37t-134 -97.5t-101 -139.5t-71 -164t-42 -170t-13 -158zM705 1655q0 49 31.5 90t82.5 41q41 0 64.5 -26.5t23.5 -69.5 q0 -49 -32.5 -91.5t-83.5 -42.5q-39 0 -62.5 27t-23.5 72zM1059 1655q0 49 31.5 90t83.5 41q41 0 65.5 -26.5t24.5 -69.5q0 -49 -33 -91.5t-86 -42.5q-39 0 -62.5 27t-23.5 72z" />
<glyph unicode="&#xd7;" horiz-adv-x="1048" d="M119 272l368 303l-219 304l84 67l219 -305l367 303l59 -78l-368 -303l221 -305l-84 -65l-221 305l-365 -303z" />
<glyph unicode="&#xd8;" horiz-adv-x="1425" d="M27 -29l211 222q-95 141 -95 346q0 160 55.5 308t151.5 264t227.5 185.5t284.5 69.5q113 0 207 -38t164 -109l199 208l73 -65l-211 -219q45 -72 70 -158t25 -188q0 -160 -54.5 -309.5t-152 -265.5t-228.5 -185.5t-284 -69.5q-115 0 -209 39t-164 111l-197 -209zM326 494 q0 -113 28 -195l783 821q-47 72 -120 106t-163 34q-92 0 -167 -37t-134 -97.5t-101 -139.5t-71 -164t-42 -170t-13 -158zM395 213q47 -72 119 -104.5t164 -32.5t168 35.5t134 96t101 139.5t71 164t41 170t13 159q0 111 -28 192z" />
<glyph unicode="&#xd9;" horiz-adv-x="1478" d="M227 319q0 78 27 191l178 721h-196l26 104h569l-24 -104h-201l-172 -694q-18 -72 -24.5 -122t-6.5 -85q0 -119 83 -181.5t231 -62.5q74 0 145.5 23.5t128.5 80.5q45 45 78 108.5t55 152.5l193 780h-203l25 104h510l-27 -104h-184l-207 -830q-20 -80 -56 -152.5 t-98 -133.5q-70 -72 -167 -110t-222 -38q-115 0 -201 26.5t-144 75t-87 113t-29 137.5zM791 1833q0 35 21.5 56.5t51.5 21.5q53 0 71.5 -45t31.5 -123l37 -234h-72l-82 166q-29 57 -44 93t-15 65z" />
<glyph unicode="&#xda;" horiz-adv-x="1478" d="M227 319q0 78 27 191l178 721h-196l26 104h569l-24 -104h-201l-172 -694q-18 -72 -24.5 -122t-6.5 -85q0 -119 83 -181.5t231 -62.5q74 0 145.5 23.5t128.5 80.5q45 45 78 108.5t55 152.5l193 780h-203l25 104h510l-27 -104h-184l-207 -830q-20 -80 -56 -152.5 t-98 -133.5q-70 -72 -167 -110t-222 -38q-115 0 -201 26.5t-144 75t-87 113t-29 137.5zM915 1509l166 258q49 78 80 111t70 33q31 0 51.5 -22.5t20.5 -51.5q0 -37 -27 -67.5t-90 -88.5l-189 -172h-82z" />
<glyph unicode="&#xdb;" horiz-adv-x="1478" d="M227 319q0 78 27 191l178 721h-196l26 104h569l-24 -104h-201l-172 -694q-18 -72 -24.5 -122t-6.5 -85q0 -119 83 -181.5t231 -62.5q74 0 145.5 23.5t128.5 80.5q45 45 78 108.5t55 152.5l193 780h-203l25 104h510l-27 -104h-184l-207 -830q-20 -80 -56 -152.5 t-98 -133.5q-70 -72 -167 -110t-222 -38q-115 0 -201 26.5t-144 75t-87 113t-29 137.5zM713 1511l315 371h76l129 -371h-76l-121 209l-237 -209h-86z" />
<glyph unicode="&#xdc;" horiz-adv-x="1478" d="M227 319q0 78 27 191l178 721h-196l26 104h569l-24 -104h-201l-172 -694q-18 -72 -24.5 -122t-6.5 -85q0 -119 83 -181.5t231 -62.5q74 0 145.5 23.5t128.5 80.5q45 45 78 108.5t55 152.5l193 780h-203l25 104h510l-27 -104h-184l-207 -830q-20 -80 -56 -152.5 t-98 -133.5q-70 -72 -167 -110t-222 -38q-115 0 -201 26.5t-144 75t-87 113t-29 137.5zM739 1655q0 49 32 90t83 41q41 0 64.5 -26.5t23.5 -69.5q0 -49 -32.5 -91.5t-84.5 -42.5q-39 0 -62.5 27t-23.5 72zM1094 1655q0 49 31.5 90t82.5 41q41 0 65.5 -26.5t24.5 -69.5 q0 -49 -32.5 -91.5t-85.5 -42.5q-39 0 -62.5 27t-23.5 72z" />
<glyph unicode="&#xdd;" horiz-adv-x="1306" d="M236 1231l26 104h539l-27 -104h-186l157 -561l453 561h-166l25 104h452l-24 -104h-154l-565 -680l-115 -445h211l-26 -106h-586l24 106h203l121 472l-197 653h-165zM858 1509l166 258q49 78 80 111t70 33q31 0 51 -22.5t20 -51.5q0 -37 -26.5 -67.5t-90.5 -88.5 l-188 -172h-82z" />
<glyph unicode="&#xde;" horiz-adv-x="1224" d="M-45 0l25 106h225l278 1125h-227l27 104h620l-26 -104h-220l-39 -154h146q127 0 215 -24.5t143.5 -67.5t80 -101.5t24.5 -125.5q0 -86 -36 -166t-111.5 -140.5t-192.5 -96.5t-277 -36h-178l-53 -213h221l-25 -106h-620zM457 422h176q109 0 185.5 27.5t124.5 75.5 t69.5 110.5t21.5 132.5q0 47 -13 85t-46 65.5t-89.5 42t-140.5 14.5h-151z" />
<glyph unicode="&#xdf;" horiz-adv-x="1110" d="M-188 -221q0 45 28.5 80t75.5 35q41 0 61.5 -26t20.5 -54q0 -47 -27 -78q27 0 47.5 13t39 51t38 109t43.5 187l154 719h-203l25 90h194q29 135 76 231.5t108.5 160t133 93t149.5 29.5q66 0 122 -17.5t98 -50t65.5 -78.5t23.5 -102q0 -98 -56 -167.5t-148 -124.5 q-90 -53 -123 -90t-33 -78q0 -18 6 -35t22.5 -35t44 -43t70.5 -59q72 -59 117 -120t45 -145q0 -63 -24.5 -116.5t-68.5 -92t-103.5 -61t-128.5 -22.5q-53 0 -103.5 11t-88.5 33.5t-60.5 56.5t-22.5 79q0 49 31 89t84 40q41 0 64.5 -25.5t23.5 -64.5q0 -33 -14.5 -57.5 t-36.5 -41.5q23 -18 55.5 -26t69.5 -8q84 0 130 45t46 112q0 47 -31 92t-102 107q-78 68 -124 117t-46 116q0 37 10 67t32.5 57.5t56.5 56t81 63.5q90 68 130 128.5t40 144.5q0 76 -47 119.5t-119 43.5q-59 0 -104.5 -24.5t-79 -70.5t-57 -113.5t-42.5 -153.5l-174 -821 q-31 -139 -69.5 -233.5t-85 -151t-97.5 -80t-104 -23.5q-72 0 -105.5 34t-33.5 79z" />
<glyph unicode="&#xe0;" d="M68 291q0 152 56 283t144 219q66 66 141.5 105.5t151.5 39.5t125 -46t66 -132l45 166h155l-161 -594q-16 -63 -23.5 -101t-7.5 -67q0 -20 9 -41t40 -21q41 0 78 60.5t78 167.5l69 -23q-33 -96 -65.5 -158.5t-65.5 -99.5t-67.5 -52t-69.5 -15q-59 0 -100 39.5t-41 125.5 q0 14 1 27.5t3 24.5l-15 6q-63 -109 -140 -166t-163 -57q-109 0 -176 84t-67 225zM229 303q0 -100 37 -151.5t103 -51.5q68 0 129 58.5t108 142.5t75 177t28 165q0 37 -8.5 73t-25 64.5t-43 47t-65.5 18.5q-70 0 -131 -54.5t-107 -136.5t-73 -176t-27 -176zM457 1403 q0 35 21.5 56.5t51.5 21.5q53 0 72 -45t31 -123l37 -234h-72l-82 166q-29 57 -44 93t-15 65z" />
<glyph unicode="&#xe1;" d="M68 291q0 152 56 283t144 219q66 66 141.5 105.5t151.5 39.5t125 -46t66 -132l45 166h155l-161 -594q-16 -63 -23.5 -101t-7.5 -67q0 -20 9 -41t40 -21q41 0 78 60.5t78 167.5l69 -23q-33 -96 -65.5 -158.5t-65.5 -99.5t-67.5 -52t-69.5 -15q-59 0 -100 39.5t-41 125.5 q0 14 1 27.5t3 24.5l-15 6q-63 -109 -140 -166t-163 -57q-109 0 -176 84t-67 225zM229 303q0 -100 37 -151.5t103 -51.5q68 0 129 58.5t108 142.5t75 177t28 165q0 37 -8.5 73t-25 64.5t-43 47t-65.5 18.5q-70 0 -131 -54.5t-107 -136.5t-73 -176t-27 -176zM582 1079 l166 258q49 78 79.5 111t69.5 33q31 0 51.5 -22.5t20.5 -51.5q0 -37 -27 -67.5t-90 -88.5l-188 -172h-82z" />
<glyph unicode="&#xe2;" d="M68 291q0 152 56 283t144 219q66 66 141.5 105.5t151.5 39.5t125 -46t66 -132l45 166h155l-161 -594q-16 -63 -23.5 -101t-7.5 -67q0 -20 9 -41t40 -21q41 0 78 60.5t78 167.5l69 -23q-33 -96 -65.5 -158.5t-65.5 -99.5t-67.5 -52t-69.5 -15q-59 0 -100 39.5t-41 125.5 q0 14 1 27.5t3 24.5l-15 6q-63 -109 -140 -166t-163 -57q-109 0 -176 84t-67 225zM229 303q0 -100 37 -151.5t103 -51.5q68 0 129 58.5t108 142.5t75 177t28 165q0 37 -8.5 73t-25 64.5t-43 47t-65.5 18.5q-70 0 -131 -54.5t-107 -136.5t-73 -176t-27 -176zM377 1081 l315 371h76l129 -371h-76l-121 209l-237 -209h-86z" />
<glyph unicode="&#xe3;" d="M68 291q0 152 56 283t144 219q66 66 141.5 105.5t151.5 39.5t125 -46t66 -132l45 166h155l-161 -594q-16 -63 -23.5 -101t-7.5 -67q0 -20 9 -41t40 -21q41 0 78 60.5t78 167.5l69 -23q-33 -96 -65.5 -158.5t-65.5 -99.5t-67.5 -52t-69.5 -15q-59 0 -100 39.5t-41 125.5 q0 14 1 27.5t3 24.5l-15 6q-63 -109 -140 -166t-163 -57q-109 0 -176 84t-67 225zM229 303q0 -100 37 -151.5t103 -51.5q68 0 129 58.5t108 142.5t75 177t28 165q0 37 -8.5 73t-25 64.5t-43 47t-65.5 18.5q-70 0 -131 -54.5t-107 -136.5t-73 -176t-27 -176zM360 1092 q45 131 96.5 192.5t125.5 61.5q45 0 79.5 -19.5t62.5 -43t52.5 -43t50.5 -19.5q37 0 62.5 33.5t54.5 99.5h80q-43 -133 -95 -193.5t-126 -60.5q-45 0 -79 19.5t-61.5 43t-53 43t-52.5 19.5q-37 0 -62.5 -34t-54.5 -99h-80z" />
<glyph unicode="&#xe4;" d="M68 291q0 152 56 283t144 219q66 66 141.5 105.5t151.5 39.5t125 -46t66 -132l45 166h155l-161 -594q-16 -63 -23.5 -101t-7.5 -67q0 -20 9 -41t40 -21q41 0 78 60.5t78 167.5l69 -23q-33 -96 -65.5 -158.5t-65.5 -99.5t-67.5 -52t-69.5 -15q-59 0 -100 39.5t-41 125.5 q0 14 1 27.5t3 24.5l-15 6q-63 -109 -140 -166t-163 -57q-109 0 -176 84t-67 225zM229 303q0 -100 37 -151.5t103 -51.5q68 0 129 58.5t108 142.5t75 177t28 165q0 37 -8.5 73t-25 64.5t-43 47t-65.5 18.5q-70 0 -131 -54.5t-107 -136.5t-73 -176t-27 -176zM406 1225 q0 49 31.5 90t82.5 41q41 0 64.5 -26.5t23.5 -69.5q0 -49 -32.5 -91.5t-83.5 -42.5q-39 0 -62.5 27t-23.5 72zM760 1225q0 49 31.5 90t82.5 41q41 0 66 -26.5t25 -69.5q0 -49 -33 -91.5t-86 -42.5q-39 0 -62.5 27t-23.5 72z" />
<glyph unicode="&#xe5;" d="M68 291q0 152 56 283t144 219q66 66 141.5 105.5t151.5 39.5t125 -46t66 -132l45 166h155l-161 -594q-16 -63 -23.5 -101t-7.5 -67q0 -20 9 -41t40 -21q41 0 78 60.5t78 167.5l69 -23q-33 -96 -65.5 -158.5t-65.5 -99.5t-67.5 -52t-69.5 -15q-59 0 -100 39.5t-41 125.5 q0 14 1 27.5t3 24.5l-15 6q-63 -109 -140 -166t-163 -57q-109 0 -176 84t-67 225zM229 303q0 -100 37 -151.5t103 -51.5q68 0 129 58.5t108 142.5t75 177t28 165q0 37 -8.5 73t-25 64.5t-43 47t-65.5 18.5q-70 0 -131 -54.5t-107 -136.5t-73 -176t-27 -176zM494 1245 q0 45 16 88t47 76t75 52.5t97 19.5q86 0 138.5 -48t52.5 -128q0 -45 -16.5 -88t-47.5 -76t-75 -53.5t-99 -20.5q-84 0 -136 49t-52 129zM586 1241q0 -49 27.5 -77.5t74.5 -28.5q33 0 58.5 16t43 41t26.5 55.5t9 61.5q0 49 -26.5 77.5t-75.5 28.5q-33 0 -58.5 -16.5t-43 -41 t-26.5 -55t-9 -61.5z" />
<glyph unicode="&#xe6;" horiz-adv-x="1406" d="M23 197q0 76 43 136t123.5 101t196.5 65.5t259 30.5q20 70 28.5 105t8.5 59q0 76 -54.5 119t-144.5 43q-35 0 -70.5 -8t-62.5 -21q16 -14 24.5 -36.5t8.5 -45.5q0 -41 -27.5 -78.5t-89.5 -37.5q-39 0 -65.5 25.5t-26.5 72.5q0 43 23.5 81t66.5 66.5t104.5 45t139.5 16.5 q106 0 183 -42t104 -118q72 76 161 119t181 43q113 0 171 -54.5t58 -133.5q0 -135 -149.5 -236.5t-468.5 -136.5q-4 -16 -4.5 -30.5t-0.5 -29.5q0 -125 53.5 -182t139.5 -57t162 54t141 153l66 -41q-76 -113 -171.5 -187.5t-228.5 -74.5q-115 0 -184.5 53t-97.5 147 q-41 -57 -86 -94t-91.5 -59.5t-91.5 -31.5t-88 -9q-119 0 -181 58t-62 151zM195 215q0 -53 33.5 -91t99.5 -38q78 0 148.5 48t129.5 124q-2 12 -2 25.5v27.5q0 74 17 150q-121 -10 -203 -32.5t-131 -54.5t-70.5 -73t-21.5 -86zM762 453q129 18 217 47.5t141.5 68.5t76 84 t22.5 92q0 49 -30 80t-81 31q-61 0 -116.5 -36t-100.5 -94t-78 -130t-51 -143z" />
<glyph unicode="&#xe7;" horiz-adv-x="886" d="M55 -401l49 61q39 -29 77 -46t87 -17q45 0 78 24.5t33 71.5q0 31 -18.5 49t-47 26.5t-62.5 9.5t-63 -1l-20 41l197 166q-139 10 -220.5 110.5t-81.5 253.5q0 109 43.5 215.5t116 189.5t166.5 134t199 51q55 0 102 -15.5t82 -42t54.5 -63.5t19.5 -82q0 -53 -29 -98 t-82 -45q-41 0 -67.5 24.5t-26.5 65.5q0 70 68 125q-43 49 -125 49q-84 0 -149.5 -53t-112 -131t-71 -166t-24.5 -160q0 -135 57.5 -198.5t141.5 -63.5q70 0 139.5 49t134.5 166l66 -39q-53 -100 -119.5 -171t-161.5 -95l-161 -133v-6q76 -10 124 -48t48 -104 q0 -78 -59.5 -133t-162.5 -55q-57 0 -114.5 20.5t-104.5 63.5z" />
<glyph unicode="&#xe8;" horiz-adv-x="890" d="M63 326q0 117 49.5 227.5t128 196.5t178 137t202.5 51q111 0 169 -54t58 -134q0 -135 -149.5 -236.5t-467.5 -136.5q-4 -16 -4 -30.5v-29.5q0 -125 53.5 -182t139.5 -57t160.5 54t142.5 153l63 -41q-37 -55 -78.5 -103.5t-91 -84.5t-108.5 -55t-131 -19q-70 0 -127 23.5 t-99 68.5t-65 108.5t-23 143.5zM246 453q131 18 218 47.5t139 68.5t74.5 84t22.5 92q0 49 -28.5 80t-81.5 31q-61 0 -116.5 -36t-99.5 -94t-77 -130t-51 -143zM428 1403q0 35 21.5 56.5t52.5 21.5q53 0 71.5 -45t30.5 -123l37 -234h-72l-82 166q-29 57 -44 93t-15 65z" />
<glyph unicode="&#xe9;" horiz-adv-x="890" d="M63 326q0 117 49.5 227.5t128 196.5t178 137t202.5 51q111 0 169 -54t58 -134q0 -135 -149.5 -236.5t-467.5 -136.5q-4 -16 -4 -30.5v-29.5q0 -125 53.5 -182t139.5 -57t160.5 54t142.5 153l63 -41q-37 -55 -78.5 -103.5t-91 -84.5t-108.5 -55t-131 -19q-70 0 -127 23.5 t-99 68.5t-65 108.5t-23 143.5zM246 453q131 18 218 47.5t139 68.5t74.5 84t22.5 92q0 49 -28.5 80t-81.5 31q-61 0 -116.5 -36t-99.5 -94t-77 -130t-51 -143zM553 1079l166 258q49 78 79.5 111t69.5 33q31 0 51.5 -22.5t20.5 -51.5q0 -37 -26.5 -67.5t-90.5 -88.5 l-188 -172h-82z" />
<glyph unicode="&#xea;" horiz-adv-x="890" d="M63 326q0 117 49.5 227.5t128 196.5t178 137t202.5 51q111 0 169 -54t58 -134q0 -135 -149.5 -236.5t-467.5 -136.5q-4 -16 -4 -30.5v-29.5q0 -125 53.5 -182t139.5 -57t160.5 54t142.5 153l63 -41q-37 -55 -78.5 -103.5t-91 -84.5t-108.5 -55t-131 -19q-70 0 -127 23.5 t-99 68.5t-65 108.5t-23 143.5zM246 453q131 18 218 47.5t139 68.5t74.5 84t22.5 92q0 49 -28.5 80t-81.5 31q-61 0 -116.5 -36t-99.5 -94t-77 -130t-51 -143zM350 1081l316 371h75l129 -371h-75l-121 209l-238 -209h-86z" />
<glyph unicode="&#xeb;" horiz-adv-x="890" d="M63 326q0 117 49.5 227.5t128 196.5t178 137t202.5 51q111 0 169 -54t58 -134q0 -135 -149.5 -236.5t-467.5 -136.5q-4 -16 -4 -30.5v-29.5q0 -125 53.5 -182t139.5 -57t160.5 54t142.5 153l63 -41q-37 -55 -78.5 -103.5t-91 -84.5t-108.5 -55t-131 -19q-70 0 -127 23.5 t-99 68.5t-65 108.5t-23 143.5zM246 453q131 18 218 47.5t139 68.5t74.5 84t22.5 92q0 49 -28.5 80t-81.5 31q-61 0 -116.5 -36t-99.5 -94t-77 -130t-51 -143zM379 1225q0 49 31.5 90t83.5 41q41 0 64.5 -26.5t23.5 -69.5q0 -49 -33 -91.5t-84 -42.5q-39 0 -62.5 27 t-23.5 72zM733 1225q0 49 32 90t83 41q41 0 65.5 -26.5t24.5 -69.5q0 -49 -33 -91.5t-86 -42.5q-39 0 -62.5 27t-23.5 72z" />
<glyph unicode="&#xec;" horiz-adv-x="651" d="M45 633q66 141 134.5 223t158.5 82q70 0 112 -51.5t42 -145.5q0 -63 -27 -144t-59.5 -162t-59.5 -154.5t-27 -124.5q0 -20 10.5 -37t37.5 -17q39 0 76.5 57.5t80.5 170.5l70 -23q-33 -94 -65.5 -156.5t-67.5 -100.5t-70 -53t-72 -15q-68 0 -111.5 45t-41.5 131 q0 72 28.5 154.5t61.5 165.5t60.5 160t27.5 138q0 23 -8 40.5t-31 17.5q-49 0 -95 -68t-95 -164zM201 1403q0 35 21.5 56.5t51.5 21.5q53 0 72 -45t31 -123l37 -234h-72l-82 166q-29 57 -44 93t-15 65z" />
<glyph unicode="&#xed;" horiz-adv-x="651" d="M45 633q66 141 134.5 223t158.5 82q70 0 112 -51.5t42 -145.5q0 -63 -27 -144t-59.5 -162t-59.5 -154.5t-27 -124.5q0 -20 10.5 -37t37.5 -17q39 0 76.5 57.5t80.5 170.5l70 -23q-33 -94 -65.5 -156.5t-67.5 -100.5t-70 -53t-72 -15q-68 0 -111.5 45t-41.5 131 q0 72 28.5 154.5t61.5 165.5t60.5 160t27.5 138q0 23 -8 40.5t-31 17.5q-49 0 -95 -68t-95 -164zM324 1079l165 258q49 78 80 111t70 33q31 0 51.5 -22.5t20.5 -51.5q0 -37 -27 -67.5t-90 -88.5l-188 -172h-82z" />
<glyph unicode="&#xee;" horiz-adv-x="651" d="M45 633q66 141 134.5 223t158.5 82q70 0 112 -51.5t42 -145.5q0 -63 -27 -144t-59.5 -162t-59.5 -154.5t-27 -124.5q0 -20 10.5 -37t37.5 -17q39 0 76.5 57.5t80.5 170.5l70 -23q-33 -94 -65.5 -156.5t-67.5 -100.5t-70 -53t-72 -15q-68 0 -111.5 45t-41.5 131 q0 72 28.5 154.5t61.5 165.5t60.5 160t27.5 138q0 23 -8 40.5t-31 17.5q-49 0 -95 -68t-95 -164zM123 1081l315 371h76l129 -371h-76l-121 209l-237 -209h-86z" />
<glyph unicode="&#xef;" horiz-adv-x="651" d="M45 633q66 141 134.5 223t158.5 82q70 0 112 -51.5t42 -145.5q0 -63 -27 -144t-59.5 -162t-59.5 -154.5t-27 -124.5q0 -20 10.5 -37t37.5 -17q39 0 76.5 57.5t80.5 170.5l70 -23q-33 -94 -65.5 -156.5t-67.5 -100.5t-70 -53t-72 -15q-68 0 -111.5 45t-41.5 131 q0 72 28.5 154.5t61.5 165.5t60.5 160t27.5 138q0 23 -8 40.5t-31 17.5q-49 0 -95 -68t-95 -164zM150 1225q0 49 31.5 90t82.5 41q41 0 64.5 -26.5t23.5 -69.5q0 -49 -32.5 -91.5t-83.5 -42.5q-39 0 -62.5 27t-23.5 72zM504 1225q0 49 31.5 90t82.5 41q41 0 66 -26.5 t25 -69.5q0 -49 -33 -91.5t-86 -42.5q-39 0 -62.5 27t-23.5 72z" />
<glyph unicode="&#xf0;" horiz-adv-x="997" d="M68 360q0 119 41 222.5t108.5 180.5t153.5 121t178 44q100 0 156.5 -46t78.5 -106q-4 92 -23.5 179t-58.5 180l-249 -86l-27 79l242 84q-18 37 -40 74t-44 76l110 27q45 -68 86 -136l217 76l29 -82l-205 -71q51 -104 80 -221t29 -263q0 -145 -37 -275t-104.5 -226.5 t-164 -152.5t-214.5 -56q-80 0 -143.5 27.5t-107.5 78.5t-67.5 119.5t-23.5 152.5zM229 295q0 -121 50.5 -175t128.5 -54q82 0 145 53t106 133t66 174t23 174q0 129 -53.5 183.5t-133.5 54.5q-78 0 -139.5 -51.5t-104.5 -131.5t-65.5 -176t-22.5 -184z" />
<glyph unicode="&#xf1;" horiz-adv-x="1144" d="M33 633q63 143 128.5 222t151.5 79q61 0 95 -43t34 -125q0 -53 -13 -117.5t-32 -122.5l15 -6q98 205 202.5 311.5t208.5 106.5q78 0 124 -56.5t46 -148.5q0 -66 -23.5 -144.5t-53 -157.5t-53 -151.5t-23.5 -125.5q0 -18 8 -35t35 -17q37 0 74.5 60.5t76.5 167.5l72 -23 q-33 -96 -66.5 -158.5t-67.5 -99.5t-68 -52t-66 -15q-63 0 -106.5 45t-43.5 135q0 72 23.5 145.5t50 146t49.5 142.5t23 131q0 35 -15.5 59.5t-56.5 24.5q-43 0 -100.5 -43t-120 -139.5t-127 -251t-125.5 -377.5h-166l172 645q16 59 21.5 96t1 57.5t-14.5 28t-24 7.5 q-43 0 -86 -67t-91 -165zM414 1092q45 131 96 192.5t125 61.5q45 0 80 -19.5t62.5 -43t52 -43t51.5 -19.5q37 0 62.5 33.5t53.5 99.5h80q-43 -133 -95 -193.5t-126 -60.5q-45 0 -79 19.5t-61.5 43t-53 43t-52.5 19.5q-37 0 -62.5 -34t-53.5 -99h-80z" />
<glyph unicode="&#xf2;" horiz-adv-x="968" d="M70 360q0 115 40 219.5t107.5 184.5t156.5 127t187 47q80 0 143.5 -28.5t107.5 -79t66.5 -120t22.5 -151.5q0 -115 -40 -219t-107.5 -184t-156.5 -127t-187 -47q-82 0 -145.5 28.5t-106.5 78.5t-65.5 120t-22.5 151zM229 295q0 -121 50.5 -175t128.5 -54t139 56t104 140 t65.5 182.5t22.5 182.5q0 121 -50 175t-128 54t-139.5 -56.5t-104.5 -140.5t-65.5 -182t-22.5 -182zM430 1403q0 35 21.5 56.5t52.5 21.5q53 0 71.5 -45t30.5 -123l37 -234h-72l-82 166q-29 57 -44 93t-15 65z" />
<glyph unicode="&#xf3;" horiz-adv-x="968" d="M70 360q0 115 40 219.5t107.5 184.5t156.5 127t187 47q80 0 143.5 -28.5t107.5 -79t66.5 -120t22.5 -151.5q0 -115 -40 -219t-107.5 -184t-156.5 -127t-187 -47q-82 0 -145.5 28.5t-106.5 78.5t-65.5 120t-22.5 151zM229 295q0 -121 50.5 -175t128.5 -54t139 56t104 140 t65.5 182.5t22.5 182.5q0 121 -50 175t-128 54t-139.5 -56.5t-104.5 -140.5t-65.5 -182t-22.5 -182zM557 1079l166 258q49 78 80 111t69 33q31 0 51.5 -22.5t20.5 -51.5q0 -37 -26.5 -67.5t-90.5 -88.5l-188 -172h-82z" />
<glyph unicode="&#xf4;" horiz-adv-x="968" d="M70 360q0 115 40 219.5t107.5 184.5t156.5 127t187 47q80 0 143.5 -28.5t107.5 -79t66.5 -120t22.5 -151.5q0 -115 -40 -219t-107.5 -184t-156.5 -127t-187 -47q-82 0 -145.5 28.5t-106.5 78.5t-65.5 120t-22.5 151zM229 295q0 -121 50.5 -175t128.5 -54t139 56t104 140 t65.5 182.5t22.5 182.5q0 121 -50 175t-128 54t-139.5 -56.5t-104.5 -140.5t-65.5 -182t-22.5 -182zM352 1081l316 371h75l129 -371h-75l-121 209l-238 -209h-86z" />
<glyph unicode="&#xf5;" horiz-adv-x="968" d="M70 360q0 115 40 219.5t107.5 184.5t156.5 127t187 47q80 0 143.5 -28.5t107.5 -79t66.5 -120t22.5 -151.5q0 -115 -40 -219t-107.5 -184t-156.5 -127t-187 -47q-82 0 -145.5 28.5t-106.5 78.5t-65.5 120t-22.5 151zM229 295q0 -121 50.5 -175t128.5 -54t139 56t104 140 t65.5 182.5t22.5 182.5q0 121 -50 175t-128 54t-139.5 -56.5t-104.5 -140.5t-65.5 -182t-22.5 -182zM334 1092q45 131 96 192.5t125 61.5q45 0 80 -19.5t62.5 -43t52 -43t51.5 -19.5q37 0 62.5 33.5t54.5 99.5h79q-43 -133 -95 -193.5t-126 -60.5q-45 0 -78.5 19.5t-61.5 43 t-53.5 43t-52.5 19.5q-37 0 -62.5 -34t-53.5 -99h-80z" />
<glyph unicode="&#xf6;" horiz-adv-x="968" d="M70 360q0 115 40 219.5t107.5 184.5t156.5 127t187 47q80 0 143.5 -28.5t107.5 -79t66.5 -120t22.5 -151.5q0 -115 -40 -219t-107.5 -184t-156.5 -127t-187 -47q-82 0 -145.5 28.5t-106.5 78.5t-65.5 120t-22.5 151zM229 295q0 -121 50.5 -175t128.5 -54t139 56t104 140 t65.5 182.5t22.5 182.5q0 121 -50 175t-128 54t-139.5 -56.5t-104.5 -140.5t-65.5 -182t-22.5 -182zM381 1225q0 49 31.5 90t83.5 41q41 0 64.5 -26.5t23.5 -69.5q0 -49 -33 -91.5t-84 -42.5q-39 0 -62.5 27t-23.5 72zM735 1225q0 49 32 90t83 41q41 0 65.5 -26.5 t24.5 -69.5q0 -49 -33 -91.5t-86 -42.5q-39 0 -62.5 27t-23.5 72z" />
<glyph unicode="&#xf7;" horiz-adv-x="1048" d="M115 518l24 100h852l-22 -100h-854zM371 246q0 45 29.5 85t80.5 40q41 0 70 -30t29 -79q0 -45 -31 -84t-80 -39q-41 0 -69.5 30t-28.5 77zM526 874q0 45 31 84t80 39q41 0 69.5 -28.5t28.5 -77.5q0 -45 -29.5 -84t-80.5 -39q-41 0 -70 28.5t-29 77.5z" />
<glyph unicode="&#xf8;" horiz-adv-x="968" d="M-16 -29l143 158q-57 98 -57 231q0 115 40 219.5t107.5 184.5t156.5 127t187 47q72 0 128 -21.5t99 -62.5l140 152l59 -58l-145 -160q59 -94 59 -229q0 -115 -40 -219t-107.5 -184t-156.5 -127t-187 -47q-72 0 -130.5 21.5t-99.5 62.5l-137 -152zM227 272q0 -10 1 -19 t1 -20l484 539q-23 45 -62 64.5t-90 19.5q-82 0 -144.5 -59.5t-105.5 -147.5t-64.5 -189.5t-19.5 -187.5zM254 147q23 -45 62.5 -63t93.5 -18q82 0 144 59t105 147t63.5 189.5t18.5 185.5q0 10 -1 20.5t-3 20.5z" />
<glyph unicode="&#xf9;" horiz-adv-x="1136" d="M35 635q63 139 127.5 221t154.5 82q63 0 103.5 -45t40.5 -135q0 -68 -22.5 -141.5t-49.5 -147.5t-49.5 -142.5t-22.5 -127.5q0 -39 15.5 -63.5t56.5 -24.5q43 0 99.5 42t119 138t127 251.5t125.5 383.5h166l-158 -594q-16 -66 -23 -102.5t-7 -65.5q0 -23 10 -42.5 t39 -19.5q43 0 78.5 60.5t76.5 167.5l70 -23q-33 -96 -65.5 -158.5t-65.5 -99.5t-66.5 -52t-66.5 -15q-63 0 -103 40.5t-40 133.5q0 20 3 48.5t9 60.5t14 64.5t19 61.5l-15 6q-199 -416 -407 -415q-78 0 -124 55t-46 149q0 63 23.5 143.5t51 160t51 152.5t23.5 124 q0 18 -8 35.5t-31 17.5q-39 0 -74.5 -55t-89.5 -160zM469 1403q0 35 21.5 56.5t52.5 21.5q53 0 71.5 -45t30.5 -123l37 -234h-72l-82 166q-29 57 -44 93t-15 65z" />
<glyph unicode="&#xfa;" horiz-adv-x="1136" d="M35 635q63 139 127.5 221t154.5 82q63 0 103.5 -45t40.5 -135q0 -68 -22.5 -141.5t-49.5 -147.5t-49.5 -142.5t-22.5 -127.5q0 -39 15.5 -63.5t56.5 -24.5q43 0 99.5 42t119 138t127 251.5t125.5 383.5h166l-158 -594q-16 -66 -23 -102.5t-7 -65.5q0 -23 10 -42.5 t39 -19.5q43 0 78.5 60.5t76.5 167.5l70 -23q-33 -96 -65.5 -158.5t-65.5 -99.5t-66.5 -52t-66.5 -15q-63 0 -103 40.5t-40 133.5q0 20 3 48.5t9 60.5t14 64.5t19 61.5l-15 6q-199 -416 -407 -415q-78 0 -124 55t-46 149q0 63 23.5 143.5t51 160t51 152.5t23.5 124 q0 18 -8 35.5t-31 17.5q-39 0 -74.5 -55t-89.5 -160zM594 1079l166 258q49 78 79.5 111t69.5 33q31 0 51.5 -22.5t20.5 -51.5q0 -37 -26.5 -67.5t-90.5 -88.5l-188 -172h-82z" />
<glyph unicode="&#xfb;" horiz-adv-x="1136" d="M35 635q63 139 127.5 221t154.5 82q63 0 103.5 -45t40.5 -135q0 -68 -22.5 -141.5t-49.5 -147.5t-49.5 -142.5t-22.5 -127.5q0 -39 15.5 -63.5t56.5 -24.5q43 0 99.5 42t119 138t127 251.5t125.5 383.5h166l-158 -594q-16 -66 -23 -102.5t-7 -65.5q0 -23 10 -42.5 t39 -19.5q43 0 78.5 60.5t76.5 167.5l70 -23q-33 -96 -65.5 -158.5t-65.5 -99.5t-66.5 -52t-66.5 -15q-63 0 -103 40.5t-40 133.5q0 20 3 48.5t9 60.5t14 64.5t19 61.5l-15 6q-199 -416 -407 -415q-78 0 -124 55t-46 149q0 63 23.5 143.5t51 160t51 152.5t23.5 124 q0 18 -8 35.5t-31 17.5q-39 0 -74.5 -55t-89.5 -160zM391 1081l316 371h75l129 -371h-75l-121 209l-238 -209h-86z" />
<glyph unicode="&#xfc;" horiz-adv-x="1136" d="M35 635q63 139 127.5 221t154.5 82q63 0 103.5 -45t40.5 -135q0 -68 -22.5 -141.5t-49.5 -147.5t-49.5 -142.5t-22.5 -127.5q0 -39 15.5 -63.5t56.5 -24.5q43 0 99.5 42t119 138t127 251.5t125.5 383.5h166l-158 -594q-16 -66 -23 -102.5t-7 -65.5q0 -23 10 -42.5 t39 -19.5q43 0 78.5 60.5t76.5 167.5l70 -23q-33 -96 -65.5 -158.5t-65.5 -99.5t-66.5 -52t-66.5 -15q-63 0 -103 40.5t-40 133.5q0 20 3 48.5t9 60.5t14 64.5t19 61.5l-15 6q-199 -416 -407 -415q-78 0 -124 55t-46 149q0 63 23.5 143.5t51 160t51 152.5t23.5 124 q0 18 -8 35.5t-31 17.5q-39 0 -74.5 -55t-89.5 -160zM418 1225q0 49 31.5 90t82.5 41q41 0 65 -26.5t24 -69.5q0 -49 -33 -91.5t-84 -42.5q-39 0 -62.5 27t-23.5 72zM772 1225q0 49 32 90t83 41q41 0 65.5 -26.5t24.5 -69.5q0 -49 -33 -91.5t-86 -42.5q-39 0 -62.5 27 t-23.5 72z" />
<glyph unicode="&#xfd;" d="M37 635q66 141 130 222t152 81q63 0 103.5 -45t40.5 -131q0 -68 -20.5 -135.5t-45 -132t-44 -124t-19.5 -110.5q0 -39 17.5 -63.5t64.5 -24.5q45 0 102 35t118.5 121t122 231.5t111.5 366.5h156l-166 -705q-35 -152 -86 -257t-116.5 -170.5t-146.5 -96.5t-175 -31 q-47 0 -93 8.5t-85 27.5t-62.5 51t-23.5 79q0 45 30.5 86t83.5 41q47 0 71 -27.5t22 -68.5q-2 -23 -13.5 -46.5t-32.5 -39.5q20 -12 48 -18.5t59 -6.5q137 0 233.5 122t155.5 405l16 77l-12 6q-98 -168 -192.5 -243.5t-182.5 -75.5q-84 0 -134 54.5t-50 146.5 q0 57 21.5 127.5t46 141.5t46 137.5t21.5 115.5q0 18 -7 34.5t-30 16.5q-41 0 -80.5 -61.5t-85.5 -153.5zM606 1079l166 258q49 78 80 111t70 33q31 0 51 -22.5t20 -51.5q0 -37 -26.5 -67.5t-89.5 -88.5l-189 -172h-82z" />
<glyph unicode="&#xfe;" horiz-adv-x="989" d="M-186 -307l28 106h150l381 1497h-191l29 111h346l-186 -668l14 -6q66 98 138.5 151.5t152.5 53.5q111 0 178.5 -84t67.5 -227q0 -125 -41 -239t-107.5 -201t-151.5 -138t-173 -51q-74 0 -133.5 38t-82.5 105l-86 -342h203l-28 -106h-508zM274 281q0 -76 38 -133.5 t124 -57.5q74 0 133.5 55.5t101.5 137.5t65.5 176t23.5 170q0 98 -34.5 146t-100.5 48q-68 0 -131.5 -56t-111.5 -139t-78 -177.5t-30 -169.5z" />
<glyph unicode="&#xff;" d="M37 635q66 141 130 222t152 81q63 0 103.5 -45t40.5 -131q0 -68 -20.5 -135.5t-45 -132t-44 -124t-19.5 -110.5q0 -39 17.5 -63.5t64.5 -24.5q45 0 102 35t118.5 121t122 231.5t111.5 366.5h156l-166 -705q-35 -152 -86 -257t-116.5 -170.5t-146.5 -96.5t-175 -31 q-47 0 -93 8.5t-85 27.5t-62.5 51t-23.5 79q0 45 30.5 86t83.5 41q47 0 71 -27.5t22 -68.5q-2 -23 -13.5 -46.5t-32.5 -39.5q20 -12 48 -18.5t59 -6.5q137 0 233.5 122t155.5 405l16 77l-12 6q-98 -168 -192.5 -243.5t-182.5 -75.5q-84 0 -134 54.5t-50 146.5 q0 57 21.5 127.5t46 141.5t46 137.5t21.5 115.5q0 18 -7 34.5t-30 16.5q-41 0 -80.5 -61.5t-85.5 -153.5zM430 1225q0 49 32 90t83 41q41 0 64.5 -26.5t23.5 -69.5q0 -49 -33 -91.5t-84 -42.5q-39 0 -62.5 27t-23.5 72zM784 1225q0 49 32 90t83 41q41 0 65.5 -26.5 t24.5 -69.5q0 -49 -32.5 -91.5t-86.5 -42.5q-39 0 -62.5 27t-23.5 72z" />
<glyph unicode="&#x152;" horiz-adv-x="2000" d="M127 512q0 154 61.5 308.5t184.5 275.5q111 109 272.5 174t405.5 65h1020l-105 -417h-80q4 102 3 164.5t-14 95t-42 43t-80 10.5h-428l-123 -498h176q45 0 75 6t53.5 27.5t43 61.5t47.5 110h86l-127 -510h-81q6 72 7 115t-10.5 64.5t-36 27.5t-69.5 6h-186l-136 -535h424 q57 0 95.5 12.5t71 50.5t67.5 107.5t84 182.5h84l-115 -459h-1018q-154 0 -268.5 38t-190 106.5t-113.5 162.5t-38 205zM317 475q0 -180 105.5 -274.5t329.5 -94.5h118l281 1125h-98q-168 0 -292 -38t-216 -130q-53 -53 -95 -121t-71 -144.5t-45.5 -159.5t-16.5 -163z" />
<glyph unicode="&#x153;" horiz-adv-x="1523" d="M70 360q0 115 40 219.5t107.5 184.5t156.5 127t187 47q117 0 191.5 -59.5t109.5 -157.5q74 98 177.5 157.5t213.5 59.5q111 0 169.5 -54.5t58.5 -133.5q0 -135 -149.5 -236.5t-467.5 -136.5q-4 -16 -4 -30.5v-29.5q0 -125 53.5 -182t139.5 -57t160.5 54t142.5 153l63 -41 q-37 -55 -79 -103.5t-91 -84.5t-106.5 -55t-124.5 -19q-102 0 -173 49t-100 139q-63 -90 -151 -139t-188 -49q-80 0 -142.5 28.5t-105.5 78.5t-65.5 120t-22.5 151zM229 295q0 -121 50.5 -175t128.5 -54t139 56t104 140t65.5 182.5t22.5 182.5q0 121 -50 175t-128 54 t-139.5 -56.5t-104.5 -140.5t-65.5 -182t-22.5 -182zM879 453q131 18 218 47.5t139 68.5t74.5 84t22.5 92q0 49 -28.5 80t-81.5 31q-61 0 -116.5 -36t-99.5 -94t-77 -130t-51 -143z" />
<glyph unicode="&#x178;" horiz-adv-x="1306" d="M236 1231l26 104h539l-27 -104h-186l157 -561l453 561h-166l25 104h452l-24 -104h-154l-565 -680l-115 -445h211l-26 -106h-586l24 106h203l121 472l-197 653h-165zM682 1655q0 49 31.5 90t83.5 41q41 0 64.5 -26.5t23.5 -69.5q0 -49 -33 -91.5t-84 -42.5q-39 0 -62.5 27 t-23.5 72zM1036 1655q0 49 32 90t83 41q41 0 65.5 -26.5t24.5 -69.5q0 -49 -32.5 -91.5t-86.5 -42.5q-39 0 -62.5 27t-23.5 72z" />
<glyph unicode="&#x2c6;" horiz-adv-x="612" d="M209 1081l315 371h76l129 -371h-76l-121 209l-237 -209h-86z" />
<glyph unicode="&#x2dc;" horiz-adv-x="677" d="M203 1092q45 131 96 192.5t125 61.5q45 0 80 -19.5t62.5 -43t52 -43t51.5 -19.5q37 0 62.5 33.5t53.5 99.5h80q-43 -133 -95 -193.5t-126 -60.5q-45 0 -79 19.5t-61.5 43t-53 43t-52.5 19.5q-37 0 -62.5 -34t-53.5 -99h-80z" />
<glyph unicode="&#x2000;" horiz-adv-x="955" />
<glyph unicode="&#x2001;" horiz-adv-x="1911" />
<glyph unicode="&#x2002;" horiz-adv-x="955" />
<glyph unicode="&#x2003;" horiz-adv-x="1911" />
<glyph unicode="&#x2004;" horiz-adv-x="637" />
<glyph unicode="&#x2005;" horiz-adv-x="477" />
<glyph unicode="&#x2006;" horiz-adv-x="318" />
<glyph unicode="&#x2007;" horiz-adv-x="318" />
<glyph unicode="&#x2008;" horiz-adv-x="238" />
<glyph unicode="&#x2009;" horiz-adv-x="382" />
<glyph unicode="&#x200a;" horiz-adv-x="106" />
<glyph unicode="&#x2010;" horiz-adv-x="745" d="M106 430l33 133h520l-34 -133h-519z" />
<glyph unicode="&#x2011;" horiz-adv-x="745" d="M106 430l33 133h520l-34 -133h-519z" />
<glyph unicode="&#x2012;" horiz-adv-x="745" d="M106 430l33 133h520l-34 -133h-519z" />
<glyph unicode="&#x2013;" horiz-adv-x="1105" d="M106 432l29 117h881l-29 -117h-881z" />
<glyph unicode="&#x2014;" horiz-adv-x="1617" d="M106 432l29 117h1393l-29 -117h-1393z" />
<glyph unicode="&#x2018;" horiz-adv-x="438" d="M227 1026q0 45 18.5 94t59.5 95.5t107.5 87t165.5 71.5l18 -67q-121 -43 -179.5 -95.5t-76.5 -105.5l6 -6q16 10 35 10q35 0 59.5 -22.5t24.5 -69.5q0 -45 -31 -87t-86 -42q-61 0 -91 40t-30 97z" />
<glyph unicode="&#x2019;" horiz-adv-x="438" d="M170 948q121 43 179.5 95.5t76.5 105.5l-6 6q-16 -10 -35 -10q-35 0 -59.5 23.5t-24.5 68.5t30.5 87t88.5 42q59 0 89 -40t30 -97q0 -47 -18.5 -95.5t-59.5 -94.5t-107.5 -87t-163.5 -69z" />
<glyph unicode="&#x201a;" horiz-adv-x="438" d="M-121 -213q121 43 179.5 95t76.5 106l-6 6q-16 -10 -35 -10q-35 0 -59.5 23.5t-24.5 68.5t31 87t88 42q59 0 89 -40t30 -97q0 -47 -18.5 -95.5t-59.5 -94.5t-107.5 -87t-162.5 -70z" />
<glyph unicode="&#x201c;" horiz-adv-x="798" d="M227 1026q0 45 18.5 94t59.5 95.5t107.5 87t165.5 71.5l18 -67q-121 -43 -179.5 -95.5t-76.5 -105.5l6 -6q16 10 35 10q35 0 59.5 -22.5t24.5 -69.5q0 -45 -31 -87t-86 -42q-61 0 -91 40t-30 97zM588 1026q0 45 18.5 94t59.5 95.5t107.5 87t164.5 71.5l18 -67 q-121 -43 -179 -95.5t-77 -105.5l7 -6q16 10 34 10q35 0 59.5 -22.5t24.5 -69.5q0 -45 -30.5 -87t-85.5 -42q-61 0 -91 40t-30 97z" />
<glyph unicode="&#x201d;" horiz-adv-x="798" d="M170 948q121 43 179.5 95.5t76.5 105.5l-6 6q-16 -10 -35 -10q-35 0 -59.5 23.5t-24.5 68.5t30.5 87t88.5 42q59 0 89 -40t30 -97q0 -47 -18.5 -95.5t-59.5 -94.5t-107.5 -87t-163.5 -69zM530 948q121 43 179.5 95.5t76.5 105.5l-6 6q-16 -10 -35 -10q-35 0 -59 23.5 t-24 68.5t31.5 87t86.5 42q59 0 89 -40t30 -97q0 -47 -18.5 -95.5t-59.5 -94.5t-107.5 -87t-162.5 -69z" />
<glyph unicode="&#x201e;" horiz-adv-x="798" d="M-121 -213q121 43 179.5 95t76.5 106l-6 6q-16 -10 -35 -10q-35 0 -59.5 23.5t-24.5 68.5t31 87t88 42q59 0 89 -40t30 -97q0 -47 -18.5 -95.5t-59.5 -94.5t-107.5 -87t-162.5 -70zM240 -213q121 43 179 95t77 106l-7 6q-16 -10 -34 -10q-35 0 -59.5 23.5t-24.5 68.5 t31.5 87t86.5 42q59 0 89 -40t30 -97q0 -47 -18.5 -95.5t-59.5 -94.5t-107.5 -87t-162.5 -70z" />
<glyph unicode="&#x2022;" horiz-adv-x="931" d="M274 618q0 55 21.5 106.5t58.5 89.5t85 60.5t104 22.5q94 0 156.5 -62.5t62.5 -160.5q0 -55 -21.5 -106.5t-58.5 -89.5t-85 -60.5t-103 -22.5q-94 0 -157 62.5t-63 160.5z" />
<glyph unicode="&#x2026;" horiz-adv-x="1296" d="M23 82q0 47 30.5 88t83.5 41q45 0 75 -30.5t30 -82.5q0 -47 -32 -88t-85 -41q-43 0 -72.5 31t-29.5 82zM451 82q0 47 30.5 88t83.5 41q45 0 75 -30.5t30 -82.5q0 -47 -32 -88t-85 -41q-43 0 -72.5 31t-29.5 82zM879 82q0 47 30.5 88t83.5 41q45 0 75 -30.5t30 -82.5 q0 -47 -32 -88t-85 -41q-43 0 -72.5 31t-29.5 82z" />
<glyph unicode="&#x202f;" horiz-adv-x="382" />
<glyph unicode="&#x2039;" horiz-adv-x="610" d="M86 461q0 16 15.5 33.5t62.5 56.5l381 303l51 -51l-346 -352l172 -345l-72 -40l-227 321q-20 29 -28.5 44t-8.5 30z" />
<glyph unicode="&#x203a;" horiz-adv-x="610" d="M12 115l346 352l-172 344l72 41l227 -322q20 -29 28.5 -44t8.5 -29q0 -16 -15 -33.5t-63 -56.5l-381 -304z" />
<glyph unicode="&#x205f;" horiz-adv-x="477" />
<glyph unicode="&#x20ac;" horiz-adv-x="1310" d="M72 451l22 96h176q8 88 31 172h-166l23 96h174q43 111 108.5 203t147.5 158.5t177 103.5t198 37q88 0 156.5 -24.5t116.5 -64.5t73.5 -91.5t25.5 -106.5q0 -66 -37.5 -116t-99.5 -50q-51 0 -81 30t-30 77q0 43 25 82t70 61q-37 55 -96.5 77.5t-118.5 22.5 q-86 0 -159 -31.5t-131.5 -87t-102.5 -128t-72 -152.5h418l-25 -96h-422q-23 -90 -29 -172h410l-23 -96h-389q8 -174 89 -265.5t217 -91.5q115 0 205.5 75t152.5 216l90 -33q-29 -80 -75 -150.5t-107.5 -122.5t-138 -82t-164.5 -30q-102 0 -183.5 34t-137.5 96.5t-88 152.5 t-34 201h-196z" />
<glyph unicode="&#x2122;" horiz-adv-x="1665" d="M256 1112l57 223h568l-58 -223h-45q2 53 1 86t-8 51.5t-23.5 24.5t-42.5 6h-70l-123 -487h117l-17 -60h-338l15 60h117l122 487h-67q-29 0 -46.5 -6t-33.5 -24.5t-33.5 -51.5t-42.5 -86h-49zM815 733l14 60h93l118 485h-90l17 57h252l41 -463h8l274 463h260l-16 -57h-92 l-121 -485h92l-14 -60h-271l15 60h71l117 460h-18l-318 -520h-69l-52 520h-22l-113 -460h76l-14 -60h-238z" />
<glyph unicode="&#xe000;" horiz-adv-x="942" d="M0 0v942h942v-942h-942z" />
<glyph unicode="&#xfb01;" horiz-adv-x="1112" d="M-188 -221q0 45 28.5 80t75.5 35q41 0 61.5 -26t20.5 -54q0 -47 -27 -78q27 0 47.5 13t39 51t38 109t43.5 187l150 719h-199l25 90h192l4 15q66 231 179.5 364t285.5 133q131 0 201 -57t70 -135q0 -49 -31 -93.5t-86 -44.5q-39 0 -64.5 24t-25.5 69q0 29 12 61.5t41 56.5 q-16 16 -49 27.5t-74 11.5q-115 0 -180.5 -92t-114.5 -297l-10 -43h506l-156 -573q-16 -61 -23.5 -100t-7.5 -68q0 -23 10.5 -42.5t39.5 -19.5q41 0 77.5 56.5t77.5 171.5l70 -23q-33 -96 -64.5 -158.5t-65.5 -99.5t-69 -52t-72 -15q-74 0 -114.5 46t-40.5 128 q0 43 12 105.5t37 154.5l109 399h-345l-139 -661q-29 -139 -68.5 -233.5t-86 -151t-97.5 -80t-104 -23.5q-72 0 -105.5 34t-33.5 79z" />
<glyph unicode="&#xfb02;" horiz-adv-x="1110" d="M-188 -221q0 45 28.5 80t75.5 35q41 0 61.5 -26t20.5 -54q0 -47 -27 -78q27 0 47.5 13t39 51t38 109t43.5 187l150 719h-199l25 90h192l6 23q61 225 170 357t273 132q47 0 85 -9t66 -26l211 35l-293 -1085q-16 -61 -24 -99t-8 -67q0 -23 10 -43.5t41 -20.5 q41 0 76.5 56.5t76.5 171.5l72 -23q-33 -96 -65.5 -158.5t-65.5 -99.5t-67.5 -52t-71.5 -15q-76 0 -117 46t-41 128q0 43 13.5 105.5t37.5 154.5l107 399h-353l-139 -661q-29 -139 -68.5 -233.5t-86 -151t-97.5 -80t-104 -23.5q-72 0 -105.5 34t-33.5 79zM465 905h358 l58 215q-37 2 -59.5 25.5t-22.5 64.5q0 27 11 52.5t30 46.5q-8 8 -33 18t-59 10q-53 0 -93.5 -22.5t-72 -70.5t-57 -124t-52.5 -182z" />
<glyph unicode="&#xfb03;" horiz-adv-x="1642" d="M-188 -221q0 45 28.5 80t75.5 35q41 0 61.5 -26t20.5 -54q0 -47 -27 -78q27 0 47.5 13t39 51t38 109t43.5 187l152 719h-201l25 90h194l4 19q57 258 177 375.5t270 117.5q55 0 98 -13t73 -33.5t47 -47.5t23 -51q123 145 306 145q131 0 200.5 -57t69.5 -135 q0 -49 -30.5 -93.5t-86.5 -44.5q-39 0 -64.5 24t-25.5 69q0 29 12.5 61.5t40.5 56.5q-16 16 -49 27.5t-74 11.5q-115 0 -180 -92t-114 -297l-11 -43h506l-155 -573q-16 -61 -23.5 -100t-7.5 -68q0 -23 10 -42.5t39 -19.5q41 0 78 56.5t78 171.5l71 -23q-33 -96 -65.5 -158.5 t-66.5 -99.5t-68.5 -52t-71.5 -15q-74 0 -115 46t-41 128q0 43 11.5 105.5t37.5 154.5l111 399h-346l-137 -661q-29 -139 -69 -233.5t-86 -151t-98 -80t-106 -23.5q-72 0 -105.5 34t-33.5 79t28.5 80t75.5 35q41 0 61.5 -26t20.5 -54q0 -47 -26 -78q27 0 47 13t38.5 51 t38 109t44.5 187l151 719h-375l-139 -661q-29 -139 -68.5 -233.5t-86 -151t-97.5 -80t-104 -23.5q-72 0 -105.5 34t-33.5 79zM467 905h373l4 15q16 53 29.5 104t33.5 96h-10q-39 0 -62.5 23.5t-23.5 66.5q0 27 11.5 52.5t29.5 46.5q-8 8 -33.5 18t-62.5 10 q-113 0 -176.5 -94t-106.5 -307z" />
<glyph unicode="&#xfb04;" horiz-adv-x="1642" d="M-188 -221q0 45 28.5 80t75.5 35q41 0 61.5 -26t20.5 -54q0 -47 -27 -78q27 0 47.5 13t39 51t38 109t43.5 187l152 719h-201l25 90h194l4 19q57 258 177 375.5t270 117.5q115 0 173 -45t68 -94q117 139 287 139q47 0 85 -9t67 -26l209 35l-293 -1085q-16 -61 -23.5 -99 t-7.5 -67q0 -23 10.5 -43.5t38.5 -20.5q41 0 78 56.5t78 171.5l72 -23q-33 -96 -66 -158.5t-66.5 -99.5t-67.5 -52t-71 -15q-76 0 -116.5 46t-40.5 128q0 43 13 105.5t38 154.5l106 399h-354l-137 -661q-29 -139 -69 -233.5t-86 -151t-98.5 -80t-105.5 -23.5 q-72 0 -105.5 34t-33.5 79t28.5 80t75.5 35q43 0 62.5 -26t19.5 -54q0 -47 -26 -78q27 0 48 13t39.5 51t38 109t44.5 187l149 719h-375l-139 -661q-29 -139 -68.5 -233.5t-86 -151t-97.5 -80t-104 -23.5q-72 0 -105.5 34t-33.5 79zM467 905h373l6 23q14 51 27.5 100t31.5 92 h-8q-39 0 -62.5 23.5t-23.5 66.5q0 27 11.5 52.5t29.5 46.5q-8 8 -33.5 18t-62.5 10q-113 0 -176.5 -94t-106.5 -307zM995 905h361l57 215q-37 2 -60.5 25.5t-23.5 64.5q0 27 12.5 52.5t28.5 46.5q-6 8 -30.5 18t-61.5 10q-53 0 -92 -22.5t-71 -70.5t-58.5 -124t-52.5 -182z " />
</font>
</defs>
</svg>
